<?xml version="1.0" encoding="UTF-8" standalone="no"?>
<svg
   xmlns:dc="http://purl.org/dc/elements/1.1/"
   xmlns:cc="http://creativecommons.org/ns#"
   xmlns:rdf="http://www.w3.org/1999/02/22-rdf-syntax-ns#"
   xmlns:svg="http://www.w3.org/2000/svg"
   xmlns="http://www.w3.org/2000/svg"
   xmlns:sodipodi="http://sodipodi.sourceforge.net/DTD/sodipodi-0.dtd"
   xmlns:inkscape="http://www.inkscape.org/namespaces/inkscape"
   inkscape:version="1.0 (4035a4fb49, 2020-05-01)"
   sodipodi:docname="aig.svg"
   viewBox="0 0 358.04044 193.62238"
   height="193.62238"
   width="358.04044"
   version="1.1"
   id="svg">
  <metadata
     id="metadata10">
    <rdf:RDF>
      <cc:Work
         rdf:about="">
        <dc:format>image/svg+xml</dc:format>
        <dc:type
           rdf:resource="http://purl.org/dc/dcmitype/StillImage" />
        <dc:title></dc:title>
      </cc:Work>
    </rdf:RDF>
  </metadata>
  <defs
     id="defs8" />
  <sodipodi:namedview
     inkscape:current-layer="svgg"
     inkscape:window-maximized="1"
     inkscape:window-y="441"
     inkscape:window-x="1609"
     inkscape:cy="194.3"
     inkscape:cx="194.84425"
     inkscape:zoom="2"
     fit-margin-bottom="0"
     fit-margin-right="0"
     fit-margin-left="0"
     fit-margin-top="0"
     showgrid="false"
     id="namedview6"
     inkscape:window-height="2066"
     inkscape:window-width="5160"
     inkscape:pageshadow="2"
     inkscape:pageopacity="0"
     guidetolerance="10"
     gridtolerance="10"
     objecttolerance="10"
     borderopacity="1"
     bordercolor="#666666"
     pagecolor="#ffffff" />
  <g
     transform="translate(-5.15575,-5.7)"
     id="svgg">
    <path
       fill-rule="evenodd"
       fill="#21286b"
       stroke="none"
       d="m 5.68,6.18 c -0.699,0.699 -0.699,191.941 0,192.64 0.608,0.608 355.758,0.696 356.72,0.088 0.924,-0.584 1.115,-190.868 0.193,-192.274 L 361.982,5.7 H 184.071 C 46.229,5.7 6.052,5.808 5.68,6.18 m 342.306,15.494 c 0.917,1.713 0.537,161.103 -0.386,162.026 -0.924,0.924 -325.106,1.306 -326.826,0.386 C 20.003,183.674 19.48,23.52 20.243,21.533 c 0.42,-1.096 327.156,-0.955 327.743,0.141 M 259.6,46.528 c -2.53,0.136 -5.097,0.452 -5.705,0.702 -0.608,0.25 -2.212,0.632 -3.564,0.85 -2.856,0.46 -9.391,2.902 -11.931,4.458 -0.33,0.202 -1.05,0.588 -1.6,0.856 -7.09,3.463 -18.443,14.816 -21.906,21.906 -0.268,0.55 -0.654,1.27 -0.856,1.6 -1.338,2.185 -3.365,7.522 -4.101,10.8 -0.222,0.99 -0.704,3.15 -1.071,4.8 -2.031,9.147 -0.249,24.422 3.898,33.399 0.407,0.88 0.854,1.871 0.994,2.201 0.14,0.33 0.788,1.41 1.44,2.4 0.652,0.99 1.358,2.186 1.568,2.658 0.21,0.471 1.53,2.271 2.932,4 5.87,7.233 13.002,13.18 19.102,15.93 0.77,0.347 1.67,0.808 2,1.024 0.723,0.474 0.904,0.547 3.2,1.303 0.99,0.326 2.34,0.777 3,1.002 9.436,3.219 24.603,3.058 33.608,-0.356 1.104,-0.418 2.15,-0.761 2.325,-0.761 0.845,0 6.067,-2.84 9.423,-5.124 7.042,-4.794 13.282,-11.768 16.442,-18.377 0.5,-1.045 1.178,-2.439 1.508,-3.099 3.126,-6.257 5.252,-26.882 2.894,-28.08 -1.644,-0.835 -41.509,-0.74 -42.711,0.103 -1.008,0.706 -1.424,14.199 -0.455,14.798 0.238,0.147 5.418,0.239 11.511,0.205 15.65,-0.09 15.476,-0.14 14.25,4.104 -2.213,7.662 -8.928,16.043 -15.264,19.052 -0.917,0.436 -1.774,0.964 -1.904,1.174 -0.13,0.211 -0.816,0.51 -1.526,0.666 -0.709,0.155 -1.652,0.514 -2.095,0.797 -3.569,2.278 -17.221,2.23 -22.806,-0.08 -3.459,-1.43 -6.874,-3.152 -8.4,-4.234 -0.88,-0.624 -2.32,-1.605 -3.2,-2.18 -3.585,-2.342 -11.4,-11.304 -11.4,-13.073 0,-0.214 -0.236,-0.673 -0.526,-1.021 -3.282,-3.944 -5.31,-18.959 -3.518,-26.047 0.464,-1.835 0.844,-3.71 0.844,-4.166 0,-0.456 0.336,-1.457 0.747,-2.224 0.41,-0.767 0.872,-1.967 1.025,-2.666 0.154,-0.7 0.538,-1.487 0.854,-1.749 0.316,-0.262 0.574,-0.689 0.574,-0.948 0,-3.369 11.573,-14.503 18.4,-17.702 8.914,-4.177 22.786,-4.961 29.826,-1.686 0.895,0.417 1.858,0.757 2.14,0.757 0.818,0 7.163,3.866 9.376,5.714 2.122,1.77 3.1,2.724 6.59,6.425 2.656,2.817 1.996,2.987 7.11,-1.839 2.389,-2.255 4.773,-4.5 5.297,-4.989 1.413,-1.316 0.924,-2.4 -2.733,-6.057 C 291.805,50.354 278.92,45.487 259.6,46.528 M 94.96,48.406 c -0.531,0.355 -4.115,7.804 -10.629,22.094 -0.652,1.43 -1.354,2.87 -1.561,3.2 -0.206,0.33 -0.484,0.87 -0.616,1.2 -0.133,0.33 -0.672,1.545 -1.198,2.7 -0.526,1.155 -1.422,3.135 -1.991,4.4 -0.57,1.265 -1.201,2.57 -1.403,2.9 -0.202,0.33 -0.478,0.87 -0.614,1.2 -0.136,0.33 -0.783,1.77 -1.438,3.2 -0.655,1.43 -1.561,3.41 -2.014,4.4 -0.452,0.99 -1.002,2.16 -1.222,2.6 -0.219,0.44 -0.521,1.07 -0.671,1.4 -0.149,0.33 -0.733,1.59 -1.296,2.8 -0.563,1.21 -1.222,2.65 -1.463,3.2 -0.241,0.55 -0.591,1.27 -0.778,1.6 -0.187,0.33 -0.71,1.41 -1.163,2.4 -1.953,4.275 -3.52,7.647 -5.206,11.2 -2.033,4.285 -3.81,8.089 -5.7,12.2 -0.708,1.54 -2.01,4.33 -2.893,6.2 -0.883,1.87 -2.048,4.39 -2.59,5.6 -0.542,1.21 -1.177,2.56 -1.412,3 -0.235,0.44 -0.554,1.07 -0.71,1.4 -1.985,4.207 -2.393,5.132 -2.401,5.44 -0.005,0.198 -0.361,0.81 -0.791,1.36 -1.044,1.335 -1.006,2.334 0.1,2.606 2.151,0.528 16.405,0.012 16.712,-0.606 0.164,-0.33 0.749,-1.59 1.3,-2.8 0.551,-1.21 1.76,-3.82 2.688,-5.8 1.632,-3.483 2.594,-5.57 4.703,-10.2 0.551,-1.21 1.486,-3.19 2.077,-4.4 l 1.074,-2.2 H 97.027 120.2 l 1.067,2.2 c 0.586,1.21 1.547,3.28 2.135,4.6 0.588,1.32 1.414,3.12 1.835,4 0.421,0.88 0.765,1.762 0.764,1.96 -0.001,0.198 0.471,1.368 1.049,2.6 0.577,1.232 1.365,2.96 1.749,3.84 0.385,0.88 1.262,2.819 1.95,4.308 l 1.251,2.708 8.5,-0.108 8.5,-0.108 0.12,-1.034 c 0.067,-0.576 -0.155,-1.263 -0.5,-1.549 -0.341,-0.283 -0.62,-0.783 -0.62,-1.112 0,-0.328 -0.342,-1.251 -0.759,-2.051 -0.418,-0.799 -1.246,-2.534 -1.841,-3.854 -1.295,-2.872 -2.81,-6.209 -3.816,-8.4 -0.403,-0.88 -1.125,-2.5 -1.603,-3.6 -0.478,-1.1 -1.283,-2.9 -1.79,-4 -0.506,-1.1 -1.319,-2.9 -1.806,-4 -0.486,-1.1 -1.38,-3.08 -1.985,-4.4 -0.605,-1.32 -1.494,-3.3 -1.975,-4.4 -0.481,-1.1 -1.206,-2.72 -1.609,-3.6 -0.404,-0.88 -1.217,-2.68 -1.807,-4 -0.59,-1.32 -1.4,-3.12 -1.8,-4 -2.711,-5.962 -4.078,-8.992 -5.236,-11.6 -1.09,-2.457 -2.671,-5.977 -3.729,-8.3 -0.526,-1.155 -1.352,-3 -1.835,-4.1 -0.484,-1.1 -1.294,-2.9 -1.8,-4 -0.507,-1.1 -1.32,-2.9 -1.807,-4 -0.487,-1.1 -1.21,-2.72 -1.608,-3.6 -0.397,-0.88 -1.169,-2.59 -1.715,-3.8 -0.546,-1.21 -1.732,-3.744 -2.636,-5.63 -0.903,-1.887 -1.643,-3.579 -1.643,-3.76 0,-0.182 -0.435,-1.248 -0.967,-2.37 -0.531,-1.122 -1.476,-3.155 -2.1,-4.517 -0.705,-1.542 -1.435,-2.56 -1.933,-2.695 -1.168,-0.317 -4.728,-0.264 -5.24,0.078 m 72.469,0.323 c -0.771,0.77 -0.981,105.965 -0.215,107.397 0.418,0.781 13.522,1.234 15.353,0.531 0.835,-0.32 0.986,-107.244 0.153,-108.077 -0.796,-0.796 -14.48,-0.663 -15.291,0.149 M 98.325,80.516 c 0.481,0.448 0.875,1.021 0.875,1.273 0,0.453 0.309,1.172 2.749,6.386 0.688,1.471 1.251,2.875 1.251,3.121 0,0.245 0.338,1.111 0.751,1.925 1.212,2.386 2.29,4.774 4.459,9.879 1.121,2.64 2.358,5.43 2.748,6.2 1.064,2.101 1.781,4.66 1.507,5.375 -0.217,0.567 -1.882,0.623 -15.554,0.53 L 81.8,115.1 l 0.048,-1.526 c 0.026,-0.84 0.502,-2.46 1.057,-3.6 0.554,-1.141 1.757,-3.694 2.671,-5.674 0.915,-1.98 1.996,-4.32 2.403,-5.2 1.262,-2.73 3.081,-6.709 4.021,-8.8 0.494,-1.1 1.587,-3.44 2.428,-5.2 0.841,-1.76 1.714,-3.695 1.94,-4.3 0.493,-1.315 0.802,-1.36 1.957,-0.284"
       id="path0" />
  </g>
</svg>
