<?xml version="1.0" encoding="UTF-8" standalone="no"?>
<svg
   xmlns:dc="http://purl.org/dc/elements/1.1/"
   xmlns:cc="http://creativecommons.org/ns#"
   xmlns:rdf="http://www.w3.org/1999/02/22-rdf-syntax-ns#"
   xmlns:svg="http://www.w3.org/2000/svg"
   xmlns="http://www.w3.org/2000/svg"
   xmlns:sodipodi="http://sodipodi.sourceforge.net/DTD/sodipodi-0.dtd"
   xmlns:inkscape="http://www.inkscape.org/namespaces/inkscape"
   inkscape:version="1.0 (4035a4fb49, 2020-05-01)"
   sodipodi:docname="audi.svg"
   id="svg10"
   version="1.1"
   viewBox="0 0 175.74799 60.822"
   height="788.84705"
   width="2279.4102">
  <metadata
     id="metadata16">
    <rdf:RDF>
      <cc:Work
         rdf:about="">
        <dc:format>image/svg+xml</dc:format>
        <dc:type
           rdf:resource="http://purl.org/dc/dcmitype/StillImage" />
      </cc:Work>
    </rdf:RDF>
  </metadata>
  <defs
     id="defs14" />
  <sodipodi:namedview
     inkscape:current-layer="g8"
     inkscape:window-maximized="1"
     inkscape:window-y="441"
     inkscape:window-x="1609"
     inkscape:cy="394.42352"
     inkscape:cx="1139.7181"
     inkscape:zoom="0.32"
     showgrid="false"
     id="namedview12"
     inkscape:window-height="2066"
     inkscape:window-width="5160"
     inkscape:pageshadow="2"
     inkscape:pageopacity="0"
     guidetolerance="10"
     gridtolerance="10"
     objecttolerance="10"
     borderopacity="1"
     bordercolor="#666666"
     pagecolor="#ffffff" />
  <g
     transform="translate(-8.503,-65.967)"
     id="g8"
     clip-rule="evenodd"
     fill-rule="evenodd">
    <path
       id="path4"
       d="m 57.966,119.857 c -5.456,4.301 -11.896,6.803 -18.891,6.803 -16.067,0 -30.572,-13.264 -30.572,-29.586 0,-8.366 3.145,-16.581 9.114,-22.485 5.37,-5.284 12.879,-8.622 20.431,-8.622 7.359,0 14.355,2.054 19.981,6.846 5.284,-4.386 12.152,-6.803 19.041,-6.803 7.082,0 13.884,2.374 19.318,6.91 5.412,-4.707 12.301,-6.846 19.404,-6.846 6.953,0 13.605,2.482 18.998,6.825 5.775,-4.515 12.707,-6.803 20.066,-6.803 6.568,0 13.242,2.717 18.291,6.867 6.953,5.691 11.104,14.398 11.104,23.383 0,16.688 -13.414,30.443 -30.164,30.443 -7.104,0 -13.928,-2.225 -19.318,-6.889 -5.35,4.215 -12.066,6.867 -18.934,6.867 -7.168,0 -14.035,-2.182 -19.511,-6.889 -5.498,4.322 -12.237,6.824 -19.254,6.824 -6.995,0.001 -13.82,-2.202 -19.104,-6.845 z" />
    <path
       id="path6"
       fill="#ffffff"
       d="m 51.291,112.221 c -2.696,-4.494 -4.407,-9.713 -4.407,-14.977 0,-6.054 1.391,-11.638 4.471,-16.858 -3.937,-2.717 -8.472,-4.343 -13.307,-4.343 -11.125,0 -19.446,10.312 -19.446,20.966 0,10.867 9.927,19.51 20.474,19.51 4.471,10e-4 8.685,-1.624 12.215,-4.298 z m 6.653,-9.5 c 0.813,-2.117 1.091,-4.342 1.091,-6.609 0,-2.14 -0.407,-4.237 -1.048,-6.269 -0.642,1.99 -1.027,4.043 -1.027,6.14 0,2.31 0.279,4.556 0.984,6.738 z m 6.675,9.5 c 3.937,3.102 8.536,4.32 13.521,4.32 4.279,0 8.215,-1.775 11.574,-4.299 -3.103,-5.092 -4.45,-10.654 -4.45,-16.624 0,-5.327 1.84,-10.59 4.514,-15.146 -3.701,-2.674 -8.065,-4.386 -12.686,-4.386 -4.621,0 -8.835,1.562 -12.43,4.364 3.23,5.241 4.428,11.039 4.428,17.157 0,5.092 -1.818,10.334 -4.471,14.614 z m 31.684,-9.457 c 0.685,-2.074 1.134,-4.342 1.134,-6.525 0,-2.224 -0.344,-4.213 -1.113,-6.289 a 20.39,20.39 0 0 0 -1.006,6.31 c 0.001,2.246 0.129,4.408 0.985,6.504 z m 6.611,9.521 c 3.979,2.973 8.492,4.342 13.436,4.342 4.234,0 8.449,-1.775 11.744,-4.385 -2.76,-4.621 -4.449,-9.906 -4.449,-15.318 0,-5.84 1.518,-11.381 4.514,-16.366 -3.615,-2.802 -8.066,-4.407 -12.645,-4.407 -4.579,0 -8.898,1.625 -12.514,4.385 3.166,5.199 4.449,10.44 4.449,16.581 0,5.348 -1.754,10.631 -4.535,15.168 z m 31.813,-9.5 a 21.533,21.533 0 0 0 1.027,-6.59 c 0,-2.117 -0.365,-4.192 -1.006,-6.203 -0.621,2.011 -1.049,4 -1.049,6.119 0,2.289 0.321,4.493 1.028,6.674 z m 6.716,9.541 c 3.615,2.76 8.023,4.387 12.58,4.387 11.252,0 20.195,-9.199 20.195,-20.389 0,-10.975 -9.477,-20.173 -20.389,-20.173 -4.514,0 -8.814,1.668 -12.387,4.364 2.803,4.771 4.471,10.205 4.471,15.766 10e-4,5.692 -1.882,11.039 -4.47,16.045 z" />
  </g>
</svg>
