<?xml version="1.0" encoding="UTF-8" standalone="no"?>
<svg
   xmlns:dc="http://purl.org/dc/elements/1.1/"
   xmlns:cc="http://creativecommons.org/ns#"
   xmlns:rdf="http://www.w3.org/1999/02/22-rdf-syntax-ns#"
   xmlns:svg="http://www.w3.org/2000/svg"
   xmlns="http://www.w3.org/2000/svg"
   xmlns:sodipodi="http://sodipodi.sourceforge.net/DTD/sodipodi-0.dtd"
   xmlns:inkscape="http://www.inkscape.org/namespaces/inkscape"
   inkscape:version="1.0 (4035a4fb49, 2020-05-01)"
   sodipodi:docname="CaravanAndMotorhomeClub.svg"
   viewBox="0 0 351.10025 319.82202"
   height="319.82202"
   width="351.10025"
   version="1.1"
   id="svg">
  <metadata
     id="metadata11">
    <rdf:RDF>
      <cc:Work
         rdf:about="">
        <dc:format>image/svg+xml</dc:format>
        <dc:type
           rdf:resource="http://purl.org/dc/dcmitype/StillImage" />
        <dc:title></dc:title>
      </cc:Work>
    </rdf:RDF>
  </metadata>
  <defs
     id="defs9" />
  <sodipodi:namedview
     inkscape:current-layer="svgg"
     inkscape:window-maximized="1"
     inkscape:window-y="441"
     inkscape:window-x="1609"
     inkscape:cy="196.00336"
     inkscape:cx="197.74555"
     inkscape:zoom="2"
     fit-margin-bottom="0"
     fit-margin-right="0"
     fit-margin-left="0"
     fit-margin-top="0"
     showgrid="false"
     id="namedview7"
     inkscape:window-height="2066"
     inkscape:window-width="5160"
     inkscape:pageshadow="2"
     inkscape:pageopacity="0"
     guidetolerance="10"
     gridtolerance="10"
     objecttolerance="10"
     borderopacity="1"
     bordercolor="#666666"
     pagecolor="#ffffff" />
  <g
     transform="translate(-156.75445,-5.9966386)"
     id="svgg">
    <path
       fill-rule="evenodd"
       fill="#c53d1e"
       stroke="none"
       d="m 258.5,7.915 c -1.65,0.285 -3.669,0.803 -4.487,1.151 -0.818,0.349 -1.898,0.642 -2.4,0.652 -0.502,0.009 -1.633,0.294 -2.513,0.632 -0.88,0.339 -2.5,0.848 -3.6,1.133 -1.1,0.284 -2.54,0.795 -3.2,1.135 -0.66,0.34 -2.55,1.119 -4.2,1.731 -1.65,0.612 -3.429,1.437 -3.954,1.832 -0.525,0.396 -1.245,0.72 -1.6,0.72 -0.355,0.001 -1.235,0.361 -1.956,0.8 -0.72,0.44 -1.55,0.799 -1.844,0.799 -0.294,0 -1.159,0.424 -1.922,0.942 -0.763,0.518 -2.439,1.518 -3.724,2.224 -1.285,0.705 -3.251,1.871 -4.368,2.592 -1.118,0.72 -3.073,1.983 -4.345,2.806 -4.278,2.767 -14.044,10.744 -17.898,14.619 -5.225,5.252 -14.794,16.547 -16.034,18.924 -0.42,0.805 -3.8,6.087 -5.592,8.739 -0.389,0.575 -0.993,1.655 -1.342,2.4 -0.349,0.745 -0.896,1.804 -1.216,2.354 -1.49,2.566 -5.805,12.478 -5.805,13.334 0,0.307 -0.337,0.987 -0.748,1.512 -0.411,0.525 -0.876,1.584 -1.032,2.354 -0.289,1.422 -1.229,4.658 -2.614,9 -0.91,2.854 -2.806,12.032 -2.806,13.584 0,0.601 -0.315,2.111 -0.7,3.354 -0.915,2.955 -1.064,31.634 -0.178,34.134 0.287,0.809 0.869,3.599 1.294,6.2 0.91,5.575 1.697,9.246 2.512,11.728 0.326,0.99 1.067,3.51 1.648,5.6 0.581,2.09 1.409,4.466 1.84,5.279 0.431,0.814 0.784,1.68 0.784,1.925 0,0.245 0.474,1.469 1.053,2.721 1.169,2.527 3.306,7.123 4.312,9.275 1.599,3.419 4.104,7.58 9.193,15.267 7.388,11.16 27.767,30.617 36.242,34.602 0.33,0.155 1.567,0.898 2.749,1.65 1.182,0.753 3.342,2.001 4.8,2.774 1.458,0.774 3.08,1.744 3.605,2.157 0.525,0.412 1.221,0.75 1.548,0.75 0.327,0 2.237,0.789 4.246,1.752 2.009,0.964 5.092,2.242 6.852,2.84 1.76,0.597 3.47,1.324 3.8,1.614 0.33,0.29 1.77,0.738 3.2,0.996 1.43,0.257 2.81,0.642 3.067,0.854 0.256,0.213 1.696,0.577 3.2,0.81 1.503,0.232 3.185,0.655 3.738,0.94 0.553,0.284 1.903,0.632 3,0.773 1.097,0.14 4.155,0.603 6.795,1.027 10.701,1.718 29.998,1.653 39.8,-0.135 1.87,-0.341 4.39,-0.802 5.6,-1.024 2.707,-0.497 6.617,-1.471 9.8,-2.441 1.32,-0.402 3.088,-0.849 3.929,-0.992 0.841,-0.144 2.101,-0.61 2.8,-1.036 1.5,-0.915 4.244,-1.019 5.791,-0.22 0.594,0.307 2.16,0.741 3.48,0.964 1.32,0.224 3.12,0.685 4,1.025 0.88,0.34 2.23,0.63 3,0.644 0.77,0.015 2.155,0.369 3.078,0.788 0.941,0.428 3.137,0.88 5,1.03 1.827,0.147 4.402,0.539 5.722,0.871 5.005,1.257 29.573,1.37 34,0.156 0.88,-0.241 3.58,-0.63 6,-0.864 2.479,-0.24 4.794,-0.681 5.303,-1.01 0.497,-0.322 2.117,-0.743 3.6,-0.937 1.483,-0.194 3.237,-0.622 3.897,-0.951 0.66,-0.33 2.19,-0.729 3.4,-0.887 1.21,-0.159 2.629,-0.626 3.154,-1.038 0.525,-0.412 1.247,-0.749 1.606,-0.749 0.358,0 1.279,-0.334 2.046,-0.741 0.767,-0.408 2.051,-0.863 2.854,-1.011 0.803,-0.148 1.68,-0.534 1.949,-0.859 0.269,-0.324 0.71,-0.589 0.98,-0.589 0.271,0 1.338,-0.45 2.373,-1 1.034,-0.55 2.176,-1 2.538,-1 0.361,0 1.297,-0.409 2.078,-0.91 2.473,-1.583 2.984,-1.881 4.622,-2.699 0.88,-0.44 2.41,-1.334 3.4,-1.987 0.99,-0.653 2.167,-1.353 2.616,-1.554 0.449,-0.202 1.057,-0.655 1.349,-1.008 0.293,-0.353 0.744,-0.642 1.003,-0.642 0.442,0 7.327,-4.91 8.632,-6.156 0.33,-0.315 1.243,-1.084 2.029,-1.708 7.458,-5.927 13.658,-12.436 21.993,-23.086 1.528,-1.953 2.778,-3.77 2.778,-4.038 0,-0.268 0.36,-0.814 0.8,-1.212 0.44,-0.398 0.8,-0.94 0.8,-1.204 0,-0.263 0.45,-0.965 1,-1.558 0.55,-0.594 1,-1.259 1,-1.478 0,-0.219 0.72,-1.483 1.6,-2.808 0.88,-1.325 1.6,-2.541 1.6,-2.703 0,-0.161 0.45,-0.904 1,-1.649 0.55,-0.745 1,-1.746 1,-2.224 0,-0.477 0.36,-1.326 0.8,-1.885 0.44,-0.56 0.806,-1.259 0.813,-1.554 0.006,-0.295 0.455,-1.437 0.996,-2.537 0.541,-1.1 0.985,-2.242 0.987,-2.537 0.002,-0.295 0.364,-0.994 0.804,-1.554 0.44,-0.559 0.8,-1.376 0.8,-1.816 0,-0.439 0.341,-1.36 0.758,-2.046 0.417,-0.686 0.889,-2.229 1.049,-3.429 0.16,-1.201 0.611,-2.641 1.002,-3.2 0.391,-0.56 0.818,-2.028 0.948,-3.262 0.13,-1.234 0.498,-2.868 0.817,-3.633 0.319,-0.764 0.687,-2.364 0.816,-3.556 0.13,-1.192 0.586,-3.787 1.014,-5.767 2.442,-11.298 2.44,-33.897 -0.003,-42 -0.398,-1.32 -0.838,-3.638 -0.979,-5.152 -0.14,-1.513 -0.493,-3.223 -0.785,-3.8 -0.292,-0.576 -0.722,-2.37 -0.957,-3.987 -0.234,-1.616 -0.684,-3.236 -0.999,-3.6 -0.315,-0.363 -0.683,-1.508 -0.817,-2.544 -0.134,-1.035 -0.608,-2.563 -1.054,-3.394 -0.445,-0.831 -0.811,-1.784 -0.813,-2.117 -10e-4,-0.333 -0.36,-1.146 -0.797,-1.806 -0.437,-0.66 -0.796,-1.471 -0.797,-1.803 -0.002,-0.332 -0.453,-1.449 -1.003,-2.482 -0.55,-1.033 -1,-2.132 -1,-2.443 0,-0.31 -0.36,-1.022 -0.8,-1.581 -0.44,-0.56 -0.807,-1.349 -0.816,-1.754 -0.008,-0.405 -0.627,-1.727 -1.374,-2.937 -1.413,-2.289 -4.361,-7.268 -5.423,-9.161 -0.338,-0.601 -1.013,-1.6 -1.5,-2.22 -0.488,-0.62 -0.887,-1.364 -0.887,-1.653 0,-0.289 -0.229,-0.67 -0.51,-0.846 -0.28,-0.176 -0.798,-0.77 -1.151,-1.32 -0.353,-0.55 -1.069,-1.465 -1.59,-2.034 -1.484,-1.617 -3.549,-4.291 -3.549,-4.594 0,-0.713 -14.735,-15.442 -17.486,-17.479 -0.96,-0.711 -3.243,-2.463 -5.072,-3.893 -1.83,-1.43 -3.928,-2.96 -4.664,-3.4 -1.547,-0.925 -2.302,-1.402 -4.778,-3.017 -0.99,-0.646 -2.52,-1.537 -3.4,-1.981 -0.88,-0.443 -2.14,-1.166 -2.8,-1.605 -0.66,-0.439 -1.83,-1.069 -2.6,-1.399 -0.77,-0.33 -2.066,-0.96 -2.879,-1.399 -0.814,-0.439 -1.821,-0.799 -2.238,-0.799 -0.418,0 -1.069,-0.342 -1.447,-0.76 -0.379,-0.419 -1.34,-0.883 -2.136,-1.032 -0.797,-0.15 -2.9,-0.963 -4.674,-1.807 -1.774,-0.845 -4.066,-1.649 -5.093,-1.788 -1.027,-0.139 -2.068,-0.493 -2.312,-0.788 -0.245,-0.295 -1.475,-0.66 -2.733,-0.813 -1.258,-0.152 -2.718,-0.552 -3.243,-0.89 -2.524,-1.62 -15.294,-1.53 -18.442,0.13 -0.988,0.522 -1.978,0.955 -2.2,0.963 -0.943,0.035 -6.603,6.103 -6.603,7.079 0,0.21 -0.345,0.694 -0.767,1.076 -0.459,0.415 -0.88,1.517 -1.049,2.743 -0.155,1.127 -0.625,2.708 -1.044,3.513 -0.663,1.271 -0.749,2.193 -0.652,7.019 l 0.112,5.555 3.2,0.254 c 1.76,0.14 4.73,0.545 6.6,0.9 1.87,0.355 3.962,0.645 4.65,0.645 0.687,10e-4 2.033,0.277 2.991,0.615 0.957,0.338 2.996,0.793 4.529,1.01 1.534,0.218 3.091,0.669 3.46,1.003 0.369,0.334 1.368,0.701 2.22,0.816 2.208,0.296 8.789,2.744 11.35,4.221 0.33,0.19 1.32,0.702 2.2,1.136 0.88,0.434 1.87,0.972 2.2,1.195 0.33,0.223 1.05,0.595 1.6,0.826 0.996,0.418 2.831,1.49 5.039,2.943 0.638,0.42 1.875,1.23 2.748,1.8 0.872,0.57 1.892,1.306 2.266,1.636 0.373,0.33 1.9,1.5 3.392,2.6 3.246,2.393 15.102,14.151 15.979,15.847 0.34,0.657 0.889,1.501 1.219,1.874 1.5,1.695 4.157,5.465 4.157,5.9 0,0.265 0.28,0.714 0.623,0.998 0.343,0.285 0.872,1.113 1.176,1.84 0.304,0.728 0.753,1.552 0.998,1.832 0.465,0.531 0.921,1.377 3.141,5.827 2.275,4.561 2.809,5.833 3.044,7.256 0.125,0.755 0.485,1.658 0.799,2.005 0.314,0.347 0.752,1.754 0.973,3.127 0.221,1.373 0.682,2.895 1.024,3.384 0.342,0.488 0.622,1.482 0.622,2.209 0,0.727 0.359,2.342 0.797,3.589 0.439,1.247 0.907,3.718 1.041,5.49 0.134,1.772 0.496,4.238 0.803,5.48 1.213,4.899 -0.103,24.069 -1.987,28.942 -0.341,0.88 -0.631,2.23 -0.645,3 -0.015,0.77 -0.353,2.12 -0.752,3 -0.399,0.88 -0.848,2.372 -0.998,3.315 -0.15,0.943 -0.63,2.38 -1.066,3.194 -0.436,0.813 -0.793,1.792 -0.793,2.175 0,0.843 -3.793,8.941 -4.348,9.284 -0.217,0.134 -0.612,0.916 -0.879,1.738 -0.268,0.822 -0.717,1.63 -0.998,1.796 -0.282,0.167 -0.627,0.823 -0.766,1.459 -0.14,0.636 -0.604,1.473 -1.032,1.86 -0.427,0.386 -0.777,0.923 -0.777,1.192 0,0.269 -0.28,0.722 -0.623,1.006 -0.343,0.285 -0.868,1.072 -1.168,1.749 -0.299,0.678 -1.289,2.042 -2.2,3.032 -2.182,2.371 -3.238,3.634 -4.209,5.034 -1.122,1.617 -8.438,8.887 -10.602,10.536 -0.989,0.753 -2.186,1.743 -2.66,2.2 -0.474,0.456 -2.048,1.64 -3.496,2.63 -1.448,0.99 -3.681,2.542 -4.961,3.449 -1.28,0.906 -2.767,1.786 -3.304,1.955 -0.537,0.168 -1.406,0.641 -1.931,1.051 -0.525,0.41 -1.175,0.745 -1.446,0.745 -0.271,0 -0.947,0.358 -1.502,0.795 -0.556,0.437 -2.425,1.359 -4.154,2.05 -1.729,0.691 -3.499,1.504 -3.933,1.806 -0.434,0.302 -1.251,0.549 -1.815,0.549 -0.565,0 -1.74,0.364 -2.611,0.808 -0.872,0.445 -2.57,0.924 -3.773,1.065 -1.203,0.142 -2.733,0.568 -3.4,0.947 -0.667,0.378 -2.415,0.803 -3.886,0.943 -1.47,0.139 -3.45,0.532 -4.4,0.873 -1.271,0.456 -3.569,0.638 -8.726,0.692 -8.786,0.09 -8.857,0.005 -4.115,-5.011 6.419,-6.789 10.702,-11.95 14.197,-17.11 0.376,-0.554 1.318,-1.907 2.094,-3.007 0.777,-1.1 1.415,-2.166 1.418,-2.369 0.003,-0.202 0.252,-0.652 0.553,-1 0.301,-0.347 1.264,-1.981 2.14,-3.631 0.876,-1.65 2.144,-3.9 2.817,-5 0.674,-1.1 1.422,-2.744 1.663,-3.653 0.241,-0.91 0.707,-1.877 1.036,-2.149 0.328,-0.273 0.597,-0.792 0.597,-1.153 0,-0.361 0.332,-1.284 0.739,-2.051 0.406,-0.767 0.87,-1.934 1.03,-2.594 0.161,-0.66 0.541,-1.74 0.844,-2.4 0.931,-2.026 1.843,-4.686 2.468,-7.2 0.329,-1.32 0.94,-3.243 1.358,-4.274 0.419,-1.031 0.763,-2.381 0.766,-3 0.002,-0.619 0.272,-2.116 0.599,-3.326 2.246,-8.305 3.586,-30.834 2.297,-38.6 -0.256,-1.54 -0.652,-4.78 -0.881,-7.2 -0.434,-4.598 -1.523,-10.183 -2.844,-14.6 -0.428,-1.43 -0.948,-3.32 -1.155,-4.2 -1.894,-8.058 -2.881,-8.718 -8.695,-5.813 -2.379,1.189 -4.602,2.391 -4.94,2.671 -0.338,0.281 -1.664,1.071 -2.947,1.755 -2.348,1.253 -9.963,6.914 -13.59,10.102 l -1.95,1.715 0.481,2.985 c 0.264,1.642 0.74,3.705 1.057,4.585 0.317,0.88 0.74,3.58 0.941,6 0.2,2.42 0.593,6.604 0.874,9.298 0.413,3.974 0.412,5.746 -0.004,9.4 -0.282,2.476 -0.676,6.318 -0.875,8.537 -0.2,2.219 -0.63,4.792 -0.956,5.718 -0.327,0.926 -0.701,2.62 -0.831,3.765 -0.13,1.145 -0.57,2.892 -0.976,3.882 -0.406,0.99 -1.129,3.06 -1.607,4.6 -0.477,1.54 -1.322,3.79 -1.878,5 -2.297,5 -6.651,13.455 -7.313,14.2 -0.39,0.44 -1.225,1.61 -1.855,2.6 -3.681,5.787 -13.561,16.607 -19.03,20.84 -11.939,9.243 -16.678,11.287 -19.343,8.342 -0.389,-0.43 -0.852,-0.782 -1.028,-0.782 -0.652,0 -4.705,-2.83 -6.158,-4.3 -0.489,-0.495 -1.085,-0.9 -1.323,-0.9 -1.854,0 -15.877,-14.127 -19.456,-19.6 -0.648,-0.99 -1.367,-1.98 -1.598,-2.2 -0.232,-0.22 -0.944,-1.21 -1.584,-2.2 -0.639,-0.99 -1.481,-2.271 -1.872,-2.846 -0.39,-0.575 -0.988,-1.655 -1.329,-2.4 -0.341,-0.745 -0.774,-1.624 -0.963,-1.954 -0.974,-1.702 -1.721,-3.14 -2.286,-4.4 -1.485,-3.313 -1.759,-3.912 -2.747,-6.006 -0.572,-1.213 -1.04,-2.525 -1.04,-2.916 0,-0.39 -0.36,-1.416 -0.8,-2.278 -0.44,-0.862 -0.8,-2.257 -0.8,-3.099 0,-0.843 -0.369,-2.245 -0.821,-3.116 -0.485,-0.936 -0.989,-3.059 -1.232,-5.185 -0.226,-1.98 -0.667,-4.583 -0.979,-5.784 -0.839,-3.227 -0.788,-21.965 0.07,-25.816 0.343,-1.54 0.773,-4.155 0.957,-5.811 0.301,-2.721 1.603,-6.143 2.79,-7.333 0.645,-0.646 2.825,1.119 5.598,4.534 1.523,1.876 3.351,4.04 4.062,4.81 0.711,0.77 1.887,2.3 2.613,3.4 0.726,1.1 1.822,2.72 2.436,3.6 0.613,0.88 1.341,2.05 1.617,2.6 0.276,0.55 1.035,1.81 1.687,2.8 0.652,0.99 1.373,2.25 1.601,2.8 0.228,0.55 0.772,1.655 1.208,2.454 0.436,0.8 0.793,1.721 0.793,2.047 0,0.325 0.334,1.02 0.742,1.545 0.408,0.525 0.871,1.674 1.03,2.554 0.158,0.88 0.54,1.993 0.85,2.474 0.309,0.481 0.734,1.561 0.943,2.4 0.209,0.839 0.656,2.336 0.993,3.326 1.3,3.822 2.203,7.936 2.458,11.2 0.309,3.952 1.162,7.611 1.882,8.071 0.276,0.177 7.702,0.279 16.502,0.225 l 16,-0.096 0.124,-2.197 c 0.069,-1.208 -0.142,-3.098 -0.468,-4.2 -0.325,-1.102 -0.691,-3.757 -0.813,-5.9 -0.137,-2.409 -0.446,-4.243 -0.809,-4.8 -0.323,-0.497 -0.713,-2.343 -0.866,-4.103 -0.154,-1.776 -0.605,-3.851 -1.012,-4.663 -0.404,-0.805 -0.854,-2.245 -0.999,-3.2 -0.145,-0.955 -0.517,-2.029 -0.826,-2.386 -0.31,-0.357 -0.704,-1.542 -0.877,-2.632 -0.172,-1.09 -0.615,-2.413 -0.983,-2.94 -0.369,-0.526 -0.672,-1.502 -0.672,-2.168 -0.001,-0.666 -0.34,-1.766 -0.754,-2.444 -0.414,-0.679 -0.877,-1.802 -1.029,-2.496 -0.153,-0.694 -0.441,-1.363 -0.642,-1.487 -0.552,-0.341 -3.173,-5.961 -3.183,-6.826 -0.005,-0.417 -0.361,-1.208 -0.791,-1.758 -0.43,-0.55 -0.786,-1.246 -0.791,-1.547 -0.005,-0.301 -0.744,-1.282 -1.641,-2.18 -0.898,-0.897 -1.983,-2.271 -2.412,-3.052 -0.428,-0.782 -1.088,-1.894 -1.467,-2.472 -2.73,-4.166 -4.12,-6.072 -6.065,-8.322 -1.223,-1.415 -2.774,-3.345 -3.446,-4.288 -3.246,-4.559 -14.68,-15.013 -21.589,-19.739 -0.804,-0.55 -2.433,-1.765 -3.62,-2.7 -1.187,-0.935 -2.295,-1.701 -2.463,-1.702 -0.168,-0.002 -1.476,-0.811 -2.906,-1.798 -1.43,-0.987 -2.887,-1.796 -3.238,-1.798 -0.351,-0.001 -0.949,-0.346 -1.329,-0.766 -0.381,-0.42 -1.147,-0.878 -1.703,-1.018 -0.555,-0.139 -1.499,-0.615 -2.097,-1.057 -3.59,-2.654 -8.814,-0.96 -11.228,3.639 -0.289,0.55 -0.658,1.09 -0.82,1.2 -0.162,0.11 -0.592,0.83 -0.954,1.6 -0.363,0.77 -1.102,2.12 -1.642,3 -0.541,0.88 -1.252,2.173 -1.58,2.873 -0.328,0.7 -0.775,1.382 -0.992,1.516 -0.217,0.135 -0.611,1.002 -0.875,1.928 -0.264,0.926 -0.705,1.953 -0.98,2.283 -0.275,0.33 -0.627,1.14 -0.783,1.8 -0.156,0.66 -0.599,1.56 -0.984,2 -0.385,0.44 -0.82,1.64 -0.967,2.667 -0.147,1.027 -0.524,2.08 -0.837,2.34 -0.313,0.261 -0.686,1.13 -0.829,1.933 -0.143,0.803 -0.597,2.021 -1.011,2.707 -0.413,0.686 -0.751,1.859 -0.751,2.606 0,0.747 -0.337,1.988 -0.75,2.758 -0.412,0.769 -0.884,2.558 -1.048,3.975 -0.165,1.417 -0.621,3.215 -1.015,3.995 -0.481,0.953 -0.808,2.858 -0.996,5.805 -0.154,2.413 -0.513,5.293 -0.799,6.4 -1.321,5.13 -1.075,25.627 0.39,32.414 0.332,1.54 0.607,4.063 0.611,5.606 0.005,1.948 0.233,3.232 0.746,4.2 0.406,0.767 0.854,2.524 0.995,3.904 0.141,1.381 0.511,3.004 0.824,3.608 0.312,0.604 0.763,2.154 1.001,3.445 0.239,1.291 0.595,2.547 0.792,2.792 0.492,0.61 2.297,5.277 2.824,7.298 0.237,0.91 0.699,1.877 1.028,2.149 0.328,0.273 0.597,0.9 0.597,1.393 0,0.493 0.337,1.326 0.748,1.851 0.411,0.525 0.881,1.584 1.044,2.354 0.164,0.77 0.54,1.676 0.837,2.014 0.296,0.338 1.107,1.688 1.801,3 0.693,1.312 1.493,2.656 1.776,2.986 0.283,0.33 0.809,1.23 1.17,2 1.288,2.751 2.168,4.256 2.791,4.773 0.348,0.289 0.633,0.675 0.633,0.858 0,0.448 1.571,2.736 3.478,5.065 0.857,1.047 1.91,2.424 2.34,3.06 0.43,0.636 0.962,1.415 1.182,1.732 0.578,0.832 4.766,5.375 7.873,8.54 3.37,3.434 3.834,4.237 2.951,5.119 -0.897,0.896 -8.534,0.699 -14.144,-0.365 -2.266,-0.43 -4.747,-0.782 -5.513,-0.782 -0.766,0 -2.062,-0.291 -2.88,-0.646 -0.818,-0.355 -2.567,-0.879 -3.887,-1.164 -4.147,-0.895 -12.107,-3.828 -15.8,-5.822 -0.33,-0.178 -1.993,-1.05 -3.695,-1.937 -1.702,-0.887 -3.703,-2.022 -4.446,-2.522 -0.744,-0.5 -2.411,-1.608 -3.705,-2.462 -1.295,-0.855 -3.164,-2.213 -4.154,-3.019 -0.99,-0.805 -2.306,-1.783 -2.925,-2.172 -3.772,-2.372 -14.743,-14.476 -19.356,-21.355 -4.303,-6.417 -9.056,-16.28 -10.746,-22.301 -0.309,-1.1 -0.829,-2.63 -1.157,-3.4 -0.613,-1.445 -1.998,-7.605 -3.282,-14.6 -1.022,-5.572 -1.027,-18.225 -0.008,-24.4 1.227,-7.438 2.731,-14.143 3.521,-15.692 0.414,-0.813 0.759,-1.934 0.767,-2.493 0.007,-0.558 0.361,-1.735 0.786,-2.615 0.425,-0.88 0.779,-1.861 0.786,-2.179 0.017,-0.702 5.5,-11.674 7.507,-15.021 7.039,-11.739 20.898,-25.514 32.307,-32.111 4.619,-2.671 14.08,-7.286 15.486,-7.554 0.723,-0.138 1.982,-0.584 2.798,-0.993 0.816,-0.408 1.899,-0.742 2.406,-0.742 0.507,0 1.549,-0.336 2.316,-0.747 0.767,-0.411 2.846,-0.943 4.619,-1.182 1.774,-0.238 3.754,-0.635 4.4,-0.882 1.073,-0.409 7.426,-1.274 13.671,-1.863 3.442,-0.324 3.451,-0.343 3.203,-7.033 -0.225,-6.103 -1.3,-11.2 -2.75,-13.047 -0.412,-0.525 -0.749,-1.135 -0.749,-1.357 0,-0.499 -3.446,-4.601 -4.778,-5.689 C 273.861,7.696 266.946,6.458 258.5,7.915 m 120.2,292.534 c -4.714,1.223 -6.898,5.5 -5.439,10.651 0.652,2.3 2.755,3.8 5.33,3.8 4.108,0 4.481,1.57 1.3,5.475 -1.832,2.248 -2.048,3.023 -0.906,3.245 0.677,0.131 1.244,-0.386 2.624,-2.396 0.5,-0.728 2.097,-2.944 3.548,-4.924 4.202,-5.732 4.877,-9.905 2.136,-13.208 -1.795,-2.163 -5.751,-3.38 -8.593,-2.643 m 22.275,0.751 c -1.119,0.605 -2.489,1.73 -3.045,2.5 -3.401,4.716 -2.473,15.649 1.635,19.259 2.995,2.632 10.732,0.086 11.557,-3.803 0.147,-0.691 0.562,-1.59 0.923,-1.998 1.068,-1.209 0.889,-7.961 -0.266,-10.043 -0.483,-0.871 -0.879,-1.813 -0.879,-2.094 0,-0.681 -3.558,-4.119 -4.726,-4.566 -1.591,-0.61 -3.09,-0.395 -5.199,0.745 m -168.939,0.109 c -4.021,2.124 -4.318,9.991 -0.377,9.991 0.379,0 1.037,0.267 1.465,0.594 0.427,0.326 1.493,0.794 2.368,1.04 2,0.561 4.168,2.904 4.191,4.528 0.057,3.946 -6.179,6.041 -9.546,3.208 -1.066,-0.897 -1.222,-0.927 -1.802,-0.348 -0.704,0.705 -0.834,1.378 -0.266,1.378 0.203,0 0.922,0.465 1.597,1.032 1.625,1.368 7.886,1.578 9.313,0.312 5.314,-4.715 3.945,-10.21 -3.07,-12.321 -0.954,-0.287 -1.977,-0.731 -2.272,-0.986 -0.295,-0.256 -0.864,-0.689 -1.264,-0.965 -1.276,-0.879 -1.333,-3.501 -0.108,-4.958 1.544,-1.834 3.817,-2.061 7.135,-0.713 1.288,0.523 0.769,-0.893 -0.647,-1.768 -1.73,-1.069 -4.719,-1.08 -6.717,-0.024 m 18.659,0.091 c -0.121,0.495 -0.169,5.67 -0.107,11.5 l 0.112,10.6 1.1,0.127 1.1,0.126 v -11.212 c 0,-10.676 -0.037,-11.233 -0.774,-11.627 -1.072,-0.574 -1.181,-0.537 -1.431,0.486 m 12.605,10.727 v 11.626 l 1.1,-0.126 1.1,-0.127 0.005,-7.2 c 0.005,-8.072 0.039,-8.2 2.186,-8.2 1.327,0 1.663,0.193 2.392,1.372 0.466,0.754 0.983,1.429 1.148,1.5 0.166,0.07 1.262,1.298 2.436,2.728 1.174,1.43 2.427,2.889 2.784,3.243 0.357,0.354 1.89,2.019 3.406,3.7 4.834,5.359 5.043,5.03 5.043,-7.926 0,-11.171 -0.127,-12.313 -1.354,-12.138 -0.819,0.117 -0.852,0.364 -1.046,7.608 -0.166,6.224 -0.311,7.597 -0.856,8.141 -0.867,0.867 -2.986,0.42 -3.608,-0.761 -0.252,-0.477 -0.835,-1.241 -1.297,-1.698 -0.461,-0.457 -1.829,-1.981 -3.039,-3.386 -1.21,-1.405 -2.838,-3.281 -3.617,-4.169 -0.78,-0.888 -2.191,-2.559 -3.137,-3.714 -1.209,-1.475 -2.007,-2.1 -2.683,-2.1 H 263.3 v 11.627 m 37.098,-10.608 c -2.175,1.142 -4.882,3.732 -6.198,5.932 -1.1,1.838 -1.345,8.582 -0.343,9.414 0.307,0.254 1.162,1.441 1.9,2.636 0.873,1.413 1.754,2.321 2.517,2.592 0.646,0.229 1.495,0.707 1.887,1.062 1.536,1.39 9.939,0.836 9.939,-0.655 0,-1.082 -0.378,-1.186 -2.536,-0.692 -7.791,1.783 -14.726,-6.883 -10.829,-13.532 1.069,-1.824 3.076,-4.176 3.562,-4.176 0.152,0 0.734,-0.36 1.294,-0.8 1.349,-1.061 5.865,-1.145 6.987,-0.129 1.15,1.04 1.919,0.074 1.102,-1.385 -0.904,-1.614 -6.412,-1.772 -9.282,-0.267 m 19.316,0.156 c -0.28,0.522 -0.391,4.424 -0.321,11.311 l 0.107,10.514 5.729,0.111 5.73,0.111 -0.13,-0.911 c -0.123,-0.865 -0.336,-0.921 -4.245,-1.111 -4.9,-0.238 -4.869,-0.209 -4.878,-4.62 -0.008,-4.081 0.097,-4.18 4.425,-4.18 2.551,0 3.599,-0.154 3.954,-0.582 0.883,-1.063 0.029,-1.418 -3.409,-1.418 -4.389,0 -4.976,-0.487 -4.976,-4.124 0,-3.757 0.321,-4.028 5.065,-4.273 3.141,-0.162 3.935,-0.324 3.935,-0.803 0,-1.063 -10.418,-1.087 -10.986,-0.025 m 33.849,-0.194 c -0.166,0.431 0.239,0.859 1.35,1.426 0.873,0.445 1.624,0.851 1.669,0.901 0.045,0.051 0.18,4.502 0.3,9.892 l 0.218,9.8 h 1 1 l 0.103,-8.2 c 0.057,-4.51 -0.033,-9.55 -0.2,-11.2 l -0.303,-3 -2.45,-0.118 c -1.914,-0.092 -2.503,0.017 -2.687,0.499 M 419.7,301.7 c 0,0.755 0.267,0.8 4.771,0.8 6.078,0 7.704,1.68 4.84,5 -0.38,0.44 -1.073,1.61 -1.54,2.6 -0.468,0.99 -1.62,3.007 -2.561,4.481 -1.642,2.575 -2.746,4.345 -3.804,6.1 -0.555,0.92 -0.681,3.019 -0.181,3.019 0.451,0 2.307,-2.055 2.592,-2.87 0.129,-0.368 0.74,-1.432 1.359,-2.365 1.69,-2.55 2.691,-4.265 4.365,-7.482 0.835,-1.604 1.752,-3.111 2.038,-3.349 0.287,-0.238 0.521,-0.666 0.521,-0.952 0,-0.286 0.409,-1.029 0.909,-1.651 0.5,-0.622 1.217,-1.806 1.593,-2.631 l 0.685,-1.5 h -7.793 c -7.527,0 -7.794,0.027 -7.794,0.8 m -35.65,1.102 c 3.411,2.547 3.424,7.295 0.026,9.715 -5.087,3.622 -11.216,-2.1 -8.373,-7.817 1.332,-2.678 5.908,-3.718 8.347,-1.898 m 23.174,1.039 c 4.378,4.161 4.125,14.666 -0.421,17.471 -5.503,3.397 -9.561,-2.604 -8.34,-12.331 0.769,-6.119 5.074,-8.644 8.761,-5.14"
       id="path0" />
    <path
       fill-rule="evenodd"
       fill="#ee8c3a"
       stroke="none"
       d="m 259.5,6.755 c -1.32,0.316 -3.39,0.85 -4.6,1.185 -1.21,0.336 -3.46,0.946 -5,1.357 -3.451,0.922 -6.242,1.835 -8.6,2.814 -0.99,0.411 -2.247,0.872 -2.792,1.025 -3.115,0.869 -18.457,8.99 -22.981,12.164 -0.47,0.33 -1.452,0.96 -2.181,1.4 -3.831,2.31 -13.257,10.202 -18.444,15.44 -12.315,12.436 -24.008,30 -28.809,43.273 -0.415,1.148 -1.227,3.347 -1.805,4.887 -0.577,1.54 -1.375,3.97 -1.773,5.4 -0.398,1.43 -1.195,4.22 -1.772,6.2 -0.577,1.98 -1.322,5.31 -1.657,7.4 -0.334,2.09 -0.87,5.06 -1.191,6.6 -1.61,7.74 -1.491,30.324 0.202,38.2 0.402,1.87 0.859,4.57 1.016,6 0.436,3.963 4.287,17.192 6.238,21.426 0.412,0.895 0.749,1.853 0.749,2.129 0,0.587 7.374,15.733 8.389,17.229 0.379,0.559 2.271,3.412 4.203,6.34 13.053,19.775 32.321,36.197 54.208,46.2 6.437,2.942 7.72,3.476 8.352,3.476 0.36,0 1.5,0.45 2.533,1 1.033,0.55 2.202,1.008 2.597,1.018 0.395,0.009 1.438,0.283 2.318,0.607 0.88,0.325 2.68,0.844 4,1.153 1.32,0.31 3.39,0.821 4.6,1.137 6.448,1.683 10.397,2.218 25.7,3.486 8.841,0.733 27.157,-1.459 38.5,-4.607 1.98,-0.55 4.68,-1.29 6,-1.645 1.32,-0.355 2.755,-0.894 3.189,-1.197 1.04,-0.728 1.61,-0.698 4.003,0.209 3.683,1.397 12.325,3.759 17.608,4.814 18.491,3.692 40.237,2.907 59,-2.131 7.587,-2.038 8.57,-2.336 9.378,-2.853 0.452,-0.289 1.632,-0.74 2.622,-1.001 0.99,-0.261 3.06,-1.066 4.6,-1.788 1.54,-0.723 4.15,-1.895 5.8,-2.605 1.65,-0.709 3.27,-1.505 3.6,-1.768 0.33,-0.263 1.586,-0.974 2.792,-1.582 1.205,-0.607 2.915,-1.56 3.8,-2.117 0.884,-0.557 2.868,-1.792 4.408,-2.744 14.437,-8.926 29.803,-24.497 39.52,-40.046 5.386,-8.618 11.269,-20.895 13.1,-27.34 0.407,-1.43 1.223,-4.04 1.813,-5.8 0.591,-1.76 1.304,-4.37 1.585,-5.8 0.28,-1.43 0.781,-3.95 1.112,-5.6 2.323,-11.576 2.443,-12.83 2.423,-25.4 -0.016,-10.501 -0.124,-12.55 -0.862,-16.4 -0.464,-2.42 -0.968,-5.3 -1.12,-6.4 -0.708,-5.139 -4.475,-19.095 -6.155,-22.8 -0.399,-0.88 -1.216,-2.86 -1.816,-4.4 -0.6,-1.54 -1.333,-3.25 -1.63,-3.8 -0.297,-0.55 -1.183,-2.35 -1.968,-4 -1.866,-3.921 -3.92,-7.67 -5.698,-10.4 -4.614,-7.084 -6.045,-9.093 -9.825,-13.8 -2.297,-2.86 -6.585,-7.58 -9.528,-10.488 -7.769,-7.677 -13.524,-12.181 -24.951,-19.524 -3.802,-2.443 -16.623,-8.701 -18.916,-9.232 -0.596,-0.138 -1.52,-0.524 -2.053,-0.858 -0.533,-0.334 -1.793,-0.845 -2.8,-1.136 C 419.524,10.771 416.81,9.986 414.5,9.318 400.978,5.404 395.966,5.261 389.307,8.599 c -2.525,1.266 -8.007,6.188 -8.007,7.189 0,0.247 -0.277,0.755 -0.616,1.13 -1.879,2.077 -3.059,7.144 -3.276,14.074 -0.266,8.483 -0.171,8.701 3.801,8.723 6.292,0.035 21.722,2.92 26.679,4.987 0.667,0.279 2.292,0.909 3.612,1.4 1.32,0.492 3.48,1.391 4.8,1.997 1.32,0.606 2.67,1.214 3,1.35 2.508,1.037 10.972,6.262 14.924,9.212 5.799,4.33 15.749,14.35 19.076,19.211 0.55,0.803 1.514,2.129 2.141,2.944 4.459,5.797 11.315,20.351 13.23,28.084 3.088,12.474 3.193,13.328 3.198,26 0.004,9.77 -0.111,12.247 -0.668,14.4 -0.37,1.43 -0.874,3.765 -1.121,5.19 -0.246,1.424 -0.618,2.908 -0.827,3.298 -0.209,0.39 -0.566,1.745 -0.794,3.011 -2.663,14.787 -20.13,40.185 -34.181,49.701 -13.408,9.081 -22.398,13.312 -34.778,16.366 -5.091,1.256 -19.627,3.139 -20.788,2.694 -1.043,-0.4 -0.745,-0.851 3.881,-5.872 7.589,-8.238 14.074,-17.196 19.067,-26.336 1.038,-1.898 2.09,-3.812 2.338,-4.252 0.646,-1.145 4.267,-9.579 5.278,-12.294 0.47,-1.261 1.198,-3.241 1.617,-4.4 5.809,-16.03 8.273,-42.007 5.607,-59.106 -0.223,-1.43 -0.597,-4.04 -0.831,-5.8 -0.234,-1.76 -0.677,-4.01 -0.984,-5 -0.308,-0.99 -0.824,-2.97 -1.147,-4.4 -1.344,-5.952 -2.683,-10.031 -4.668,-14.226 -0.424,-0.895 -0.77,-1.774 -0.77,-1.955 0,-0.181 -0.701,-1.789 -1.559,-3.574 -0.857,-1.785 -1.683,-3.662 -1.835,-4.171 -0.564,-1.889 -7.154,-13.146 -8.889,-15.184 -3.993,-4.691 -6.727,-4.541 -16.185,0.888 -17.129,9.835 -32.584,24.378 -43.701,41.122 -3.894,5.866 -3.19,5.948 -7.718,-0.9 -6.957,-10.521 -15.625,-19.978 -25.98,-28.344 -5.673,-4.583 -10.506,-8.111 -13.107,-9.566 -0.894,-0.501 -2.256,-1.292 -3.026,-1.759 -9.419,-5.712 -13.093,-6.329 -16.627,-2.795 -3.409,3.409 -12.385,20.455 -14.462,27.464 -0.326,1.1 -0.738,2.18 -0.915,2.4 -0.383,0.475 -1.461,4.229 -3.617,12.6 -3.129,12.145 -4.216,27.353 -3.002,42 0.628,7.576 1.179,10.867 3.665,21.9 0.579,2.569 2.025,7.168 3.364,10.7 2.292,6.046 2.844,7.435 3.365,8.466 0.315,0.624 1.421,2.934 2.459,5.134 1.037,2.2 3.345,6.4 5.128,9.333 1.783,2.934 3.444,5.689 3.69,6.123 1.65,2.906 10.485,13.615 16.074,19.486 0.703,0.739 1.278,1.519 1.278,1.736 0,0.835 -18.327,-0.844 -19.914,-1.825 -0.23,-0.142 -1.648,-0.511 -3.152,-0.821 -22.113,-4.558 -47.542,-24.155 -58.738,-45.269 -0.806,-1.519 -1.609,-2.943 -1.784,-3.163 -1.504,-1.891 -6.647,-15.707 -7.596,-20.405 -0.266,-1.317 -0.816,-3.835 -1.224,-5.595 -2.009,-8.687 -2.004,-29.508 0.009,-34.803 0.213,-0.559 0.568,-2.138 0.789,-3.507 0.763,-4.722 5.075,-16.882 7.677,-21.65 0.228,-0.417 1.116,-2.069 1.974,-3.67 7.352,-13.712 20.779,-27.253 35.759,-36.06 1.524,-0.895 10.407,-5.193 12,-5.805 6.746,-2.592 10.764,-3.791 15.165,-4.528 1.779,-0.298 4.495,-0.81 6.035,-1.137 1.54,-0.327 5.006,-0.72 7.701,-0.874 6.703,-0.382 6.302,0.131 6.284,-8.036 C 287.445,13.783 275.358,2.952 259.5,6.755 m 10.965,1.003 c 2.527,0.44 5.971,2.04 8.057,3.742 1.332,1.088 4.778,5.19 4.778,5.689 0,0.222 0.337,0.832 0.749,1.357 1.45,1.847 2.525,6.944 2.75,13.047 0.248,6.69 0.239,6.709 -3.203,7.033 -6.245,0.589 -12.598,1.454 -13.671,1.863 -0.646,0.247 -2.626,0.644 -4.4,0.882 -1.773,0.239 -3.852,0.771 -4.619,1.182 -0.767,0.411 -1.809,0.747 -2.316,0.747 -0.507,0 -1.59,0.334 -2.406,0.742 -0.816,0.409 -2.075,0.855 -2.798,0.993 -1.406,0.268 -10.867,4.883 -15.486,7.554 -11.409,6.597 -25.268,20.372 -32.307,32.111 -2.007,3.347 -7.49,14.319 -7.507,15.021 -0.007,0.318 -0.361,1.299 -0.786,2.179 -0.425,0.88 -0.779,2.057 -0.786,2.615 -0.008,0.559 -0.353,1.68 -0.767,2.493 -0.79,1.549 -2.294,8.254 -3.521,15.692 -1.019,6.175 -1.014,18.828 0.008,24.4 1.284,6.995 2.669,13.155 3.282,14.6 0.328,0.77 0.848,2.3 1.157,3.4 1.69,6.021 6.443,15.884 10.746,22.301 4.613,6.879 15.584,18.983 19.356,21.355 0.619,0.389 1.935,1.367 2.925,2.172 0.99,0.806 2.859,2.164 4.154,3.019 1.294,0.854 2.961,1.962 3.705,2.462 0.743,0.5 2.744,1.635 4.446,2.522 1.702,0.887 3.365,1.759 3.695,1.937 3.693,1.994 11.653,4.927 15.8,5.822 1.32,0.285 3.069,0.809 3.887,1.164 0.818,0.355 2.114,0.646 2.88,0.646 0.766,0 3.247,0.352 5.513,0.782 5.61,1.064 13.247,1.261 14.144,0.365 0.883,-0.882 0.419,-1.685 -2.951,-5.119 -3.107,-3.165 -7.295,-7.708 -7.873,-8.54 -0.22,-0.317 -0.752,-1.096 -1.182,-1.732 -0.43,-0.636 -1.483,-2.013 -2.34,-3.06 -1.907,-2.329 -3.478,-4.617 -3.478,-5.065 0,-0.183 -0.285,-0.569 -0.633,-0.858 -0.623,-0.517 -1.503,-2.022 -2.791,-4.773 -0.361,-0.77 -0.887,-1.67 -1.17,-2 -0.283,-0.33 -1.083,-1.674 -1.776,-2.986 -0.694,-1.312 -1.505,-2.662 -1.801,-3 -0.297,-0.338 -0.673,-1.244 -0.837,-2.014 -0.163,-0.77 -0.633,-1.829 -1.044,-2.354 -0.411,-0.525 -0.748,-1.358 -0.748,-1.851 0,-0.493 -0.269,-1.12 -0.597,-1.393 -0.329,-0.272 -0.791,-1.239 -1.028,-2.149 -0.527,-2.021 -2.332,-6.688 -2.824,-7.298 -0.197,-0.245 -0.553,-1.501 -0.792,-2.792 -0.238,-1.291 -0.689,-2.841 -1.001,-3.445 -0.313,-0.604 -0.683,-2.227 -0.824,-3.608 -0.141,-1.38 -0.589,-3.137 -0.995,-3.904 -0.513,-0.968 -0.741,-2.252 -0.746,-4.2 -0.004,-1.543 -0.279,-4.066 -0.611,-5.606 -1.465,-6.787 -1.711,-27.284 -0.39,-32.414 0.286,-1.107 0.645,-3.987 0.799,-6.4 0.188,-2.947 0.515,-4.852 0.996,-5.805 0.394,-0.78 0.85,-2.578 1.015,-3.995 0.164,-1.417 0.636,-3.206 1.048,-3.975 0.413,-0.77 0.75,-2.011 0.75,-2.758 0,-0.747 0.338,-1.92 0.751,-2.606 0.414,-0.686 0.868,-1.904 1.011,-2.707 0.143,-0.803 0.516,-1.672 0.829,-1.933 0.313,-0.26 0.69,-1.313 0.837,-2.34 0.147,-1.027 0.582,-2.227 0.967,-2.667 0.385,-0.44 0.828,-1.34 0.984,-2 0.156,-0.66 0.508,-1.47 0.783,-1.8 0.275,-0.33 0.716,-1.357 0.98,-2.283 0.264,-0.926 0.658,-1.793 0.875,-1.928 0.217,-0.134 0.664,-0.816 0.992,-1.516 0.328,-0.7 1.039,-1.993 1.58,-2.873 0.54,-0.88 1.279,-2.23 1.642,-3 0.362,-0.77 0.792,-1.49 0.954,-1.6 0.162,-0.11 0.531,-0.65 0.82,-1.2 2.414,-4.599 7.638,-6.293 11.228,-3.639 0.598,0.442 1.542,0.918 2.097,1.057 0.556,0.14 1.322,0.598 1.703,1.018 0.38,0.42 0.978,0.765 1.329,0.766 0.351,0.002 1.808,0.811 3.238,1.798 1.43,0.987 2.738,1.796 2.906,1.798 0.168,0.001 1.276,0.767 2.463,1.702 1.187,0.935 2.816,2.15 3.62,2.7 6.909,4.726 18.343,15.18 21.589,19.739 0.672,0.943 2.223,2.873 3.446,4.288 1.945,2.25 3.335,4.156 6.065,8.322 0.379,0.578 1.039,1.69 1.467,2.472 0.429,0.781 1.514,2.155 2.412,3.052 0.897,0.898 1.636,1.879 1.641,2.18 0.005,0.301 0.361,0.997 0.791,1.547 0.43,0.55 0.786,1.341 0.791,1.758 0.01,0.865 2.631,6.485 3.183,6.826 0.201,0.124 0.489,0.793 0.642,1.487 0.152,0.694 0.615,1.817 1.029,2.496 0.414,0.678 0.753,1.778 0.754,2.444 0,0.666 0.303,1.642 0.672,2.168 0.368,0.527 0.811,1.85 0.983,2.94 0.173,1.09 0.567,2.275 0.877,2.632 0.309,0.357 0.681,1.431 0.826,2.386 0.145,0.955 0.595,2.395 0.999,3.2 0.407,0.812 0.858,2.887 1.012,4.663 0.153,1.76 0.543,3.606 0.866,4.103 0.363,0.557 0.672,2.391 0.809,4.8 0.122,2.143 0.488,4.798 0.813,5.9 0.326,1.102 0.537,2.992 0.468,4.2 l -0.124,2.197 -16,0.096 c -8.8,0.054 -16.226,-0.048 -16.502,-0.225 -0.72,-0.46 -1.573,-4.119 -1.882,-8.071 -0.255,-3.264 -1.158,-7.378 -2.458,-11.2 -0.337,-0.99 -0.784,-2.487 -0.993,-3.326 -0.209,-0.839 -0.634,-1.919 -0.943,-2.4 -0.31,-0.481 -0.692,-1.594 -0.85,-2.474 -0.159,-0.88 -0.622,-2.029 -1.03,-2.554 -0.408,-0.525 -0.742,-1.22 -0.742,-1.545 0,-0.326 -0.357,-1.247 -0.793,-2.047 -0.436,-0.799 -0.98,-1.904 -1.208,-2.454 -0.228,-0.55 -0.949,-1.81 -1.601,-2.8 -0.652,-0.99 -1.411,-2.25 -1.687,-2.8 -0.276,-0.55 -1.004,-1.72 -1.617,-2.6 -0.614,-0.88 -1.71,-2.5 -2.436,-3.6 -0.726,-1.1 -1.902,-2.63 -2.613,-3.4 -0.711,-0.77 -2.539,-2.934 -4.062,-4.81 -2.773,-3.415 -4.953,-5.18 -5.598,-4.534 -1.187,1.19 -2.489,4.612 -2.79,7.333 -0.184,1.656 -0.614,4.271 -0.957,5.811 -0.858,3.851 -0.909,22.589 -0.07,25.816 0.312,1.201 0.753,3.804 0.979,5.784 0.243,2.126 0.747,4.249 1.232,5.185 0.452,0.871 0.821,2.273 0.821,3.116 0,0.842 0.36,2.237 0.8,3.099 0.44,0.862 0.8,1.888 0.8,2.278 0,0.391 0.468,1.703 1.04,2.916 0.988,2.094 1.262,2.693 2.747,6.006 0.565,1.26 1.312,2.698 2.286,4.4 0.189,0.33 0.622,1.209 0.963,1.954 0.341,0.745 0.939,1.825 1.329,2.4 0.391,0.575 1.233,1.856 1.872,2.846 0.64,0.99 1.352,1.98 1.584,2.2 0.231,0.22 0.95,1.21 1.598,2.2 3.579,5.473 17.602,19.6 19.456,19.6 0.238,0 0.834,0.405 1.323,0.9 1.453,1.47 5.506,4.3 6.158,4.3 0.176,0 0.639,0.352 1.028,0.782 2.665,2.945 7.404,0.901 19.343,-8.342 5.469,-4.233 15.349,-15.053 19.03,-20.84 0.63,-0.99 1.465,-2.16 1.855,-2.6 0.662,-0.745 5.016,-9.2 7.313,-14.2 0.556,-1.21 1.401,-3.46 1.878,-5 0.478,-1.54 1.201,-3.61 1.607,-4.6 0.406,-0.99 0.846,-2.737 0.976,-3.882 0.13,-1.145 0.504,-2.839 0.831,-3.765 0.326,-0.926 0.756,-3.499 0.956,-5.718 0.199,-2.219 0.593,-6.061 0.875,-8.537 0.416,-3.654 0.417,-5.426 0.004,-9.4 -0.281,-2.694 -0.674,-6.878 -0.874,-9.298 -0.201,-2.42 -0.624,-5.12 -0.941,-6 -0.317,-0.88 -0.793,-2.943 -1.057,-4.585 l -0.481,-2.985 1.95,-1.715 c 3.627,-3.188 11.242,-8.849 13.59,-10.102 1.283,-0.684 2.609,-1.474 2.947,-1.755 0.338,-0.28 2.561,-1.482 4.94,-2.671 5.814,-2.905 6.801,-2.245 8.695,5.813 0.207,0.88 0.727,2.77 1.155,4.2 1.321,4.417 2.41,10.002 2.844,14.6 0.229,2.42 0.625,5.66 0.881,7.2 1.289,7.766 -0.051,30.295 -2.297,38.6 -0.327,1.21 -0.597,2.707 -0.599,3.326 -0.003,0.619 -0.347,1.969 -0.766,3 -0.418,1.031 -1.029,2.954 -1.358,4.274 -0.625,2.514 -1.537,5.174 -2.468,7.2 -0.303,0.66 -0.683,1.74 -0.844,2.4 -0.16,0.66 -0.624,1.827 -1.03,2.594 -0.407,0.767 -0.739,1.69 -0.739,2.051 0,0.361 -0.269,0.88 -0.597,1.153 -0.329,0.272 -0.795,1.239 -1.036,2.149 -0.241,0.909 -0.989,2.553 -1.663,3.653 -0.673,1.1 -1.941,3.35 -2.817,5 -0.876,1.65 -1.839,3.284 -2.14,3.631 -0.301,0.348 -0.55,0.798 -0.553,1 -0.003,0.203 -0.641,1.269 -1.418,2.369 -0.776,1.1 -1.718,2.453 -2.094,3.007 -3.495,5.16 -7.778,10.321 -14.197,17.11 -4.742,5.016 -4.671,5.101 4.115,5.011 5.157,-0.054 7.455,-0.236 8.726,-0.692 0.95,-0.341 2.93,-0.734 4.4,-0.873 1.471,-0.14 3.219,-0.565 3.886,-0.943 0.667,-0.379 2.197,-0.805 3.4,-0.947 1.203,-0.141 2.901,-0.62 3.773,-1.065 0.871,-0.444 2.046,-0.808 2.611,-0.808 0.564,0 1.381,-0.247 1.815,-0.549 0.434,-0.302 2.204,-1.115 3.933,-1.806 1.729,-0.691 3.598,-1.613 4.154,-2.05 0.555,-0.437 1.231,-0.795 1.502,-0.795 0.271,0 0.921,-0.335 1.446,-0.745 0.525,-0.41 1.394,-0.883 1.931,-1.051 0.537,-0.169 2.024,-1.049 3.304,-1.955 1.28,-0.907 3.513,-2.459 4.961,-3.449 1.448,-0.99 3.022,-2.174 3.496,-2.63 0.474,-0.457 1.671,-1.447 2.66,-2.2 2.164,-1.649 9.48,-8.919 10.602,-10.536 0.971,-1.4 2.027,-2.663 4.209,-5.034 0.911,-0.99 1.901,-2.354 2.2,-3.032 0.3,-0.677 0.825,-1.464 1.168,-1.749 0.343,-0.284 0.623,-0.737 0.623,-1.006 0,-0.269 0.35,-0.806 0.777,-1.192 0.428,-0.387 0.892,-1.224 1.032,-1.86 0.139,-0.636 0.484,-1.292 0.766,-1.459 0.281,-0.166 0.73,-0.974 0.998,-1.796 0.267,-0.822 0.662,-1.604 0.879,-1.738 0.555,-0.343 4.348,-8.441 4.348,-9.284 0,-0.383 0.357,-1.362 0.793,-2.175 0.436,-0.814 0.916,-2.251 1.066,-3.194 0.15,-0.943 0.599,-2.435 0.998,-3.315 0.399,-0.88 0.737,-2.23 0.752,-3 0.014,-0.77 0.304,-2.12 0.645,-3 1.884,-4.873 3.2,-24.043 1.987,-28.942 -0.307,-1.242 -0.669,-3.708 -0.803,-5.48 -0.134,-1.772 -0.602,-4.243 -1.041,-5.49 -0.438,-1.247 -0.797,-2.862 -0.797,-3.589 0,-0.727 -0.28,-1.721 -0.622,-2.209 -0.342,-0.489 -0.803,-2.011 -1.024,-3.384 -0.221,-1.373 -0.659,-2.78 -0.973,-3.127 -0.314,-0.347 -0.674,-1.25 -0.799,-2.005 -0.235,-1.423 -0.769,-2.695 -3.044,-7.256 -2.22,-4.45 -2.676,-5.296 -3.141,-5.827 -0.245,-0.28 -0.694,-1.104 -0.998,-1.832 -0.304,-0.727 -0.833,-1.555 -1.176,-1.84 -0.343,-0.284 -0.623,-0.733 -0.623,-0.998 0,-0.435 -2.657,-4.205 -4.157,-5.9 -0.33,-0.373 -0.879,-1.217 -1.219,-1.874 -0.877,-1.696 -12.733,-13.454 -15.979,-15.847 -1.492,-1.1 -3.019,-2.27 -3.392,-2.6 -0.374,-0.33 -1.394,-1.066 -2.266,-1.636 -0.873,-0.57 -2.11,-1.38 -2.748,-1.8 -2.208,-1.453 -4.043,-2.525 -5.039,-2.943 -0.55,-0.231 -1.27,-0.603 -1.6,-0.826 -0.33,-0.223 -1.32,-0.761 -2.2,-1.195 -0.88,-0.434 -1.87,-0.946 -2.2,-1.136 -2.561,-1.477 -9.142,-3.925 -11.35,-4.221 -0.852,-0.115 -1.851,-0.482 -2.22,-0.816 -0.369,-0.334 -1.926,-0.785 -3.46,-1.003 -1.533,-0.217 -3.572,-0.672 -4.529,-1.01 -0.958,-0.338 -2.304,-0.614 -2.991,-0.615 -0.688,0 -2.78,-0.29 -4.65,-0.645 -1.87,-0.355 -4.84,-0.76 -6.6,-0.9 l -3.2,-0.254 -0.112,-5.555 c -0.097,-4.826 -0.011,-5.748 0.652,-7.019 0.419,-0.805 0.889,-2.386 1.044,-3.513 0.169,-1.226 0.59,-2.328 1.049,-2.743 0.422,-0.382 0.767,-0.866 0.767,-1.076 0,-0.976 5.66,-7.044 6.603,-7.079 0.222,-0.008 1.212,-0.441 2.2,-0.963 3.148,-1.66 15.918,-1.75 18.442,-0.13 0.525,0.338 1.985,0.738 3.243,0.89 1.258,0.153 2.488,0.518 2.733,0.813 0.244,0.295 1.285,0.649 2.312,0.788 1.027,0.139 3.319,0.943 5.093,1.788 1.774,0.844 3.877,1.657 4.674,1.807 0.796,0.149 1.757,0.613 2.136,1.032 0.378,0.418 1.029,0.76 1.447,0.76 0.417,0 1.424,0.36 2.238,0.799 0.813,0.439 2.109,1.069 2.879,1.399 0.77,0.33 1.94,0.96 2.6,1.399 0.66,0.439 1.92,1.162 2.8,1.605 0.88,0.444 2.41,1.335 3.4,1.981 2.476,1.615 3.231,2.092 4.778,3.017 0.736,0.44 2.834,1.97 4.664,3.4 1.829,1.43 4.112,3.182 5.072,3.893 2.751,2.037 17.486,16.766 17.486,17.479 0,0.303 2.065,2.977 3.549,4.594 0.521,0.569 1.237,1.484 1.59,2.034 0.353,0.55 0.871,1.144 1.151,1.32 0.281,0.176 0.51,0.557 0.51,0.846 0,0.289 0.399,1.033 0.887,1.653 0.487,0.62 1.162,1.619 1.5,2.22 1.062,1.893 4.01,6.872 5.423,9.161 0.747,1.21 1.366,2.532 1.374,2.937 0.009,0.405 0.376,1.194 0.816,1.754 0.44,0.559 0.8,1.271 0.8,1.581 0,0.311 0.45,1.41 1,2.443 0.55,1.033 1.001,2.15 1.003,2.482 0.001,0.332 0.36,1.143 0.797,1.803 0.437,0.66 0.796,1.473 0.797,1.806 0.002,0.333 0.368,1.286 0.813,2.117 0.446,0.831 0.92,2.359 1.054,3.394 0.134,1.036 0.502,2.181 0.817,2.544 0.315,0.364 0.765,1.984 0.999,3.6 0.235,1.617 0.665,3.411 0.957,3.987 0.292,0.577 0.645,2.287 0.785,3.8 0.141,1.514 0.581,3.832 0.979,5.152 2.443,8.103 2.445,30.702 0.003,42 -0.428,1.98 -0.884,4.575 -1.014,5.767 -0.129,1.192 -0.497,2.792 -0.816,3.556 -0.319,0.765 -0.687,2.399 -0.817,3.633 -0.13,1.234 -0.557,2.702 -0.948,3.262 -0.391,0.559 -0.842,1.999 -1.002,3.2 -0.16,1.2 -0.632,2.743 -1.049,3.429 -0.417,0.686 -0.758,1.607 -0.758,2.046 0,0.44 -0.36,1.257 -0.8,1.816 -0.44,0.56 -0.802,1.259 -0.804,1.554 -0.002,0.295 -0.446,1.437 -0.987,2.537 -0.541,1.1 -0.99,2.242 -0.996,2.537 -0.007,0.295 -0.373,0.994 -0.813,1.554 -0.44,0.559 -0.8,1.408 -0.8,1.885 0,0.478 -0.45,1.479 -1,2.224 -0.55,0.745 -1,1.488 -1,1.649 0,0.162 -0.72,1.378 -1.6,2.703 -0.88,1.325 -1.6,2.589 -1.6,2.808 0,0.219 -0.45,0.884 -1,1.478 -0.55,0.593 -1,1.295 -1,1.558 0,0.264 -0.36,0.806 -0.8,1.204 -0.44,0.398 -0.8,0.944 -0.8,1.212 0,0.268 -1.25,2.085 -2.778,4.038 -8.335,10.65 -14.535,17.159 -21.993,23.086 -0.786,0.624 -1.699,1.393 -2.029,1.708 -1.305,1.246 -8.19,6.156 -8.632,6.156 -0.259,0 -0.71,0.289 -1.003,0.642 -0.292,0.353 -0.9,0.806 -1.349,1.008 -0.449,0.201 -1.626,0.901 -2.616,1.554 -0.99,0.653 -2.52,1.547 -3.4,1.987 -1.638,0.818 -2.149,1.116 -4.622,2.699 -0.781,0.501 -1.717,0.91 -2.078,0.91 -0.362,0 -1.504,0.45 -2.538,1 -1.035,0.55 -2.102,1 -2.373,1 -0.27,0 -0.711,0.265 -0.98,0.589 -0.269,0.325 -1.146,0.711 -1.949,0.859 -0.803,0.148 -2.087,0.603 -2.854,1.011 -0.767,0.407 -1.688,0.741 -2.046,0.741 -0.359,0 -1.081,0.337 -1.606,0.749 -0.525,0.412 -1.944,0.879 -3.154,1.038 -1.21,0.158 -2.74,0.557 -3.4,0.887 -0.66,0.329 -2.414,0.757 -3.897,0.951 -1.483,0.194 -3.103,0.615 -3.6,0.937 -0.509,0.329 -2.824,0.77 -5.303,1.01 -2.42,0.234 -5.12,0.623 -6,0.864 -4.427,1.214 -28.995,1.101 -34,-0.156 -1.32,-0.332 -3.895,-0.724 -5.722,-0.871 -1.863,-0.15 -4.059,-0.602 -5,-1.03 -0.923,-0.419 -2.308,-0.773 -3.078,-0.788 -0.77,-0.014 -2.12,-0.304 -3,-0.644 -0.88,-0.34 -2.68,-0.801 -4,-1.025 -1.32,-0.223 -2.886,-0.657 -3.48,-0.964 -1.547,-0.799 -4.291,-0.695 -5.791,0.22 -0.699,0.426 -1.959,0.892 -2.8,1.036 -0.841,0.143 -2.609,0.59 -3.929,0.992 -3.183,0.97 -7.093,1.944 -9.8,2.441 -1.21,0.222 -3.73,0.683 -5.6,1.024 -9.802,1.788 -29.099,1.853 -39.8,0.135 -2.64,-0.424 -5.698,-0.887 -6.795,-1.027 -1.097,-0.141 -2.447,-0.489 -3,-0.773 -0.553,-0.285 -2.235,-0.708 -3.738,-0.94 -1.504,-0.233 -2.944,-0.597 -3.2,-0.81 -0.257,-0.212 -1.637,-0.597 -3.067,-0.854 -1.43,-0.258 -2.87,-0.706 -3.2,-0.996 -0.33,-0.29 -2.04,-1.017 -3.8,-1.614 -1.76,-0.598 -4.843,-1.876 -6.852,-2.84 -2.009,-0.963 -3.919,-1.752 -4.246,-1.752 -0.327,0 -1.023,-0.338 -1.548,-0.75 -0.525,-0.413 -2.147,-1.383 -3.605,-2.157 -1.458,-0.773 -3.618,-2.021 -4.8,-2.774 -1.182,-0.752 -2.419,-1.495 -2.749,-1.65 -8.475,-3.985 -28.854,-23.442 -36.242,-34.602 -5.089,-7.687 -7.594,-11.848 -9.193,-15.267 -1.006,-2.152 -3.143,-6.748 -4.312,-9.275 -0.579,-1.252 -1.053,-2.476 -1.053,-2.721 0,-0.245 -0.353,-1.111 -0.784,-1.925 -0.431,-0.813 -1.259,-3.189 -1.84,-5.279 -0.581,-2.09 -1.322,-4.61 -1.648,-5.6 -0.815,-2.482 -1.602,-6.153 -2.512,-11.728 -0.425,-2.601 -1.007,-5.391 -1.294,-6.2 -0.886,-2.5 -0.737,-31.179 0.178,-34.134 0.385,-1.243 0.7,-2.753 0.7,-3.354 0,-1.552 1.896,-10.73 2.806,-13.584 1.385,-4.342 2.325,-7.578 2.614,-9 0.156,-0.77 0.621,-1.829 1.032,-2.354 0.411,-0.525 0.748,-1.205 0.748,-1.512 0,-0.856 4.315,-10.768 5.805,-13.334 0.32,-0.55 0.867,-1.609 1.216,-2.354 0.349,-0.745 0.953,-1.825 1.342,-2.4 1.792,-2.652 5.172,-7.934 5.592,-8.739 1.24,-2.377 10.809,-13.672 16.034,-18.924 3.854,-3.875 13.62,-11.852 17.898,-14.619 1.272,-0.823 3.227,-2.086 4.345,-2.806 1.117,-0.721 3.083,-1.887 4.368,-2.592 1.285,-0.706 2.961,-1.706 3.724,-2.224 0.763,-0.518 1.628,-0.942 1.922,-0.942 0.294,0 1.124,-0.359 1.844,-0.799 0.721,-0.439 1.601,-0.799 1.956,-0.8 0.355,0 1.075,-0.324 1.6,-0.72 0.525,-0.395 2.304,-1.22 3.954,-1.832 1.65,-0.612 3.54,-1.391 4.2,-1.731 0.66,-0.34 2.1,-0.851 3.2,-1.135 1.1,-0.285 2.72,-0.794 3.6,-1.133 0.88,-0.338 2.011,-0.623 2.513,-0.632 0.502,-0.01 1.582,-0.303 2.4,-0.652 3.567,-1.519 11.58,-2.156 16.452,-1.308 m 18.15,104.042 c 7.05,7.528 13.692,17.288 17.08,25.1 0.716,1.65 1.436,3.18 1.601,3.4 0.165,0.22 0.519,1.12 0.786,2 0.268,0.88 0.82,2.5 1.228,3.6 1.893,5.108 3.57,12.593 4.347,19.403 0.655,5.741 -1.372,5.185 18.934,5.192 l 16.291,0.005 0.566,-0.9 c 0.311,-0.495 0.861,-2.97 1.222,-5.5 2.699,-18.94 9.357,-33.817 21.818,-48.752 5.906,-7.079 6.045,-7.058 7.61,1.152 1.737,9.114 1.969,28.647 0.405,34 -0.225,0.77 -0.687,2.999 -1.028,4.954 -0.788,4.531 -3.024,11.333 -5.494,16.716 -0.774,1.688 -1.531,3.457 -1.682,3.932 -2.461,7.754 -17.582,26.284 -27.378,33.55 -12,8.901 -12.287,8.973 -18.667,4.665 -11.195,-7.558 -17.549,-13.493 -25.285,-23.617 -4.425,-5.791 -11.909,-20.151 -13.246,-25.416 -0.249,-0.981 -0.709,-2.414 -1.021,-3.184 -0.855,-2.105 -2.523,-9.452 -2.815,-12.4 -0.142,-1.43 -0.512,-4.634 -0.822,-7.12 -0.644,-5.15 -0.706,-10.206 -0.176,-14.28 0.2,-1.54 0.559,-4.718 0.797,-7.062 0.375,-3.689 1.664,-9.849 2.265,-10.82 0.399,-0.646 1.111,-0.276 2.664,1.382 M 262.8,299.316 c -0.642,0.389 -0.7,1.428 -0.7,12.524 0,13.191 -0.023,13.06 2.306,13.06 2.853,0 2.894,-0.101 2.894,-7.138 0,-7.605 0.419,-8.812 2.258,-6.511 1.17,1.464 6.277,7.317 9.466,10.849 3.161,3.501 4.741,4.278 6.047,2.971 0.821,-0.82 0.96,-24.48 0.149,-25.291 -0.708,-0.708 -2.907,-0.583 -3.874,0.22 -0.786,0.653 -0.849,1.143 -0.944,7.295 -0.132,8.515 0.072,8.492 -6.743,0.762 -2.947,-3.343 -5.899,-6.681 -6.559,-7.419 -1.29,-1.441 -3.157,-2.015 -4.3,-1.322 m 39.483,-0.05 c -8.357,1.374 -13.148,12.554 -8.568,19.997 4.527,7.358 17.554,9.058 17.905,2.337 0.133,-2.558 -0.512,-2.962 -2.72,-1.7 -0.55,0.314 -2.053,0.578 -3.34,0.586 -9.319,0.056 -11.093,-13.136 -2.173,-16.165 l 2.113,-0.717 2.488,1.048 c 3.561,1.5 3.712,1.455 3.712,-1.108 0,-3.965 -3.008,-5.332 -9.417,-4.278 m 75.085,0.031 c -8.125,1.922 -8.31,14.559 -0.247,16.91 2.932,0.855 3.035,1.376 0.848,4.286 -2.203,2.931 -2.201,2.916 -0.707,3.98 2.315,1.648 3.254,1.073 6.829,-4.182 0.745,-1.095 1.922,-2.711 2.616,-3.591 7.804,-9.894 2.297,-20.156 -9.339,-17.403 m 23.682,0.038 c -8.781,2.545 -9.292,21.745 -0.681,25.554 7.269,3.216 13.428,-2.576 13.408,-12.609 -0.019,-9.599 -5.398,-15.07 -12.727,-12.945 m -169.356,0.293 c -6.992,3.139 -5.844,12.187 1.79,14.11 2.127,0.535 4.216,2.294 4.216,3.549 0,3.266 -3.785,4.431 -6.539,2.013 -2.085,-1.831 -4.661,-0.932 -4.661,1.626 0,6.249 14.359,5.958 16.436,-0.334 1.345,-4.077 -1.237,-10.49 -4.225,-10.492 -1.364,-0.001 -5.404,-2.433 -5.646,-3.399 -0.616,-2.453 2.303,-3.696 5.205,-2.216 2.474,1.261 4.963,-1.27 3.184,-3.236 -1.592,-1.758 -7.33,-2.712 -9.76,-1.621 m 18.278,0.258 c -0.691,0.691 -1.067,22.319 -0.417,24.012 0.55,1.434 4.12,1.512 5.011,0.109 0.636,-1.002 0.402,-23.353 -0.25,-23.894 -1.022,-0.848 -3.589,-0.982 -4.344,-0.227 m 68.651,-0.182 c -0.87,0.35 -0.878,0.446 -1.003,11.875 -0.162,14.683 -0.898,13.321 7.209,13.321 6.884,0 7.271,-0.117 7.271,-2.2 0,-1.912 -0.58,-2.2 -4.431,-2.2 -4.147,0 -4.556,-0.307 -4.512,-3.393 0.043,-2.934 0.134,-3.007 3.793,-3.007 3.902,0 4.752,-0.379 4.744,-2.114 -0.01,-2.139 -0.397,-2.38 -4.243,-2.644 -3.881,-0.266 -4.854,-0.994 -4.323,-3.238 0.338,-1.428 0.79,-1.591 4.449,-1.598 4.126,-0.008 6.12,-2.352 3.894,-4.577 -0.71,-0.711 -11.188,-0.894 -12.848,-0.225 m 34.012,-0.005 c -1.977,0.798 -1.622,3.157 0.697,4.621 l 1.568,0.99 v 9.133 c 0,8.34 0.064,9.19 0.731,9.795 0.855,0.773 3.68,0.891 4.389,0.182 0.81,-0.81 0.672,-23.671 -0.149,-24.491 -0.7,-0.701 -5.677,-0.858 -7.236,-0.23 m 66.03,0.598 c -0.727,1.11 -0.537,2.574 0.464,3.575 0.494,0.493 1.558,0.628 4.966,0.628 4.719,0 5.185,0.23 4.048,2.002 -1.374,2.14 -1.665,2.631 -2.132,3.598 -0.265,0.55 -1.23,2.17 -2.143,3.6 -5.291,8.284 -5.818,9.847 -3.668,10.872 2.277,1.086 3.173,0.281 6.951,-6.242 0.852,-1.471 1.999,-3.446 2.549,-4.389 0.55,-0.944 1.775,-3.049 2.723,-4.678 0.947,-1.63 2.342,-3.953 3.098,-5.163 2.882,-4.61 2.563,-4.8 -8.044,-4.8 h -8.159 l -0.653,0.997 m -33.486,1.127 c 5.041,3.182 5.034,7.98 -0.022,14.876 -1.451,1.98 -3.048,4.196 -3.548,4.924 -1.38,2.01 -1.947,2.527 -2.624,2.396 -1.142,-0.222 -0.926,-0.997 0.906,-3.245 3.181,-3.905 2.808,-5.475 -1.3,-5.475 -4.056,0 -5.995,-2.838 -5.557,-8.134 0.25,-3.03 0.528,-3.516 2.86,-4.99 3.051,-1.929 6.575,-2.063 9.285,-0.352 m 20.995,-0.969 c 1.168,0.447 4.726,3.885 4.726,4.566 0,0.281 0.396,1.223 0.879,2.094 1.155,2.082 1.334,8.834 0.266,10.043 -0.361,0.408 -0.776,1.307 -0.923,1.998 -0.825,3.889 -8.562,6.435 -11.557,3.803 -3.033,-2.666 -4.879,-12.763 -3.082,-16.861 1.821,-4.154 6.487,-6.871 9.691,-5.643 m -167.421,0.878 c 1.416,0.875 1.935,2.291 0.647,1.768 -3.318,-1.348 -5.591,-1.121 -7.135,0.713 -1.225,1.457 -1.168,4.079 0.108,4.958 0.4,0.276 0.969,0.709 1.264,0.965 0.295,0.255 1.318,0.699 2.272,0.986 7.015,2.111 8.384,7.606 3.07,12.321 -1.427,1.266 -7.688,1.056 -9.313,-0.312 -0.675,-0.567 -1.394,-1.032 -1.597,-1.032 -0.568,0 -0.438,-0.673 0.266,-1.378 0.58,-0.579 0.736,-0.549 1.802,0.348 3.367,2.833 9.603,0.738 9.546,-3.208 -0.023,-1.624 -2.191,-3.967 -4.191,-4.528 -0.875,-0.246 -1.941,-0.714 -2.368,-1.04 -0.428,-0.327 -1.086,-0.594 -1.465,-0.594 -2.417,0 -3.782,-5.791 -1.923,-8.155 2.01,-2.555 6.39,-3.436 9.017,-1.812 m 13.373,-0.419 c 0.737,0.394 0.774,0.951 0.774,11.627 v 11.212 l -1.1,-0.126 -1.1,-0.127 -0.112,-10.6 c -0.134,-12.601 -0.1,-12.863 1.538,-11.986 m 14.82,1.686 c 0.946,1.155 2.357,2.826 3.137,3.714 0.779,0.888 2.407,2.764 3.617,4.169 1.21,1.405 2.578,2.929 3.039,3.386 0.462,0.457 1.045,1.221 1.297,1.698 0.622,1.181 2.741,1.628 3.608,0.761 0.545,-0.544 0.69,-1.917 0.856,-8.141 0.194,-7.244 0.227,-7.491 1.046,-7.608 1.227,-0.175 1.354,0.967 1.354,12.138 0,12.956 -0.209,13.285 -5.043,7.926 -1.516,-1.681 -3.049,-3.346 -3.406,-3.7 -0.357,-0.354 -1.61,-1.813 -2.784,-3.243 -1.174,-1.43 -2.27,-2.658 -2.436,-2.728 -0.165,-0.071 -0.682,-0.746 -1.148,-1.5 -0.729,-1.179 -1.065,-1.372 -2.392,-1.372 -2.147,0 -2.181,0.128 -2.186,8.2 l -0.005,7.2 -1.1,0.127 -1.1,0.126 V 312.127 300.5 h 0.963 c 0.676,0 1.474,0.625 2.683,2.1 m 42.734,-0.814 c 0.817,1.459 0.048,2.425 -1.102,1.385 -1.122,-1.016 -5.638,-0.932 -6.987,0.129 -0.56,0.44 -1.142,0.8 -1.294,0.8 -0.486,0 -2.493,2.352 -3.562,4.176 -3.897,6.649 3.038,15.315 10.829,13.532 2.158,-0.494 2.536,-0.39 2.536,0.692 0,1.491 -8.403,2.045 -9.939,0.655 -0.392,-0.355 -1.241,-0.833 -1.887,-1.062 -0.763,-0.271 -1.644,-1.179 -2.517,-2.592 -0.738,-1.195 -1.593,-2.382 -1.9,-2.636 -2.14,-1.777 -0.397,-9.262 2.941,-12.633 3.779,-3.815 11.314,-5.246 12.882,-2.446 M 330.7,301.7 c 0,0.479 -0.794,0.641 -3.935,0.803 -4.744,0.245 -5.065,0.516 -5.065,4.273 0,3.637 0.587,4.124 4.976,4.124 3.438,0 4.292,0.355 3.409,1.418 -0.355,0.428 -1.403,0.582 -3.954,0.582 -4.328,0 -4.433,0.099 -4.425,4.18 0.009,4.411 -0.022,4.382 4.878,4.62 3.909,0.19 4.122,0.246 4.245,1.111 l 0.13,0.911 -5.73,-0.111 -5.729,-0.111 -0.107,-10.514 c -0.07,-6.887 0.041,-10.789 0.321,-11.311 0.568,-1.062 10.986,-1.038 10.986,0.025 m 28.303,2.4 c 0.167,1.65 0.257,6.69 0.2,11.2 l -0.103,8.2 h -1 -1 l -0.218,-9.8 c -0.12,-5.39 -0.255,-9.841 -0.3,-9.892 -0.045,-0.05 -0.796,-0.456 -1.669,-0.901 -2.407,-1.228 -1.818,-2.076 1.337,-1.925 l 2.45,0.118 0.303,3 m 75.599,-1.7 c -0.376,0.825 -1.093,2.009 -1.593,2.631 -0.5,0.622 -0.909,1.365 -0.909,1.651 0,0.286 -0.234,0.714 -0.521,0.952 -0.286,0.238 -1.203,1.745 -2.038,3.349 -1.674,3.217 -2.675,4.932 -4.365,7.482 -0.619,0.933 -1.23,1.997 -1.359,2.365 -0.285,0.815 -2.141,2.87 -2.592,2.87 -0.5,0 -0.374,-2.099 0.181,-3.019 1.058,-1.755 2.162,-3.525 3.804,-6.1 0.941,-1.474 2.093,-3.491 2.561,-4.481 0.467,-0.99 1.16,-2.16 1.54,-2.6 2.864,-3.32 1.238,-5 -4.84,-5 -4.504,0 -4.771,-0.045 -4.771,-0.8 0,-0.773 0.267,-0.8 7.794,-0.8 h 7.793 l -0.685,1.5 m -56.502,0.175 c -2.176,1.118 -2.999,2.604 -2.977,5.373 0.04,4.843 5.008,7.378 8.953,4.569 5.968,-4.25 0.535,-13.288 -5.976,-9.942 m 24.6,-0.191 c -3.338,0.829 -5,5.87 -4.215,12.784 0.909,7.993 7.474,9.852 10.718,3.036 3.368,-7.074 -0.809,-17.234 -6.503,-15.82 m -19.16,2.276 c 1.103,1.103 1.36,1.669 1.36,2.994 0,3.994 -4.722,5.856 -7.218,2.846 -3.513,-4.238 1.982,-9.716 5.858,-5.84 m 22.314,-0.125 c 3.911,3.076 3.349,14.405 -0.792,15.979 -5.449,2.072 -7.836,-11.951 -2.719,-15.976 1.342,-1.056 2.171,-1.057 3.511,-0.003"
       id="path1" />
  </g>
</svg>
