<?xml version="1.0" encoding="UTF-8" standalone="no"?>
<svg
   xmlns:dc="http://purl.org/dc/elements/1.1/"
   xmlns:cc="http://creativecommons.org/ns#"
   xmlns:rdf="http://www.w3.org/1999/02/22-rdf-syntax-ns#"
   xmlns:svg="http://www.w3.org/2000/svg"
   xmlns="http://www.w3.org/2000/svg"
   xmlns:sodipodi="http://sodipodi.sourceforge.net/DTD/sodipodi-0.dtd"
   xmlns:inkscape="http://www.inkscape.org/namespaces/inkscape"
   inkscape:version="1.0 (4035a4fb49, 2020-05-01)"
   sodipodi:docname="directlinegroup.svg"
   viewBox="0 0 162.834 187.78114"
   height="187.78114"
   width="162.834"
   version="1.1"
   id="svg">
  <metadata
     id="metadata17">
    <rdf:RDF>
      <cc:Work
         rdf:about="">
        <dc:format>image/svg+xml</dc:format>
        <dc:type
           rdf:resource="http://purl.org/dc/dcmitype/StillImage" />
      </cc:Work>
    </rdf:RDF>
  </metadata>
  <defs
     id="defs15" />
  <sodipodi:namedview
     inkscape:current-layer="svg"
     inkscape:window-maximized="1"
     inkscape:window-y="441"
     inkscape:window-x="1609"
     inkscape:cy="90.649"
     inkscape:cx="81.634"
     inkscape:zoom="2"
     showgrid="false"
     id="namedview13"
     inkscape:window-height="2066"
     inkscape:window-width="5160"
     inkscape:pageshadow="2"
     inkscape:pageopacity="0"
     guidetolerance="10"
     gridtolerance="10"
     objecttolerance="10"
     borderopacity="1"
     bordercolor="#666666"
     pagecolor="#ffffff" />
  <g
     transform="translate(-118.366,-109.351)"
     id="svgg">
    <path
       fill-rule="evenodd"
       fill="#dba63b"
       stroke="none"
       d="m 279.079,178.2 c -0.176,1.76 -0.408,4.37 -0.516,5.8 -0.108,1.43 -0.375,3.495 -0.594,4.589 -0.274,1.367 -0.26,2.866 0.045,4.8 0.507,3.214 0.382,24.75 -0.147,25.278 -0.416,0.415 -1.433,-0.935 -1.708,-2.267 -0.275,-1.332 -0.8,-2.218 -1.257,-2.122 -1.104,0.233 -4.652,-4.25 -4.133,-5.221 1.077,-2.011 -1.919,-4.623 -3.277,-2.857 -0.192,0.25 -0.507,0.139 -0.839,-0.294 -0.293,-0.381 -0.659,-0.567 -0.814,-0.412 -0.155,0.155 -0.162,-0.03 -0.015,-0.411 0.493,-1.286 -1.709,-2.731 -6.286,-4.124 -1.023,-0.312 -3.003,-1.393 -4.4,-2.403 l -2.538,-1.835 2.9,2.746 c 4.345,4.113 4.24,4.592 -2.143,9.826 -9.423,7.726 -22.846,17.143 -35.357,24.804 -13.681,8.378 -46.835,25.28 -49.074,25.018 l -1.357,-0.158 0.05,15.768 0.05,15.768 1.425,-0.231 c 1.022,-0.166 1.72,-0.024 2.466,0.5 4.325,3.039 13.128,3.87 21.64,2.042 36.183,-7.768 79.334,-37.173 85.465,-58.241 0.653,-2.244 1.309,-45.526 0.858,-56.563 l -0.123,-3 -0.321,3.2"
       id="path0" />
    <path
       fill-rule="evenodd"
       fill="#2389c9"
       stroke="none"
       d="m 127.539,138.675 c -7.332,4.582 -6.739,2.728 -6.739,21.077 0,13.672 0.061,15.052 0.691,15.682 0.958,0.957 43.437,0.61 44.41,-0.363 0.467,-0.468 0.616,-2.912 0.788,-12.924 0.172,-10.011 0.322,-12.473 0.794,-13.015 0.811,-0.929 -2.494,-4.344 -5.083,-5.252 -10.622,-3.725 -21.954,-6.656 -25.8,-6.673 -1.583,-0.007 -3.261,-0.253 -3.861,-0.566 -1.009,-0.526 -1.267,-0.425 -5.2,2.034 m -5.839,92.307 -0.9,0.663 v 15.119 c 0,18.347 -0.532,16.795 7.265,21.181 1.977,1.111 2.239,1.176 2.064,0.504 -0.238,-0.908 0.194,-1.026 6.016,-1.644 3.737,-0.396 5.812,-0.797 11.855,-2.289 2.97,-0.733 16.019,-4.97 17.751,-5.763 l 1.15,-0.527 -0.184,-13.133 c -0.154,-10.998 -0.282,-13.23 -0.787,-13.735 -0.973,-0.972 -42.937,-1.329 -44.23,-0.376"
       id="path2" />
    <path
       fill-rule="evenodd"
       fill="#9e2e81"
       stroke="none"
       d="m 175.713,111.789 c -2.863,0.807 -6.344,2.601 -17.313,8.922 -5.17,2.979 -13,7.485 -17.4,10.013 -10.602,6.091 -10.847,6.462 -4.274,6.486 3.71,0.014 15.219,3.004 25.674,6.67 1.073,0.376 2.544,1.392 3.642,2.514 1.107,1.132 2.344,1.983 3.101,2.135 11.819,2.363 52.67,25.505 78.399,44.412 6.846,5.031 10.746,7.637 12,8.019 4.573,1.392 6.775,2.838 6.282,4.123 -0.147,0.381 -0.14,0.566 0.015,0.411 0.155,-0.155 0.521,0.031 0.814,0.412 0.332,0.433 0.647,0.544 0.839,0.294 1.358,-1.766 4.354,0.846 3.277,2.857 -0.519,0.971 3.029,5.454 4.133,5.221 0.457,-0.096 0.982,0.79 1.257,2.122 0.275,1.332 1.292,2.682 1.708,2.267 0.531,-0.53 0.653,-22.065 0.144,-25.296 -0.3,-1.899 -0.32,-3.411 -0.062,-4.6 0.564,-2.598 1.051,-8.796 1.051,-13.378 0,-19.826 -47.117,-54.578 -85.446,-63.023 -5.008,-1.103 -14.851,-1.424 -17.841,-0.581"
       id="path3" />
    <path
       fill-rule="evenodd"
       fill="#1fa751"
       stroke="none"
       d="m 165.926,258.629 c -4.944,2.62 -22.561,7.375 -30.839,8.324 -7.464,0.855 -7.415,0.922 6.817,9.131 6.323,3.648 14.513,8.375 18.2,10.506 3.687,2.131 6.898,3.809 7.136,3.73 0.489,-0.163 0.531,-31.516 0.043,-31.987 -0.156,-0.15 -0.766,-0.017 -1.357,0.296"
       id="path4" />
    <path
       fill-rule="evenodd"
       fill="#f3e19c"
       stroke="none"
       d="m 256.328,203.284 c -0.38,2.627 -25.989,20.939 -43.991,31.456 -7.733,4.517 -37.074,19.183 -42.527,21.256 -2.287,0.87 -2.703,3.204 -0.572,3.204 1.136,0 31.118,-14.841 39.162,-19.386 21.106,-11.922 50.861,-33.393 49.868,-35.982 -0.441,-1.149 -1.798,-1.532 -1.94,-0.548 m 23.983,23.283 c -0.5,0.366 -0.802,1.509 -1.103,4.162 -2.47,21.8 -46.529,53.599 -86.008,62.075 -8.512,1.828 -17.315,0.997 -21.64,-2.042 -1.225,-0.861 -3.96,-0.642 -3.96,0.317 0,2.537 5.955,5.433 12.246,5.955 15.564,1.293 45.777,-10.336 68.337,-26.302 18.253,-12.918 29.919,-25.799 32.43,-35.806 0.879,-3.508 0.678,-9.078 -0.302,-8.359"
       id="path5" />
    <path
       fill-rule="evenodd"
       fill="#a8d8e2"
       stroke="none"
       d="m 164,115.865 c -2.09,1.225 -9.02,5.233 -15.4,8.908 -25.2,14.513 -26.623,15.404 -28.364,17.756 -1.138,1.536 -1.541,31.335 -0.453,33.439 0.886,1.712 0.812,1.707 24.978,1.56 l 21.714,-0.133 0.762,-0.942 c 0.687,-0.847 0.764,-1.668 0.776,-8.197 0.017,-9.334 0.384,-17.136 0.832,-17.695 0.219,-0.273 0.072,-0.693 -0.389,-1.11 -1.383,-1.252 -1.545,-0.091 -1.765,12.696 -0.173,10.01 -0.323,12.456 -0.79,12.924 -0.973,0.973 -43.452,1.32 -44.41,0.363 -0.63,-0.631 -0.691,-2.013 -0.69,-15.763 0.002,-17.846 -0.366,-16.455 5.304,-20.05 2.032,-1.289 4.235,-2.787 4.895,-3.328 0.66,-0.542 3.09,-2.066 5.4,-3.386 2.31,-1.32 6.412,-3.684 9.115,-5.254 2.703,-1.569 4.982,-2.853 5.064,-2.853 0.083,0 2.23,-1.255 4.773,-2.788 2.542,-1.533 5.663,-3.33 6.935,-3.993 1.905,-0.993 6.408,-4.461 5.713,-4.399 -0.11,0.01 -1.91,1.02 -4,2.245 m -42.86,113.357 c -1.909,0.753 -1.985,1.492 -1.858,18.004 0.112,14.549 0.161,15.445 0.918,16.702 1.134,1.883 2.468,2.727 23.8,15.063 13.796,7.978 16.07,9.297 19.435,11.274 4.123,2.422 4.53,2.53 4.263,1.135 -0.105,-0.55 -0.374,-1 -0.598,-1 -0.223,0 -2.947,-1.468 -6.053,-3.263 -3.106,-1.795 -10.687,-6.175 -16.847,-9.734 -15.326,-8.854 -20.237,-11.794 -21.338,-12.771 -2.049,-1.818 -2.062,-1.928 -2.062,-18.003 v -15.011 l 1.027,-0.673 c 1.457,-0.954 43.122,-0.567 44.099,0.41 0.497,0.497 0.625,2.727 0.763,13.321 0.181,13.978 0.218,14.372 1.236,13.025 0.575,-0.762 0.637,-1.501 0.417,-4.998 -0.141,-2.256 -0.276,-8.108 -0.3,-13.003 -0.056,-11.885 2.448,-10.5 -18.979,-10.5 -9.536,0 -19.481,-0.089 -22.1,-0.198 -2.861,-0.119 -5.186,-0.031 -5.823,0.22"
       id="path6" />
    <path
       fill-rule="evenodd"
       fill="#c9f1f7"
       stroke="none"
       d="m 179.7,109.496 c 1.265,0.079 3.335,0.079 4.6,0 1.265,-0.08 0.23,-0.145 -2.3,-0.145 -2.53,0 -3.565,0.065 -2.3,0.145 m -10.574,3.005 c -2.71,1.376 -9.696,5.265 -15.526,8.642 -5.83,3.378 -14.2,8.224 -18.6,10.77 -4.4,2.545 -9.42,5.451 -11.155,6.457 -2.105,1.221 -3.502,2.352 -4.2,3.401 l -1.045,1.571 v 16.52 16.52 l 1.039,1.039 1.04,1.04 22.96,-0.038 c 21.551,-0.035 23.022,-0.082 23.951,-0.766 1.466,-1.079 1.527,-1.633 1.57,-14.328 0.034,-10.042 0.128,-11.76 0.669,-12.3 0.571,-0.572 0.552,-0.629 -0.213,-0.629 -1.284,0 -1.583,3.329 -1.605,17.856 -0.01,6.531 -0.087,7.349 -0.774,8.197 l -0.762,0.942 -21.714,0.133 c -24.166,0.147 -24.092,0.152 -24.978,-1.56 -1.088,-2.104 -0.685,-31.903 0.453,-33.439 1.737,-2.347 3.066,-3.18 28.164,-17.648 19.908,-11.476 23.358,-13.411 25.2,-14.136 0.99,-0.389 1.496,-0.716 1.126,-0.726 -0.371,-0.011 -2.891,1.107 -5.6,2.482 m -49.564,116.676 -1.196,1.195 0.117,16.314 c 0.147,20.565 -1.201,17.628 11.517,25.086 6.91,4.052 8.952,5.229 17.2,9.915 2.31,1.312 4.92,2.855 5.8,3.427 0.88,0.572 3.67,2.201 6.2,3.618 2.53,1.417 5.5,3.089 6.6,3.715 1.1,0.626 2.261,1.142 2.58,1.146 0.834,0.01 0.129,-0.597 -1.987,-1.713 -1.839,-0.969 -3.692,-2.034 -17.193,-9.874 -4.29,-2.491 -10.14,-5.87 -13,-7.508 -13.681,-7.837 -15.862,-9.417 -16.584,-12.015 -0.591,-2.131 -0.557,-30.536 0.039,-31.844 0.745,-1.634 1.621,-1.688 24.689,-1.516 26.847,0.2 23.655,-1.065 23.658,9.377 0.002,9.585 0.408,17.9 0.875,17.9 0.934,0 0.173,-26.329 -0.788,-27.289 l -0.911,-0.911 -23.21,-0.109 -23.211,-0.11 -1.195,1.196"
       id="path7" />
    <path
       fill-rule="evenodd"
       fill="#e59ec1"
       stroke="none"
       d="m 175.214,110.24 c -2.85,0.766 -6.512,2.852 -9.014,5.135 l -2,1.824 4.606,-2.384 c 6.397,-3.31 8.427,-3.771 15.394,-3.49 33.582,1.349 91.373,39.239 94.986,62.275 0.245,1.563 0.409,12.694 0.411,27.9 0.002,13.915 0.147,25.3 0.323,25.3 1.229,0 1.28,-1.055 1.28,-26.625 0,-28.377 0.006,-28.294 -2.539,-33.575 -13.353,-27.704 -78.336,-63.108 -103.447,-56.36 m -14.221,8.502 c -1.544,0.841 -4.479,2.549 -6.523,3.794 -2.044,1.245 -3.789,2.264 -3.879,2.264 -0.089,0 -2.373,1.285 -5.076,2.855 -2.703,1.57 -6.933,4.006 -9.4,5.414 -2.467,1.408 -4.614,2.768 -4.771,3.022 -0.157,0.254 0.331,0.088 1.085,-0.369 1.408,-0.852 11.587,-6.729 23.971,-13.84 6.467,-3.714 8.052,-4.691 7.58,-4.676 -0.099,0.003 -1.443,0.694 -2.987,1.536 M 168,148.688 c 0,0.559 1.245,1.57 2.349,1.907 16.443,5.022 60.561,31.069 81.586,48.168 5.198,4.227 6.465,5.044 6.465,4.169 0,-2.767 -24.072,-20.331 -43.6,-31.812 C 194.877,159.408 168,146.525 168,148.688"
       id="path8" />
  </g>
</svg>
