<?xml version="1.0" encoding="UTF-8" standalone="no"?>
<svg
   xmlns:dc="http://purl.org/dc/elements/1.1/"
   xmlns:cc="http://creativecommons.org/ns#"
   xmlns:rdf="http://www.w3.org/1999/02/22-rdf-syntax-ns#"
   xmlns:svg="http://www.w3.org/2000/svg"
   xmlns="http://www.w3.org/2000/svg"
   xmlns:sodipodi="http://sodipodi.sourceforge.net/DTD/sodipodi-0.dtd"
   xmlns:inkscape="http://www.inkscape.org/namespaces/inkscape"
   inkscape:version="1.0 (4035a4fb49, 2020-05-01)"
   sodipodi:docname="greenflag.svg"
   viewBox="0 0 219.62137 201.74084"
   height="201.74084"
   width="219.62137"
   version="1.1"
   id="svg">
  <metadata
     id="metadata10">
    <rdf:RDF>
      <cc:Work
         rdf:about="">
        <dc:format>image/svg+xml</dc:format>
        <dc:type
           rdf:resource="http://purl.org/dc/dcmitype/StillImage" />
      </cc:Work>
    </rdf:RDF>
  </metadata>
  <defs
     id="defs8" />
  <sodipodi:namedview
     inkscape:current-layer="svgg"
     inkscape:window-maximized="1"
     inkscape:window-y="441"
     inkscape:window-x="1609"
     inkscape:cy="99.908236"
     inkscape:cx="103.14322"
     inkscape:zoom="3.5175"
     showgrid="false"
     id="namedview6"
     inkscape:window-height="2066"
     inkscape:window-width="5160"
     inkscape:pageshadow="2"
     inkscape:pageopacity="0"
     guidetolerance="10"
     gridtolerance="10"
     objecttolerance="10"
     borderopacity="1"
     bordercolor="#666666"
     pagecolor="#ffffff" />
  <g
     transform="translate(-96.856776,-6.9321573)"
     id="svgg">
    <path
       fill-rule="evenodd"
       fill="#066539"
       stroke="none"
       d="m 105.719,6.986 c -2.458,0.644 -4,1.189 -4.416,1.559 -2.646,2.36 -3.528,3.475 -3.71,4.693 -0.081,0.535 -0.281,1.234 -0.446,1.553 -0.395,0.763 -0.385,2.814 0.019,4.022 0.177,0.53 0.415,1.348 0.529,1.818 0.31,1.272 2.96,4.283 3.892,4.422 1.303,0.193 1.307,0.226 1.49,11.875 0.092,5.852 0.268,13.623 0.39,17.268 0.373,11.107 0.646,27.512 0.864,51.95 0.115,12.817 0.304,25.997 0.421,29.29 0.371,10.48 0.648,21.046 0.652,24.906 0.004,4.334 0.161,4.83 1.449,4.573 1.318,-0.264 1.289,0.171 1.434,-21.997 0.106,-16.246 0.251,-24.268 0.75,-41.475 0.106,-3.645 0.288,-16.777 0.405,-29.182 0.173,-18.263 0.574,-40.43 0.734,-40.535 0.586,-0.382 1.457,0.498 1.878,1.897 0.256,0.85 0.552,1.602 0.658,1.672 0.105,0.07 0.339,0.69 0.519,1.378 0.179,0.688 0.545,1.69 0.813,2.225 0.268,0.536 0.549,1.378 0.625,1.873 0.076,0.495 0.378,1.351 0.671,1.902 0.294,0.552 0.534,1.266 0.534,1.586 0,0.597 0.416,1.951 0.953,3.098 0.166,0.354 0.368,1.172 0.45,1.817 0.082,0.645 0.327,1.575 0.546,2.066 0.219,0.49 0.508,1.597 0.642,2.458 0.134,0.862 0.467,2.288 0.74,3.17 0.273,0.882 0.559,2.421 0.636,3.421 0.077,0.999 0.36,2.635 0.63,3.634 0.288,1.066 0.551,2.834 0.638,4.276 0.081,1.352 0.292,3.613 0.469,5.024 0.97,7.732 0.968,18.094 -0.004,25.762 -0.171,1.352 -0.378,3.564 -0.458,4.917 -0.083,1.386 -0.362,3.297 -0.641,4.382 -0.271,1.059 -0.559,2.822 -0.64,3.919 -0.081,1.097 -0.338,2.54 -0.571,3.207 -0.233,0.667 -0.568,2.163 -0.744,3.324 -0.177,1.162 -0.452,2.316 -0.612,2.566 -0.16,0.249 -0.446,1.361 -0.635,2.47 -0.189,1.11 -0.439,2.132 -0.554,2.271 -0.24,0.289 -0.736,1.946 -0.942,3.147 -0.076,0.445 -0.319,1.118 -0.539,1.497 -0.22,0.379 -0.466,1.17 -0.547,1.758 -0.08,0.587 -0.363,1.453 -0.629,1.924 -0.265,0.47 -0.603,1.384 -0.752,2.031 -0.148,0.646 -0.393,1.32 -0.544,1.496 -0.151,0.177 -0.437,0.884 -0.636,1.573 -0.199,0.688 -0.592,1.591 -0.874,2.007 -0.282,0.416 -0.513,0.998 -0.513,1.295 0,0.297 -0.248,0.963 -0.552,1.481 -0.529,0.903 -0.568,1.554 -0.092,1.554 0.124,0 0.335,-0.24 0.469,-0.534 0.134,-0.294 0.369,-0.535 0.523,-0.535 0.153,0 0.643,-0.336 1.088,-0.748 0.445,-0.412 1.069,-0.989 1.388,-1.283 0.319,-0.294 0.673,-0.534 0.786,-0.534 0.114,0 0.386,-0.228 0.605,-0.506 0.219,-0.278 0.593,-0.568 0.833,-0.644 0.239,-0.076 0.628,-0.317 0.864,-0.537 0.235,-0.22 0.806,-0.652 1.267,-0.961 0.461,-0.309 1.415,-0.989 2.121,-1.511 0.705,-0.523 1.389,-0.955 1.519,-0.961 0.129,-0.006 0.495,-0.251 0.812,-0.545 0.316,-0.293 0.98,-0.731 1.474,-0.972 0.88,-0.429 1.862,-1.057 2.929,-1.871 0.294,-0.224 0.888,-0.523 1.319,-0.664 0.432,-0.141 0.909,-0.406 1.061,-0.589 0.151,-0.183 0.76,-0.56 1.353,-0.839 0.593,-0.279 1.222,-0.594 1.398,-0.7 1.127,-0.677 3.518,-1.741 3.914,-1.741 0.26,0 0.952,-0.259 1.539,-0.575 0.941,-0.507 1.312,-0.577 3.135,-0.588 l 2.067,-0.013 0.895,0.962 c 0.827,0.89 0.917,1.107 1.201,2.886 0.615,3.854 1.696,7.59 2.197,7.59 0.101,0 0.239,0.217 0.306,0.483 0.123,0.488 2.574,3.056 3.56,3.729 0.293,0.2 0.63,0.481 0.748,0.624 0.117,0.142 0.675,0.411 1.239,0.598 0.564,0.187 1.285,0.523 1.603,0.747 0.318,0.224 1.037,0.471 1.598,0.548 0.56,0.076 1.473,0.34 2.028,0.586 2.953,1.306 16.205,1.306 19.721,0 0.647,-0.24 1.753,-0.501 2.459,-0.58 0.705,-0.078 1.811,-0.37 2.458,-0.648 0.647,-0.278 1.739,-0.616 2.426,-0.75 0.688,-0.135 1.555,-0.425 1.927,-0.645 0.373,-0.22 1.164,-0.504 1.758,-0.631 0.594,-0.128 1.547,-0.468 2.117,-0.757 0.571,-0.289 1.248,-0.525 1.506,-0.525 0.258,0 0.817,-0.236 1.242,-0.525 0.426,-0.289 1.148,-0.626 1.605,-0.749 0.458,-0.123 1.09,-0.427 1.406,-0.675 0.315,-0.248 1,-0.58 1.521,-0.737 0.521,-0.156 1.155,-0.477 1.407,-0.713 0.253,-0.235 0.76,-0.491 1.126,-0.569 0.366,-0.077 0.858,-0.315 1.093,-0.528 0.235,-0.213 0.861,-0.555 1.39,-0.76 0.529,-0.205 1.134,-0.549 1.344,-0.765 0.211,-0.216 0.558,-0.393 0.772,-0.393 0.215,0 0.764,-0.254 1.221,-0.564 0.458,-0.311 1.251,-0.745 1.763,-0.964 0.511,-0.22 1.174,-0.591 1.471,-0.825 0.298,-0.234 0.688,-0.426 0.867,-0.426 0.179,0 0.623,-0.225 0.986,-0.499 0.364,-0.274 0.995,-0.613 1.401,-0.752 0.407,-0.14 0.936,-0.433 1.176,-0.651 0.24,-0.218 0.786,-0.509 1.213,-0.645 0.426,-0.137 0.947,-0.438 1.156,-0.669 0.209,-0.231 0.774,-0.525 1.255,-0.652 0.481,-0.128 1.067,-0.404 1.302,-0.615 0.235,-0.211 0.885,-0.581 1.443,-0.824 0.559,-0.243 1.016,-0.524 1.016,-0.625 0,-0.101 0.481,-0.357 1.07,-0.568 0.588,-0.212 1.116,-0.461 1.174,-0.553 0.223,-0.362 3.687,-1.9 4.597,-2.042 0.529,-0.082 1.319,-0.33 1.755,-0.551 0.841,-0.426 3.53,-0.574 3.921,-0.216 0.112,0.102 0.684,0.356 1.272,0.566 1.274,0.453 2.993,2.123 3.212,3.121 0.081,0.368 0.327,0.974 0.547,1.346 0.219,0.372 0.5,1.39 0.624,2.262 0.129,0.912 0.437,1.954 0.723,2.451 0.275,0.475 0.557,1.105 0.627,1.4 0.27,1.126 2.816,3.727 3.967,4.051 0.396,0.112 0.883,0.351 1.083,0.532 0.2,0.181 1.223,0.562 2.273,0.847 1.05,0.284 2.436,0.67 3.078,0.857 2.169,0.629 10.977,0.402 11.873,-0.307 0.117,-0.094 1.127,-0.335 2.244,-0.538 1.118,-0.202 2.416,-0.585 2.887,-0.849 0.47,-0.265 1.278,-0.545 1.794,-0.622 0.517,-0.076 1.211,-0.332 1.543,-0.568 0.332,-0.237 1.083,-0.572 1.669,-0.747 0.587,-0.174 1.207,-0.456 1.378,-0.628 0.171,-0.171 0.769,-0.466 1.329,-0.656 0.559,-0.19 1.154,-0.483 1.322,-0.651 0.168,-0.167 0.596,-0.455 0.951,-0.639 0.61,-0.315 0.952,-0.6 2.929,-2.441 0.943,-0.878 2.798,-3.113 2.798,-3.372 0,-0.097 0.289,-0.453 0.642,-0.791 0.352,-0.338 0.641,-0.756 0.641,-0.928 0,-0.173 0.225,-0.612 0.501,-0.976 0.575,-0.759 2.278,-4.18 2.278,-4.575 0,-0.145 0.231,-0.623 0.513,-1.061 0.282,-0.439 0.58,-1.277 0.662,-1.864 0.082,-0.586 0.369,-1.452 0.638,-1.924 0.269,-0.472 0.55,-1.272 0.625,-1.779 0.075,-0.507 0.375,-1.376 0.666,-1.933 0.29,-0.556 0.634,-1.585 0.762,-2.285 0.128,-0.701 0.356,-1.419 0.505,-1.595 0.363,-0.428 0.759,-1.641 0.763,-2.33 10e-4,-0.306 0.236,-0.964 0.521,-1.463 0.285,-0.499 0.583,-1.365 0.662,-1.924 0.078,-0.56 0.359,-1.402 0.622,-1.873 0.263,-0.47 0.587,-1.41 0.719,-2.089 0.132,-0.679 0.483,-1.649 0.781,-2.157 0.3,-0.513 0.54,-1.256 0.54,-1.673 0,-0.413 0.246,-1.214 0.547,-1.779 0.3,-0.565 0.637,-1.509 0.749,-2.098 0.112,-0.589 0.43,-1.56 0.708,-2.158 0.277,-0.598 0.561,-1.458 0.63,-1.911 0.069,-0.454 0.327,-1.209 0.572,-1.68 0.245,-0.47 0.587,-1.467 0.761,-2.215 0.173,-0.748 0.496,-1.676 0.717,-2.062 0.221,-0.386 0.465,-1.156 0.544,-1.712 0.078,-0.556 0.366,-1.422 0.641,-1.924 0.274,-0.503 0.56,-1.35 0.635,-1.883 0.075,-0.533 0.33,-1.288 0.567,-1.677 0.237,-0.39 0.521,-1.185 0.631,-1.766 0.111,-0.581 0.491,-1.719 0.846,-2.527 0.355,-0.809 0.648,-1.743 0.652,-2.076 0.004,-0.333 0.292,-1.18 0.641,-1.883 0.349,-0.702 0.635,-1.547 0.635,-1.877 0,-0.331 0.229,-1.055 0.508,-1.609 0.279,-0.555 0.619,-1.531 0.754,-2.169 0.135,-0.638 0.421,-1.455 0.635,-1.817 0.214,-0.361 0.509,-1.221 0.656,-1.91 0.147,-0.689 0.487,-1.699 0.755,-2.244 0.267,-0.546 0.546,-1.377 0.618,-1.848 0.072,-0.47 0.373,-1.328 0.668,-1.907 0.295,-0.578 0.537,-1.307 0.537,-1.62 0,-0.313 0.237,-1.038 0.527,-1.61 0.29,-0.573 0.678,-1.703 0.862,-2.513 0.184,-0.809 0.472,-1.681 0.64,-1.937 0.168,-0.257 0.414,-0.994 0.548,-1.639 0.133,-0.646 0.479,-1.541 0.77,-1.991 0.753,-1.165 0.223,-1.889 -0.732,-1 -0.253,0.235 -0.522,0.428 -0.599,0.428 -0.146,0 -2.169,1.442 -3.589,2.558 -0.454,0.357 -0.921,0.649 -1.038,0.649 -0.118,0 -0.499,0.24 -0.849,0.534 -0.349,0.294 -0.759,0.535 -0.91,0.535 -0.151,0 -0.63,0.282 -1.063,0.626 -0.434,0.345 -1.097,0.694 -1.473,0.776 -0.376,0.082 -0.956,0.378 -1.288,0.656 -0.332,0.279 -0.802,0.507 -1.043,0.507 -0.241,0 -0.931,0.278 -1.533,0.619 -0.603,0.34 -1.623,0.728 -2.268,0.863 -0.646,0.135 -1.387,0.386 -1.649,0.557 -0.261,0.171 -1.176,0.42 -2.033,0.554 -0.858,0.133 -2.281,0.471 -3.162,0.75 -3.918,1.239 -12.639,1.266 -14.737,0.046 -0.404,-0.235 -1.174,-0.575 -1.711,-0.755 -0.537,-0.18 -1.125,-0.459 -1.308,-0.62 -0.182,-0.161 -0.739,-0.436 -1.238,-0.612 -0.499,-0.176 -1.05,-0.464 -1.226,-0.639 -0.727,-0.727 -2.846,-0.969 -3.999,-0.457 -0.752,0.334 -2.719,2.076 -2.719,2.407 0,0.114 -0.277,0.632 -0.615,1.152 -0.338,0.52 -0.786,1.473 -0.996,2.119 -0.21,0.645 -0.558,1.463 -0.774,1.817 -0.216,0.354 -0.393,0.981 -0.394,1.392 -0.001,0.412 -0.276,1.277 -0.613,1.924 -0.359,0.69 -0.66,1.667 -0.728,2.365 -0.064,0.654 -0.366,1.782 -0.671,2.506 -0.304,0.724 -0.554,1.558 -0.554,1.854 0,0.743 -0.479,2.468 -0.685,2.468 -0.094,0 -0.17,-0.054 -0.17,-0.119 0,-0.066 -0.102,-0.78 -0.227,-1.587 -0.289,-1.862 0.064,-6.46 0.625,-8.128 0.217,-0.647 0.462,-2.022 0.545,-3.057 0.087,-1.095 0.329,-2.299 0.579,-2.882 0.236,-0.55 0.568,-1.798 0.738,-2.773 0.17,-0.975 0.501,-2.13 0.735,-2.567 0.234,-0.436 0.426,-1.036 0.427,-1.332 0.002,-0.725 0.372,-2.062 0.86,-3.103 0.22,-0.47 0.493,-1.436 0.606,-2.147 0.113,-0.71 0.428,-1.669 0.701,-2.131 0.757,-1.284 0.739,-4.62 -0.03,-5.639 -1.2,-1.587 -2.552,-2.817 -3.443,-3.132 -0.505,-0.178 -1.068,-0.459 -1.25,-0.624 -0.618,-0.559 -5.468,-1.204 -7.173,-0.955 -0.823,0.121 -2.226,0.305 -3.118,0.409 -0.918,0.107 -1.939,0.374 -2.352,0.614 -0.401,0.234 -1.298,0.528 -1.993,0.654 -0.695,0.126 -1.593,0.423 -1.995,0.66 -0.402,0.238 -1.18,0.53 -1.729,0.65 -0.549,0.12 -1.248,0.399 -1.552,0.62 -0.305,0.221 -0.979,0.525 -1.497,0.675 -0.518,0.151 -1.291,0.49 -1.717,0.752 -0.425,0.263 -1.114,0.542 -1.531,0.621 -0.417,0.078 -0.937,0.309 -1.156,0.512 -0.219,0.204 -0.828,0.518 -1.354,0.698 -0.526,0.179 -1.331,0.581 -1.789,0.891 -0.457,0.311 -0.986,0.567 -1.175,0.569 -0.19,0.003 -0.768,0.291 -1.285,0.642 -0.518,0.35 -1.086,0.637 -1.263,0.637 -0.177,0 -0.62,0.226 -0.983,0.502 -0.364,0.276 -1.011,0.617 -1.438,0.757 -0.426,0.139 -0.946,0.443 -1.155,0.673 -0.209,0.231 -0.491,0.42 -0.627,0.42 -0.135,0 -0.805,0.337 -1.489,0.748 -0.683,0.412 -1.399,0.75 -1.591,0.752 -0.191,10e-4 -0.589,0.14 -0.882,0.307 -1.061,0.605 -1.986,0.972 -2.449,0.972 -0.26,0 -0.934,0.234 -1.499,0.52 -0.565,0.286 -1.712,0.629 -2.549,0.763 -0.836,0.133 -2.194,0.452 -3.017,0.709 -2.268,0.708 -13.21,0.698 -15.179,-0.014 -0.706,-0.255 -1.928,-0.573 -2.717,-0.706 -0.788,-0.134 -1.538,-0.369 -1.665,-0.522 -0.127,-0.154 -0.757,-0.493 -1.399,-0.753 -0.642,-0.261 -1.167,-0.557 -1.167,-0.658 0,-0.1 -0.313,-0.34 -0.695,-0.532 -0.382,-0.192 -0.839,-0.531 -1.016,-0.752 -1.694,-2.126 -6.219,-1.043 -6.717,1.607 -0.073,0.389 -0.324,0.881 -0.559,1.093 -0.235,0.213 -0.486,0.761 -0.56,1.219 -0.073,0.458 -0.36,1.167 -0.637,1.575 -0.277,0.409 -0.614,1.196 -0.75,1.75 -0.136,0.555 -0.466,1.393 -0.733,1.863 -0.268,0.47 -0.556,1.232 -0.641,1.692 -0.084,0.461 -0.367,1.152 -0.628,1.537 -0.261,0.385 -0.538,1.18 -0.616,1.768 -0.102,0.77 -0.345,1.312 -0.866,1.936 -0.399,0.477 -0.763,0.981 -0.809,1.12 -0.046,0.14 -0.199,0.183 -0.339,0.096 -0.436,-0.269 -0.301,-3.73 0.261,-6.704 0.284,-1.5 0.578,-3.487 0.653,-4.416 0.079,-0.973 0.307,-2.02 0.536,-2.47 0.22,-0.431 0.492,-1.451 0.605,-2.268 0.114,-0.817 0.449,-2.063 0.745,-2.768 0.296,-0.704 0.607,-1.762 0.691,-2.35 0.084,-0.588 0.335,-1.371 0.557,-1.739 0.223,-0.369 0.515,-1.235 0.649,-1.924 0.134,-0.69 0.46,-1.639 0.723,-2.11 0.263,-0.47 0.547,-1.334 0.629,-1.919 0.083,-0.586 0.329,-1.316 0.547,-1.622 0.219,-0.306 0.558,-1.27 0.754,-2.142 0.197,-0.872 0.51,-1.874 0.697,-2.227 0.604,-1.142 0.46,-4.659 -0.247,-6.017 -0.315,-0.605 -0.572,-1.18 -0.572,-1.279 0,-0.275 -1.925,-2.004 -2.231,-2.004 -0.149,0 -0.735,-0.246 -1.301,-0.547 -0.666,-0.354 -1.642,-0.623 -2.758,-0.759 -0.95,-0.116 -2.304,-0.312 -3.01,-0.435 -2.056,-0.36 -6.001,-0.451 -8.658,-0.2 -1.353,0.128 -3.758,0.335 -5.345,0.462 -2.637,0.209 -3.882,0.409 -6.307,1.012 -0.47,0.117 -1.531,0.314 -2.358,0.438 -0.827,0.124 -1.935,0.417 -2.462,0.65 -0.528,0.233 -1.622,0.53 -2.433,0.66 -0.81,0.129 -1.745,0.429 -2.078,0.665 -0.332,0.237 -1.075,0.505 -1.651,0.596 -0.576,0.091 -1.378,0.361 -1.783,0.6 -0.404,0.239 -1.257,0.563 -1.895,0.72 -0.638,0.158 -1.389,0.459 -1.669,0.67 -0.28,0.211 -0.899,0.489 -1.375,0.617 -0.477,0.129 -1.208,0.466 -1.625,0.749 -0.418,0.284 -0.878,0.516 -1.024,0.516 -0.237,0 -3.322,1.451 -4.126,1.94 -0.371,0.226 -2.188,1.183 -3.763,1.982 -0.599,0.305 -1.212,0.701 -1.362,0.881 -0.15,0.181 -0.38,0.328 -0.513,0.329 -0.133,0 -0.57,0.217 -0.973,0.481 -0.701,0.46 -1.673,1.059 -3.211,1.977 -0.394,0.235 -1.028,0.692 -1.408,1.015 -0.38,0.323 -0.775,0.589 -0.877,0.59 -0.102,10e-4 -0.608,0.338 -1.124,0.748 -1.086,0.863 -0.925,0.814 -1.617,0.498 -1.173,-0.534 -0.441,-3.009 1.108,-3.744 0.98,-0.465 2.4,-1.876 2.924,-2.903 0.224,-0.441 0.479,-0.801 0.567,-0.801 1.14,0 1.019,-7.569 -0.142,-8.919 -0.282,-0.327 -0.512,-0.723 -0.512,-0.879 0,-0.25 -1.248,-1.537 -2.729,-2.816 -0.953,-0.823 -5.2,-1.869 -6.357,-1.565 m 28.006,152.061 c -1.005,0.08 -1.93,0.279 -2.245,0.483 -0.293,0.191 -0.967,0.469 -1.496,0.618 -0.529,0.148 -1.342,0.541 -1.806,0.873 -0.464,0.332 -0.936,0.604 -1.049,0.604 -0.265,0 -2.276,2.059 -2.276,2.331 0,0.113 -0.184,0.264 -0.41,0.335 -0.225,0.072 -0.517,0.439 -0.648,0.815 -0.131,0.377 -0.482,1.037 -0.78,1.466 -1.426,2.058 -1.362,9.44 0.101,11.649 0.368,0.554 0.668,1.108 0.668,1.23 0,0.229 0.332,0.595 2.059,2.27 0.545,0.529 1.25,1.23 1.567,1.557 0.317,0.327 0.953,0.697 1.414,0.823 0.462,0.125 0.984,0.354 1.16,0.508 0.706,0.615 5.634,1.316 7.828,1.113 5.547,-0.514 7.285,-1.062 7.362,-2.322 0.204,-3.342 -0.017,-9.493 -0.35,-9.736 -0.538,-0.393 -7.663,-0.392 -8.426,0.001 -1.332,0.686 -0.528,3.096 1.093,3.275 2.425,0.269 2.8,0.606 2.712,2.441 -0.116,2.405 -3.18,3.635 -5.954,2.39 -0.523,-0.234 -1.192,-0.499 -1.486,-0.588 -0.939,-0.283 -3.277,-2.409 -3.759,-3.417 -0.168,-0.353 -0.522,-0.978 -0.785,-1.39 -0.684,-1.066 -0.715,-7.156 -0.042,-8.301 0.229,-0.392 0.572,-0.991 0.761,-1.331 0.352,-0.631 1.789,-2.065 2.935,-2.929 1.388,-1.046 4.538,-1.301 8.507,-0.689 2.093,0.323 2.722,0.2 3.053,-0.597 1.131,-2.731 -2.545,-4.05 -9.708,-3.482 m 98.263,0.386 c -0.659,0.55 -0.751,25.116 -0.096,25.613 0.561,0.425 3.365,0.408 4.099,-0.026 l 0.567,-0.335 v -4.599 c 0,-5.691 -0.398,-5.206 4.269,-5.206 4.442,0 5.291,-0.63 4.059,-3.013 l -0.331,-0.64 -3.464,0.032 c -3.414,0.032 -3.473,0.025 -4.052,-0.5 l -0.588,-0.533 v -3.35 -3.349 l 0.77,-0.322 c 0.589,-0.246 1.541,-0.312 4.059,-0.28 3.93,0.048 3.936,0.045 3.936,-1.828 0,-2.118 0.268,-2.038 -6.781,-2.038 -5.399,0 -6.043,0.038 -6.447,0.374 m 16.996,0.081 c -0.566,0.809 -0.525,24.972 0.044,25.488 0.556,0.503 3.181,0.49 4.085,-0.021 l 0.663,-0.374 -0.058,-12.339 c -0.066,-14.406 0.2,-13.059 -2.603,-13.176 -1.665,-0.069 -1.806,-0.041 -2.131,0.422 m -91.101,6.96 c -0.235,0.046 -0.626,0.126 -0.87,0.178 -0.581,0.122 -1.987,1.498 -2.26,2.213 -0.274,0.718 -0.825,0.129 -0.825,-0.883 0,-1.044 -0.39,-1.226 -2.631,-1.226 -2.754,0 -2.519,-0.868 -2.519,9.313 0,10.017 -0.228,9.154 2.438,9.252 2.843,0.104 2.666,0.516 2.75,-6.397 l 0.069,-5.684 0.67,-0.763 c 0.369,-0.419 0.713,-0.892 0.766,-1.051 0.069,-0.207 0.72,-0.318 2.322,-0.394 l 2.227,-0.107 0.411,-0.856 c 1.075,-2.239 -0.214,-4.059 -2.548,-3.595 m 10.816,0.108 c -0.871,0.109 -1.833,0.339 -2.138,0.512 -1.594,0.906 -2.075,1.264 -2.932,2.184 -0.514,0.552 -0.935,1.166 -0.935,1.363 0,0.197 -0.265,0.672 -0.588,1.057 -0.821,0.975 -0.918,6.887 -0.132,7.992 0.252,0.353 0.617,1.024 0.812,1.492 0.195,0.468 0.639,1.129 0.986,1.469 0.348,0.339 0.632,0.691 0.632,0.781 0,0.091 0.355,0.333 0.788,0.539 0.434,0.205 0.98,0.552 1.214,0.769 0.233,0.218 0.72,0.442 1.082,0.498 0.362,0.056 1.355,0.217 2.208,0.358 2.236,0.369 6.267,-0.207 7.283,-1.04 0.252,-0.207 0.7,-0.549 0.997,-0.761 0.695,-0.495 0.688,-0.536 -0.276,-1.602 -0.85,-0.939 -1.311,-1.096 -1.794,-0.613 -0.637,0.638 -1.283,0.782 -3.49,0.782 h -2.279 l -0.889,-0.758 c -1.644,-1.403 -2.278,-2.387 -2.278,-3.53 0,-1.82 -0.408,-1.698 5.655,-1.698 6.569,0 6.22,0.16 6.053,-2.778 -0.089,-1.551 -0.211,-2.087 -0.623,-2.729 -0.283,-0.44 -0.689,-1.136 -0.903,-1.548 -0.694,-1.331 -2.545,-2.469 -4.472,-2.75 -1.841,-0.268 -1.751,-0.269 -3.981,0.011 m 19.542,0.04 c -4.395,0.629 -6.952,3.804 -7.113,8.834 l -0.09,2.82 0.769,1.599 c 0.423,0.879 0.769,1.667 0.769,1.751 0,0.084 0.229,0.365 0.509,0.624 0.28,0.26 0.613,0.667 0.741,0.906 0.127,0.238 0.548,0.596 0.934,0.794 0.386,0.199 1.029,0.596 1.429,0.883 0.399,0.287 1.014,0.522 1.365,0.522 0.351,0 1.247,0.113 1.992,0.25 1.871,0.345 7.14,-0.458 7.14,-1.088 0,-0.089 0.235,-0.269 0.522,-0.399 1.052,-0.48 1.079,-1.014 0.099,-1.965 -1.041,-1.009 -1.164,-1.028 -2.117,-0.325 -1.101,0.812 -5.248,0.814 -6.017,0.004 -0.277,-0.292 -0.583,-0.533 -0.679,-0.535 -0.224,-0.005 -0.787,-0.562 -0.787,-0.778 0,-0.09 -0.254,-0.429 -0.564,-0.753 -0.458,-0.478 -0.567,-0.801 -0.58,-1.722 -0.025,-1.76 -0.334,-1.668 5.599,-1.668 6.618,0 6.347,0.114 6.171,-2.593 -0.067,-1.037 -0.248,-2.116 -0.403,-2.397 -0.155,-0.281 -0.559,-1.029 -0.897,-1.662 -0.338,-0.633 -0.701,-1.184 -0.805,-1.224 -0.105,-0.039 -0.309,-0.187 -0.454,-0.328 -1.188,-1.154 -3.81,-2.007 -5.589,-1.819 -0.128,0.013 -1.003,0.135 -1.944,0.269 m 21.914,-0.029 c -1.03,0.156 -1.646,0.398 -2.38,0.935 -1.205,0.881 -1.252,0.881 -1.793,0.021 -0.499,-0.794 -3.807,-1.146 -4.653,-0.495 -0.344,0.265 -0.516,8.41 -0.371,17.586 0.007,0.406 1.255,0.715 2.889,0.715 2.358,0 2.246,0.336 2.246,-6.712 v -5.931 l 0.656,-0.954 c 2.115,-3.074 6.196,-2.72 6.973,0.605 0.171,0.735 0.266,3.071 0.272,6.713 0.011,6.576 -0.169,6.138 2.556,6.245 2.79,0.111 2.614,0.636 2.539,-7.581 l -0.062,-6.815 -0.615,-1.214 c -1.481,-2.924 -3.788,-3.795 -8.257,-3.118 m 51.951,0.028 c -1.701,0.263 -4.276,1.589 -4.276,2.203 0,1.433 2.243,2.654 2.698,1.47 0.302,-0.788 3.916,-1.108 5.172,-0.459 2.304,1.191 1.165,2.724 -2.55,3.432 -0.788,0.15 -1.712,0.472 -2.053,0.715 -0.341,0.243 -0.872,0.505 -1.18,0.582 -3.964,0.995 -5.041,8.801 -1.446,10.48 1.793,0.837 5.063,0.713 6.081,-0.23 0.275,-0.255 0.84,-0.674 1.256,-0.931 l 0.756,-0.467 0.443,0.475 c 0.244,0.262 0.444,0.552 0.444,0.644 0,0.797 4.339,1.189 4.938,0.446 0.251,-0.311 0.282,-1.487 0.184,-7.001 l -0.118,-6.628 -0.816,-1.557 c -0.539,-1.027 -1.026,-1.665 -1.433,-1.876 -0.34,-0.175 -0.618,-0.401 -0.618,-0.501 0,-0.79 -4.458,-1.264 -7.482,-0.797 m 19.668,0.01 c -1.306,0.239 -4.062,1.904 -4.062,2.453 0,0.088 -0.321,0.538 -0.714,1 -0.393,0.463 -0.782,1.116 -0.865,1.452 -0.083,0.336 -0.362,1.058 -0.62,1.604 -0.66,1.397 -0.644,3.869 0.039,5.909 1.012,3.025 1.118,3.278 1.423,3.395 0.17,0.065 0.31,0.258 0.31,0.427 0,0.17 0.313,0.561 0.695,0.87 0.382,0.308 0.907,0.739 1.168,0.957 1.539,1.292 8.399,1.118 8.399,-0.213 0,-0.385 1.1,-0.866 1.404,-0.614 0.68,0.564 0.325,4.194 -0.501,5.125 -0.839,0.945 -1.027,1.105 -2.064,1.766 -1.615,1.028 -5.889,1.017 -7.034,-0.019 -0.675,-0.611 -2.026,-0.465 -2.625,0.283 -0.947,1.183 -0.757,1.572 1.325,2.716 l 1.264,0.694 4.276,0.003 c 3.895,0.002 4.34,-0.036 4.998,-0.425 0.397,-0.235 1.085,-0.62 1.528,-0.855 0.444,-0.235 1.081,-0.736 1.416,-1.112 0.335,-0.376 0.874,-0.979 1.197,-1.34 0.324,-0.36 0.589,-0.822 0.59,-1.026 10e-4,-0.204 0.265,-0.9 0.586,-1.546 l 0.584,-1.176 0.068,-9.798 c 0.078,-11.465 0.343,-10.405 -2.602,-10.407 l -2.165,-0.002 -0.565,0.686 -0.564,0.687 -0.745,-0.655 c -1.136,-0.997 -3.51,-1.322 -6.144,-0.839 m -109.46,2.88 c 0.783,0.216 2.041,2.522 1.832,3.356 -0.217,0.864 -6.509,1.151 -6.955,0.316 -0.536,-1.001 0.785,-3.481 1.977,-3.712 0.748,-0.145 2.56,-0.121 3.146,0.04 m 20.136,0.27 c 0.669,0.725 1.506,2.44 1.417,2.902 -0.189,0.984 -6.719,1.44 -7.219,0.504 -0.316,-0.59 -0.018,-1.767 0.562,-2.223 0.273,-0.215 0.497,-0.512 0.497,-0.66 0,-0.246 0.456,-0.55 1.283,-0.856 0.613,-0.227 3.17,0.019 3.46,0.333 m 94.524,0.114 c 0.406,0.242 1.522,1.562 1.856,2.198 0.346,0.657 0.533,3.974 0.331,5.862 -0.535,4.994 -5.659,6.343 -7.796,2.052 -2.844,-5.707 1.087,-12.795 5.609,-10.112 m -19.957,5.298 c 0.921,1.11 -0.256,4.962 -2.004,6.553 -2.41,2.195 -5.542,-1.767 -3.299,-4.175 0.213,-0.228 0.435,-0.568 0.495,-0.754 0.059,-0.187 0.613,-0.517 1.231,-0.734 0.619,-0.217 1.269,-0.518 1.445,-0.67 0.629,-0.54 1.768,-0.658 2.132,-0.22 m -97.252,19.229 c -0.478,0.576 -0.19,1.082 0.654,1.153 0.942,0.079 1.682,-0.486 1.216,-0.929 -0.478,-0.454 -1.57,-0.585 -1.87,-0.224 m 50.569,0.026 c -0.677,0.677 0.316,1.602 1.119,1.04 0.558,-0.391 0.583,-0.693 0.086,-1.07 -0.494,-0.375 -0.808,-0.367 -1.205,0.03 m -71.839,1.908 c -0.193,0.407 -0.444,0.798 -0.558,0.868 -0.322,0.199 -0.249,0.823 0.214,1.844 0.32,0.705 0.424,1.403 0.428,2.869 0.005,2.12 0.095,2.33 1.313,3.054 1.927,1.148 3.093,-0.207 1.364,-1.585 -1.064,-0.849 -1.132,-3.201 -0.122,-4.251 0.641,-0.666 1.09,-1.827 0.707,-1.827 -0.116,0 -0.631,-0.385 -1.146,-0.856 -1.173,-1.072 -1.732,-1.102 -2.2,-0.116 m 83.378,0 c -0.193,0.407 -0.444,0.798 -0.559,0.868 -0.311,0.192 -0.252,0.805 0.156,1.621 0.245,0.49 0.402,1.494 0.481,3.079 0.124,2.478 0.239,2.882 0.825,2.893 0.199,0.004 0.548,0.148 0.776,0.321 0.229,0.172 0.734,0.314 1.123,0.314 1.074,0 1.05,-1.271 -0.038,-1.976 l -0.746,-0.483 -0.003,-1.667 c -0.002,-1.498 0.051,-1.717 0.523,-2.154 0.958,-0.888 1.073,-1.592 0.33,-2.015 -0.351,-0.2 -0.639,-0.432 -0.64,-0.516 -0.009,-1.037 -1.764,-1.261 -2.228,-0.285 m -104.105,1.321 c -0.555,0.599 -0.559,0.6 -1.204,0.219 -1.502,-0.887 -1.925,-0.079 -1.925,3.684 0,2.575 0.028,2.754 0.495,3.193 0.97,0.911 1.429,0.012 1.429,-2.797 0,-1.286 0.096,-2.117 0.268,-2.324 0.297,-0.359 1.45,-1.116 1.532,-1.005 0.703,0.947 0.766,1.222 0.766,3.339 0,2.664 0.179,3.124 1.137,2.922 1.018,-0.214 1.091,-0.373 1.117,-2.4 0.033,-2.515 0.431,-3.47 1.45,-3.47 1.155,0 1.319,0.381 1.33,3.105 0.011,2.709 0.286,3.378 1.165,2.835 0.938,-0.58 0.938,-5.9 0.001,-6.908 -0.989,-1.062 -2.601,-1.215 -2.899,-0.275 -0.168,0.53 -1.93,0.449 -2.337,-0.107 -0.489,-0.669 -1.709,-0.674 -2.325,-0.011 m 12.371,0.082 c -2.951,1.721 -2.895,6.59 0.083,7.185 0.371,0.075 0.726,0.219 0.789,0.321 0.413,0.669 3.26,-0.239 4.28,-1.364 2.853,-3.147 -1.463,-8.293 -5.152,-6.142 m 15.819,-0.088 c -2.288,1.194 -3.078,3.727 -1.865,5.981 0.631,1.172 4.157,2.376 4.646,1.586 0.072,-0.118 0.331,-0.214 0.575,-0.214 0.244,0 0.863,-0.42 1.377,-0.934 l 0.934,-0.934 v -1.731 c 0,-3.266 -2.91,-5.193 -5.667,-3.754 m 10.905,-0.13 c -0.432,0.477 -0.988,0.544 -1.638,0.196 -1.447,-0.775 -2.36,6.261 -0.933,7.196 0.929,0.609 1.244,0.017 1.298,-2.441 0.057,-2.533 0.102,-2.647 1.222,-3.035 0.794,-0.275 0.915,-0.406 1.028,-1.106 0.189,-1.168 -0.292,-1.567 -0.977,-0.81 m 10.582,0 c -0.513,0.514 -0.883,0.535 -1.724,0.1 -0.609,-0.315 -0.656,-0.305 -1.165,0.245 -0.795,0.858 -0.823,6.148 -0.037,6.887 1.022,0.959 1.358,0.347 1.503,-2.732 0.087,-1.848 0.173,-2.282 0.497,-2.511 0.215,-0.152 0.611,-0.483 0.879,-0.734 0.269,-0.252 0.51,-0.42 0.537,-0.375 0.027,0.045 0.361,0.486 0.742,0.979 0.663,0.858 0.692,0.977 0.692,2.82 0,1.752 0.049,1.979 0.535,2.525 l 0.536,0.6 0.426,-0.505 c 0.446,-0.527 0.623,-3.916 0.291,-5.574 -0.302,-1.513 -2.775,-2.661 -3.712,-1.725 m 7.3,0.282 c -1.461,1.069 -1.976,3.164 -1.312,5.343 0.484,1.588 0.764,1.743 3.167,1.747 2.43,0.005 2.644,0.225 1.448,1.494 -0.747,0.792 -0.754,0.794 -2.287,0.723 -1.278,-0.059 -1.577,-0.008 -1.772,0.301 -0.524,0.83 0.054,1.115 2.393,1.181 l 2.157,0.061 0.952,-0.916 c 1.976,-1.901 1.678,-11.53 -0.314,-10.135 -0.66,0.462 -1.165,0.438 -1.684,-0.081 -0.629,-0.629 -1.645,-0.525 -2.748,0.282 m 14.24,-0.562 c -0.206,0.054 -0.376,0.259 -0.378,0.456 -0.001,0.198 -0.06,0.575 -0.131,0.84 -0.152,0.567 0.351,0.671 0.776,0.16 0.304,-0.366 1.125,-0.42 1.702,-0.111 0.998,0.534 0.954,2.771 -0.049,2.479 -3.46,-1.009 -5.822,2.135 -2.826,3.763 2.131,1.158 2.734,0.726 1.498,-1.071 l -0.744,-1.082 0.583,-0.407 c 1.05,-0.733 1.92,-0.766 2.272,-0.087 0.351,0.678 0.169,1.034 -0.779,1.523 -0.897,0.463 -0.711,0.757 0.641,1.016 2.118,0.405 2.26,0.2 2.151,-3.104 -0.128,-3.897 -1.539,-5.205 -4.716,-4.375 m 7.941,0.467 c -2.036,1.305 -1.584,3.207 1.053,4.426 l 1.137,0.526 -0.687,0.868 c -0.378,0.477 -0.746,0.779 -0.817,0.672 -0.53,-0.799 -1.568,-0.362 -1.203,0.506 0.378,0.899 1.318,1.09 2.519,0.51 0.484,-0.234 1.049,-0.426 1.255,-0.426 1.503,0 1.275,-3.252 -0.269,-3.831 -1.65,-0.618 -1.683,-0.641 -1.683,-1.202 0,-0.832 0.353,-1.33 1.052,-1.484 0.66,-0.145 1.244,-0.665 1.009,-0.9 -0.47,-0.47 -2.412,-0.277 -3.366,0.335 m 7.719,-0.444 c -2.42,1.134 -2.868,2.525 -1.275,3.956 0.475,0.426 1.193,0.837 1.596,0.912 1.101,0.207 1.328,0.61 0.68,1.206 -1.116,1.027 -1.133,1.033 -1.837,0.682 -0.36,-0.18 -0.744,-0.273 -0.852,-0.206 -0.265,0.164 -0.036,0.976 0.275,0.976 0.137,0 0.413,0.193 0.615,0.428 0.462,0.539 2.896,0.051 3.756,-0.754 0.749,-0.701 0.192,-3.44 -0.738,-3.631 -0.28,-0.058 -0.755,-0.156 -1.054,-0.218 -1.282,-0.267 -0.954,-2.182 0.391,-2.28 0.801,-0.058 0.901,-0.125 0.901,-0.6 0,-0.557 -1.614,-0.866 -2.458,-0.471 m 10.532,0.393 c -2.038,1.228 -1.579,3.349 0.97,4.479 1.192,0.529 1.265,0.837 0.375,1.576 -0.183,0.151 -0.333,0.426 -0.333,0.611 0,0.293 -0.034,0.29 -0.267,-0.022 -0.499,-0.668 -1.343,-0.57 -1.291,0.149 0.139,1.929 4.578,0.903 4.723,-1.091 0.111,-1.523 -0.38,-2.143 -2.256,-2.849 -1.026,-0.386 -0.834,-2.133 0.235,-2.133 0.142,0 0.485,-0.16 0.764,-0.355 1.331,-0.932 -1.411,-1.276 -2.92,-0.365 m 13.785,-0.344 c -0.672,0.413 -0.074,1.14 0.819,0.995 0.633,-0.102 0.783,-0.032 1.201,0.564 0.263,0.374 0.553,0.712 0.646,0.752 0.092,0.039 0.168,0.26 0.168,0.491 0,0.49 -1.263,1.134 -1.593,0.812 -1.253,-1.224 -3.667,0.862 -3.196,2.762 0.346,1.396 2.679,2.234 3.144,1.128 0.215,-0.513 0.303,-0.566 0.532,-0.32 0.151,0.161 0.561,0.293 0.91,0.293 0.35,0 0.833,0.121 1.074,0.267 0.834,0.51 1.053,-0.213 1.053,-3.481 0,-2.987 -0.179,-3.627 -1.017,-3.627 -0.129,0 -0.398,-0.163 -0.598,-0.362 -0.432,-0.433 -2.581,-0.62 -3.143,-0.274 m 10.851,-0.064 c -0.235,0.059 -0.505,0.24 -0.599,0.403 -0.224,0.39 -1.241,0.38 -1.765,-0.017 -0.229,-0.173 -0.492,-0.317 -0.587,-0.321 -0.841,-0.033 -1.176,6.525 -0.383,7.504 0.779,0.962 1.25,0.135 1.337,-2.351 0.077,-2.191 1.341,-4.603 1.997,-3.809 0.118,0.142 0.478,0.428 0.802,0.635 0.579,0.371 0.588,0.407 0.588,2.604 0,2.075 0.036,2.269 0.535,2.828 l 0.535,0.6 0.452,-0.535 c 0.513,-0.605 0.522,-5.391 0.013,-6.341 -0.512,-0.955 -1.792,-1.48 -2.925,-1.2 m 7.296,0.477 c -1.628,0.955 -1.696,1.071 -1.794,3.048 -0.156,3.169 0.793,4.345 3.718,4.608 l 1.096,0.098 0.091,-0.779 c 0.093,-0.795 -0.484,-1.258 -1.096,-0.88 -0.497,0.307 -1.895,-1.016 -2.026,-1.917 -0.237,-1.632 0.978,-3.314 2.394,-3.314 0.646,0 1.115,-0.767 0.791,-1.292 -0.274,-0.442 -2.114,-0.194 -3.174,0.428 m 6.918,-0.018 c -2.897,1.82 -2.901,6.177 -0.006,7.108 0.416,0.134 0.853,0.314 0.971,0.4 1.203,0.88 4.201,-0.485 3.22,-1.466 -0.391,-0.391 -1.613,0.05 -1.623,0.585 -0.006,0.306 -0.033,0.303 -0.225,-0.026 -0.119,-0.206 -0.381,-0.374 -0.581,-0.374 -0.2,-0.001 -0.682,-0.273 -1.071,-0.605 -0.944,-0.807 -0.651,-1.01 1.71,-1.183 2.586,-0.19 3.028,-0.383 2.891,-1.262 -0.485,-3.125 -2.981,-4.625 -5.286,-3.177 m -43.737,0.362 c -0.466,1.115 -0.296,6.392 0.222,6.901 1.203,1.183 2.091,-4.707 1.041,-6.908 -0.458,-0.961 -0.859,-0.959 -1.263,0.007 m -50.515,-0.083 c -0.148,0.237 -0.24,1.558 -0.24,3.46 0,3.491 0.11,3.771 1.34,3.419 l 0.691,-0.198 0.059,-3.17 c 0.038,-2.006 -0.024,-3.271 -0.167,-3.443 -0.382,-0.461 -1.412,-0.502 -1.683,-0.068 m 17.505,0.71 c 0,0.177 0.073,0.321 0.162,0.321 1.295,0 1.877,3.175 0.746,4.067 -1.379,1.087 -2.863,0.242 -3.005,-1.71 l -0.093,-1.29 0.934,-0.854 c 1.012,-0.926 1.256,-1.029 1.256,-0.534 m 78.803,-0.194 c 0.611,0.164 1.259,1.52 0.921,1.927 -0.304,0.366 -1.838,0.381 -2.475,0.023 l -0.462,-0.259 0.537,-0.909 c 0.547,-0.924 0.683,-0.996 1.479,-0.782 m -122.886,0.845 c 0.954,1.029 1.176,1.911 0.71,2.825 -0.934,1.828 -2.227,2.15 -3.354,0.833 -1.888,-2.205 0.687,-5.768 2.644,-3.658 m 15.809,0.238 c 1.784,2.018 -0.57,5.512 -2.534,3.761 -1.256,-1.118 -1.3,-2.547 -0.123,-3.938 0.868,-1.026 1.64,-0.975 2.657,0.177 m 82.668,2.547 c 0.465,0.466 0.438,0.545 -0.43,1.237 -1.064,0.849 -2.617,0.473 -2.648,-0.641 -0.019,-0.674 2.51,-1.163 3.078,-0.596"
       id="path0" />
  </g>
</svg>
