<svg id="svg" version="1.1" xmlns="http://www.w3.org/2000/svg" xmlns:xlink="http://www.w3.org/1999/xlink" width="400" height="149.31880108991825" viewBox="0, 0, 400,149.31880108991825"><g id="svgg"><path id="path0" d="M340.110 0.240 C 339.997 0.535,339.139 0.787,337.500 1.007 C 335.955 1.214,332.233 2.087,331.000 2.532 C 330.496 2.714,329.521 3.036,328.833 3.249 C 327.013 3.812,324.192 4.993,322.833 5.760 C 322.604 5.890,322.079 6.157,321.667 6.354 C 321.254 6.551,320.692 6.871,320.417 7.064 C 320.142 7.258,319.322 7.778,318.595 8.220 C 316.890 9.256,314.298 11.398,312.483 13.271 C 309.887 15.949,309.149 16.888,307.849 19.167 C 307.457 19.854,307.070 20.529,306.990 20.667 C 306.530 21.450,305.166 24.333,305.165 24.524 C 305.164 24.648,304.975 25.155,304.744 25.650 C 304.514 26.146,304.176 27.196,303.995 27.984 C 303.813 28.772,303.501 29.979,303.301 30.667 C 302.746 32.572,302.749 43.903,303.305 45.833 C 303.503 46.521,303.817 47.747,304.004 48.558 C 304.191 49.369,304.491 50.323,304.672 50.677 C 304.852 51.030,305.000 51.429,305.000 51.563 C 305.000 51.931,307.169 56.102,308.000 57.333 C 310.296 60.734,314.756 64.938,318.343 67.082 C 318.934 67.435,319.679 67.888,320.000 68.089 C 321.821 69.229,327.338 72.000,327.787 72.000 C 327.910 72.000,328.365 72.179,328.797 72.398 C 329.230 72.617,329.967 72.910,330.437 73.049 C 330.906 73.189,331.532 73.427,331.827 73.580 C 332.351 73.851,333.492 74.273,335.667 75.002 C 336.262 75.201,337.200 75.539,337.750 75.752 C 338.808 76.162,340.972 76.818,342.928 77.323 C 343.577 77.490,344.332 77.744,344.607 77.886 C 344.882 78.028,345.707 78.297,346.440 78.485 C 347.173 78.672,348.049 78.940,348.386 79.081 C 348.724 79.223,349.528 79.449,350.173 79.585 C 350.818 79.720,351.587 79.956,351.881 80.108 C 352.176 80.261,352.979 80.514,353.667 80.672 C 354.354 80.830,355.367 81.116,355.917 81.308 C 356.467 81.500,357.779 81.915,358.833 82.229 C 361.775 83.105,362.313 83.278,363.750 83.810 C 365.405 84.423,366.924 85.050,368.333 85.701 C 368.929 85.976,369.979 86.461,370.667 86.779 C 371.354 87.096,372.067 87.440,372.250 87.543 C 372.433 87.645,372.921 87.913,373.333 88.137 C 379.363 91.418,383.484 96.058,385.199 101.500 L 385.750 103.250 385.743 107.667 L 385.737 112.083 385.196 114.167 C 384.428 117.129,383.895 118.696,383.299 119.750 C 383.195 119.933,382.887 120.532,382.614 121.081 C 382.341 121.630,381.992 122.268,381.838 122.498 C 381.683 122.728,381.263 123.367,380.904 123.917 C 379.453 126.136,376.023 129.161,372.979 130.906 C 371.858 131.548,369.267 132.833,369.093 132.833 C 368.994 132.833,368.565 133.019,368.137 133.247 C 367.710 133.474,366.787 133.818,366.086 134.010 C 365.385 134.202,364.572 134.459,364.280 134.580 C 363.989 134.702,362.928 134.923,361.924 135.072 C 360.919 135.220,359.682 135.449,359.174 135.581 C 356.893 136.170,343.535 136.379,341.417 135.859 C 341.050 135.769,339.850 135.494,338.750 135.249 C 337.650 135.003,336.100 134.584,335.307 134.318 C 334.513 134.051,333.772 133.833,333.661 133.833 C 333.121 133.833,328.254 131.481,325.583 129.929 C 320.228 126.817,314.682 121.251,310.443 114.734 C 309.601 113.440,308.455 111.406,307.564 109.629 C 306.881 108.264,306.179 108.419,302.810 110.681 C 302.594 110.826,301.892 111.270,301.250 111.666 C 300.608 112.063,299.821 112.552,299.500 112.753 C 298.593 113.322,297.807 113.789,297.127 114.162 C 295.607 114.997,295.837 116.202,298.163 119.583 C 298.352 119.858,299.117 121.014,299.862 122.152 C 301.132 124.090,302.263 125.652,303.975 127.833 C 305.092 129.257,309.236 133.566,310.990 135.127 C 313.784 137.615,317.034 139.912,319.774 141.338 C 320.671 141.804,321.489 142.255,321.592 142.341 C 321.695 142.426,322.096 142.607,322.484 142.744 C 322.871 142.881,323.395 143.140,323.646 143.319 C 323.898 143.498,324.324 143.698,324.593 143.763 C 324.863 143.828,325.447 144.063,325.890 144.284 C 328.000 145.339,332.727 146.696,337.355 147.576 C 342.375 148.531,351.255 148.839,357.404 148.271 C 360.276 148.006,366.864 146.873,367.376 146.557 C 367.488 146.488,368.293 146.227,369.165 145.977 C 371.035 145.442,373.191 144.675,373.975 144.265 C 374.283 144.105,374.845 143.879,375.225 143.763 C 375.606 143.648,376.208 143.354,376.565 143.110 C 376.921 142.866,377.302 142.667,377.411 142.667 C 377.520 142.667,377.941 142.455,378.346 142.195 C 378.752 141.936,379.646 141.392,380.333 140.987 C 384.411 138.583,389.234 134.326,391.388 131.230 C 391.587 130.943,392.087 130.241,392.500 129.669 C 393.581 128.170,394.232 127.098,394.983 125.583 C 395.853 123.829,396.833 121.589,396.833 121.356 C 396.833 121.254,397.020 120.701,397.249 120.127 C 397.478 119.553,397.815 118.408,397.998 117.583 C 398.181 116.758,398.443 115.676,398.581 115.179 C 399.799 110.756,399.175 99.659,397.470 95.417 C 397.285 94.958,397.000 94.171,396.835 93.667 C 395.826 90.573,393.087 86.436,390.142 83.555 C 387.380 80.853,385.902 79.633,383.909 78.411 C 383.605 78.225,383.220 77.956,383.053 77.814 C 382.886 77.673,381.438 76.898,379.833 76.093 C 378.229 75.289,376.654 74.493,376.333 74.324 C 375.045 73.649,374.200 73.271,373.167 72.910 C 372.571 72.702,371.371 72.253,370.500 71.913 C 369.629 71.572,368.354 71.111,367.667 70.887 C 366.979 70.664,366.114 70.344,365.743 70.176 C 365.373 70.008,364.623 69.779,364.076 69.666 C 363.530 69.554,362.794 69.314,362.440 69.135 C 362.086 68.955,361.271 68.698,360.630 68.564 C 359.988 68.431,359.186 68.180,358.847 68.007 C 358.509 67.834,357.749 67.606,357.159 67.499 C 356.569 67.392,355.823 67.193,355.501 67.058 C 354.965 66.832,353.078 66.291,350.333 65.575 C 349.738 65.420,348.800 65.147,348.250 64.968 C 347.700 64.789,346.650 64.470,345.917 64.260 C 345.183 64.049,344.301 63.753,343.957 63.602 C 343.612 63.451,342.862 63.224,342.290 63.097 C 341.718 62.971,340.875 62.715,340.417 62.529 C 339.958 62.342,339.133 62.041,338.583 61.859 C 338.033 61.676,337.096 61.365,336.500 61.166 C 335.904 60.967,334.954 60.586,334.389 60.319 C 333.824 60.052,333.313 59.833,333.254 59.833 C 332.970 59.833,328.349 57.555,327.472 56.982 C 327.135 56.763,326.474 56.358,326.002 56.083 C 317.612 51.195,314.271 41.922,317.145 31.500 C 318.633 26.107,322.174 21.210,326.750 18.219 C 327.392 17.800,328.217 17.259,328.583 17.017 C 329.790 16.220,333.142 14.785,334.903 14.311 C 335.537 14.141,336.587 13.820,337.236 13.599 C 337.885 13.379,338.979 13.148,339.667 13.087 C 340.354 13.026,341.742 12.812,342.750 12.613 C 345.211 12.126,353.912 12.080,355.591 12.545 C 356.144 12.699,357.416 12.946,358.416 13.095 C 359.416 13.243,360.575 13.499,360.992 13.663 C 361.409 13.827,362.189 14.051,362.726 14.162 C 363.263 14.274,364.163 14.582,364.726 14.849 C 365.289 15.115,365.857 15.333,365.988 15.333 C 366.210 15.333,368.237 16.239,369.167 16.754 C 369.396 16.880,369.925 17.169,370.343 17.395 C 370.996 17.749,371.676 18.193,373.568 19.500 C 376.062 21.224,380.254 25.480,381.545 27.599 C 381.707 27.866,382.175 28.608,382.585 29.250 C 383.437 30.583,384.383 32.448,385.247 34.500 C 386.201 36.762,386.188 36.744,386.870 36.801 C 387.206 36.829,387.712 36.732,387.995 36.586 C 388.550 36.299,390.754 35.518,392.481 34.997 C 393.067 34.820,393.722 34.559,393.938 34.418 C 394.155 34.276,394.801 34.042,395.374 33.898 C 397.603 33.338,398.306 32.571,397.792 31.255 C 397.648 30.886,397.334 30.058,397.094 29.417 C 394.259 21.838,388.243 14.019,381.899 9.667 C 380.660 8.817,379.083 7.811,378.000 7.181 C 377.313 6.781,376.541 6.310,376.286 6.134 C 375.104 5.321,368.252 2.708,366.083 2.243 C 365.442 2.106,364.279 1.810,363.500 1.585 C 362.721 1.361,361.408 1.096,360.583 0.998 C 358.686 0.771,357.841 0.548,357.724 0.241 C 357.585 -0.120,340.249 -0.122,340.110 0.240 M1.167 2.333 C 0.690 2.810,0.633 146.459,1.109 146.855 C 1.515 147.192,13.319 147.192,13.724 146.855 C 13.980 146.643,14.001 142.377,14.017 88.938 C 14.026 57.210,14.085 31.063,14.148 30.833 C 14.414 29.874,14.869 30.228,15.802 32.121 C 16.638 33.816,17.608 35.701,20.243 40.750 C 20.865 41.942,21.860 43.854,22.455 45.000 C 23.049 46.146,23.636 47.271,23.758 47.500 C 23.880 47.729,24.062 48.104,24.162 48.333 C 24.262 48.563,24.634 49.275,24.988 49.917 C 25.342 50.558,26.115 52.021,26.706 53.167 C 27.296 54.313,28.289 56.225,28.912 57.417 C 29.536 58.608,30.188 59.883,30.362 60.250 C 30.536 60.617,30.766 61.067,30.872 61.250 C 31.166 61.757,31.960 63.275,33.708 66.667 C 35.550 70.242,37.309 73.621,38.134 75.167 C 38.452 75.762,39.195 77.188,39.785 78.333 C 40.375 79.479,40.960 80.604,41.085 80.833 C 41.211 81.063,41.454 81.550,41.628 81.917 C 41.801 82.283,42.225 83.108,42.570 83.750 C 42.916 84.392,43.307 85.142,43.440 85.417 C 43.572 85.692,43.801 86.142,43.947 86.417 C 45.254 88.867,47.486 93.140,47.777 93.750 C 47.908 94.025,48.118 94.438,48.244 94.667 C 48.370 94.896,48.979 96.058,49.598 97.250 C 50.217 98.442,51.192 100.317,51.765 101.417 C 52.339 102.517,53.305 104.392,53.913 105.583 C 54.521 106.775,55.513 108.688,56.117 109.833 C 57.301 112.078,58.942 115.254,60.524 118.362 C 61.191 119.672,61.735 120.507,62.191 120.919 L 62.868 121.530 66.809 121.472 C 69.883 121.427,70.857 121.359,71.238 121.165 C 71.776 120.891,71.832 120.797,74.165 116.250 C 75.059 114.508,76.297 112.108,76.917 110.917 C 77.537 109.725,78.528 107.813,79.119 106.667 C 79.710 105.521,80.665 103.683,81.240 102.583 C 81.816 101.483,82.773 99.646,83.366 98.500 C 83.959 97.354,84.567 96.192,84.716 95.917 C 84.864 95.642,85.113 95.154,85.269 94.833 C 85.425 94.513,85.827 93.725,86.164 93.083 C 86.501 92.442,87.477 90.567,88.333 88.917 C 89.190 87.267,90.174 85.392,90.521 84.750 C 90.869 84.108,91.306 83.246,91.493 82.833 C 91.680 82.421,91.905 81.971,91.992 81.833 C 92.080 81.696,92.633 80.646,93.220 79.500 C 93.808 78.354,94.684 76.667,95.168 75.750 C 95.652 74.833,96.647 72.921,97.379 71.500 C 100.337 65.759,100.991 64.496,102.038 62.500 C 104.855 57.133,107.250 52.501,107.856 51.250 C 108.033 50.883,108.253 50.471,108.344 50.333 C 108.435 50.196,108.731 49.633,109.001 49.083 C 109.271 48.533,109.603 47.896,109.739 47.667 C 109.876 47.438,110.131 46.950,110.307 46.583 C 110.786 45.584,112.864 41.557,113.489 40.417 C 113.791 39.867,114.182 39.117,114.359 38.750 C 114.535 38.383,114.765 37.933,114.869 37.750 C 115.055 37.425,116.921 33.827,117.852 32.000 C 118.417 30.891,119.256 29.867,119.446 30.057 C 119.521 30.132,119.621 56.361,119.667 88.341 C 119.740 139.731,119.779 146.517,120.000 146.737 C 120.358 147.095,132.416 147.155,132.770 146.802 C 133.161 146.410,133.112 2.496,132.720 2.208 C 132.505 2.050,130.899 2.000,126.061 2.000 L 119.685 2.000 119.267 2.375 C 118.919 2.688,117.777 4.722,116.719 6.917 C 116.587 7.192,116.367 7.604,116.230 7.833 C 116.094 8.063,115.759 8.700,115.485 9.250 C 115.211 9.800,114.513 11.150,113.933 12.250 C 113.353 13.350,112.369 15.225,111.745 16.417 C 111.121 17.608,110.371 19.033,110.077 19.583 C 109.784 20.133,109.059 21.521,108.466 22.667 C 107.873 23.813,106.877 25.725,106.252 26.917 C 105.627 28.108,104.865 29.571,104.558 30.167 C 104.252 30.762,103.932 31.363,103.847 31.500 C 103.762 31.637,103.548 32.050,103.371 32.417 C 102.887 33.417,99.814 39.290,98.138 42.417 C 97.794 43.058,97.289 44.033,97.015 44.583 C 96.741 45.133,96.407 45.771,96.272 46.000 C 96.137 46.229,95.883 46.717,95.707 47.083 C 95.531 47.450,94.906 48.668,94.319 49.790 C 92.615 53.043,91.168 55.818,89.977 58.116 C 89.368 59.290,88.611 60.737,88.295 61.333 C 87.978 61.929,87.239 63.332,86.651 64.450 C 86.064 65.568,85.321 66.977,85.000 67.580 C 84.679 68.183,83.717 70.044,82.862 71.714 C 82.007 73.384,81.016 75.275,80.662 75.917 C 80.307 76.558,79.898 77.346,79.754 77.667 C 79.610 77.987,79.402 78.400,79.293 78.583 C 78.962 79.139,77.907 81.137,76.828 83.250 C 76.266 84.350,75.288 86.225,74.654 87.417 C 74.020 88.608,73.275 90.033,72.997 90.583 C 72.720 91.133,71.745 93.008,70.831 94.750 C 69.917 96.492,68.941 98.367,68.663 98.917 C 67.152 101.900,66.806 101.946,65.502 99.341 C 65.247 98.833,64.704 97.779,64.294 97.000 C 63.884 96.221,63.136 94.796,62.631 93.833 C 62.127 92.871,61.594 91.858,61.447 91.583 C 61.301 91.308,61.072 90.858,60.940 90.583 C 60.807 90.308,60.440 89.596,60.123 89.000 C 59.116 87.106,55.356 79.909,54.550 78.333 C 54.245 77.737,53.925 77.137,53.837 77.000 C 53.750 76.862,53.535 76.450,53.359 76.083 C 53.184 75.717,52.761 74.892,52.419 74.250 C 52.077 73.608,51.293 72.108,50.675 70.917 C 49.484 68.617,47.801 65.405,46.921 63.750 C 46.245 62.477,44.280 58.717,40.871 52.167 C 40.274 51.021,39.327 49.183,38.766 48.083 C 38.205 46.983,37.623 45.896,37.473 45.667 C 37.324 45.438,37.146 45.063,37.079 44.833 C 37.011 44.604,36.825 44.229,36.664 44.000 C 36.504 43.771,35.906 42.683,35.336 41.583 C 32.987 37.051,31.825 34.821,30.908 33.083 C 29.027 29.518,26.271 24.219,24.668 21.083 C 24.105 19.983,23.358 18.558,23.008 17.917 C 22.281 16.586,20.893 13.939,19.208 10.667 C 18.571 9.429,17.651 7.667,17.165 6.750 C 16.679 5.833,15.979 4.492,15.610 3.770 C 14.658 1.909,15.067 2.000,7.672 2.000 C 1.722 2.000,1.488 2.012,1.167 2.333 M210.000 2.499 C 209.129 2.569,208.117 2.708,207.750 2.806 C 207.383 2.904,206.367 3.098,205.492 3.237 C 204.616 3.376,203.396 3.680,202.780 3.912 C 202.163 4.144,201.521 4.333,201.353 4.333 C 201.185 4.333,200.605 4.551,200.065 4.817 C 199.525 5.084,198.371 5.652,197.500 6.081 C 196.629 6.510,195.499 7.136,194.988 7.472 C 194.478 7.808,193.823 8.239,193.534 8.429 C 188.655 11.635,183.286 18.622,181.945 23.508 C 181.808 24.008,181.546 24.829,181.363 25.333 C 181.180 25.837,180.981 26.700,180.920 27.250 C 180.859 27.800,180.697 28.894,180.559 29.682 C 180.048 32.601,180.546 38.927,181.519 41.877 C 181.783 42.681,182.000 43.435,182.000 43.553 C 182.000 43.671,182.185 44.139,182.410 44.592 C 182.636 45.046,182.929 45.717,183.063 46.083 C 183.422 47.071,185.393 50.738,186.297 52.099 C 186.546 52.475,187.050 53.215,187.417 53.744 C 187.783 54.273,188.196 54.872,188.333 55.074 C 189.563 56.883,193.381 61.375,196.032 64.133 C 199.169 67.396,199.173 67.251,195.917 69.117 C 194.477 69.942,193.958 70.258,192.417 71.244 C 191.867 71.595,191.042 72.122,190.583 72.414 C 190.125 72.706,189.536 73.088,189.274 73.264 C 189.012 73.440,188.557 73.733,188.262 73.917 C 187.968 74.100,187.507 74.423,187.238 74.634 C 186.970 74.845,186.215 75.407,185.561 75.884 C 181.674 78.714,176.148 83.803,174.323 86.234 C 172.579 88.556,172.757 88.291,170.989 91.167 C 170.623 91.763,170.274 92.400,170.215 92.583 C 170.155 92.767,169.870 93.367,169.581 93.917 C 169.291 94.467,168.964 95.280,168.854 95.724 C 168.744 96.168,168.544 96.699,168.409 96.905 C 168.274 97.111,168.011 97.985,167.824 98.848 C 167.637 99.711,167.373 100.791,167.239 101.248 C 165.623 106.742,167.206 118.057,170.456 124.250 C 170.601 124.525,170.899 125.116,171.120 125.563 C 171.340 126.010,171.657 126.572,171.823 126.813 C 171.988 127.053,172.424 127.713,172.792 128.280 C 174.773 131.338,178.435 135.336,181.143 137.398 C 183.568 139.245,184.877 140.103,186.833 141.132 C 187.796 141.638,188.762 142.190,188.981 142.359 C 189.199 142.528,189.499 142.667,189.647 142.667 C 189.796 142.667,190.437 142.930,191.074 143.251 C 191.710 143.571,192.335 143.833,192.463 143.833 C 192.590 143.833,193.194 144.049,193.805 144.313 C 194.417 144.578,195.329 144.888,195.833 145.002 C 196.338 145.117,196.950 145.313,197.195 145.436 C 197.440 145.560,198.565 145.814,199.695 146.000 C 200.825 146.187,202.200 146.449,202.750 146.583 C 205.742 147.312,215.668 147.259,219.083 146.496 C 219.908 146.312,221.071 146.085,221.667 145.991 C 222.663 145.834,224.965 145.158,226.583 144.546 C 226.950 144.408,227.730 144.113,228.316 143.891 C 228.903 143.669,229.578 143.350,229.816 143.182 C 230.055 143.014,230.438 142.822,230.667 142.754 C 230.896 142.686,231.427 142.414,231.848 142.149 C 232.268 141.884,232.690 141.667,232.784 141.667 C 232.973 141.667,235.729 139.850,237.167 138.778 C 238.931 137.461,242.425 134.365,243.333 133.312 C 243.837 132.728,244.399 132.093,244.583 131.902 C 245.611 130.830,249.052 126.466,249.883 125.182 C 250.423 124.347,251.050 123.925,251.438 124.137 C 251.805 124.337,255.544 128.138,258.504 131.318 C 259.648 132.546,261.033 134.018,261.583 134.588 C 262.133 135.158,263.520 136.627,264.664 137.854 C 265.809 139.080,267.353 140.721,268.096 141.500 C 268.839 142.279,270.481 144.039,271.745 145.410 C 273.009 146.781,274.221 148.043,274.439 148.214 C 274.656 148.384,274.833 148.669,274.833 148.845 C 274.833 149.287,275.605 149.290,275.745 148.848 C 275.801 148.673,276.050 148.397,276.298 148.234 C 277.212 147.636,284.337 141.574,284.558 141.207 C 284.900 140.637,284.489 139.912,282.872 138.236 C 280.478 135.755,275.093 130.103,273.754 128.667 C 273.113 127.979,271.762 126.554,270.750 125.500 C 269.738 124.446,267.975 122.579,266.830 121.352 C 265.686 120.125,264.345 118.700,263.849 118.185 C 257.635 111.734,257.822 112.192,260.121 109.068 C 260.329 108.784,260.500 108.493,260.500 108.422 C 260.500 108.350,260.781 107.858,261.125 107.329 C 261.469 106.799,261.975 105.979,262.250 105.508 C 262.525 105.036,263.050 104.178,263.417 103.601 C 263.783 103.024,264.271 102.235,264.500 101.847 C 264.729 101.459,265.160 100.774,265.458 100.325 C 265.756 99.876,266.000 99.467,266.000 99.417 C 266.000 99.366,266.244 98.959,266.542 98.512 C 266.840 98.064,267.308 97.311,267.583 96.837 C 268.288 95.624,270.288 92.378,270.821 91.583 C 271.067 91.217,271.602 90.354,272.009 89.667 C 272.417 88.979,272.975 88.068,273.250 87.642 C 273.525 87.216,273.975 86.478,274.250 86.001 C 274.525 85.525,274.994 84.769,275.292 84.322 C 275.590 83.874,275.833 83.467,275.833 83.417 C 275.833 83.366,276.093 82.947,276.411 82.485 C 277.425 81.012,277.418 80.144,276.387 79.511 C 276.004 79.276,275.029 78.681,274.220 78.189 C 273.412 77.697,272.337 77.026,271.833 76.699 C 271.329 76.372,270.654 75.945,270.333 75.750 C 270.012 75.555,269.332 75.119,268.821 74.781 C 267.443 73.869,266.720 74.110,265.861 75.768 C 265.708 76.062,265.021 77.217,264.333 78.334 C 263.646 79.451,262.707 80.976,262.247 81.724 C 261.787 82.472,261.193 83.421,260.926 83.833 C 259.386 86.217,258.895 87.004,257.602 89.167 C 257.082 90.037,256.366 91.200,256.013 91.750 C 255.389 92.720,253.612 95.616,252.900 96.823 C 252.707 97.149,252.369 97.694,252.150 98.032 C 251.930 98.370,251.450 99.150,251.083 99.766 C 250.353 100.990,249.484 102.000,249.160 102.000 C 248.896 102.000,247.010 100.038,242.749 95.333 C 241.368 93.808,235.998 88.011,234.489 86.417 C 233.796 85.683,232.413 84.183,231.416 83.083 C 230.419 81.983,229.002 80.446,228.265 79.667 C 227.529 78.887,226.557 77.837,226.106 77.333 C 225.655 76.829,224.378 75.455,223.268 74.279 C 219.854 70.663,219.672 70.445,219.675 70.000 C 219.678 69.475,220.005 69.039,220.728 68.597 C 221.299 68.248,223.932 66.456,225.345 65.456 C 229.685 62.384,235.324 57.184,237.677 54.083 C 238.025 53.625,238.596 52.873,238.946 52.412 C 241.508 49.042,243.500 44.964,244.399 41.250 C 244.532 40.700,244.761 39.837,244.908 39.333 C 245.504 37.285,245.509 29.813,244.915 27.662 C 244.777 27.160,244.512 26.086,244.327 25.275 C 244.141 24.464,243.850 23.526,243.679 23.191 C 243.508 22.856,243.280 22.244,243.172 21.832 C 243.064 21.420,242.804 20.820,242.595 20.498 C 242.385 20.176,242.156 19.726,242.085 19.498 C 241.957 19.085,240.905 17.275,240.148 16.166 C 237.548 12.354,232.668 8.178,228.389 6.104 C 227.488 5.666,226.412 5.137,226.000 4.927 C 225.588 4.717,224.875 4.457,224.417 4.348 C 223.958 4.239,223.206 4.011,222.745 3.841 C 222.284 3.671,221.084 3.406,220.078 3.252 C 219.073 3.099,217.838 2.873,217.333 2.752 C 216.171 2.472,212.070 2.330,210.000 2.499 M218.083 14.631 C 218.633 14.819,219.556 15.094,220.133 15.243 C 220.711 15.392,221.620 15.735,222.154 16.007 C 222.688 16.278,223.190 16.502,223.271 16.504 C 223.351 16.506,223.604 16.659,223.833 16.845 C 224.063 17.031,224.512 17.357,224.833 17.569 C 227.304 19.205,230.289 23.092,231.179 25.833 C 231.343 26.337,231.593 27.065,231.735 27.451 C 232.703 30.079,232.666 37.706,231.676 39.650 C 231.508 39.980,231.258 40.625,231.122 41.083 C 230.985 41.542,230.639 42.376,230.353 42.937 C 230.067 43.499,229.833 44.013,229.833 44.079 C 229.833 44.146,229.256 45.074,228.551 46.142 C 226.330 49.504,220.848 54.677,216.337 57.667 C 215.135 58.464,214.745 58.718,213.917 59.248 C 213.458 59.541,212.714 60.018,212.263 60.307 C 210.710 61.303,210.280 60.958,203.994 53.667 C 197.976 46.686,194.506 41.279,194.077 38.214 C 194.016 37.776,193.824 36.859,193.650 36.177 C 193.297 34.794,193.213 31.663,193.502 30.666 C 193.595 30.345,193.821 29.341,194.003 28.434 C 194.186 27.528,194.476 26.553,194.648 26.268 C 194.819 25.983,195.053 25.450,195.167 25.083 C 196.570 20.577,203.340 15.170,208.621 14.337 C 210.488 14.043,216.949 14.243,218.083 14.631 M209.543 78.542 C 210.501 79.573,213.299 82.592,215.761 85.250 C 218.223 87.908,221.703 91.661,223.494 93.589 C 225.285 95.517,227.463 97.877,228.333 98.833 C 229.204 99.789,230.485 101.174,231.179 101.911 C 232.712 103.537,232.843 103.678,234.833 105.839 C 235.704 106.785,237.111 108.301,237.960 109.209 C 242.977 114.576,242.882 114.343,241.117 116.961 C 240.448 117.953,237.943 121.260,236.475 123.089 C 234.797 125.180,231.460 128.381,229.663 129.622 C 226.864 131.557,222.687 133.503,220.271 133.998 C 219.732 134.109,218.893 134.336,218.405 134.504 C 214.711 135.775,204.421 135.124,199.633 133.318 C 198.928 133.051,198.262 132.833,198.155 132.833 C 197.874 132.833,195.078 131.436,194.000 130.757 C 193.496 130.439,192.746 129.972,192.333 129.719 C 189.586 128.035,185.764 124.168,184.045 121.333 C 183.155 119.867,182.170 117.985,182.066 117.556 C 182.004 117.296,181.784 116.746,181.579 116.333 C 181.374 115.921,181.115 115.133,181.004 114.583 C 180.894 114.033,180.646 112.983,180.455 112.250 C 179.887 110.074,179.925 105.147,180.527 103.000 C 180.772 102.129,181.022 101.117,181.083 100.750 C 181.145 100.383,181.337 99.821,181.510 99.500 C 181.684 99.179,181.982 98.487,182.174 97.962 C 182.365 97.436,182.593 96.962,182.680 96.908 C 182.767 96.855,182.954 96.534,183.095 96.197 C 184.192 93.569,188.527 88.878,193.000 85.480 C 194.409 84.409,194.704 84.202,197.250 82.499 C 197.983 82.009,198.896 81.396,199.277 81.137 C 199.659 80.878,200.027 80.667,200.095 80.667 C 200.163 80.667,200.451 80.490,200.734 80.274 C 201.018 80.057,201.648 79.664,202.135 79.399 C 203.521 78.644,204.191 78.271,205.000 77.801 C 207.605 76.287,207.421 76.257,209.543 78.542 " stroke="none" fill="#544b53" fill-rule="evenodd"></path><path id="path1" d="M0.000 74.583 L 0.000 149.167 137.417 149.167 C 272.997 149.167,274.833 149.162,274.833 148.845 C 274.833 148.669,274.656 148.384,274.439 148.214 C 274.221 148.043,273.009 146.781,271.745 145.410 C 270.481 144.039,268.839 142.279,268.096 141.500 C 267.353 140.721,265.809 139.080,264.664 137.854 C 263.520 136.627,262.133 135.158,261.583 134.588 C 261.033 134.018,259.648 132.546,258.504 131.318 C 255.544 128.138,251.805 124.337,251.438 124.137 C 251.050 123.925,250.423 124.347,249.883 125.182 C 249.052 126.466,245.611 130.830,244.583 131.902 C 244.399 132.093,243.837 132.728,243.333 133.312 C 242.425 134.365,238.931 137.461,237.167 138.778 C 235.729 139.850,232.973 141.667,232.784 141.667 C 232.690 141.667,232.268 141.884,231.848 142.149 C 231.427 142.414,230.896 142.686,230.667 142.754 C 230.438 142.822,230.055 143.014,229.816 143.182 C 229.578 143.350,228.903 143.669,228.316 143.891 C 227.730 144.113,226.950 144.408,226.583 144.546 C 224.965 145.158,222.663 145.834,221.667 145.991 C 221.071 146.085,219.908 146.312,219.083 146.496 C 215.668 147.259,205.742 147.312,202.750 146.583 C 202.200 146.449,200.825 146.187,199.695 146.000 C 198.565 145.814,197.440 145.560,197.195 145.436 C 196.950 145.313,196.338 145.117,195.833 145.002 C 195.329 144.888,194.417 144.578,193.805 144.313 C 193.194 144.049,192.590 143.833,192.463 143.833 C 192.335 143.833,191.710 143.571,191.074 143.251 C 190.437 142.930,189.796 142.667,189.647 142.667 C 189.499 142.667,189.199 142.528,188.981 142.359 C 188.762 142.190,187.796 141.638,186.833 141.132 C 181.457 138.305,176.126 133.426,172.792 128.280 C 172.424 127.713,171.988 127.053,171.823 126.813 C 171.657 126.572,171.340 126.010,171.120 125.563 C 170.899 125.116,170.601 124.525,170.456 124.250 C 167.206 118.057,165.623 106.742,167.239 101.248 C 167.373 100.791,167.637 99.711,167.824 98.848 C 168.011 97.985,168.274 97.111,168.409 96.905 C 168.544 96.699,168.744 96.168,168.854 95.724 C 168.964 95.280,169.291 94.467,169.581 93.917 C 169.870 93.367,170.155 92.767,170.215 92.583 C 170.274 92.400,170.623 91.763,170.989 91.167 C 172.757 88.291,172.579 88.556,174.323 86.234 C 176.148 83.803,181.674 78.714,185.561 75.884 C 186.215 75.407,186.970 74.845,187.238 74.634 C 187.507 74.423,187.968 74.100,188.262 73.917 C 188.557 73.733,189.012 73.440,189.274 73.264 C 190.030 72.757,192.806 70.982,194.000 70.243 C 194.321 70.044,195.183 69.538,195.917 69.117 C 199.173 67.251,199.169 67.396,196.032 64.133 C 193.381 61.375,189.563 56.883,188.333 55.074 C 188.196 54.872,187.783 54.273,187.417 53.744 C 187.050 53.215,186.546 52.475,186.297 52.099 C 185.393 50.738,183.422 47.071,183.063 46.083 C 182.929 45.717,182.636 45.046,182.410 44.592 C 182.185 44.139,182.000 43.671,182.000 43.553 C 182.000 43.435,181.783 42.681,181.519 41.877 C 180.546 38.927,180.048 32.601,180.559 29.682 C 180.697 28.894,180.859 27.800,180.920 27.250 C 180.981 26.700,181.180 25.837,181.363 25.333 C 181.546 24.829,181.808 24.008,181.945 23.508 C 183.286 18.622,188.655 11.635,193.534 8.429 C 193.823 8.239,194.478 7.808,194.988 7.472 C 195.499 7.136,196.629 6.510,197.500 6.081 C 198.371 5.652,199.525 5.084,200.065 4.817 C 200.605 4.551,201.185 4.333,201.353 4.333 C 201.521 4.333,202.154 4.147,202.759 3.919 C 203.364 3.692,204.359 3.424,204.971 3.324 C 205.583 3.225,206.833 2.989,207.750 2.801 C 209.902 2.358,215.640 2.308,217.250 2.718 C 217.800 2.858,219.073 3.099,220.078 3.252 C 221.084 3.406,222.284 3.671,222.745 3.841 C 223.206 4.011,223.958 4.239,224.417 4.348 C 224.875 4.457,225.588 4.717,226.000 4.927 C 226.412 5.137,227.488 5.666,228.389 6.104 C 232.668 8.178,237.548 12.354,240.148 16.166 C 240.905 17.275,241.957 19.085,242.085 19.498 C 242.156 19.726,242.385 20.176,242.595 20.498 C 242.804 20.820,243.064 21.420,243.172 21.832 C 243.280 22.244,243.508 22.856,243.679 23.191 C 243.850 23.526,244.141 24.464,244.327 25.275 C 244.512 26.086,244.777 27.160,244.915 27.662 C 245.509 29.813,245.504 37.285,244.908 39.333 C 244.761 39.837,244.532 40.700,244.399 41.250 C 244.161 42.235,244.014 42.688,243.237 44.833 C 242.440 47.034,240.706 50.097,238.946 52.412 C 238.596 52.873,238.025 53.625,237.677 54.083 C 235.324 57.184,229.685 62.384,225.345 65.456 C 223.932 66.456,221.299 68.248,220.728 68.597 C 220.005 69.039,219.678 69.475,219.675 70.000 C 219.672 70.445,219.854 70.663,223.268 74.279 C 224.378 75.455,225.655 76.829,226.106 77.333 C 226.557 77.837,227.529 78.887,228.265 79.667 C 229.002 80.446,230.419 81.983,231.416 83.083 C 232.413 84.183,233.796 85.683,234.489 86.417 C 235.998 88.011,241.368 93.808,242.749 95.333 C 247.010 100.038,248.896 102.000,249.160 102.000 C 249.484 102.000,250.353 100.990,251.083 99.766 C 251.450 99.150,251.930 98.370,252.150 98.032 C 252.369 97.694,252.707 97.149,252.900 96.823 C 253.612 95.616,255.389 92.720,256.013 91.750 C 256.366 91.200,257.082 90.037,257.602 89.167 C 258.895 87.004,259.386 86.217,260.926 83.833 C 261.193 83.421,261.787 82.472,262.247 81.724 C 262.707 80.976,263.646 79.451,264.333 78.334 C 265.021 77.217,265.708 76.062,265.861 75.768 C 266.720 74.110,267.443 73.869,268.821 74.781 C 269.332 75.119,270.012 75.555,270.333 75.750 C 270.654 75.945,271.329 76.372,271.833 76.699 C 272.337 77.026,273.412 77.697,274.220 78.189 C 275.029 78.681,276.004 79.276,276.387 79.511 C 277.418 80.144,277.425 81.012,276.411 82.485 C 276.093 82.947,275.833 83.366,275.833 83.417 C 275.833 83.467,275.590 83.874,275.292 84.322 C 274.994 84.769,274.525 85.525,274.250 86.001 C 273.975 86.478,273.525 87.216,273.250 87.642 C 272.975 88.068,272.417 88.979,272.009 89.667 C 271.602 90.354,271.067 91.217,270.821 91.583 C 270.288 92.378,268.288 95.624,267.583 96.837 C 267.308 97.311,266.840 98.064,266.542 98.512 C 266.244 98.959,266.000 99.366,266.000 99.417 C 266.000 99.467,265.756 99.876,265.458 100.325 C 265.160 100.774,264.729 101.459,264.500 101.847 C 264.271 102.235,263.783 103.024,263.417 103.601 C 263.050 104.178,262.525 105.036,262.250 105.508 C 261.975 105.979,261.469 106.799,261.125 107.329 C 260.781 107.858,260.500 108.350,260.500 108.422 C 260.500 108.493,260.329 108.784,260.121 109.068 C 257.822 112.192,257.635 111.734,263.849 118.185 C 264.345 118.700,265.686 120.125,266.830 121.352 C 267.975 122.579,269.738 124.446,270.750 125.500 C 271.762 126.554,273.113 127.979,273.754 128.667 C 275.093 130.103,280.478 135.755,282.872 138.236 C 285.506 140.966,285.794 140.373,279.167 145.888 C 277.654 147.146,276.248 148.318,276.042 148.492 C 275.835 148.666,275.667 148.889,275.667 148.987 C 275.667 149.115,293.585 149.167,337.833 149.167 L 400.000 149.167 400.000 74.583 L 400.000 0.000 378.819 0.000 C 361.950 0.000,357.653 0.042,357.707 0.208 C 357.809 0.519,358.735 0.777,360.503 0.987 C 361.372 1.091,362.721 1.359,363.500 1.584 C 364.279 1.809,365.442 2.106,366.083 2.243 C 368.252 2.708,375.104 5.321,376.286 6.134 C 376.541 6.310,377.313 6.781,378.000 7.181 C 379.083 7.811,380.660 8.817,381.899 9.667 C 385.618 12.218,389.732 16.464,392.368 20.471 C 394.649 23.939,396.003 26.502,397.094 29.417 C 397.334 30.058,397.648 30.886,397.792 31.255 C 398.306 32.571,397.603 33.338,395.374 33.898 C 394.801 34.042,394.155 34.276,393.938 34.418 C 393.722 34.559,393.067 34.820,392.481 34.997 C 390.754 35.518,388.550 36.299,387.995 36.586 C 387.712 36.732,387.206 36.829,386.870 36.801 C 386.188 36.744,386.201 36.762,385.247 34.500 C 384.383 32.448,383.437 30.583,382.585 29.250 C 382.175 28.608,381.707 27.866,381.545 27.599 C 380.254 25.480,376.062 21.224,373.568 19.500 C 371.676 18.193,370.996 17.749,370.343 17.395 C 369.925 17.169,369.396 16.880,369.167 16.754 C 368.237 16.239,366.210 15.333,365.988 15.333 C 365.857 15.333,365.289 15.115,364.726 14.849 C 364.163 14.582,363.263 14.274,362.726 14.162 C 362.189 14.051,361.409 13.827,360.992 13.663 C 360.575 13.499,359.416 13.243,358.416 13.095 C 357.416 12.946,356.144 12.699,355.591 12.545 C 353.912 12.080,345.211 12.126,342.750 12.613 C 341.742 12.812,340.354 13.026,339.667 13.087 C 338.979 13.148,337.885 13.379,337.236 13.599 C 336.587 13.820,335.537 14.141,334.903 14.311 C 333.142 14.785,329.790 16.220,328.583 17.017 C 328.217 17.259,327.392 17.800,326.750 18.219 C 315.023 25.884,312.439 43.691,321.742 52.730 C 322.995 53.948,324.871 55.424,326.002 56.083 C 326.474 56.358,327.135 56.763,327.472 56.982 C 328.349 57.555,332.970 59.833,333.254 59.833 C 333.313 59.833,333.824 60.052,334.389 60.319 C 334.954 60.586,335.885 60.961,336.458 61.152 C 337.031 61.344,337.969 61.655,338.542 61.845 C 339.115 62.035,339.958 62.342,340.417 62.529 C 340.875 62.715,341.718 62.971,342.290 63.097 C 342.862 63.224,343.612 63.451,343.957 63.602 C 344.301 63.753,345.183 64.049,345.917 64.260 C 346.650 64.470,347.700 64.789,348.250 64.968 C 348.800 65.147,349.738 65.420,350.333 65.575 C 353.078 66.291,354.965 66.832,355.501 67.058 C 355.823 67.193,356.569 67.392,357.159 67.499 C 357.749 67.606,358.509 67.834,358.847 68.007 C 359.186 68.180,359.988 68.431,360.630 68.564 C 361.271 68.698,362.086 68.955,362.440 69.135 C 362.794 69.314,363.530 69.554,364.076 69.666 C 364.623 69.779,365.373 70.008,365.743 70.176 C 366.114 70.344,366.979 70.664,367.667 70.887 C 368.354 71.111,369.629 71.572,370.500 71.913 C 371.371 72.253,372.571 72.702,373.167 72.910 C 374.200 73.271,375.045 73.649,376.333 74.324 C 376.654 74.493,378.229 75.289,379.833 76.093 C 381.438 76.898,382.886 77.673,383.053 77.814 C 383.220 77.956,383.605 78.225,383.909 78.411 C 387.282 80.480,391.698 84.703,393.786 87.857 C 394.968 89.641,396.432 92.431,396.835 93.667 C 397.000 94.171,397.285 94.958,397.470 95.417 C 399.175 99.659,399.799 110.756,398.581 115.179 C 398.443 115.676,398.181 116.758,397.998 117.583 C 397.815 118.408,397.478 119.553,397.249 120.127 C 397.020 120.701,396.833 121.254,396.833 121.356 C 396.833 121.589,395.853 123.829,394.983 125.583 C 394.232 127.098,393.581 128.170,392.500 129.669 C 392.087 130.241,391.587 130.943,391.388 131.230 C 389.234 134.326,384.411 138.583,380.333 140.987 C 379.646 141.392,378.752 141.936,378.346 142.195 C 377.941 142.455,377.520 142.667,377.411 142.667 C 377.302 142.667,376.921 142.866,376.565 143.110 C 376.208 143.354,375.606 143.648,375.225 143.763 C 374.845 143.879,374.283 144.105,373.975 144.265 C 373.191 144.675,371.035 145.442,369.165 145.977 C 368.293 146.227,367.488 146.488,367.376 146.557 C 366.864 146.873,360.276 148.006,357.404 148.271 C 351.255 148.839,342.375 148.531,337.355 147.576 C 332.727 146.696,328.000 145.339,325.890 144.284 C 325.447 144.063,324.863 143.828,324.593 143.763 C 324.324 143.698,323.898 143.498,323.646 143.319 C 323.395 143.140,322.871 142.881,322.484 142.744 C 322.096 142.607,321.695 142.426,321.592 142.341 C 321.489 142.255,320.671 141.804,319.774 141.338 C 317.034 139.912,313.784 137.615,310.990 135.127 C 309.236 133.566,305.092 129.257,303.975 127.833 C 302.263 125.652,301.132 124.090,299.862 122.152 C 299.117 121.014,298.352 119.858,298.163 119.583 C 295.837 116.202,295.607 114.997,297.127 114.162 C 297.807 113.789,298.593 113.322,299.500 112.753 C 299.821 112.552,300.608 112.063,301.250 111.666 C 301.892 111.270,302.594 110.826,302.810 110.681 C 306.179 108.419,306.881 108.264,307.564 109.629 C 311.893 118.271,318.680 125.917,325.583 129.929 C 328.254 131.481,333.121 133.833,333.661 133.833 C 333.772 133.833,334.513 134.051,335.307 134.318 C 336.100 134.584,337.650 135.003,338.750 135.249 C 339.850 135.494,341.050 135.769,341.417 135.859 C 343.535 136.379,356.893 136.170,359.174 135.581 C 359.682 135.449,360.919 135.220,361.924 135.072 C 362.928 134.923,363.989 134.702,364.280 134.580 C 364.572 134.459,365.385 134.202,366.086 134.010 C 366.787 133.818,367.710 133.474,368.137 133.247 C 368.565 133.019,368.994 132.833,369.093 132.833 C 369.267 132.833,371.858 131.548,372.979 130.906 C 376.023 129.161,379.453 126.136,380.904 123.917 C 381.263 123.367,381.683 122.728,381.838 122.498 C 381.992 122.268,382.341 121.630,382.614 121.081 C 382.887 120.532,383.195 119.933,383.299 119.750 C 383.895 118.696,384.428 117.129,385.196 114.167 L 385.737 112.083 385.743 107.667 L 385.750 103.250 385.199 101.500 C 383.484 96.058,379.363 91.418,373.333 88.137 C 372.921 87.913,372.433 87.645,372.250 87.543 C 372.067 87.440,371.354 87.096,370.667 86.779 C 369.979 86.461,368.929 85.976,368.333 85.701 C 366.924 85.050,365.405 84.423,363.750 83.810 C 362.313 83.278,361.775 83.105,358.833 82.229 C 357.779 81.915,356.467 81.500,355.917 81.308 C 355.367 81.116,354.354 80.830,353.667 80.672 C 352.979 80.514,352.176 80.261,351.881 80.108 C 351.587 79.956,350.818 79.720,350.173 79.585 C 349.528 79.449,348.724 79.223,348.386 79.081 C 348.049 78.940,347.173 78.672,346.440 78.485 C 345.707 78.297,344.882 78.028,344.607 77.886 C 344.332 77.744,343.577 77.490,342.928 77.323 C 340.972 76.818,338.808 76.162,337.750 75.752 C 337.200 75.539,336.262 75.201,335.667 75.002 C 333.492 74.273,332.351 73.851,331.827 73.580 C 331.532 73.427,330.906 73.189,330.437 73.049 C 329.967 72.910,329.230 72.617,328.797 72.398 C 328.365 72.179,327.910 72.000,327.787 72.000 C 327.338 72.000,321.821 69.229,320.000 68.089 C 319.679 67.888,318.934 67.435,318.343 67.082 C 314.756 64.938,310.296 60.734,308.000 57.333 C 307.169 56.102,305.000 51.931,305.000 51.563 C 305.000 51.429,304.852 51.030,304.672 50.677 C 304.491 50.323,304.191 49.369,304.004 48.558 C 303.817 47.747,303.503 46.521,303.305 45.833 C 302.749 43.903,302.746 32.572,303.301 30.667 C 303.501 29.979,303.813 28.772,303.995 27.984 C 304.176 27.196,304.514 26.146,304.744 25.650 C 304.975 25.155,305.164 24.648,305.165 24.524 C 305.166 24.333,306.530 21.450,306.990 20.667 C 307.070 20.529,307.457 19.854,307.849 19.167 C 309.149 16.888,309.887 15.949,312.483 13.271 C 314.298 11.398,316.890 9.256,318.595 8.220 C 319.322 7.778,320.142 7.258,320.417 7.064 C 320.692 6.871,321.254 6.551,321.667 6.354 C 322.079 6.157,322.604 5.890,322.833 5.760 C 324.192 4.993,327.013 3.812,328.833 3.249 C 329.521 3.036,330.496 2.714,331.000 2.532 C 332.252 2.080,335.973 1.210,337.510 1.010 C 338.996 0.816,340.031 0.499,340.126 0.208 C 340.181 0.042,306.100 0.000,170.097 0.000 L 0.000 0.000 0.000 74.583 M14.391 2.229 C 14.824 2.409,15.079 2.732,15.610 3.770 C 15.979 4.492,16.679 5.833,17.165 6.750 C 17.651 7.667,18.571 9.429,19.208 10.667 C 20.893 13.939,22.281 16.586,23.008 17.917 C 23.358 18.558,24.105 19.983,24.668 21.083 C 26.271 24.219,29.027 29.518,30.908 33.083 C 31.825 34.821,32.987 37.051,35.336 41.583 C 35.906 42.683,36.504 43.771,36.664 44.000 C 36.825 44.229,37.011 44.604,37.079 44.833 C 37.146 45.063,37.324 45.438,37.473 45.667 C 37.623 45.896,38.205 46.983,38.766 48.083 C 39.327 49.183,40.274 51.021,40.871 52.167 C 44.280 58.717,46.245 62.477,46.921 63.750 C 47.801 65.405,49.484 68.617,50.675 70.917 C 51.293 72.108,52.077 73.608,52.419 74.250 C 52.761 74.892,53.184 75.717,53.359 76.083 C 53.535 76.450,53.750 76.862,53.837 77.000 C 53.925 77.137,54.245 77.737,54.550 78.333 C 55.356 79.909,59.116 87.106,60.123 89.000 C 60.440 89.596,60.807 90.308,60.940 90.583 C 61.072 90.858,61.301 91.308,61.447 91.583 C 61.594 91.858,62.127 92.871,62.631 93.833 C 63.136 94.796,63.884 96.221,64.294 97.000 C 64.704 97.779,65.247 98.833,65.502 99.341 C 66.806 101.946,67.152 101.900,68.663 98.917 C 68.941 98.367,69.917 96.492,70.831 94.750 C 71.745 93.008,72.720 91.133,72.997 90.583 C 73.275 90.033,74.020 88.608,74.654 87.417 C 75.288 86.225,76.266 84.350,76.828 83.250 C 77.907 81.137,78.962 79.139,79.293 78.583 C 79.402 78.400,79.610 77.987,79.754 77.667 C 79.898 77.346,80.307 76.558,80.662 75.917 C 81.016 75.275,82.007 73.384,82.862 71.714 C 83.717 70.044,84.679 68.183,85.000 67.580 C 85.321 66.977,86.064 65.568,86.651 64.450 C 87.239 63.332,87.978 61.929,88.295 61.333 C 88.611 60.737,89.368 59.290,89.977 58.116 C 91.168 55.818,92.615 53.043,94.319 49.790 C 94.906 48.668,95.531 47.450,95.707 47.083 C 95.883 46.717,96.137 46.229,96.272 46.000 C 96.407 45.771,96.741 45.133,97.015 44.583 C 97.289 44.033,97.794 43.058,98.138 42.417 C 99.814 39.290,102.887 33.417,103.371 32.417 C 103.548 32.050,103.762 31.637,103.847 31.500 C 103.932 31.363,104.252 30.762,104.558 30.167 C 104.865 29.571,105.627 28.108,106.252 26.917 C 106.877 25.725,107.873 23.813,108.466 22.667 C 109.059 21.521,109.784 20.133,110.077 19.583 C 110.371 19.033,111.121 17.608,111.745 16.417 C 112.369 15.225,113.353 13.350,113.933 12.250 C 114.513 11.150,115.211 9.800,115.485 9.250 C 115.759 8.700,116.094 8.063,116.230 7.833 C 116.367 7.604,116.587 7.192,116.719 6.917 C 117.777 4.722,118.919 2.688,119.267 2.375 L 119.685 2.000 126.061 2.000 C 130.899 2.000,132.505 2.050,132.720 2.208 C 133.112 2.496,133.161 146.410,132.770 146.802 C 132.416 147.155,120.358 147.095,120.000 146.737 C 119.779 146.517,119.740 139.731,119.667 88.341 C 119.621 56.361,119.521 30.132,119.446 30.057 C 119.256 29.867,118.417 30.891,117.852 32.000 C 116.921 33.827,115.055 37.425,114.869 37.750 C 114.765 37.933,114.535 38.383,114.359 38.750 C 114.182 39.117,113.791 39.867,113.489 40.417 C 112.864 41.557,110.786 45.584,110.307 46.583 C 110.131 46.950,109.876 47.438,109.739 47.667 C 109.603 47.896,109.271 48.533,109.001 49.083 C 108.731 49.633,108.435 50.196,108.344 50.333 C 108.253 50.471,108.033 50.883,107.856 51.250 C 107.250 52.501,104.855 57.133,102.038 62.500 C 100.991 64.496,100.337 65.759,97.379 71.500 C 96.647 72.921,95.652 74.833,95.168 75.750 C 94.684 76.667,93.808 78.354,93.220 79.500 C 92.633 80.646,92.080 81.696,91.992 81.833 C 91.905 81.971,91.680 82.421,91.493 82.833 C 91.306 83.246,90.869 84.108,90.521 84.750 C 90.174 85.392,89.190 87.267,88.333 88.917 C 87.477 90.567,86.501 92.442,86.164 93.083 C 85.827 93.725,85.425 94.513,85.269 94.833 C 85.113 95.154,84.864 95.642,84.716 95.917 C 84.567 96.192,83.959 97.354,83.366 98.500 C 82.773 99.646,81.816 101.483,81.240 102.583 C 80.665 103.683,79.710 105.521,79.119 106.667 C 78.528 107.813,77.537 109.725,76.917 110.917 C 76.297 112.108,75.059 114.508,74.165 116.250 C 71.832 120.797,71.776 120.891,71.238 121.165 C 70.857 121.359,69.883 121.427,66.809 121.472 L 62.868 121.530 62.191 120.919 C 61.735 120.507,61.191 119.672,60.524 118.362 C 58.942 115.254,57.301 112.078,56.117 109.833 C 55.513 108.688,54.521 106.775,53.913 105.583 C 53.305 104.392,52.339 102.517,51.765 101.417 C 51.192 100.317,50.217 98.442,49.598 97.250 C 48.979 96.058,48.370 94.896,48.244 94.667 C 48.118 94.438,47.908 94.025,47.777 93.750 C 47.486 93.140,45.254 88.867,43.947 86.417 C 43.801 86.142,43.572 85.692,43.440 85.417 C 43.307 85.142,42.916 84.392,42.570 83.750 C 42.225 83.108,41.801 82.283,41.628 81.917 C 41.454 81.550,41.211 81.063,41.085 80.833 C 40.960 80.604,40.375 79.479,39.785 78.333 C 39.195 77.188,38.452 75.762,38.134 75.167 C 37.309 73.621,35.550 70.242,33.708 66.667 C 31.960 63.275,31.166 61.757,30.872 61.250 C 30.766 61.067,30.536 60.617,30.362 60.250 C 30.188 59.883,29.536 58.608,28.912 57.417 C 28.289 56.225,27.296 54.313,26.706 53.167 C 26.115 52.021,25.342 50.558,24.988 49.917 C 24.634 49.275,24.262 48.563,24.162 48.333 C 24.062 48.104,23.880 47.729,23.758 47.500 C 23.636 47.271,23.049 46.146,22.455 45.000 C 21.860 43.854,20.865 41.942,20.243 40.750 C 17.608 35.701,16.638 33.816,15.802 32.121 C 14.869 30.228,14.414 29.874,14.148 30.833 C 14.085 31.063,14.026 57.210,14.017 88.938 C 14.001 142.377,13.980 146.643,13.724 146.855 C 13.319 147.192,1.515 147.192,1.109 146.855 C 0.633 146.459,0.690 2.810,1.167 2.333 C 1.598 1.902,13.387 1.809,14.391 2.229 M208.621 14.337 C 203.340 15.170,196.570 20.577,195.167 25.083 C 195.053 25.450,194.819 25.983,194.648 26.268 C 194.476 26.553,194.186 27.528,194.003 28.434 C 193.821 29.341,193.595 30.345,193.502 30.666 C 193.213 31.663,193.297 34.794,193.650 36.177 C 193.824 36.859,194.016 37.776,194.077 38.214 C 194.294 39.765,196.266 43.644,198.381 46.678 C 200.540 49.777,205.444 55.541,209.470 59.708 C 210.742 61.026,211.042 61.090,212.263 60.307 C 212.714 60.018,213.458 59.541,213.917 59.248 C 214.745 58.718,215.135 58.464,216.337 57.667 C 220.848 54.677,226.330 49.504,228.551 46.142 C 229.256 45.074,229.833 44.146,229.833 44.079 C 229.833 44.013,230.067 43.499,230.353 42.937 C 230.639 42.376,230.985 41.542,231.122 41.083 C 231.258 40.625,231.508 39.980,231.676 39.650 C 232.666 37.706,232.703 30.079,231.735 27.451 C 231.593 27.065,231.343 26.337,231.179 25.833 C 230.289 23.092,227.304 19.205,224.833 17.569 C 224.512 17.357,224.063 17.031,223.833 16.845 C 223.604 16.659,223.351 16.506,223.271 16.504 C 223.190 16.502,222.688 16.278,222.154 16.007 C 221.620 15.735,220.711 15.392,220.133 15.243 C 219.556 15.094,218.633 14.819,218.083 14.631 C 216.949 14.243,210.488 14.043,208.621 14.337 M206.414 77.016 C 206.049 77.208,205.412 77.561,205.000 77.801 C 204.191 78.271,203.521 78.644,202.135 79.399 C 201.648 79.664,201.018 80.057,200.734 80.274 C 200.451 80.490,200.163 80.667,200.095 80.667 C 200.027 80.667,199.659 80.878,199.277 81.137 C 198.896 81.396,197.983 82.009,197.250 82.499 C 194.704 84.202,194.409 84.409,193.000 85.480 C 188.527 88.878,184.192 93.569,183.095 96.197 C 182.954 96.534,182.767 96.855,182.680 96.908 C 182.593 96.962,182.365 97.436,182.174 97.962 C 181.982 98.487,181.684 99.179,181.510 99.500 C 181.337 99.821,181.145 100.383,181.083 100.750 C 181.022 101.117,180.772 102.129,180.527 103.000 C 179.925 105.147,179.887 110.074,180.455 112.250 C 180.646 112.983,180.894 114.033,181.004 114.583 C 181.115 115.133,181.374 115.921,181.579 116.333 C 181.784 116.746,182.004 117.296,182.066 117.556 C 182.170 117.985,183.155 119.867,184.045 121.333 C 185.764 124.168,189.586 128.035,192.333 129.719 C 192.746 129.972,193.496 130.439,194.000 130.757 C 195.078 131.436,197.874 132.833,198.155 132.833 C 198.262 132.833,198.928 133.051,199.633 133.318 C 204.421 135.124,214.711 135.775,218.405 134.504 C 218.893 134.336,219.732 134.109,220.271 133.998 C 222.687 133.503,226.864 131.557,229.663 129.622 C 231.460 128.381,234.797 125.180,236.475 123.089 C 237.943 121.260,240.448 117.953,241.117 116.961 C 242.882 114.343,242.977 114.576,237.960 109.209 C 237.111 108.301,235.704 106.785,234.833 105.839 C 232.843 103.678,232.712 103.537,231.179 101.911 C 230.485 101.174,229.204 99.789,228.333 98.833 C 227.463 97.877,225.285 95.517,223.494 93.589 C 221.703 91.661,218.223 87.908,215.761 85.250 C 206.614 75.373,207.707 76.336,206.414 77.016 " stroke="none" fill="#fbfbfb" fill-rule="evenodd"></path></g></svg>