<svg id="svg" version="1.1" xmlns="http://www.w3.org/2000/svg" xmlns:xlink="http://www.w3.org/1999/xlink" width="400" height="400" viewBox="0, 0, 400,400"><g id="svgg"><path id="path0" d="M-0.000 326.819 C -0.000 356.107,-0.197 353.316,2.457 361.600 C 8.577 380.704,22.537 393.352,43.698 398.966 L 47.596 400.000 200.000 400.000 L 352.404 400.000 356.302 398.966 C 379.149 392.905,392.684 379.663,399.003 357.190 L 400.000 353.643 400.000 326.765 L 400.000 299.887 342.567 300.086 L 285.134 300.284 284.141 301.277 C 283.232 302.186,283.117 302.718,282.773 307.569 C 281.983 318.704,277.337 326.197,268.604 330.419 C 262.662 333.292,266.862 333.120,199.000 333.267 L 137.800 333.400 134.000 332.110 C 121.770 327.957,114.465 318.484,113.743 305.840 C 113.549 302.450,113.316 301.062,112.878 300.698 C 112.406 300.307,100.234 300.177,56.139 300.095 L 0.000 299.989 -0.000 326.819 " stroke="none" fill="#e3040d" fill-rule="evenodd"></path><path id="path1" d="M0.022 21.500 L 0.044 43.000 0.783 40.200 C 5.790 21.227,21.149 5.944,40.200 0.978 L 43.800 0.039 21.900 0.020 L 0.000 0.000 0.022 21.500 M359.888 0.992 C 378.713 5.858,394.173 21.092,399.174 39.705 L 399.951 42.600 399.976 21.300 L 400.000 0.000 378.100 0.020 L 356.200 0.039 359.888 0.992 M218.709 62.803 C 205.712 64.392,196.029 75.277,194.933 89.529 C 194.551 94.510,194.193 94.822,188.371 95.259 C 178.086 96.031,172.562 98.988,166.727 106.844 L 165.655 108.289 155.727 108.525 C 109.187 109.632,72.805 141.004,66.610 185.370 C 61.941 218.809,76.000 248.382,105.600 267.385 C 115.044 273.448,114.600 272.175,114.600 293.200 C 114.600 308.570,114.671 310.430,115.336 312.600 C 118.033 321.396,125.000 328.287,134.400 331.454 L 137.800 332.600 199.200 332.600 L 260.600 332.600 263.786 331.678 C 270.992 329.592,276.310 325.198,279.765 318.477 C 280.973 316.125,282.035 311.115,282.349 306.284 C 282.801 299.313,281.672 299.846,296.510 299.596 L 308.600 299.392 312.295 298.105 C 322.753 294.464,329.374 288.316,332.728 279.134 L 333.800 276.200 333.907 235.639 C 334.029 189.649,334.223 192.652,330.695 185.823 C 328.822 182.196,327.387 180.700,298.978 152.767 C 289.078 143.033,283.483 137.241,282.978 136.200 C 282.241 134.684,282.189 133.302,281.984 109.800 C 281.742 81.973,281.851 83.053,278.683 77.033 C 275.371 70.740,268.310 65.221,261.177 63.351 C 258.286 62.593,224.042 62.152,218.709 62.803 M260.494 75.275 C 264.879 77.330,267.585 80.121,269.281 84.339 C 270.187 86.591,270.191 86.703,270.395 113.000 L 270.600 139.400 271.718 141.676 C 272.662 143.600,275.703 146.762,291.318 162.062 C 319.485 189.660,318.868 189.017,320.656 192.635 L 322.200 195.758 322.200 235.179 L 322.200 274.600 320.934 277.272 C 318.815 281.746,315.091 285.183,310.493 286.909 C 308.308 287.729,307.360 287.780,290.308 287.985 L 272.417 288.200 271.308 289.308 L 270.200 290.416 269.985 301.108 C 269.714 314.594,269.016 316.547,263.400 319.536 L 261.400 320.600 201.200 320.718 C 133.699 320.851,138.245 321.039,133.584 317.926 C 126.989 313.522,126.625 312.078,126.482 289.742 C 126.352 269.592,126.468 268.212,128.650 263.896 C 130.001 261.225,129.904 261.371,148.463 234.400 C 151.869 229.450,158.738 219.448,163.727 212.174 C 171.090 201.438,173.091 198.784,174.353 198.074 L 175.909 197.200 211.200 197.200 C 250.663 197.200,248.386 197.036,250.136 199.999 C 252.198 203.490,253.608 201.025,229.022 236.895 C 225.514 242.013,219.874 250.250,216.490 255.200 C 209.829 264.941,207.780 267.290,205.361 267.962 C 204.306 268.255,194.379 268.396,174.760 268.398 C 143.957 268.400,143.831 268.408,142.526 270.330 C 141.579 271.726,141.396 301.924,142.324 303.658 C 143.505 305.865,142.630 305.791,169.088 305.912 C 193.237 306.022,193.588 306.012,194.388 305.212 C 195.158 304.442,195.200 303.912,195.200 294.987 C 195.200 284.496,195.328 283.824,197.735 281.711 C 201.358 278.529,206.410 279.216,209.084 283.254 L 210.200 284.939 210.313 294.770 C 210.422 304.158,210.464 304.631,211.258 305.300 C 212.370 306.237,249.503 306.386,251.713 305.462 C 254.194 304.425,254.181 304.486,254.400 292.798 L 254.600 282.117 256.003 279.358 C 259.060 273.350,259.703 273.206,283.400 273.200 C 304.391 273.195,305.171 273.123,306.419 271.075 C 307.507 269.292,307.653 203.235,306.573 201.149 C 305.360 198.803,305.328 198.800,281.539 198.800 C 260.514 198.800,259.801 198.775,258.163 197.982 C 254.747 196.328,255.026 200.897,254.800 143.000 C 254.581 87.001,254.749 90.439,252.181 89.366 C 250.509 88.668,229.127 88.547,226.696 89.222 C 223.919 89.993,223.825 90.397,223.600 102.581 L 223.400 113.400 222.275 115.692 C 219.539 121.262,217.154 122.151,204.267 122.400 L 193.933 122.600 192.767 123.906 C 190.407 126.549,191.267 128.025,197.581 132.161 C 211.603 141.348,221.702 153.516,227.560 168.283 C 231.634 178.551,231.729 183.000,227.918 185.081 C 226.696 185.747,224.599 185.815,199.200 186.000 L 171.800 186.200 169.552 187.254 C 165.432 189.186,165.111 189.575,152.145 208.400 C 147.938 214.508,138.398 228.421,133.000 236.320 C 115.707 261.626,115.619 261.696,107.997 256.344 C 77.638 235.023,68.521 190.907,87.693 158.092 C 103.191 131.565,134.982 116.016,164.800 120.381 C 175.322 121.921,176.118 121.624,177.785 115.527 C 178.643 112.391,180.520 110.072,183.388 108.604 L 185.741 107.400 195.364 107.262 C 209.001 107.066,208.096 107.932,208.393 94.800 C 208.635 84.104,208.978 82.759,212.413 79.033 C 216.933 74.129,217.617 74.006,239.800 74.112 L 258.200 74.200 260.494 75.275 M271.507 233.819 C 273.283 234.561,274.643 235.772,275.529 237.400 C 276.382 238.965,276.733 252.271,276.008 255.517 C 274.556 262.015,266.123 263.638,262.400 258.136 C 261.405 256.666,261.400 256.615,261.400 247.400 L 261.400 238.142 262.526 236.439 C 264.437 233.553,268.225 232.447,271.507 233.819 M0.034 377.700 L 0.000 400.000 22.700 399.969 L 45.400 399.938 41.772 398.993 C 20.961 393.570,6.123 378.805,0.799 358.222 L 0.069 355.400 0.034 377.700 M399.391 357.700 C 396.357 376.141,378.843 393.707,358.200 399.012 L 354.600 399.937 377.300 399.968 L 400.000 400.000 400.000 378.000 C 400.000 365.900,399.926 356.000,399.835 356.000 C 399.744 356.000,399.544 356.765,399.391 357.700 " stroke="none" fill="#f8f9f9" fill-rule="evenodd"></path><path id="path2" d="M50.400 0.402 C 50.070 0.598,48.000 1.290,45.800 1.941 C 36.046 4.826,34.505 5.348,31.443 6.806 C 18.505 12.970,8.261 24.570,4.139 37.726 C 3.575 39.527,2.666 42.440,2.119 44.200 C 1.572 45.960,0.872 47.799,0.562 48.286 C 0.082 49.042,-0.000 67.429,-0.000 173.886 L -0.000 298.600 56.100 298.503 L 112.200 298.406 112.311 288.303 C 112.462 274.624,112.576 274.887,104.080 269.347 C 68.185 245.943,54.904 207.907,68.413 167.200 C 80.538 130.662,121.116 103.491,160.029 105.855 L 164.276 106.113 166.564 103.245 C 171.793 96.692,178.142 93.490,187.000 92.939 C 192.349 92.607,192.238 92.691,192.576 88.714 C 193.854 73.669,203.796 62.643,218.000 60.518 C 224.662 59.522,258.018 59.975,262.142 61.118 C 272.596 64.016,280.936 72.513,283.593 82.975 C 284.356 85.979,284.400 87.408,284.402 109.375 C 284.404 124.403,284.554 133.165,284.827 134.200 C 285.178 135.528,286.660 137.193,293.550 144.000 C 298.115 148.510,308.319 158.590,316.225 166.400 C 332.624 182.600,333.627 183.923,335.785 192.209 C 336.695 195.700,336.713 273.831,335.805 277.316 C 333.780 285.092,329.100 291.534,322.092 296.194 C 319.485 297.928,318.254 299.248,319.798 298.656 C 320.652 298.329,398.456 298.288,399.300 298.615 C 400.090 298.920,400.425 49.403,399.636 48.580 C 399.436 48.371,398.333 45.230,397.186 41.600 C 390.578 20.685,378.181 8.341,358.600 3.181 C 354.448 2.087,350.382 0.829,349.505 0.366 C 348.592 -0.115,51.214 -0.080,50.400 0.402 M220.200 76.952 C 212.726 79.352,211.142 82.421,210.782 95.201 C 210.374 109.687,210.770 109.289,196.400 109.625 C 183.588 109.925,181.724 110.693,180.195 116.302 C 178.227 123.517,176.268 124.454,166.200 122.995 C 106.066 114.283,60.960 175.421,87.937 229.075 C 93.992 241.118,108.246 256.000,113.724 256.000 C 116.794 256.000,115.291 258.042,154.886 200.070 C 163.040 188.131,163.991 187.083,168.628 184.911 L 171.000 183.800 198.400 183.600 C 219.549 183.446,226.003 183.284,226.691 182.891 C 228.881 181.639,228.898 179.717,226.775 173.400 C 221.162 156.699,210.030 142.629,195.197 133.488 C 189.421 129.930,187.755 126.601,190.064 123.237 C 192.140 120.213,192.096 120.224,203.528 119.990 C 220.357 119.645,220.841 119.146,221.186 101.800 C 221.505 85.721,220.451 86.600,239.400 86.600 C 254.054 86.600,254.159 86.617,256.068 89.294 L 257.000 90.600 257.200 142.200 C 257.413 197.089,257.334 194.953,259.191 195.892 C 259.526 196.062,269.970 196.290,282.400 196.400 L 305.000 196.600 306.547 197.562 C 309.750 199.553,309.581 197.423,309.591 236.015 L 309.600 270.230 308.700 272.006 C 306.924 275.510,307.863 275.372,284.200 275.600 C 260.877 275.824,261.453 275.749,259.051 278.898 C 257.209 281.312,257.090 282.099,256.839 293.472 C 256.568 305.807,256.578 305.769,253.177 307.509 L 251.400 308.418 230.711 308.309 L 210.022 308.200 209.111 307.290 C 208.222 306.402,208.195 306.135,208.000 296.071 C 207.761 283.750,207.218 282.291,202.873 282.291 C 198.256 282.291,197.601 283.904,197.598 295.260 C 197.597 300.220,197.410 304.867,197.179 305.699 C 196.392 308.535,197.448 308.436,169.098 308.311 L 143.800 308.200 142.343 307.294 C 139.410 305.470,139.400 305.404,139.400 287.200 C 139.400 271.524,139.427 270.948,140.239 269.400 C 142.016 266.010,139.865 266.226,174.200 266.000 C 209.313 265.769,205.754 266.254,209.339 261.216 C 216.614 250.994,248.030 204.618,248.237 203.796 C 248.630 202.228,248.091 200.867,246.814 200.207 C 245.058 199.299,177.363 199.288,175.608 200.196 C 174.879 200.573,172.878 203.106,170.157 207.096 C 164.929 214.763,149.682 236.982,139.205 252.200 C 128.054 268.397,128.686 266.034,128.872 290.814 L 129.000 307.800 130.054 310.048 C 132.382 315.012,136.507 317.797,142.511 318.457 C 149.532 319.228,259.153 318.698,261.199 317.883 C 266.567 315.743,267.324 313.663,267.588 300.328 C 267.900 284.622,266.000 285.872,290.000 285.594 C 310.159 285.361,310.071 285.374,314.200 281.963 C 320.350 276.881,320.040 279.472,319.910 234.364 L 319.800 196.200 318.636 193.800 C 317.357 191.163,314.252 187.967,285.740 159.941 C 273.027 147.445,270.686 144.964,269.543 142.767 L 268.206 140.200 267.957 113.800 C 267.710 87.570,267.702 87.385,266.795 85.020 C 265.589 81.873,263.067 79.217,259.894 77.752 L 257.400 76.600 239.600 76.519 C 226.012 76.457,221.421 76.559,220.200 76.952 M266.119 236.384 C 263.805 237.795,263.600 238.690,263.600 247.400 C 263.600 256.050,263.827 257.076,265.987 258.193 C 269.638 260.081,273.283 258.080,273.805 253.901 C 274.351 249.529,273.885 239.494,273.078 238.263 C 271.438 235.760,268.461 234.956,266.119 236.384 " stroke="none" fill="#04448b" fill-rule="evenodd"></path><path id="path3" d="M46.000 0.424 C 45.450 0.611,42.750 1.413,40.000 2.207 C 21.576 7.527,8.353 20.334,2.460 38.564 C 0.119 45.808,-0.151 46.782,0.109 47.042 C 0.240 47.173,0.558 46.498,0.815 45.540 C 7.469 20.760,22.708 5.737,46.000 0.993 C 47.782 0.630,48.971 0.010,47.800 0.055 C 47.360 0.071,46.550 0.238,46.000 0.424 M352.000 0.330 C 352.330 0.538,353.230 0.837,354.000 0.994 C 375.262 5.332,390.294 18.640,397.385 39.400 C 398.361 42.260,399.167 44.240,399.174 43.800 C 399.200 42.334,396.087 33.760,394.073 29.746 C 386.901 15.454,372.292 4.515,355.400 0.787 C 351.865 0.007,351.386 -0.057,352.000 0.330 M399.212 45.400 C 399.212 45.840,399.387 46.470,399.600 46.800 C 399.921 47.297,399.988 47.262,399.988 46.600 C 399.988 46.160,399.813 45.530,399.600 45.200 C 399.279 44.703,399.212 44.738,399.212 45.400 M217.800 61.226 C 204.614 63.180,194.417 74.636,193.335 88.714 C 192.989 93.212,192.616 93.600,188.635 93.600 C 179.232 93.600,172.731 96.931,165.727 105.337 L 164.454 106.864 159.527 106.599 C 132.914 105.163,102.808 118.537,84.821 139.784 C 64.789 163.447,58.560 198.700,69.353 227.319 C 75.287 243.053,87.883 257.831,104.802 268.909 C 113.238 274.432,113.183 274.300,113.242 289.364 C 113.266 295.324,113.419 301.820,113.584 303.800 C 113.748 305.780,113.803 300.740,113.706 292.600 C 113.472 273.009,113.935 274.207,104.053 267.647 C 74.338 247.923,60.742 218.640,65.585 184.800 C 72.081 139.424,111.441 106.568,158.498 107.243 L 164.964 107.336 166.171 105.768 C 172.069 98.111,177.619 95.032,186.698 94.382 C 193.318 93.907,193.987 93.359,194.001 88.400 C 194.030 78.017,202.601 66.600,213.066 63.004 C 220.147 60.571,255.083 60.341,262.600 62.678 C 269.601 64.854,276.557 70.559,279.742 76.736 C 283.054 83.159,282.919 81.856,283.174 110.000 C 283.399 134.856,283.405 135.008,284.278 136.400 C 284.761 137.170,294.449 146.890,305.807 158.000 C 331.695 183.323,332.321 184.072,334.400 192.201 C 335.472 196.392,335.651 272.238,334.599 276.697 C 331.952 287.926,322.631 296.740,310.600 299.391 C 308.515 299.850,308.391 299.925,309.658 299.960 C 319.083 300.219,331.197 289.659,334.861 277.990 L 335.800 275.000 335.800 234.600 L 335.800 194.200 334.477 190.400 C 331.769 182.627,331.805 182.669,306.795 158.200 C 294.261 145.937,285.179 136.743,284.668 135.800 C 283.810 134.219,283.798 133.904,283.600 109.200 L 283.400 84.200 282.271 81.000 C 278.953 71.599,271.439 64.536,261.800 61.756 C 259.073 60.970,222.504 60.530,217.800 61.226 M219.538 75.757 C 211.582 78.599,209.568 82.516,209.233 95.800 C 208.904 108.810,209.683 108.090,195.600 108.394 C 182.463 108.678,180.329 109.744,178.576 116.899 C 177.354 121.883,175.440 122.913,169.000 122.048 C 147.163 119.115,129.331 122.646,113.200 133.099 C 70.100 161.025,66.643 221.824,106.345 253.667 C 114.477 260.190,115.762 259.704,124.488 246.800 C 127.240 242.730,131.122 237.060,133.114 234.200 C 135.107 231.340,138.146 226.931,139.868 224.403 C 163.937 189.071,164.301 188.595,169.086 186.172 L 171.400 185.000 199.018 184.800 C 229.135 184.582,227.982 184.676,229.232 182.340 C 231.238 178.593,225.345 163.410,217.690 152.600 C 212.367 145.083,205.636 138.763,196.755 132.944 C 190.198 128.648,189.131 126.629,191.695 123.370 C 193.241 121.405,194.408 121.200,204.087 121.198 C 215.839 121.195,218.284 120.384,220.966 115.600 L 222.200 113.400 222.401 102.600 C 222.695 86.727,221.461 87.800,239.418 87.800 C 253.477 87.800,253.463 87.798,255.094 90.288 C 255.757 91.298,255.812 94.529,256.000 142.800 C 256.188 191.071,256.243 194.302,256.906 195.312 C 258.508 197.757,257.472 197.657,281.878 197.732 C 306.438 197.807,305.716 197.735,307.441 200.280 C 308.624 202.026,308.832 269.018,307.661 271.200 C 306.008 274.279,306.677 274.192,283.979 274.261 C 262.011 274.328,262.472 274.284,259.410 276.619 C 256.255 279.026,255.825 280.853,255.600 292.819 C 255.305 308.502,257.881 307.000,231.282 307.000 L 210.729 307.000 209.965 306.056 C 209.260 305.185,209.200 304.370,209.200 295.640 C 209.200 286.607,209.158 286.088,208.300 284.408 C 206.587 281.057,203.260 279.925,199.901 281.551 C 196.614 283.142,196.380 284.022,196.249 295.288 C 196.188 300.630,195.997 305.313,195.827 305.696 C 195.180 307.150,193.252 307.251,168.600 307.124 C 141.796 306.986,142.801 307.095,141.406 304.157 C 140.524 302.298,140.500 271.740,141.380 270.040 C 142.821 267.253,140.830 267.422,174.800 267.200 C 197.088 267.054,205.617 266.873,206.200 266.533 C 208.144 265.397,208.731 264.610,220.610 247.200 C 225.188 240.490,232.024 230.500,235.802 225.000 C 251.375 202.325,251.094 202.884,248.434 199.908 C 246.854 198.139,247.467 198.162,208.188 198.400 L 175.146 198.600 173.473 200.417 C 172.553 201.417,170.397 204.297,168.683 206.817 C 162.469 215.952,150.701 233.131,146.775 238.800 C 125.481 269.543,127.518 264.119,127.681 289.654 C 127.819 311.121,127.785 310.912,131.736 314.945 C 136.987 320.306,133.460 320.057,202.400 319.917 L 260.200 319.800 262.297 318.852 C 267.781 316.373,268.530 314.333,268.790 301.181 C 269.097 285.640,266.942 287.062,290.581 286.800 L 308.600 286.600 311.303 285.319 C 314.712 283.705,318.118 280.509,319.745 277.400 L 321.000 275.000 321.000 235.392 L 321.000 195.783 319.640 192.992 C 318.093 189.817,317.707 189.418,289.105 161.440 C 273.646 146.319,271.885 144.464,270.705 142.068 L 269.400 139.419 269.192 113.009 C 268.994 87.976,268.942 86.500,268.200 84.686 C 266.484 80.490,262.760 77.013,258.690 75.804 C 255.904 74.977,221.837 74.936,219.538 75.757 M258.565 76.418 C 262.108 77.513,264.906 79.827,266.766 83.200 L 268.200 85.800 268.402 112.200 C 268.603 138.518,268.607 138.607,269.515 140.858 C 270.992 144.517,271.714 145.289,294.576 167.623 C 315.991 188.542,318.831 191.604,320.068 195.098 C 320.497 196.308,320.600 204.150,320.600 235.400 L 320.600 274.200 319.522 276.501 C 315.460 285.167,311.722 286.400,289.503 286.400 C 266.925 286.400,268.696 285.249,268.372 300.131 C 268.083 313.436,267.403 315.575,262.657 318.114 L 261.000 319.000 201.000 319.107 C 141.817 319.212,140.965 319.203,138.400 318.407 C 133.975 317.035,130.593 313.863,128.909 309.504 C 128.085 307.372,127.647 276.792,128.357 270.983 C 129.029 265.491,129.028 265.492,149.798 235.400 C 152.683 231.220,159.114 221.860,164.089 214.600 C 169.064 207.340,173.701 200.860,174.394 200.200 L 175.653 199.000 211.259 199.000 L 246.866 199.000 248.033 200.306 C 250.463 203.026,251.750 200.710,230.824 231.295 C 206.861 266.319,207.989 264.755,205.901 265.846 C 204.979 266.327,199.977 266.434,174.901 266.510 C 145.891 266.597,144.953 266.624,143.411 267.400 C 140.171 269.031,140.200 268.855,140.200 287.200 C 140.200 305.689,140.154 305.405,143.406 306.844 C 146.001 307.992,194.726 307.846,195.886 306.687 C 196.523 306.050,196.622 304.865,196.800 295.687 C 197.014 284.663,197.050 284.470,199.222 282.643 C 200.802 281.314,203.926 281.192,205.881 282.384 C 208.365 283.899,208.534 284.701,208.725 295.909 L 208.896 306.018 209.915 306.819 C 210.909 307.601,211.440 307.618,231.638 307.510 C 258.482 307.367,256.092 308.845,256.400 292.200 L 256.600 281.400 257.661 279.600 C 258.680 277.871,259.858 276.775,262.000 275.565 C 262.812 275.106,266.901 274.962,283.800 274.800 C 307.132 274.576,306.553 274.652,308.099 271.586 C 309.178 269.449,309.178 202.551,308.099 200.414 C 306.540 197.322,307.371 197.424,281.909 197.200 L 259.217 197.000 258.109 195.891 L 257.000 194.782 256.800 143.291 C 256.604 92.705,256.586 91.776,255.800 90.442 C 253.985 87.360,254.254 87.414,239.965 87.284 C 221.183 87.114,222.293 86.219,221.989 101.781 C 221.750 113.984,221.335 115.836,218.327 118.130 C 215.318 120.425,214.576 120.560,204.200 120.703 C 192.361 120.865,190.665 121.456,190.108 125.612 C 189.731 128.419,190.652 129.554,196.379 133.341 C 211.654 143.442,221.954 156.559,227.363 172.800 C 231.327 184.701,232.966 183.993,201.400 184.011 C 165.211 184.031,167.294 183.335,156.557 199.000 C 153.541 203.400,147.625 212.040,143.410 218.200 C 139.196 224.360,133.320 232.910,130.353 237.200 C 127.386 241.490,123.468 247.203,121.647 249.896 C 114.986 259.745,112.166 259.405,100.358 247.336 C 50.702 196.581,94.969 111.933,165.800 122.195 C 175.836 123.649,177.521 122.956,179.267 116.656 C 181.116 109.983,183.056 109.094,196.400 108.809 C 210.281 108.513,209.669 109.125,209.996 95.200 C 210.302 82.176,212.159 78.710,220.200 76.161 C 223.255 75.192,255.292 75.407,258.565 76.418 M265.687 235.065 C 260.918 237.416,260.258 255.117,264.797 258.936 C 268.272 261.860,273.589 260.097,274.794 255.622 C 275.654 252.430,275.180 238.699,274.163 237.328 C 272.090 234.534,268.637 233.611,265.687 235.065 M270.674 235.227 C 272.093 235.764,273.580 237.128,274.037 238.311 C 274.759 240.180,274.602 255.261,273.845 256.718 C 271.734 260.784,265.562 260.581,263.386 256.372 C 262.380 254.427,262.551 240.056,263.604 237.991 C 264.917 235.419,267.999 234.213,270.674 235.227 M290.924 300.299 C 294.183 300.367,299.403 300.366,302.524 300.299 C 305.646 300.231,302.980 300.176,296.600 300.177 C 290.220 300.177,287.666 300.232,290.924 300.299 M116.000 316.153 C 116.000 316.582,117.190 318.800,117.421 318.800 C 117.531 318.800,117.323 318.215,116.959 317.500 C 116.217 316.040,116.000 315.736,116.000 316.153 M121.800 324.800 C 122.659 325.680,123.452 326.400,123.562 326.400 C 123.672 326.400,123.059 325.680,122.200 324.800 C 121.341 323.920,120.548 323.200,120.438 323.200 C 120.328 323.200,120.941 323.920,121.800 324.800 M275.186 325.500 L 273.000 327.800 275.300 325.614 C 277.437 323.582,277.783 323.200,277.486 323.200 C 277.424 323.200,276.389 324.235,275.186 325.500 M127.200 328.998 C 127.200 329.267,131.249 331.284,131.429 331.105 C 131.511 331.023,130.593 330.473,129.389 329.882 C 128.185 329.292,127.200 328.894,127.200 328.998 M152.928 333.500 C 159.049 333.562,168.949 333.562,174.928 333.500 C 180.908 333.437,175.900 333.387,163.800 333.387 C 151.700 333.387,146.808 333.438,152.928 333.500 M16.800 384.925 C 16.800 384.994,17.385 385.579,18.100 386.225 L 19.400 387.400 18.225 386.100 C 17.130 384.888,16.800 384.616,16.800 384.925 " stroke="none" fill="#648aae" fill-rule="evenodd"></path><path id="path4" d="M40.200 0.978 C 20.308 6.164,2.073 25.419,0.214 43.200 C -0.068 45.903,0.152 45.425,2.421 38.413 C 7.231 23.551,16.551 12.637,30.241 5.837 C 33.898 4.020,43.017 0.805,44.543 0.794 C 45.014 0.791,45.670 0.613,46.000 0.400 C 47.111 -0.318,43.971 -0.005,40.200 0.978 M354.000 0.400 C 354.330 0.613,355.000 0.791,355.488 0.794 C 356.938 0.804,365.619 3.795,369.310 5.557 C 380.114 10.713,389.930 20.481,394.800 30.918 C 396.595 34.765,399.197 42.101,399.206 43.339 C 399.209 43.812,399.404 44.470,399.638 44.800 C 400.451 45.944,399.644 41.007,398.386 37.140 C 392.667 19.558,377.670 5.523,359.743 0.975 C 355.739 -0.040,352.875 -0.327,354.000 0.400 M217.800 61.868 C 205.106 63.672,195.120 74.874,194.035 88.527 C 193.603 93.971,193.492 94.066,187.113 94.442 C 179.084 94.916,173.301 97.520,168.976 102.609 C 167.889 103.888,166.450 105.516,165.779 106.228 L 164.558 107.522 159.511 107.304 C 120.153 105.605,81.658 131.654,69.647 168.116 C 56.364 208.437,69.351 244.789,105.544 268.596 C 114.123 274.239,114.000 273.866,114.000 294.336 C 114.000 311.032,114.056 311.459,117.043 317.546 C 120.424 324.438,126.627 329.510,134.800 332.063 L 137.800 333.000 199.200 333.000 C 256.560 333.000,260.771 332.954,263.200 332.296 C 273.373 329.541,281.199 320.913,282.161 311.393 C 282.380 309.221,282.333 309.317,281.648 312.436 C 279.491 322.260,273.308 328.921,263.786 331.678 L 260.600 332.600 199.200 332.600 L 137.800 332.600 134.400 331.454 C 125.000 328.287,118.033 321.396,115.336 312.600 C 114.671 310.430,114.600 308.570,114.600 293.200 C 114.600 272.175,115.044 273.448,105.600 267.385 C 76.000 248.382,61.941 218.809,66.610 185.370 C 72.805 141.004,109.187 109.632,155.727 108.525 L 165.655 108.289 166.727 106.844 C 172.562 98.988,178.086 96.031,188.371 95.259 C 194.193 94.822,194.551 94.510,194.933 89.529 C 195.932 76.534,203.797 66.580,215.655 63.303 C 219.524 62.234,256.799 62.241,260.973 63.311 C 268.256 65.179,275.329 70.659,278.683 77.033 C 281.851 83.053,281.742 81.973,281.984 109.800 C 282.189 133.302,282.241 134.684,282.978 136.200 C 283.483 137.241,289.078 143.033,298.978 152.767 C 327.387 180.700,328.822 182.196,330.695 185.823 C 334.223 192.652,334.029 189.649,333.907 235.639 L 333.800 276.200 332.728 279.134 C 329.374 288.316,322.753 294.464,312.295 298.105 L 308.600 299.392 296.510 299.596 C 281.796 299.844,282.630 299.503,282.547 305.311 L 282.495 309.000 282.768 305.600 C 283.232 299.846,282.140 300.265,297.400 299.978 C 310.514 299.731,311.500 299.603,316.779 297.471 C 325.711 293.863,333.164 284.644,334.791 275.191 C 335.104 273.372,335.201 260.858,335.117 233.200 L 334.998 193.800 334.060 191.000 C 331.440 183.186,330.860 182.511,305.103 157.345 C 294.160 146.653,284.800 137.251,284.303 136.452 L 283.400 135.000 283.186 110.200 L 282.972 85.400 281.974 82.195 C 279.103 72.981,271.780 65.634,262.400 62.556 C 260.295 61.866,221.977 61.274,217.800 61.868 M219.135 74.758 C 210.901 77.426,208.693 81.546,208.393 94.800 C 208.096 107.932,209.001 107.066,195.364 107.262 L 185.741 107.400 183.388 108.604 C 180.520 110.072,178.643 112.391,177.785 115.527 C 176.118 121.624,175.322 121.921,164.800 120.381 C 134.982 116.016,103.191 131.565,87.693 158.092 C 68.521 190.907,77.638 235.023,107.997 256.344 C 115.619 261.696,115.707 261.626,133.000 236.320 C 138.398 228.421,147.938 214.508,152.145 208.400 C 165.111 189.575,165.432 189.186,169.552 187.254 L 171.800 186.200 199.200 186.000 C 224.599 185.815,226.696 185.747,227.918 185.081 C 231.729 183.000,231.634 178.551,227.560 168.283 C 221.702 153.516,211.603 141.348,197.581 132.161 C 191.267 128.025,190.407 126.549,192.767 123.906 L 193.933 122.600 204.267 122.400 C 217.154 122.151,219.539 121.262,222.275 115.692 L 223.400 113.400 223.600 102.581 C 223.825 90.397,223.919 89.993,226.696 89.222 C 229.127 88.547,250.509 88.668,252.181 89.366 C 254.749 90.439,254.581 87.001,254.800 143.000 C 255.026 200.897,254.747 196.328,258.163 197.982 C 259.801 198.775,260.514 198.800,281.539 198.800 C 305.328 198.800,305.360 198.803,306.573 201.149 C 307.653 203.235,307.507 269.292,306.419 271.075 C 305.171 273.123,304.391 273.195,283.400 273.200 C 259.703 273.206,259.060 273.350,256.003 279.358 L 254.600 282.117 254.400 292.798 C 254.181 304.486,254.194 304.425,251.713 305.462 C 249.503 306.386,212.370 306.237,211.258 305.300 C 210.464 304.631,210.422 304.158,210.313 294.770 L 210.200 284.939 209.084 283.254 C 206.410 279.216,201.358 278.529,197.735 281.711 C 195.328 283.824,195.200 284.496,195.200 294.987 C 195.200 303.912,195.158 304.442,194.388 305.212 C 193.588 306.012,193.237 306.022,169.088 305.912 C 142.630 305.791,143.505 305.865,142.324 303.658 C 141.396 301.924,141.579 271.726,142.526 270.330 C 143.831 268.408,143.957 268.400,174.760 268.398 C 194.379 268.396,204.306 268.255,205.361 267.962 C 207.780 267.290,209.829 264.941,216.490 255.200 C 219.874 250.250,225.514 242.013,229.022 236.895 C 253.608 201.025,252.198 203.490,250.136 199.999 C 248.386 197.036,250.663 197.200,211.200 197.200 L 175.909 197.200 174.353 198.074 C 173.091 198.784,171.090 201.438,163.727 212.174 C 158.738 219.448,151.869 229.450,148.463 234.400 C 129.904 261.371,130.001 261.225,128.650 263.896 C 126.468 268.212,126.352 269.592,126.482 289.742 C 126.625 312.078,126.989 313.522,133.584 317.926 C 138.245 321.039,133.699 320.851,201.200 320.718 L 261.400 320.600 263.400 319.536 C 269.016 316.547,269.714 314.594,269.985 301.108 L 270.200 290.416 271.308 289.308 L 272.417 288.200 290.308 287.985 C 307.360 287.780,308.308 287.729,310.493 286.909 C 315.091 285.183,318.815 281.746,320.934 277.272 L 322.200 274.600 322.200 235.179 L 322.200 195.758 320.656 192.635 C 318.868 189.017,319.485 189.660,291.318 162.062 C 275.703 146.762,272.662 143.600,271.718 141.676 L 270.600 139.400 270.395 113.000 C 270.191 86.703,270.187 86.591,269.281 84.339 C 267.585 80.121,264.879 77.330,260.494 75.275 L 258.200 74.200 239.800 74.112 C 222.896 74.031,221.216 74.084,219.135 74.758 M255.970 75.188 C 261.259 75.952,265.726 79.215,267.936 83.930 L 269.000 86.200 269.208 112.600 C 269.435 141.373,269.317 139.982,271.849 143.800 C 272.579 144.900,282.927 155.340,294.845 167.000 C 317.558 189.221,319.083 190.864,320.515 194.656 L 321.400 197.000 321.400 235.200 C 321.400 271.224,321.358 273.520,320.666 275.506 C 319.160 279.825,314.892 284.136,310.400 285.875 C 308.819 286.487,306.432 286.598,290.800 286.786 C 266.967 287.073,269.089 285.670,268.798 301.328 C 268.551 314.617,268.013 316.119,262.525 318.844 L 260.600 319.800 201.400 319.907 C 160.097 319.982,141.569 319.883,140.112 319.581 C 135.125 318.547,130.946 315.311,128.864 310.870 L 127.800 308.600 127.800 288.400 L 127.800 268.200 128.882 265.675 C 129.477 264.286,132.461 259.516,135.512 255.075 C 138.564 250.634,146.799 238.630,153.813 228.400 C 173.845 199.182,173.349 199.875,174.832 199.004 C 177.000 197.730,245.421 197.744,247.600 199.019 C 249.754 200.279,250.444 202.618,249.332 204.890 C 248.609 206.367,211.577 260.776,208.910 264.280 C 206.590 267.328,208.066 267.200,175.374 267.202 C 144.282 267.205,144.101 267.216,142.177 269.224 L 141.000 270.453 141.000 287.219 L 141.000 303.985 142.308 305.292 L 143.615 306.600 169.151 306.709 C 192.607 306.808,194.733 306.763,195.244 306.149 C 195.674 305.632,195.845 303.190,196.000 295.410 L 196.200 285.340 197.264 283.732 C 199.853 279.823,205.245 279.833,208.175 283.753 C 208.942 284.779,209.016 285.575,209.230 295.128 C 209.356 300.778,209.491 305.432,209.530 305.471 C 210.871 306.837,210.264 306.800,231.248 306.800 C 257.916 306.800,255.305 308.322,255.609 292.600 C 255.864 279.364,256.342 277.923,261.352 275.280 L 263.400 274.200 284.200 274.000 C 307.302 273.778,306.478 273.880,307.660 271.081 C 308.633 268.773,308.439 202.194,307.453 200.567 C 305.964 198.108,307.037 198.218,282.400 198.000 C 257.796 197.782,258.031 197.805,256.712 195.496 C 256.306 194.786,256.158 183.891,256.000 143.000 C 255.807 93.158,255.774 91.362,255.041 90.280 C 253.532 88.054,253.161 88.000,239.380 88.000 C 221.418 88.000,222.724 86.861,222.406 102.800 C 222.161 115.117,222.038 115.679,219.018 118.330 C 216.039 120.946,215.951 120.964,204.800 121.205 C 193.778 121.443,193.023 121.585,191.456 123.703 C 189.315 126.595,190.558 128.659,197.055 133.000 C 212.496 143.317,222.927 156.752,228.113 173.000 C 230.012 178.949,230.187 180.268,229.309 182.000 C 227.843 184.894,228.833 184.799,200.120 184.799 C 165.024 184.800,167.565 183.920,156.773 199.810 C 152.074 206.729,145.970 215.635,123.881 247.800 C 114.957 260.795,112.712 260.835,100.196 248.219 C 48.678 196.293,94.701 110.687,168.156 121.809 C 174.906 122.831,177.037 121.954,178.225 117.665 C 180.514 109.402,181.853 108.681,195.419 108.404 C 209.579 108.116,208.911 108.745,209.201 95.419 L 209.401 86.200 210.662 83.537 C 212.825 78.971,216.892 75.911,221.743 75.201 C 224.742 74.762,252.949 74.751,255.970 75.188 M265.326 233.977 C 264.273 234.455,263.235 235.368,262.526 236.439 L 261.400 238.142 261.400 247.400 C 261.400 256.615,261.405 256.666,262.400 258.136 C 266.123 263.638,274.556 262.015,276.008 255.517 C 276.733 252.271,276.382 238.965,275.529 237.400 C 273.525 233.720,269.137 232.248,265.326 233.977 M272.504 235.413 C 275.353 237.480,276.620 254.177,274.175 257.447 C 271.186 261.447,265.179 261.245,262.894 257.068 C 261.763 255.002,261.865 239.571,263.022 237.601 C 264.890 234.420,269.628 233.327,272.504 235.413 M0.244 355.800 C 0.573 357.271,0.802 357.590,0.794 356.567 C 0.791 356.145,0.605 355.530,0.382 355.200 C 0.085 354.762,0.048 354.924,0.244 355.800 M399.400 356.000 C 399.248 356.691,399.207 357.341,399.309 357.442 C 399.411 357.544,399.609 357.053,399.750 356.350 C 399.891 355.647,399.931 354.998,399.841 354.908 C 399.750 354.817,399.552 355.309,399.400 356.000 M0.806 358.061 C 0.803 358.425,1.441 360.585,2.223 362.861 C 7.854 379.233,19.946 391.462,36.324 397.349 C 40.811 398.962,40.715 398.572,36.200 396.847 C 19.247 390.371,8.028 378.846,2.403 362.128 C 1.528 359.528,0.809 357.698,0.806 358.061 M397.665 362.192 C 391.957 379.325,379.323 391.743,361.607 397.633 C 359.073 398.475,357.247 399.173,357.549 399.182 C 362.955 399.356,379.384 390.063,385.607 383.312 C 391.872 376.515,399.941 361.783,399.119 358.641 C 399.054 358.389,398.399 359.987,397.665 362.192 M41.000 398.800 C 41.440 398.989,42.070 399.144,42.400 399.144 C 42.778 399.144,42.704 399.017,42.200 398.800 C 41.760 398.611,41.130 398.456,40.800 398.456 C 40.422 398.456,40.496 398.583,41.000 398.800 " stroke="none" fill="#76a8ca" fill-rule="evenodd"></path><path id="path5" d="M46.800 0.675 C 45.810 0.991,42.660 1.977,39.800 2.866 C 20.454 8.882,8.489 20.898,2.425 40.400 C 1.501 43.370,0.578 46.213,0.373 46.719 C 0.168 47.224,0.006 47.944,0.013 48.319 C 0.038 49.679,1.001 47.784,2.137 44.136 C 2.743 42.191,3.672 39.217,4.202 37.526 C 10.093 18.724,23.235 7.949,48.600 1.120 C 49.480 0.883,50.371 0.534,50.580 0.345 C 51.158 -0.180,48.847 0.022,46.800 0.675 M349.420 0.345 C 349.629 0.534,350.520 0.886,351.400 1.125 C 378.950 8.632,389.801 18.224,397.186 41.600 C 399.686 49.512,400.776 51.461,399.205 45.209 C 395.390 30.027,387.317 17.745,376.315 10.386 C 369.584 5.884,367.096 4.848,352.725 0.560 C 350.614 -0.070,348.835 -0.186,349.420 0.345 M217.400 60.566 C 203.708 62.767,193.828 73.969,192.576 88.714 C 192.238 92.691,192.349 92.607,187.000 92.939 C 178.142 93.490,171.793 96.692,166.564 103.245 L 164.276 106.113 160.029 105.855 C 114.199 103.071,71.415 137.909,64.430 183.697 C 59.082 218.752,73.135 249.134,104.033 269.323 C 112.596 274.917,112.380 274.432,112.391 288.077 C 112.400 298.249,112.391 298.361,111.511 298.977 C 110.718 299.532,104.613 299.610,55.211 299.696 L -0.200 299.792 56.000 299.996 C 86.910 300.108,112.425 300.346,112.700 300.524 C 113.481 301.029,113.409 279.223,112.621 276.605 C 111.849 274.039,110.282 272.497,104.802 268.909 C 72.090 247.491,58.187 214.651,66.229 177.800 C 75.411 135.727,116.612 104.284,159.527 106.599 L 164.454 106.864 165.727 105.337 C 172.731 96.931,179.232 93.600,188.635 93.600 C 192.616 93.600,192.989 93.212,193.335 88.714 C 194.446 74.260,204.720 63.024,218.504 61.190 C 224.200 60.432,258.769 60.885,261.800 61.758 C 271.432 64.530,278.952 71.599,282.271 81.000 L 283.400 84.200 283.600 109.200 C 283.798 133.904,283.810 134.219,284.668 135.800 C 285.179 136.743,294.261 145.937,306.795 158.200 C 331.805 182.669,331.769 182.627,334.477 190.400 L 335.800 194.200 335.800 234.600 L 335.800 275.000 334.861 277.990 C 331.632 288.275,324.225 295.818,314.200 299.033 L 311.400 299.930 315.000 300.065 C 316.980 300.139,336.960 300.108,359.400 299.994 L 400.200 299.789 360.600 299.689 C 314.034 299.572,316.655 299.809,322.092 296.194 C 329.100 291.534,333.780 285.092,335.805 277.316 C 336.713 273.831,336.695 195.700,335.785 192.209 C 333.627 183.923,332.624 182.600,316.225 166.400 C 308.319 158.590,298.115 148.510,293.550 144.000 C 286.660 137.193,285.178 135.528,284.827 134.200 C 284.554 133.165,284.404 124.403,284.402 109.375 C 284.400 87.408,284.356 85.979,283.593 82.975 C 280.936 72.514,272.599 64.018,262.142 61.117 C 258.223 60.030,223.406 59.601,217.400 60.566 M220.200 76.161 C 212.159 78.710,210.302 82.176,209.996 95.200 C 209.669 109.125,210.281 108.513,196.400 108.809 C 183.056 109.094,181.116 109.983,179.267 116.656 C 177.521 122.956,175.836 123.649,165.800 122.195 C 94.969 111.933,50.702 196.581,100.358 247.336 C 112.166 259.405,114.986 259.745,121.647 249.896 C 123.468 247.203,127.386 241.490,130.353 237.200 C 133.320 232.910,139.196 224.360,143.410 218.200 C 147.625 212.040,153.541 203.400,156.557 199.000 C 167.294 183.335,165.211 184.031,201.400 184.011 C 232.966 183.993,231.327 184.701,227.363 172.800 C 221.954 156.559,211.654 143.442,196.379 133.341 C 190.652 129.554,189.731 128.419,190.108 125.612 C 190.665 121.456,192.361 120.865,204.200 120.703 C 214.576 120.560,215.318 120.425,218.327 118.130 C 221.335 115.836,221.750 113.984,221.989 101.781 C 222.293 86.219,221.183 87.114,239.965 87.284 C 254.254 87.414,253.985 87.360,255.800 90.442 C 256.586 91.776,256.604 92.705,256.800 143.291 L 257.000 194.782 258.109 195.891 L 259.217 197.000 281.909 197.200 C 307.371 197.424,306.540 197.322,308.099 200.414 C 309.178 202.551,309.178 269.449,308.099 271.586 C 306.553 274.652,307.132 274.576,283.800 274.800 C 266.901 274.962,262.812 275.106,262.000 275.565 C 259.858 276.775,258.680 277.871,257.661 279.600 L 256.600 281.400 256.400 292.200 C 256.092 308.845,258.482 307.367,231.638 307.510 C 211.440 307.618,210.909 307.601,209.915 306.819 L 208.896 306.018 208.725 295.909 C 208.534 284.701,208.365 283.899,205.881 282.384 C 203.926 281.192,200.802 281.314,199.222 282.643 C 197.050 284.470,197.014 284.663,196.800 295.687 C 196.622 304.865,196.523 306.050,195.886 306.687 C 194.726 307.846,146.001 307.992,143.406 306.844 C 140.154 305.405,140.200 305.689,140.200 287.200 C 140.200 268.855,140.171 269.031,143.411 267.400 C 144.953 266.624,145.891 266.597,174.901 266.510 C 199.977 266.434,204.979 266.327,205.901 265.846 C 207.989 264.755,206.861 266.319,230.824 231.295 C 251.750 200.710,250.463 203.026,248.033 200.306 L 246.866 199.000 211.259 199.000 L 175.653 199.000 174.394 200.200 C 173.701 200.860,169.064 207.340,164.089 214.600 C 159.114 221.860,152.683 231.220,149.798 235.400 C 129.028 265.492,129.029 265.491,128.357 270.983 C 127.647 276.792,128.085 307.372,128.909 309.504 C 130.593 313.863,133.975 317.035,138.400 318.407 C 140.965 319.203,141.817 319.212,201.000 319.107 L 261.000 319.000 262.657 318.114 C 267.403 315.575,268.083 313.436,268.372 300.131 C 268.696 285.249,266.925 286.400,289.503 286.400 C 311.722 286.400,315.460 285.167,319.522 276.501 L 320.600 274.200 320.600 235.400 C 320.600 204.150,320.497 196.308,320.068 195.098 C 318.831 191.604,315.991 188.542,294.576 167.623 C 271.714 145.289,270.992 144.517,269.515 140.858 C 268.607 138.607,268.603 138.518,268.402 112.200 L 268.200 85.800 266.766 83.200 C 264.906 79.827,262.108 77.513,258.565 76.418 C 255.292 75.407,223.255 75.192,220.200 76.161 M259.894 77.752 C 263.067 79.217,265.589 81.873,266.795 85.020 C 267.702 87.385,267.710 87.570,267.957 113.800 L 268.206 140.200 269.543 142.767 C 270.686 144.964,273.027 147.445,285.740 159.941 C 314.252 187.967,317.357 191.163,318.636 193.800 L 319.800 196.200 319.910 234.364 C 320.040 279.472,320.350 276.881,314.200 281.963 C 310.071 285.374,310.159 285.361,290.000 285.594 C 266.000 285.872,267.900 284.622,267.588 300.328 C 267.324 313.663,266.567 315.743,261.199 317.883 C 259.153 318.698,149.532 319.228,142.511 318.457 C 136.507 317.797,132.382 315.012,130.054 310.048 L 129.000 307.800 128.872 290.814 C 128.686 266.034,128.054 268.397,139.205 252.200 C 149.682 236.982,164.929 214.763,170.157 207.096 C 172.878 203.106,174.879 200.573,175.608 200.196 C 177.363 199.288,245.058 199.299,246.814 200.207 C 248.091 200.867,248.630 202.228,248.237 203.796 C 248.030 204.618,216.614 250.994,209.339 261.216 C 205.754 266.254,209.313 265.769,174.200 266.000 C 139.865 266.226,142.016 266.010,140.239 269.400 C 139.427 270.948,139.400 271.524,139.400 287.200 C 139.400 305.404,139.410 305.470,142.343 307.294 L 143.800 308.200 169.098 308.311 C 197.448 308.436,196.392 308.535,197.179 305.699 C 197.410 304.867,197.597 300.220,197.598 295.260 C 197.601 283.904,198.256 282.291,202.873 282.291 C 207.218 282.291,207.761 283.750,208.000 296.071 C 208.195 306.135,208.222 306.402,209.111 307.290 L 210.022 308.200 230.711 308.309 L 251.400 308.418 253.177 307.509 C 256.578 305.769,256.568 305.807,256.839 293.472 C 257.249 274.898,255.755 275.874,284.200 275.600 C 307.863 275.372,306.924 275.510,308.700 272.006 L 309.600 270.230 309.591 236.015 C 309.581 197.423,309.750 199.553,306.547 197.562 L 305.000 196.600 282.400 196.400 C 269.970 196.290,259.526 196.062,259.191 195.892 C 257.334 194.953,257.413 197.089,257.200 142.200 L 257.000 90.600 256.068 89.294 C 254.159 86.617,254.054 86.600,239.400 86.600 C 220.451 86.600,221.505 85.721,221.186 101.800 C 220.841 119.146,220.357 119.645,203.528 119.990 C 192.096 120.224,192.140 120.213,190.064 123.237 C 187.755 126.601,189.421 129.930,195.197 133.488 C 210.030 142.629,221.162 156.699,226.775 173.400 C 228.898 179.717,228.881 181.639,226.691 182.891 C 226.003 183.284,219.549 183.446,198.400 183.600 L 171.000 183.800 168.628 184.911 C 163.991 187.083,163.040 188.131,154.886 200.070 C 115.291 258.042,116.794 256.000,113.724 256.000 C 109.475 256.000,98.886 246.196,91.929 235.821 C 80.875 219.335,77.148 197.803,82.010 178.504 C 91.333 141.500,127.830 117.436,166.200 122.995 C 176.268 124.454,178.227 123.517,180.195 116.302 C 181.724 110.693,183.588 109.925,196.400 109.625 C 210.770 109.289,210.374 109.687,210.782 95.201 C 211.082 84.554,211.381 83.377,214.562 80.289 C 218.484 76.483,218.875 76.424,239.600 76.519 L 257.400 76.600 259.894 77.752 M265.904 235.625 C 263.148 237.080,262.800 238.400,262.800 247.404 C 262.800 255.998,262.938 256.635,265.216 258.552 C 267.702 260.644,272.316 259.663,273.845 256.718 C 274.602 255.261,274.759 240.180,274.037 238.311 C 272.876 235.306,268.959 234.012,265.904 235.625 M271.078 236.382 C 273.734 238.002,274.875 245.332,273.805 253.901 C 273.151 259.131,266.511 260.869,264.207 256.413 C 263.314 254.686,263.324 240.094,264.219 238.362 C 265.530 235.829,268.679 234.920,271.078 236.382 " stroke="none" fill="#4a698c" fill-rule="evenodd"></path><path id="path6" d="M355.333 298.400 C 335.717 298.510,319.532 298.735,319.367 298.900 C 319.202 299.065,336.714 299.200,358.283 299.200 C 379.852 299.200,398.063 299.313,398.750 299.450 C 399.520 299.604,400.000 299.537,400.000 299.277 C 400.000 298.171,399.140 298.154,355.333 298.400 M0.184 298.827 C 0.039 299.061,-0.017 299.286,0.060 299.327 C 0.666 299.644,111.600 299.115,111.600 298.794 C 111.600 298.222,0.538 298.254,0.184 298.827 " stroke="none" fill="#042c72" fill-rule="evenodd"></path><path id="path7" d="M28.669 299.500 C 43.667 299.558,68.327 299.558,83.469 299.500 C 98.611 299.442,86.340 299.394,56.200 299.394 C 26.060 299.394,13.671 299.442,28.669 299.500 M339.670 299.500 C 350.378 299.559,368.018 299.559,378.870 299.500 C 389.721 299.441,380.960 299.392,359.400 299.392 C 337.840 299.392,328.961 299.441,339.670 299.500 " stroke="none" fill="#042c54" fill-rule="evenodd"></path><path id="path8" d="M15.588 16.300 L 13.000 19.000 15.700 16.412 C 18.208 14.007,18.583 13.600,18.288 13.600 C 18.227 13.600,17.012 14.815,15.588 16.300 M229.900 61.500 C 234.575 61.564,242.225 61.564,246.900 61.500 C 251.575 61.436,247.750 61.383,238.400 61.383 C 229.050 61.383,225.225 61.436,229.900 61.500 M231.074 75.099 C 235.294 75.164,242.314 75.164,246.674 75.100 C 251.033 75.035,247.580 74.982,239.000 74.982 C 230.420 74.982,226.853 75.035,231.074 75.099 M233.500 87.899 C 236.635 87.967,241.765 87.967,244.900 87.899 C 248.035 87.832,245.470 87.776,239.200 87.776 C 232.930 87.776,230.365 87.832,233.500 87.899 M297.000 149.600 C 298.306 150.920,299.465 152.000,299.575 152.000 C 299.685 152.000,298.706 150.920,297.400 149.600 C 296.094 148.280,294.935 147.200,294.825 147.200 C 294.715 147.200,295.694 148.280,297.000 149.600 M284.793 157.300 C 288.687 161.294,289.200 161.782,289.200 161.493 C 289.200 161.434,287.265 159.499,284.900 157.193 L 280.600 153.000 284.793 157.300 M318.000 170.125 C 318.000 170.194,318.585 170.779,319.300 171.425 L 320.600 172.600 319.425 171.300 C 318.330 170.088,318.000 169.816,318.000 170.125 M304.200 176.400 C 305.283 177.500,306.260 178.400,306.370 178.400 C 306.480 178.400,305.683 177.500,304.600 176.400 C 303.517 175.300,302.540 174.400,302.430 174.400 C 302.320 174.400,303.117 175.300,304.200 176.400 M273.900 197.900 C 279.235 197.963,287.965 197.963,293.300 197.900 C 298.635 197.837,294.270 197.785,283.600 197.785 C 272.930 197.785,268.565 197.837,273.900 197.900 M192.700 198.300 C 201.335 198.360,215.465 198.360,224.100 198.300 C 232.735 198.240,225.670 198.190,208.400 198.190 C 191.130 198.190,184.065 198.240,192.700 198.300 M242.505 198.287 C 243.114 198.379,244.014 198.377,244.505 198.282 C 244.997 198.187,244.500 198.111,243.400 198.114 C 242.300 198.117,241.897 198.195,242.505 198.287 M321.392 235.600 C 321.392 255.730,321.440 263.965,321.500 253.900 C 321.559 243.835,321.559 227.365,321.500 217.300 C 321.440 207.235,321.392 215.470,321.392 235.600 M100.200 248.400 C 101.283 249.500,102.260 250.400,102.370 250.400 C 102.480 250.400,101.683 249.500,100.600 248.400 C 99.517 247.300,98.540 246.400,98.430 246.400 C 98.320 246.400,99.117 247.300,100.200 248.400 M265.300 274.276 C 265.685 274.376,266.315 274.376,266.700 274.276 C 267.085 274.175,266.770 274.093,266.000 274.093 C 265.230 274.093,264.915 274.175,265.300 274.276 M278.473 274.299 C 282.804 274.364,290.004 274.364,294.473 274.300 C 298.943 274.235,295.400 274.182,286.600 274.182 C 277.800 274.182,274.143 274.235,278.473 274.299 M113.772 287.800 C 113.772 292.860,113.829 294.875,113.899 292.277 C 113.969 289.680,113.968 285.540,113.898 283.077 C 113.828 280.615,113.771 282.740,113.772 287.800 M196.162 295.800 C 196.162 299.320,196.224 300.706,196.298 298.881 C 196.372 297.056,196.372 294.176,196.297 292.481 C 196.222 290.786,196.161 292.280,196.162 295.800 M157.929 307.100 C 164.599 307.161,175.399 307.161,181.929 307.100 C 188.458 307.038,183.000 306.988,169.800 306.988 C 156.600 306.988,151.258 307.038,157.929 307.100 M221.500 307.100 C 226.835 307.163,235.565 307.163,240.900 307.100 C 246.235 307.037,241.870 306.985,231.200 306.985 C 220.530 306.985,216.165 307.037,221.500 307.100 " stroke="none" fill="#6c94cc" fill-rule="evenodd"></path></g></svg>