<?xml version="1.0" encoding="UTF-8" standalone="no"?>
<svg
   xmlns:dc="http://purl.org/dc/elements/1.1/"
   xmlns:cc="http://creativecommons.org/ns#"
   xmlns:rdf="http://www.w3.org/1999/02/22-rdf-syntax-ns#"
   xmlns:svg="http://www.w3.org/2000/svg"
   xmlns="http://www.w3.org/2000/svg"
   xmlns:sodipodi="http://sodipodi.sourceforge.net/DTD/sodipodi-0.dtd"
   xmlns:inkscape="http://www.inkscape.org/namespaces/inkscape"
   inkscape:version="1.0 (4035a4fb49, 2020-05-01)"
   sodipodi:docname="peugeot.svg"
   id="svg16"
   version="1.1"
   viewBox="0 0 175.74799 168.49"
   height="2185.2756"
   width="2279.4102">
  <metadata
     id="metadata22">
    <rdf:RDF>
      <cc:Work
         rdf:about="">
        <dc:format>image/svg+xml</dc:format>
        <dc:type
           rdf:resource="http://purl.org/dc/dcmitype/StillImage" />
      </cc:Work>
    </rdf:RDF>
  </metadata>
  <defs
     id="defs20" />
  <sodipodi:namedview
     inkscape:current-layer="g14"
     inkscape:window-maximized="1"
     inkscape:window-y="441"
     inkscape:window-x="1609"
     inkscape:cy="1092.6378"
     inkscape:cx="1139.7051"
     inkscape:zoom="0.32"
     showgrid="false"
     id="namedview18"
     inkscape:window-height="2066"
     inkscape:window-width="5160"
     inkscape:pageshadow="2"
     inkscape:pageopacity="0"
     guidetolerance="10"
     gridtolerance="10"
     objecttolerance="10"
     borderopacity="1"
     bordercolor="#666666"
     pagecolor="#ffffff" />
  <g
     transform="translate(-8.504,-12.133)"
     id="g14"
     clip-rule="evenodd"
     fill-rule="evenodd">
    <path
       id="path4"
       d="M 184.252,180.623 V 12.133 H 8.504 v 168.49 z"
       fill="#255398" />
    <path
       id="path6"
       fill="#ffffff"
       d="m 148.693,152.299 c 0,6.568 -3.934,10.728 -10.316,10.884 -6.299,0.156 -10.252,-3.548 -10.4,-9.785 -0.148,-6.206 3.971,-10.488 10.215,-10.642 6.246,-0.153 10.501,3.711 10.501,9.543 z m -15.595,1.157 c 0.111,4.716 2.104,7.374 5.383,7.37 4.305,-0.005 5.205,-4.98 5.139,-7.798 -0.109,-4.596 -1.754,-7.85 -5.236,-7.843 -3.48,0.007 -5.409,3.129 -5.286,8.271 z m -27.393,-7.176 0.746,-2.288 c -2.041,-0.935 -4.594,-1.251 -6.811,-1.251 -9.129,0 -12.13,6.139 -12.13,10.283 0,5.365 3.573,10.158 11.189,10.158 5.256,0 8.256,-1.788 8.256,-1.788 v -8.229 h -5.035 l -0.002,7.142 c 0,0 -0.068,0.062 -0.178,0.113 -0.641,0.285 -1.922,0.443 -3.234,0.258 -3.347,-0.472 -5.566,-3.499 -5.566,-7.582 0,-4.822 4.263,-7.437 7.113,-7.555 2.857,-0.116 4.744,0.484 5.652,0.739 z m 61.139,-0.183 h -6.336 v 16.221 h -5.131 v -16.221 h -6.162 v -2.633 h 17.629 z m -139.53,-2.633 h 10.022 c 3.805,0 4.67,0.134 6.04,0.724 1.736,0.724 3.011,2.932 3.011,4.75 0,5.446 -3.921,6.433 -8.607,6.433 h -5.078 v 6.947 h -5.388 z m 5.372,9.765 3.833,-0.001 c 2.617,0 4.415,-1.637 4.415,-3.715 0,-2.06 -1.826,-3.72 -4.176,-3.72 l -4.073,0.019 v 7.417 z m 43.024,9.954 h 0.031 c 3.423,0 5.443,-0.906 7.259,-2.725 1.086,-1.09 1.762,-2.413 1.762,-5.5 v -11.494 h -5.01 c 0,0 -0.005,10.023 -0.005,12.928 0,2.574 -1.677,4.227 -4.006,4.227 h -0.019 c -2.334,0 -4.083,-1.564 -4.083,-4.436 l -0.004,-12.719 h -5.01 v 11.385 c 0,3.19 0.781,4.66 1.868,5.749 1.814,1.818 3.807,2.585 7.229,2.585 z m -21.988,-3.901 h 9.411 v 3.035 H 48.618 v -18.853 h 14.515 v 2.675 h -9.411 v 4.728 h 7.604 v 2.288 h -7.604 z m 62.678,0.07 h 9.412 v 2.965 h -14.515 v -18.853 h 14.515 v 2.744 H 116.4 v 4.729 h 7.604 v 2.289 H 116.4 Z" />
    <path
       id="path8"
       fill="#a6a8aa"
       d="m 108.65,106.733 c 3.213,2.223 4.654,3.227 7.816,4.907 2.625,-1.13 5.688,-0.052 5.213,2.212 -0.314,1.5 -0.576,4.7 -2.244,4.579 -1.846,-0.154 -3.883,-1.079 -6.352,0.438 -1.662,0.975 -3.949,5.45 -5.426,5.81 a 612.008,612.008 0 0 1 1.934,2.719 c 4.174,0 7.318,2.247 8.951,3.304 6.82,-3.013 9.5,-1.746 16.256,-0.474 0.836,0.159 1.283,-1.193 1.018,-2.29 -0.451,-1.87 -1.58,-4.528 -1.654,-5.713 l -0.004,-15.647 c -0.998,-1.226 -2.375,-3.469 -2.381,-3.467 -2.865,0.761 -4.203,0.59 -4.73,-1.135 -0.568,-1.861 -1.953,-5.701 -3.037,-8.12 0,0 6.135,-0.757 9.801,-5.385 1.371,-1.733 2.84,-4.61 2.809,-8.07 -0.066,-7.751 -5.939,-19.165 -7.41,-23.103 -0.885,-2.369 -3.445,-8.604 -0.965,-11.157 0.973,-0.999 2.979,-1.545 4.41,1.583 0.693,1.515 0.998,0.859 0.861,1.135 -1.783,2.889 -2.842,4.438 -2.096,7.08 1.039,3.686 5.584,7.201 7.035,8.167 0,0 2.426,1.658 2.916,1.269 1.16,-0.925 -1.682,-5.814 -1.623,-6.803 0.055,-0.906 0.09,-1.728 0.373,-2.68 0.316,-1.068 0.805,-2.643 1.088,-4.263 0.91,-5.158 -3.158,-12.311 -7.889,-12.986 -1.262,-0.18 -5.283,1.416 -8.797,6.924 -0.668,1.043 -1.627,3.728 -1.523,5.783 -1.723,-4.319 -3.838,-9.228 -6.146,-12.855 -0.744,-1.714 -4.662,-6.489 -5.84,-6.819 -3.244,-0.909 -6.094,-0.35 -9.158,-0.847 -1.262,0.134 -10.279,2.193 -10.582,2.635 0,0 -2.195,3.602 -2.195,3.622 -2.238,0.576 -5.12,1.582 -5.457,2.042 -0.995,1.266 -1.94,1.803 -1.62,2.321 0.425,1.474 1.375,1.761 1.375,1.761 l 4.925,0.007 c 1.284,-2.269 5.207,-1.93 7.5,0.052 0.812,0.703 0.002,0.114 0.373,1.194 -1.332,0.576 -3.463,1.286 -4.99,0.882 -2.098,-0.311 -6.33,-0.613 -7.495,-0.182 l 0.844,1.451 c 1.285,0.574 4.004,0.824 5.017,0.843 1.634,0.038 4.067,0.211 6.198,0.038 -1.066,1.593 -1.702,3.707 -3.141,3.707 H 86.89 c 0.083,0.396 -1.211,0.306 -1.083,0.681 0,0 0.842,1.054 1.304,1.726 l 3.417,0.182 c 1.563,0.096 1.459,1.654 0.892,2.538 -0.96,1.478 -3.642,4.241 -5.951,4.472 -5.79,-5.298 -10.124,-9.156 -15.807,-13.897 -0.959,-0.807 -2.025,-1.189 -3.606,-1.479 -1.58,-0.287 -4.227,-0.537 -6.554,-0.537 -0.994,0 -6.168,-0.585 -6.523,-0.239 l 0.97,1.521 c 0.132,0.81 -0.057,1.22 -0.205,2.731 -0.051,0.605 -0.285,1.671 -0.285,1.671 0,0 0.746,1.067 1.347,2.014 2.523,-1.029 4.628,0.948 4.628,0.948 l -1.854,1.396 1.78,2.607 c 3.018,1.188 5.119,1.302 9.5,0.374 l 8.433,10.806 -15.413,0.825 c -2.132,0.077 -3.766,1.823 -4.28,3.301 -0.533,1.459 -3.358,2.037 -3.484,3.207 l 1.815,2.776 1.054,-0.332 c 0.627,0.79 1.655,2.37 3.234,3.133 0.551,-1.053 2.03,-2.344 3.788,-1.964 0.46,0.608 1.566,2.333 1.566,2.333 2.628,0.441 5.774,-1.667 6.324,-4.354 l 12.731,-0.187 7.037,8.671 c -4.912,6.958 -9.982,15.103 -14.779,23.102 2.096,1.997 1.37,6.072 -2.071,6.454 -2.349,0.262 -4.938,-2.016 -8.1,-1.267 -3.151,0.722 -6.854,2.896 -8.735,5.758 0.333,0.514 1.798,2.641 1.798,2.641 2.697,0.699 5.94,2.278 8.212,5.396 3.92,-2.705 12.789,-0.238 16.092,0.914 0.907,0.391 1.646,-0.323 1.58,-1.66 -0.076,-1.5 -1.505,-3.632 -0.716,-6.082 1.411,-4.372 11.898,-13.44 17.645,-19.147 -10e-4,-0.001 4.018,3.09 6.059,4.498 z M 128.529,68.38 c 1.809,4.793 2.459,6.845 3.043,10.102 0.465,2.602 0.215,4.962 -0.752,6.322 -1.129,1.593 -4.127,4.111 -9.996,2.659 l 0.004,-0.012 c -1.828,-2.803 -5.453,-8.167 -7.1,-10.833 1.174,-4.491 1.705,-5.585 2.629,-9.866 l 2.314,1.237 c 1.084,-3.188 3.723,-11.117 4.238,-13.996 0,0 0.822,1.573 1.418,3.427 1.321,4.093 2.872,7.437 4.202,10.96 z M 97.428,36.243 c -1.122,0.52 -3.17,1.27 -4.843,1.867 -0.374,-0.961 -0.409,-1.732 -0.249,-2.867 1.382,-0.227 3.454,-0.52 4.79,-0.52 0.853,0 1.085,1.136 0.302,1.52 z" />
    <path
       id="path10"
       fill="#ffffff"
       d="m 137.203,55.797 c 0.068,-0.907 0.312,-1.732 0.596,-2.687 0.322,-1.089 0.914,-2.64 1.092,-4.272 0.561,-5.156 -2.289,-9.908 -7.031,-10.585 -1.264,-0.18 -6.289,-1.013 -9.812,4.508 -0.668,1.047 -1.629,3.738 -1.527,5.798 -1.725,-4.33 -3.848,-9.25 -6.16,-12.887 -0.498,-0.713 -3.098,-3.925 -3.811,-4.137 -3.24,-0.905 -7.104,-1.848 -10.184,-2.349 -1.264,0.135 -10.717,3.676 -11.019,4.118 0,0 -1.087,1.193 -1.087,1.212 -2.242,0.578 -6.871,1.329 -7.21,1.791 -0.998,1.27 -0.303,2.463 0.018,2.983 0.106,0.192 0.855,2.944 2.19,2.944 l 3.578,0.011 c 1.745,-3.079 6.844,-3.231 8.268,0.906 -1.341,0.581 -2.404,1.234 -5.037,0.884 -3.194,-0.475 -6.386,0.666 -6.37,1.13 0.025,0.735 3.759,0.979 4.725,0.997 1.646,0.038 4.107,0.211 6.254,0.037 -1.068,1.597 -3.175,2.211 -4.616,2.211 h -5.733 a 9.523,9.523 0 0 0 1.441,3.425 h 2.351 c 1.566,0.096 1.082,0.704 0.747,1.713 -0.604,1.823 -1.7,4.581 -3.425,6.186 C 79.637,54.423 71.858,47.775 66.364,43.553 64.759,42.319 58.159,41.455 54.853,42.772 c -0.949,0.377 -1.548,1.19 -1.88,1.851 l 1.645,0.493 c -3.017,1.898 -1.148,5.457 -1.148,5.457 1.462,-0.329 3.759,-1.097 6.16,2.632 l -2.036,1.7 c 1.031,0.768 7.23,1.522 9.006,0.37 0,0 7.324,10.254 8.106,10.691 0.426,0.237 -2.979,0.438 -6.78,0.725 -3.266,0.055 -6.323,0.11 -8.719,0.165 -2.156,0.049 -3.724,1.766 -4.24,3.248 -0.534,1.463 -1.104,4.566 -0.855,5.914 l 1.193,-0.404 c 1.514,2.636 1.585,3.228 3.543,4 1.096,-2.909 5.214,-2.597 5.214,-2.597 l -0.046,2.649 c 5.717,-0.038 6.265,-4.382 6.265,-4.382 l 11.151,-0.183 7.055,8.977 c -5.788,6.321 -9.824,14.142 -14.188,22.499 2.102,2.003 1.374,6.087 -2.078,6.47 -2.353,0.261 -4.949,-2.02 -8.118,-1.27 -3.863,0.886 -3.062,4.136 -6.106,8.391 3.044,0.789 6.221,2.869 8.313,5.403 4.179,-2.781 12.642,-0.632 15.953,0.522 0.736,0.251 1.042,-1.148 0.562,-2.33 -0.391,-0.962 -0.951,-2.459 0.043,-4.905 0.891,-2.193 10.842,-12.817 17.891,-19.563 0.041,-0.038 2.469,1.895 4.916,3.781 3.822,2.95 8.908,5.934 8.908,5.934 l 1.02,-0.086 c 4.627,-1.041 5.416,3.248 4.9,4.689 -0.514,1.442 -1.881,2.311 -3.551,2.188 -1.852,-0.153 -3.895,-1.081 -6.369,0.439 -2.492,1.463 -1.424,6.35 -2.938,8.409 4.184,0 7.549,2.25 9.188,3.309 6.836,-3.02 8.834,-2.096 15.758,-0.865 0.482,0.096 0.863,-1.312 0.332,-2.125 -0.498,-0.758 -1.271,-2.781 -1.131,-4.455 v -17.396 c -4.416,0.616 -6.445,-1.308 -7.211,-3.81 -0.57,-1.866 -2.244,-5.675 -3.328,-8.102 0,0 6.809,-0.182 10.484,-4.822 1.375,-1.738 2.555,-5.252 1.922,-8.556 -0.875,-4.579 -1.445,-6.113 -2.977,-10.115 -1.273,-3.333 -3.633,-9.422 -4.607,-12.89 -1.379,-4.903 -1.584,-7.089 -0.119,-9.799 0.889,-1.645 2.816,-3.194 5.01,-2.065 1.441,0.74 1.125,1.166 0.988,1.442 -1.787,2.896 -2.506,6.648 -1.758,9.296 1.041,3.695 4.365,6.679 5.82,7.647 0,0 2.432,1.663 2.92,1.273 1.164,-0.927 -1.846,-5.37 -1.733,-6.819 z M 96.748,35.064 c -1.119,0.518 -3.161,1.267 -4.831,1.862 -0.373,-0.96 -0.409,-1.728 -0.249,-2.86 1.403,-0.23 3.445,-0.519 4.777,-0.519 0.854,0 1.082,1.133 0.303,1.517 z m 29.022,31.147 c 1.811,4.804 2.465,6.862 3.049,10.125 0.467,2.608 0.217,4.976 -0.752,6.339 -1.133,1.596 -4.137,4.119 -10.021,2.666 l 0.004,-0.013 c -1.834,-2.81 -5.094,-7.888 -6.742,-10.56 1.176,-4.503 1.711,-5.6 2.635,-9.89 0,0 2.572,1.481 2.688,0.962 0.43,-1.903 3.367,-10.865 3.883,-13.752 0,0 0.447,1.277 1.047,3.137 1.32,4.102 2.877,7.454 4.209,10.986 z" />
    <path
       id="path12"
       fill="#e6e6e7"
       d="m 125.773,66.235 c 1.811,4.802 2.463,6.857 3.047,10.119 0.459,2.565 0.225,4.928 -0.752,6.3 -1.133,1.595 -4.135,4.13 -10.012,2.676 l 0.004,0.006 c -1.832,-2.807 -5.088,-7.88 -6.736,-10.55 1.174,-4.5 1.707,-5.594 2.633,-9.881 0,0 2.57,1.481 2.686,0.961 0.43,-1.9 3.361,-10.856 3.877,-13.739 0,0 0.449,1.275 1.047,3.133 1.322,4.099 2.876,7.448 4.206,10.975 z M 105.246,47.568 c 0,12.691 -5.695,22.057 -6.43,33.364 -0.469,7.237 -0.006,11.727 1.984,18.371 0,0 2.426,1.885 4.871,3.77 3.822,2.947 8.844,6.01 8.844,6.01 l 1.299,-0.129 c 4.361,-1.052 5.131,3.29 4.615,4.73 -0.514,1.44 -1.811,2.194 -3.48,2.073 -1.85,-0.152 -3.891,-1.081 -6.363,0.439 -2.49,1.461 -1.447,6.401 -2.959,8.459 4.18,0 7.566,2.274 9.203,3.333 6.83,-3.02 8.883,-2.055 15.803,-0.825 0.48,0.097 0.832,-1.358 0.287,-2.327 -0.443,-0.792 -1.24,-2.724 -1.127,-4.283 l -0.018,-17.469 c -4.41,0.615 -6.439,-1.307 -7.205,-3.807 -0.566,-1.865 -2.186,-5.615 -3.271,-8.037 0,0 6.805,-0.182 10.477,-4.818 1.375,-1.735 2.535,-4.604 2.025,-8.512 -0.555,-4.267 -2.035,-7.856 -2.914,-10.271 -1.221,-3.351 -3.717,-9.159 -4.691,-12.624 -1.377,-4.899 -1.809,-6.978 -0.25,-9.948 0.867,-1.656 2.814,-3.217 5.006,-2.09 1.439,0.74 1.123,1.165 0.986,1.441 -1.785,2.894 -2.504,6.643 -1.758,9.288 1.043,3.692 4.363,6.674 5.818,7.641 0,0 2.477,1.692 2.965,1.302 1.164,-0.926 -1.861,-5.396 -1.748,-6.845 0.068,-0.906 0.301,-1.73 0.584,-2.684 0.322,-1.089 0.955,-2.707 1.133,-4.339 0.561,-5.151 -2.346,-9.9 -7.086,-10.576 -1.264,-0.181 -6.281,-1 -9.805,4.518 -0.656,1.031 -1.635,3.552 -1.523,5.798 -1.725,-4.326 -3.82,-9.242 -6.133,-12.875 -0.498,-0.712 -3.096,-3.922 -3.807,-4.134 -2.9,-0.81 -8.604,-2.247 -10.174,-2.345 0,0.003 4.842,5.71 4.842,18.401 z" />
  </g>
</svg>
