<svg id="svg" version="1.1" xmlns="http://www.w3.org/2000/svg" xmlns:xlink="http://www.w3.org/1999/xlink" width="400" height="400" viewBox="0, 0, 400,400"><g id="svgg"><path id="path0" d="M-0.000 12.824 C -0.000 25.480,0.167 26.957,1.227 23.694 C 4.819 12.644,13.682 4.283,24.613 1.633 C 26.366 1.208,28.520 0.685,29.400 0.472 C 30.530 0.197,26.447 0.071,15.500 0.041 L 0.000 0.000 -0.000 12.824 M35.600 0.641 C 41.815 2.003,48.373 4.692,51.726 7.252 C 52.647 7.956,69.693 24.791,89.607 44.665 C 115.616 70.622,126.062 80.800,126.693 80.800 C 128.363 80.800,128.400 80.238,128.400 54.789 C 128.400 26.512,128.509 25.343,131.790 18.600 C 135.706 10.550,145.043 2.791,152.498 1.393 C 159.431 0.092,156.519 0.025,94.200 0.048 C 40.250 0.068,33.308 0.138,35.600 0.641 M166.000 0.400 C 166.330 0.613,167.590 1.077,168.800 1.429 C 177.520 3.971,185.092 10.249,189.029 18.200 C 192.600 25.412,192.441 23.082,192.299 66.034 L 192.175 103.800 191.246 106.600 C 187.873 116.767,182.078 123.090,172.905 126.613 C 161.663 130.931,154.099 135.655,146.040 143.391 C 137.068 152.002,132.751 158.347,125.348 173.800 C 120.819 183.255,113.596 189.570,104.200 192.290 C 100.175 193.456,30.487 193.570,25.139 192.420 C 14.999 190.239,7.790 184.382,2.593 174.100 C 1.342 171.625,0.247 169.600,0.159 169.600 C 0.072 169.600,-0.000 184.101,-0.000 201.824 C -0.000 220.191,0.151 233.954,0.351 233.830 C 0.544 233.711,0.914 232.756,1.174 231.707 C 3.830 220.981,13.433 211.311,24.600 208.115 C 27.549 207.272,94.384 206.799,101.072 207.575 C 113.908 209.064,122.082 215.823,127.680 229.577 C 135.957 249.911,151.856 265.823,171.713 273.644 C 180.572 277.133,187.570 284.511,191.125 294.111 L 192.195 297.000 192.309 334.566 C 192.421 371.260,192.405 372.207,191.607 375.366 C 188.558 387.443,179.720 395.672,166.200 399.021 L 162.600 399.912 197.600 399.931 C 229.603 399.947,232.480 399.896,231.200 399.326 C 217.263 393.126,211.114 386.811,208.099 375.600 C 207.142 372.040,207.016 300.105,207.961 296.400 C 210.887 284.922,217.651 277.545,229.600 272.799 C 249.043 265.076,263.190 251.061,272.800 230.000 C 278.570 217.355,284.380 211.740,295.214 208.338 L 298.200 207.400 335.400 207.400 C 375.232 207.400,374.249 207.354,379.526 209.465 C 388.577 213.086,395.812 220.838,398.779 230.094 C 399.043 230.916,399.425 231.692,399.629 231.818 C 399.856 231.958,399.995 219.478,399.987 199.724 C 399.976 171.215,399.905 167.492,399.387 168.176 C 399.064 168.604,398.800 169.264,398.800 169.644 C 398.800 170.926,394.455 178.981,392.410 181.490 C 388.568 186.203,381.910 190.533,375.800 192.294 C 371.809 193.443,302.120 193.568,296.575 192.435 C 284.898 190.050,277.563 183.366,272.613 170.600 C 265.235 151.574,250.759 137.074,229.399 127.316 C 217.753 121.996,212.210 116.377,208.706 106.340 L 207.400 102.600 207.276 67.000 C 207.193 43.283,207.295 30.154,207.583 27.667 C 209.012 15.322,218.201 5.043,231.093 1.369 C 232.362 1.007,233.571 0.551,233.780 0.356 C 234.002 0.148,219.864 0.003,199.780 0.006 C 177.430 0.010,165.610 0.148,166.000 0.400 M244.400 0.183 C 244.400 0.284,245.697 0.752,247.283 1.225 C 258.193 4.474,265.738 11.196,269.352 20.886 C 271.120 25.626,271.229 27.950,270.940 54.770 C 270.644 82.330,270.616 81.966,272.928 80.733 C 273.408 80.477,290.124 64.082,310.075 44.299 C 330.027 24.516,347.307 7.610,348.475 6.730 C 350.732 5.031,356.407 2.034,358.894 1.226 C 359.716 0.960,360.492 0.575,360.618 0.371 C 360.758 0.144,338.283 0.000,302.624 0.000 C 270.601 0.000,244.400 0.082,244.400 0.183 M375.382 0.371 C 375.508 0.575,376.284 0.958,377.106 1.223 C 386.999 4.413,394.651 11.373,398.285 20.488 C 398.835 21.870,399.447 23.171,399.643 23.380 C 399.853 23.603,400.000 18.865,400.000 11.880 L 400.000 0.000 387.576 0.000 C 380.048 0.000,375.243 0.146,375.382 0.371 M-0.000 96.000 C -0.000 127.046,0.153 152.352,0.341 152.237 C 0.528 152.121,1.004 151.165,1.399 150.113 C 4.857 140.902,11.247 134.340,19.757 131.261 C 25.345 129.239,27.443 129.121,55.154 129.267 C 78.234 129.388,80.545 129.342,80.921 128.749 C 81.520 127.805,83.072 129.431,44.064 90.116 C 3.859 49.594,3.846 49.579,1.226 41.506 C 0.960 40.684,0.575 39.908,0.371 39.782 C 0.144 39.642,-0.000 61.432,-0.000 96.000 M398.977 42.300 C 395.744 50.636,396.499 49.799,355.820 90.150 C 333.566 112.225,319.600 126.367,319.600 126.825 C 319.600 128.345,320.512 128.400,345.874 128.406 C 374.750 128.414,375.070 128.445,382.354 132.037 C 389.764 135.691,396.305 143.393,398.798 151.400 C 399.072 152.280,399.455 153.171,399.648 153.380 C 399.851 153.599,400.000 129.781,400.000 97.280 C 400.000 66.216,399.901 40.800,399.780 40.800 C 399.658 40.800,399.297 41.475,398.977 42.300 M0.013 302.500 C 0.024 353.673,0.095 360.507,0.613 359.824 C 0.936 359.396,1.200 358.753,1.200 358.395 C 1.200 357.499,4.518 350.754,6.065 348.506 C 6.760 347.496,23.506 330.369,43.279 310.445 C 63.342 290.229,79.334 273.805,79.466 273.281 C 79.941 271.387,80.275 271.413,52.680 271.177 C 23.215 270.925,24.836 271.090,17.789 267.627 C 9.749 263.678,4.604 257.300,1.228 247.100 C 0.737 245.615,0.259 244.400,0.167 244.400 C 0.075 244.400,0.006 270.545,0.013 302.500 M399.485 246.686 C 399.312 246.953,398.928 247.976,398.633 248.958 C 395.950 257.873,387.807 265.800,378.200 268.852 C 373.094 270.475,372.873 270.485,345.667 270.420 C 318.867 270.356,318.000 270.397,318.000 271.740 C 318.000 271.983,334.805 289.016,355.345 309.591 C 375.884 330.166,393.272 347.868,393.984 348.929 C 395.577 351.303,398.036 356.584,399.046 359.800 L 399.800 362.200 399.903 333.069 C 400.055 289.859,399.844 246.133,399.485 246.686 M90.809 354.793 C 70.543 375.030,52.830 392.394,51.447 393.381 C 48.496 395.487,42.622 398.275,39.912 398.856 C 38.864 399.081,37.905 399.430,37.780 399.632 C 37.642 399.855,61.451 399.986,98.276 399.966 L 159.000 399.931 154.800 399.008 C 143.463 396.514,136.144 391.219,132.182 382.644 C 129.280 376.362,129.384 377.770,129.541 346.890 C 129.686 318.401,129.667 318.000,128.179 318.000 C 127.891 318.000,111.075 334.557,90.809 354.793 M271.724 320.100 C 271.546 320.375,271.301 332.660,271.179 347.400 C 270.932 377.295,271.075 375.735,267.987 382.324 C 264.488 389.791,257.340 395.981,249.200 398.593 C 247.990 398.981,246.829 399.456,246.620 399.649 C 246.402 399.850,271.133 399.997,304.620 399.994 C 341.338 399.990,362.779 399.848,362.403 399.611 C 362.075 399.403,360.922 399.021,359.840 398.762 C 357.366 398.168,351.710 395.569,348.811 393.694 C 347.457 392.819,332.487 378.182,310.189 355.932 C 273.940 319.762,272.694 318.601,271.724 320.100 M398.870 375.143 C 394.854 387.857,387.835 394.980,375.465 398.894 L 372.600 399.800 386.161 399.905 C 393.620 399.963,399.787 399.946,399.867 399.867 C 399.946 399.788,399.963 393.530,399.905 385.961 L 399.800 372.200 398.870 375.143 M0.000 387.176 L 0.000 400.000 13.480 400.000 C 27.193 400.000,28.217 399.864,23.854 398.620 C 13.104 395.555,4.898 387.612,1.420 376.905 C 0.147 372.987,0.000 374.048,0.000 387.176 " stroke="none" fill="#ffffff" fill-rule="evenodd"></path><path id="path1" d="M26.936 1.018 C 14.651 3.826,7.259 9.804,2.472 20.800 C 1.754 22.450,0.904 24.310,0.583 24.932 C -0.241 26.532,-0.252 38.633,0.569 40.268 C 0.882 40.890,2.026 43.290,3.113 45.600 C 6.044 51.833,5.583 51.332,44.064 90.116 C 83.072 129.431,81.520 127.805,80.921 128.749 C 80.545 129.342,78.234 129.388,55.154 129.267 C 27.443 129.121,25.345 129.239,19.757 131.261 C 11.914 134.099,6.066 139.685,2.441 147.800 C 1.754 149.340,0.923 151.110,0.595 151.732 C 0.125 152.627,0.000 154.566,-0.000 160.963 L -0.000 169.060 2.440 173.830 C 7.879 184.464,14.908 190.220,25.139 192.420 C 30.487 193.570,100.175 193.456,104.200 192.290 C 113.596 189.570,120.819 183.255,125.348 173.800 C 132.751 158.347,137.068 152.002,146.040 143.391 C 154.099 135.655,161.663 130.931,172.905 126.613 C 182.078 123.090,187.873 116.767,191.246 106.600 L 192.175 103.800 192.299 66.034 C 192.441 23.082,192.600 25.412,189.029 18.200 C 185.057 10.179,178.701 4.889,168.739 1.315 C 165.083 0.003,156.330 -0.482,154.719 0.539 C 154.214 0.859,153.170 1.251,152.400 1.409 C 144.818 2.968,135.690 10.581,131.790 18.600 C 128.509 25.343,128.400 26.512,128.400 54.789 C 128.400 80.238,128.363 80.800,126.693 80.800 C 126.062 80.800,115.616 70.622,89.607 44.665 C 48.081 3.222,50.834 5.685,42.526 2.557 C 36.115 0.145,32.372 -0.225,26.936 1.018 M233.780 0.356 C 233.571 0.551,232.362 1.007,231.093 1.369 C 218.201 5.043,209.012 15.322,207.583 27.667 C 207.295 30.154,207.193 43.283,207.276 67.000 L 207.400 102.600 208.706 106.340 C 212.210 116.377,217.753 121.996,229.399 127.316 C 250.759 137.074,265.235 151.574,272.613 170.600 C 277.563 183.366,284.898 190.050,296.575 192.435 C 302.120 193.568,371.809 193.443,375.800 192.294 C 381.910 190.533,388.568 186.203,392.410 181.490 C 394.455 178.981,398.800 170.926,398.800 169.644 C 398.800 169.264,399.064 168.604,399.387 168.176 C 400.056 167.292,400.289 154.073,399.648 153.380 C 399.455 153.171,399.072 152.280,398.798 151.400 C 396.305 143.393,389.764 135.691,382.354 132.037 C 375.070 128.445,374.750 128.414,345.874 128.406 C 320.512 128.400,319.600 128.345,319.600 126.825 C 319.600 126.367,333.566 112.225,355.820 90.150 C 396.854 49.447,394.800 51.728,399.180 41.974 C 400.243 39.606,400.429 24.902,399.420 22.932 C 399.101 22.310,398.307 20.598,397.655 19.129 C 394.212 11.374,388.776 6.174,380.400 2.625 C 378.530 1.833,376.490 0.918,375.868 0.592 C 374.262 -0.247,361.777 -0.260,360.132 0.576 C 359.510 0.893,357.299 1.928,355.220 2.876 C 349.119 5.658,348.115 6.580,310.125 44.249 C 290.146 64.060,273.408 80.477,272.928 80.733 C 270.616 81.966,270.644 82.330,270.940 54.770 C 271.229 27.950,271.120 25.626,269.352 20.886 C 265.694 11.077,258.758 4.928,247.082 1.141 C 243.449 -0.037,234.748 -0.551,233.780 0.356 M27.664 207.630 C 15.745 209.177,4.142 219.723,1.174 231.707 C 0.914 232.756,0.544 233.711,0.351 233.830 C -0.595 234.415,-0.027 243.588,1.163 246.960 C 5.006 257.848,9.661 263.634,17.789 267.627 C 24.836 271.090,23.215 270.925,52.680 271.177 C 80.275 271.413,79.941 271.387,79.466 273.281 C 79.334 273.805,63.342 290.229,43.279 310.445 C 23.506 330.369,6.760 347.496,6.065 348.506 C 4.518 350.754,1.200 357.499,1.200 358.395 C 1.200 358.753,0.936 359.396,0.613 359.824 C -0.066 360.721,-0.288 374.175,0.369 374.581 C 0.573 374.707,1.045 375.752,1.420 376.905 C 4.898 387.612,13.104 395.555,23.854 398.620 C 25.144 398.988,26.371 399.449,26.580 399.644 C 27.256 400.277,36.963 400.076,38.254 399.402 C 38.884 399.074,39.760 398.801,40.200 398.796 C 41.546 398.781,48.693 395.347,51.404 393.412 C 52.833 392.392,70.216 375.356,90.809 354.793 C 111.075 334.557,127.891 318.000,128.179 318.000 C 129.667 318.000,129.686 318.401,129.541 346.890 C 129.384 377.770,129.280 376.362,132.182 382.644 C 137.498 394.150,153.091 401.958,165.263 399.209 C 179.324 396.033,188.482 387.745,191.607 375.366 C 192.405 372.207,192.421 371.260,192.309 334.566 L 192.195 297.000 191.125 294.111 C 187.570 284.511,180.572 277.133,171.713 273.644 C 151.856 265.823,135.957 249.911,127.680 229.577 C 122.152 215.996,114.038 209.183,101.520 207.614 C 97.575 207.119,31.491 207.134,27.664 207.630 M299.000 207.578 C 287.546 208.945,279.115 216.160,272.800 230.000 C 263.190 251.061,249.043 265.076,229.600 272.799 C 217.651 277.545,210.887 284.922,207.961 296.400 C 207.016 300.105,207.142 372.040,208.099 375.600 C 211.007 386.414,218.132 393.939,230.070 398.803 C 233.082 400.031,245.518 400.666,246.620 399.649 C 246.829 399.456,247.990 398.981,249.200 398.593 C 257.340 395.981,264.488 389.791,267.987 382.324 C 271.075 375.735,270.932 377.295,271.179 347.400 C 271.301 332.660,271.546 320.375,271.724 320.100 C 272.694 318.601,273.940 319.762,310.189 355.932 C 332.736 378.431,347.451 392.815,348.834 393.710 C 369.079 406.808,391.210 398.566,398.855 375.082 C 401.448 367.114,399.628 357.338,393.985 348.930 C 393.272 347.869,375.884 330.166,355.345 309.591 C 334.805 289.016,318.000 271.983,318.000 271.740 C 318.000 270.397,318.867 270.356,345.667 270.420 C 372.873 270.485,373.094 270.475,378.200 268.852 C 387.841 265.790,395.949 257.875,398.655 248.885 C 398.962 247.863,399.391 246.849,399.607 246.633 C 400.255 245.985,400.109 232.686,399.440 231.332 C 399.132 230.710,397.887 228.130,396.674 225.600 C 392.350 216.582,385.763 211.082,375.736 208.118 C 373.249 207.383,304.678 206.901,299.000 207.578 " stroke="none" fill="#0b2b63" fill-rule="evenodd"></path></g></svg>