<?xml version="1.0" encoding="UTF-8" standalone="no"?>
<svg
   xmlns:dc="http://purl.org/dc/elements/1.1/"
   xmlns:cc="http://creativecommons.org/ns#"
   xmlns:rdf="http://www.w3.org/1999/02/22-rdf-syntax-ns#"
   xmlns:svg="http://www.w3.org/2000/svg"
   xmlns="http://www.w3.org/2000/svg"
   xmlns:sodipodi="http://sodipodi.sourceforge.net/DTD/sodipodi-0.dtd"
   xmlns:inkscape="http://www.inkscape.org/namespaces/inkscape"
   inkscape:version="1.0 (4035a4fb49, 2020-05-01)"
   sodipodi:docname="seat.svg"
   viewBox="0 0 400 350.74698"
   height="350.74698"
   width="400"
   version="1.1"
   id="svg">
  <metadata
     id="metadata10">
    <rdf:RDF>
      <cc:Work
         rdf:about="">
        <dc:format>image/svg+xml</dc:format>
        <dc:type
           rdf:resource="http://purl.org/dc/dcmitype/StillImage" />
      </cc:Work>
    </rdf:RDF>
  </metadata>
  <defs
     id="defs8" />
  <sodipodi:namedview
     inkscape:current-layer="svgg"
     inkscape:window-maximized="1"
     inkscape:window-y="441"
     inkscape:window-x="1609"
     inkscape:cy="175.42318"
     inkscape:cx="200"
     inkscape:zoom="2"
     showgrid="false"
     id="namedview6"
     inkscape:window-height="2066"
     inkscape:window-width="5160"
     inkscape:pageshadow="2"
     inkscape:pageopacity="0"
     guidetolerance="10"
     gridtolerance="10"
     objecttolerance="10"
     borderopacity="1"
     bordercolor="#666666"
     pagecolor="#ffffff" />
  <g
     transform="translate(0,-24.576816)"
     id="svgg">
    <path
       fill-rule="evenodd"
       fill="#040404"
       stroke="none"
       d="m 149.6,24.859 c -13.09,0.168 -25.42,0.484 -27.4,0.701 -1.98,0.217 -9.27,0.577 -16.2,0.799 -14.424,0.463 -18.212,0.659 -23.8,1.237 -2.2,0.227 -7.42,0.587 -11.6,0.799 -4.18,0.213 -9.13,0.65 -11,0.971 -1.87,0.322 -5.058,0.766 -7.086,0.988 -2.027,0.221 -4.007,0.574 -4.4,0.785 -0.392,0.21 -1.614,0.51 -2.714,0.666 -1.1,0.156 -2.788,0.624 -3.751,1.039 -0.963,0.416 -2.082,0.756 -2.488,0.756 -0.406,0 -1.721,0.45 -2.924,1 -1.202,0.55 -2.394,1 -2.65,1 -0.255,0 -0.941,0.336 -1.525,0.748 -0.584,0.411 -1.486,0.879 -2.003,1.04 -0.518,0.16 -1.598,0.727 -2.4,1.259 -0.803,0.532 -1.797,1.189 -2.211,1.46 -3.062,2.006 -8.642,7.608 -10.248,10.289 -0.55,0.918 -1.405,2.175 -1.9,2.794 -0.495,0.619 -0.9,1.421 -0.9,1.782 0,0.361 -0.268,1.065 -0.595,1.564 -0.73,1.114 -2.044,4.849 -2.837,8.064 -0.326,1.32 -0.845,3.12 -1.154,4 -0.308,0.88 -0.672,3.04 -0.808,4.8 -0.136,1.76 -0.52,4.263 -0.854,5.562 -0.471,1.836 -0.682,6.538 -0.944,21.082 -0.186,10.296 -0.428,18.864 -0.536,19.04 -0.461,0.745 -1.118,31.379 -0.685,31.901 0.581,0.699 3.323,1.37 8.294,2.029 2.244,0.298 4.906,0.821 5.914,1.164 1.008,0.342 2.777,0.622 3.932,0.622 1.154,0 3.083,0.276 4.286,0.614 1.203,0.337 4.077,0.868 6.387,1.18 2.31,0.311 4.92,0.759 5.8,0.994 0.88,0.236 3.194,0.605 5.142,0.821 1.948,0.216 4.468,0.655 5.6,0.974 1.132,0.32 3.408,0.702 5.058,0.849 1.65,0.147 3.59,0.508 4.311,0.802 0.722,0.294 2.702,0.647 4.4,0.784 1.699,0.137 3.996,0.498 5.104,0.802 1.108,0.304 3.663,0.74 5.678,0.968 2.014,0.228 4.079,0.573 4.588,0.767 0.509,0.193 2.634,0.569 4.722,0.835 2.088,0.266 5.237,0.812 6.997,1.214 1.76,0.401 4.51,0.846 6.112,0.988 1.601,0.142 3.491,0.495 4.2,0.784 0.708,0.289 2.791,0.651 4.627,0.806 1.837,0.154 4.177,0.532 5.2,0.841 1.024,0.308 3.211,0.674 4.861,0.814 1.65,0.139 4.26,0.576 5.8,0.97 1.54,0.394 4.15,0.838 5.8,0.986 1.65,0.148 3.952,0.615 5.115,1.038 1.163,0.423 3.143,0.773 4.4,0.779 1.257,0.005 3.005,0.201 3.885,0.437 0.88,0.235 3.31,0.685 5.4,1 2.09,0.316 5.06,0.834 6.6,1.152 1.54,0.318 4.278,0.771 6.084,1.006 1.807,0.236 4.147,0.673 5.2,0.97 1.054,0.298 3.255,0.655 4.892,0.793 1.636,0.139 3.769,0.521 4.738,0.85 0.97,0.329 3.141,0.701 4.825,0.826 1.683,0.125 3.871,0.471 4.861,0.77 0.99,0.298 2.88,0.65 4.2,0.783 1.32,0.133 4.02,0.578 6,0.99 1.98,0.412 5.13,0.955 7,1.208 1.87,0.253 4.171,0.717 5.114,1.032 0.943,0.315 2.787,0.573 4.098,0.573 1.312,0 3.421,0.346 4.686,0.769 1.266,0.422 3.742,0.891 5.502,1.04 1.76,0.15 4.55,0.611 6.2,1.026 1.65,0.414 3.72,0.758 4.6,0.764 0.88,0.006 2.995,0.353 4.7,0.772 1.705,0.418 4.495,0.887 6.2,1.042 1.705,0.155 3.68,0.519 4.388,0.809 0.709,0.29 2.599,0.646 4.2,0.791 1.602,0.146 3.992,0.535 5.312,0.865 1.32,0.331 3.66,0.738 5.2,0.906 2.543,0.278 5.96,0.874 15.2,2.65 1.76,0.339 4.73,0.788 6.6,0.999 1.87,0.211 3.831,0.568 4.358,0.793 0.526,0.225 2.996,0.662 5.488,0.971 2.492,0.31 4.865,0.741 5.273,0.96 0.409,0.218 2.169,0.515 3.912,0.66 1.743,0.145 4.519,0.585 6.169,0.978 1.65,0.394 4.346,0.848 5.991,1.01 1.644,0.162 3.714,0.556 4.6,0.876 0.885,0.321 3.361,0.74 5.503,0.933 2.141,0.193 4.234,0.534 4.651,0.757 0.416,0.222 2.804,0.676 5.306,1.008 2.502,0.332 5.124,0.772 5.827,0.978 0.703,0.206 2.503,0.493 4,0.638 1.497,0.145 4.162,0.595 5.922,1.001 1.76,0.406 4.37,0.845 5.8,0.976 1.43,0.131 3.49,0.507 4.579,0.837 1.088,0.33 3.248,0.704 4.8,0.831 1.551,0.127 3.631,0.472 4.621,0.767 0.99,0.295 3.667,0.741 5.949,0.993 2.282,0.251 4.587,0.624 5.122,0.827 0.536,0.204 2.629,0.555 4.651,0.781 2.023,0.226 5.118,0.755 6.878,1.176 1.76,0.421 4.415,0.86 5.9,0.976 l 2.7,0.21 v -20.696 -20.696 l -3.9,-0.881 c -2.145,-0.484 -4.974,-1 -6.288,-1.146 -1.313,-0.146 -2.933,-0.486 -3.6,-0.757 -0.666,-0.27 -2.605,-0.612 -4.308,-0.759 -1.703,-0.147 -3.83,-0.526 -4.726,-0.843 -0.897,-0.316 -2.834,-0.686 -4.304,-0.821 -1.471,-0.135 -3.934,-0.573 -5.474,-0.972 -1.54,-0.4 -3.941,-0.844 -5.335,-0.987 -1.394,-0.143 -3.644,-0.59 -5,-0.994 -1.356,-0.404 -3.725,-0.831 -5.265,-0.949 -1.54,-0.119 -3.43,-0.476 -4.2,-0.795 -0.77,-0.319 -2.84,-0.71 -4.6,-0.869 -1.76,-0.158 -3.51,-0.453 -3.889,-0.655 -0.379,-0.202 -2.623,-0.638 -4.987,-0.97 -2.364,-0.332 -5.319,-0.868 -6.568,-1.192 -1.25,-0.323 -2.786,-0.588 -3.415,-0.588 -0.628,0 -2.942,-0.448 -5.142,-0.995 -2.199,-0.548 -4.77,-0.998 -5.712,-1 -0.942,-0.003 -2.338,-0.266 -3.102,-0.585 -0.764,-0.32 -2.513,-0.689 -3.887,-0.822 -1.374,-0.132 -4.118,-0.576 -6.098,-0.985 -3.616,-0.746 -9.132,-1.754 -13.6,-2.484 -1.32,-0.216 -3.48,-0.66 -4.8,-0.986 -1.32,-0.326 -3.93,-0.77 -5.8,-0.987 -1.87,-0.218 -4.046,-0.643 -4.835,-0.946 -0.789,-0.304 -3.191,-0.747 -5.337,-0.987 -2.147,-0.239 -4.201,-0.591 -4.565,-0.781 -0.365,-0.191 -2.709,-0.643 -5.209,-1.005 -2.501,-0.362 -4.841,-0.815 -5.2,-1.007 -0.36,-0.192 -2.3,-0.548 -4.313,-0.792 -2.012,-0.245 -4.42,-0.713 -5.35,-1.041 -0.93,-0.328 -2.434,-0.599 -3.341,-0.602 -0.908,-0.002 -3.065,-0.352 -4.795,-0.777 -1.73,-0.424 -4.16,-0.884 -5.4,-1.022 -1.24,-0.138 -3.695,-0.583 -5.455,-0.989 -1.76,-0.406 -4.353,-0.864 -5.763,-1.019 -1.409,-0.155 -3.119,-0.506 -3.8,-0.782 -0.68,-0.275 -2.538,-0.615 -4.129,-0.755 -1.591,-0.14 -3.661,-0.515 -4.6,-0.833 -0.939,-0.318 -2.968,-0.694 -4.508,-0.835 -1.54,-0.142 -4.06,-0.587 -5.6,-0.991 -1.54,-0.403 -3.97,-0.858 -5.4,-1.012 -1.43,-0.154 -3.41,-0.534 -4.4,-0.844 -0.99,-0.31 -3.403,-0.739 -5.363,-0.953 -1.96,-0.214 -3.786,-0.574 -4.058,-0.8 -0.272,-0.226 -2.179,-0.598 -4.237,-0.827 -2.058,-0.229 -4.552,-0.659 -5.542,-0.955 -0.99,-0.296 -2.88,-0.654 -4.2,-0.795 -1.32,-0.141 -3.899,-0.605 -5.732,-1.031 -1.832,-0.426 -3.902,-0.778 -4.6,-0.781 -0.697,-0.004 -2.691,-0.365 -4.429,-0.803 -1.739,-0.438 -4.66,-0.967 -6.491,-1.175 -1.831,-0.208 -3.677,-0.564 -4.101,-0.791 -0.425,-0.227 -2.537,-0.61 -4.695,-0.851 -2.157,-0.24 -4.211,-0.592 -4.565,-0.781 -0.354,-0.189 -2.25,-0.556 -4.215,-0.815 -1.965,-0.259 -4.906,-0.81 -6.536,-1.225 -1.63,-0.414 -3.555,-0.753 -4.276,-0.753 -1.696,0 -1.999,-0.548 -1.091,-1.976 1.549,-2.439 8.612,-6.82 11.006,-6.826 0.509,-0.002 1.465,-0.289 2.125,-0.64 3.791,-2.011 92.429,-3.2 137,-1.836 8.69,0.266 24.35,0.665 34.8,0.888 10.45,0.223 22.302,0.671 26.338,0.997 4.036,0.326 10.426,0.602 14.2,0.614 7.517,0.023 17.891,0.501 25.062,1.156 2.53,0.231 10.45,0.608 17.6,0.837 7.15,0.23 14.44,0.571 16.2,0.758 4.336,0.46 5.8,-0.15 5.8,-2.418 0,-0.855 -0.166,-1.554 -0.368,-1.554 -0.658,0 -0.845,-2.024 -1.222,-13.2 -0.204,-6.05 -0.642,-14.87 -0.973,-19.6 -0.331,-4.73 -0.796,-12.734 -1.034,-17.788 -0.237,-5.053 -0.518,-9.553 -0.623,-10 -0.106,-0.446 -0.449,-3.303 -0.764,-6.348 -0.358,-3.475 -0.803,-5.89 -1.194,-6.486 -0.342,-0.522 -0.622,-1.226 -0.622,-1.563 0,-1.044 -2.618,-3.563 -4.861,-4.677 -4.012,-1.992 -5.292,-2.398 -9.315,-2.955 -2.213,-0.306 -5.194,-0.727 -6.624,-0.934 -1.43,-0.208 -5.93,-0.497 -10,-0.643 -4.07,-0.146 -10.37,-0.523 -14,-0.838 -3.63,-0.314 -11.46,-0.755 -17.4,-0.979 -5.94,-0.224 -12.6,-0.586 -14.8,-0.804 -2.2,-0.219 -11.74,-0.673 -21.2,-1.01 -9.46,-0.338 -19,-0.78 -21.2,-0.983 -10.077,-0.93 -77.768,-1.33 -124.2,-0.733 M 0,197.348 V 220.8 l 1.9,0.006 c 1.045,0.003 2.63,0.26 3.523,0.571 0.892,0.311 3.474,0.77 5.737,1.019 2.264,0.249 4.541,0.614 5.06,0.812 0.52,0.197 3.027,0.632 5.57,0.966 2.544,0.333 4.943,0.776 5.33,0.983 0.388,0.208 2.049,0.499 3.692,0.648 1.644,0.149 4.453,0.614 6.243,1.033 1.79,0.419 3.957,0.762 4.816,0.762 0.858,0 2.564,0.261 3.79,0.581 1.226,0.319 3.829,0.786 5.784,1.038 1.955,0.252 5.085,0.79 6.955,1.197 1.87,0.407 4.57,0.85 6,0.987 1.43,0.136 3.32,0.483 4.2,0.772 0.88,0.289 3.102,0.651 4.937,0.806 1.835,0.154 4.042,0.529 4.904,0.833 0.862,0.305 2.96,0.669 4.663,0.81 1.703,0.141 4.446,0.578 6.096,0.971 1.65,0.394 4.35,0.848 6,1.01 1.65,0.162 3.81,0.544 4.8,0.848 0.99,0.303 3.49,0.732 5.555,0.952 2.065,0.22 4.495,0.651 5.4,0.956 0.905,0.306 3.085,0.682 4.845,0.836 1.76,0.153 4.1,0.522 5.2,0.82 1.1,0.298 3.774,0.746 5.943,0.995 2.168,0.248 4.778,0.706 5.8,1.016 1.021,0.31 2.577,0.565 3.458,0.568 0.88,0.002 3.4,0.452 5.6,0.999 2.199,0.548 4.921,0.998 6.049,1 1.127,0.003 2.76,0.256 3.628,0.562 0.868,0.306 3.512,0.765 5.874,1.019 2.363,0.255 4.69,0.63 5.172,0.834 0.482,0.204 3.101,0.65 5.821,0.99 2.72,0.341 5.28,0.799 5.689,1.018 0.41,0.22 2.505,0.567 4.655,0.772 2.151,0.205 4.635,0.629 5.521,0.942 0.885,0.313 3.135,0.697 5,0.853 1.864,0.157 4.119,0.525 5.009,0.818 0.891,0.293 2.961,0.654 4.6,0.803 1.64,0.148 4.421,0.598 6.181,0.999 1.76,0.402 4.37,0.847 5.8,0.989 1.43,0.143 3.5,0.504 4.6,0.802 1.1,0.299 3.71,0.745 5.8,0.991 2.09,0.246 4.688,0.71 5.773,1.03 1.085,0.321 2.795,0.587 3.8,0.593 1.005,0.005 2.547,0.184 3.427,0.398 4.164,1.011 7.33,1.591 8.68,1.592 0.815,0 2.522,0.271 3.795,0.603 1.273,0.331 3.937,0.798 5.92,1.037 1.983,0.239 4.325,0.675 5.205,0.97 0.88,0.295 3.04,0.645 4.8,0.777 1.76,0.133 4.01,0.503 5,0.822 0.99,0.32 3.42,0.741 5.4,0.937 1.98,0.195 5.04,0.638 6.8,0.983 1.76,0.345 4.28,0.772 5.6,0.949 2.302,0.309 2.405,0.372 2.52,1.544 0.167,1.714 -4.801,6.209 -7.925,7.17 -0.547,0.168 -1.209,0.477 -1.471,0.686 -0.262,0.209 -2.152,0.928 -4.2,1.598 l -3.724,1.217 -49.8,-0.063 c -45.976,-0.059 -98.88,-0.585 -99.536,-0.99 -0.152,-0.095 -10.084,-0.379 -22.071,-0.632 -11.986,-0.253 -24.313,-0.624 -27.393,-0.823 -3.08,-0.2 -13.07,-0.632 -22.2,-0.961 -9.13,-0.329 -18.441,-0.791 -20.692,-1.027 C 25.768,276.068 7.164,275.279 0.9,275.21 0.026,275.2 0,275.316 0,279.2 c 0,3.289 0.107,4 0.6,4 0.383,0 0.607,0.397 0.619,1.1 0.19,10.981 0.886,28.31 1.361,33.9 0.337,3.96 0.801,11.61 1.032,17 0.231,5.39 0.591,10.88 0.802,12.2 0.21,1.32 0.559,4.325 0.776,6.678 0.282,3.053 0.625,4.656 1.201,5.6 0.443,0.727 0.811,1.592 0.816,1.922 0.016,0.959 2.817,3.171 5.593,4.417 0.55,0.247 1.63,0.773 2.4,1.168 0.77,0.395 2.75,0.845 4.4,1 1.65,0.155 3.99,0.521 5.2,0.814 1.21,0.293 5.44,0.641 9.4,0.775 3.96,0.134 12.15,0.594 18.2,1.023 14.495,1.027 32.184,1.99 44.8,2.44 11.453,0.408 23.77,1.009 33.6,1.641 9.149,0.588 135.029,0.597 144.2,0.011 13.478,-0.862 21.77,-1.301 31.4,-1.664 12.786,-0.481 26.005,-1.453 33,-2.427 3.08,-0.429 6.86,-0.899 8.4,-1.043 1.54,-0.145 3.109,-0.422 3.486,-0.616 0.378,-0.194 2.244,-0.624 4.147,-0.956 1.904,-0.332 3.84,-0.869 4.303,-1.193 0.463,-0.325 1.207,-0.592 1.653,-0.594 0.446,-0.002 1.711,-0.446 2.811,-0.987 1.1,-0.541 2.242,-0.99 2.538,-0.996 0.296,-0.007 1.016,-0.349 1.6,-0.761 0.584,-0.411 1.512,-0.885 2.062,-1.053 0.55,-0.169 1.09,-0.429 1.2,-0.579 0.11,-0.15 1.28,-0.975 2.6,-1.833 3.888,-2.527 8.363,-6.871 10.494,-10.187 0.778,-1.21 1.75,-2.688 2.16,-3.284 0.41,-0.596 0.747,-1.316 0.747,-1.6 10e-4,-0.284 0.34,-1.071 0.754,-1.749 0.414,-0.679 0.881,-1.822 1.04,-2.542 0.158,-0.72 0.609,-2.055 1.002,-2.967 0.393,-0.912 0.842,-2.556 0.997,-3.653 0.156,-1.097 0.538,-2.486 0.848,-3.087 0.311,-0.601 0.745,-3.311 0.966,-6.022 0.22,-2.711 0.588,-5.551 0.819,-6.312 0.24,-0.797 0.573,-9.448 0.783,-20.384 0.201,-10.45 0.544,-22.33 0.763,-26.4 0.219,-4.07 0.514,-11.3 0.656,-16.067 l 0.257,-8.668 -1.343,-0.7 c -0.739,-0.386 -3.084,-0.929 -5.213,-1.207 -2.128,-0.278 -4.7,-0.788 -5.714,-1.132 -1.014,-0.344 -2.603,-0.628 -3.53,-0.631 -0.927,-0.002 -3.126,-0.36 -4.886,-0.796 -1.76,-0.435 -4.687,-0.978 -6.505,-1.207 -1.818,-0.229 -3.744,-0.583 -4.28,-0.786 -0.536,-0.204 -2.559,-0.568 -4.495,-0.809 -1.936,-0.241 -4.15,-0.687 -4.92,-0.991 -0.77,-0.304 -2.746,-0.67 -4.39,-0.813 -1.645,-0.143 -3.715,-0.512 -4.6,-0.82 -0.886,-0.308 -2.78,-0.672 -4.21,-0.809 -1.43,-0.136 -3.95,-0.573 -5.6,-0.972 -1.65,-0.398 -4.131,-0.847 -5.514,-0.999 -1.383,-0.151 -3.633,-0.615 -5,-1.031 -1.367,-0.416 -3.318,-0.757 -4.334,-0.759 -1.016,-0.002 -2.906,-0.339 -4.2,-0.75 -1.294,-0.411 -3.612,-0.874 -5.152,-1.031 -1.54,-0.156 -3.7,-0.53 -4.8,-0.831 -1.1,-0.301 -3.08,-0.662 -4.4,-0.802 -1.32,-0.139 -3.93,-0.585 -5.8,-0.99 -1.87,-0.406 -4.57,-0.926 -6,-1.157 -1.43,-0.231 -3.584,-0.695 -4.787,-1.031 -1.203,-0.336 -3.026,-0.611 -4.051,-0.611 -1.026,0 -2.471,-0.252 -3.213,-0.561 -0.742,-0.308 -3.011,-0.761 -5.042,-1.007 -2.032,-0.246 -4.105,-0.603 -4.608,-0.794 -0.503,-0.192 -2.891,-0.64 -5.307,-0.997 -2.415,-0.357 -5.276,-0.917 -6.356,-1.245 -1.08,-0.328 -2.716,-0.596 -3.636,-0.596 -0.92,0 -2.556,-0.283 -3.636,-0.628 -1.08,-0.345 -3.674,-0.877 -5.764,-1.181 -2.09,-0.304 -5.06,-0.821 -6.6,-1.148 -1.54,-0.328 -3.97,-0.786 -5.4,-1.019 -7.827,-1.273 -10.376,-1.75 -12.042,-2.249 -1.013,-0.304 -3.353,-0.734 -5.2,-0.955 -1.847,-0.221 -4.078,-0.668 -4.958,-0.993 -0.88,-0.326 -2.417,-0.6 -3.416,-0.609 -0.999,-0.01 -2.799,-0.271 -4,-0.581 -1.201,-0.309 -3.624,-0.781 -5.384,-1.048 -1.76,-0.266 -4.64,-0.809 -6.4,-1.205 -1.76,-0.396 -4.361,-0.838 -5.78,-0.981 -1.42,-0.144 -2.921,-0.443 -3.337,-0.666 -0.416,-0.222 -2.623,-0.649 -4.905,-0.949 -2.282,-0.3 -4.471,-0.716 -4.864,-0.925 -0.393,-0.209 -1.974,-0.501 -3.514,-0.649 -1.54,-0.147 -4.24,-0.602 -6,-1.011 -1.76,-0.409 -4.28,-0.865 -5.6,-1.013 -1.32,-0.148 -3.57,-0.598 -5,-1 -1.43,-0.401 -3.802,-0.837 -5.271,-0.968 -1.468,-0.131 -3.268,-0.483 -4,-0.783 -0.731,-0.3 -2.762,-0.675 -4.514,-0.834 -1.751,-0.159 -3.615,-0.453 -4.141,-0.653 -0.526,-0.2 -2.783,-0.635 -5.015,-0.966 -2.233,-0.331 -4.987,-0.869 -6.121,-1.194 -1.133,-0.326 -2.68,-0.592 -3.436,-0.592 -0.756,0 -2.791,-0.362 -4.523,-0.805 -1.732,-0.443 -4.636,-0.975 -6.455,-1.181 -1.818,-0.207 -3.625,-0.547 -4.016,-0.756 -0.391,-0.21 -2.51,-0.596 -4.708,-0.858 -2.198,-0.262 -4.268,-0.619 -4.598,-0.793 -0.331,-0.173 -2.132,-0.521 -4.002,-0.772 -1.87,-0.251 -4.12,-0.641 -5,-0.868 -0.88,-0.227 -2.23,-0.578 -3,-0.78 -0.77,-0.202 -2.036,-0.372 -2.813,-0.377 -0.777,-0.006 -2.397,-0.292 -3.6,-0.637 -1.203,-0.345 -3.897,-0.868 -5.987,-1.162 -2.09,-0.295 -4.88,-0.82 -6.2,-1.167 -1.32,-0.347 -3.136,-0.634 -4.036,-0.638 -0.9,-0.003 -2.52,-0.272 -3.6,-0.597 -1.08,-0.325 -3.943,-0.882 -6.361,-1.238 -2.419,-0.356 -4.669,-0.792 -5.001,-0.968 -0.331,-0.177 -2.248,-0.521 -4.261,-0.765 -2.012,-0.245 -4.301,-0.713 -5.087,-1.041 -0.786,-0.328 -2.278,-0.597 -3.316,-0.597 -1.704,0 -4.56,-0.537 -8.584,-1.613 -0.796,-0.213 -2.056,-0.389 -2.8,-0.392 -0.745,-0.002 -2.344,-0.269 -3.554,-0.592 -1.21,-0.323 -3.64,-0.779 -5.4,-1.013 -1.76,-0.234 -4.01,-0.679 -5,-0.988 -0.99,-0.31 -3.285,-0.685 -5.1,-0.834 L 0,173.897 v 23.451"
       id="path1" />
  </g>
</svg>
