<?xml version="1.0" encoding="UTF-8" standalone="no"?>
<svg
   xmlns:dc="http://purl.org/dc/elements/1.1/"
   xmlns:cc="http://creativecommons.org/ns#"
   xmlns:rdf="http://www.w3.org/1999/02/22-rdf-syntax-ns#"
   xmlns:svg="http://www.w3.org/2000/svg"
   xmlns="http://www.w3.org/2000/svg"
   xmlns:sodipodi="http://sodipodi.sourceforge.net/DTD/sodipodi-0.dtd"
   xmlns:inkscape="http://www.inkscape.org/namespaces/inkscape"
   inkscape:version="1.0 (4035a4fb49, 2020-05-01)"
   sodipodi:docname="shell.svg"
   id="svg10"
   version="1.1"
   viewBox="0 0 175.74803 163.09912"
   height="2115.3572"
   width="2279.4106">
  <metadata
     id="metadata16">
    <rdf:RDF>
      <cc:Work
         rdf:about="">
        <dc:format>image/svg+xml</dc:format>
        <dc:type
           rdf:resource="http://purl.org/dc/dcmitype/StillImage" />
      </cc:Work>
    </rdf:RDF>
  </metadata>
  <defs
     id="defs14" />
  <sodipodi:namedview
     inkscape:current-layer="svg10"
     inkscape:window-maximized="1"
     inkscape:window-y="441"
     inkscape:window-x="1609"
     inkscape:cy="1057.6728"
     inkscape:cx="1139.7051"
     inkscape:zoom="0.32"
     showgrid="false"
     id="namedview12"
     inkscape:window-height="2066"
     inkscape:window-width="5160"
     inkscape:pageshadow="2"
     inkscape:pageopacity="0"
     guidetolerance="10"
     gridtolerance="10"
     objecttolerance="10"
     borderopacity="1"
     bordercolor="#666666"
     pagecolor="#ffffff" />
  <path
     id="path4"
     fill="#ffffff"
     d="m 160.74,38.901112 a 88.642,88.642 0 0 1 8.029,14.873 c 0,10e-4 0.002,-0.002 0.004,-0.001 a 85.782,85.782 0 0 1 5.221,16.675 87.406,87.406 0 0 1 1.754,17.493 87.02,87.02 0 0 1 -0.455,8.746 101.398,101.398 0 0 1 -1.303,8.872998 l -0.203,1.062 -26.066,18.879 -4.217,33.533 H 98.533 l -1.635,1.09 a 13.974,13.974 0 0 1 -4.189,2.229 h -0.01 c -1.531,0.504 -3.139,0.746 -4.825,0.746 -1.721,0 -3.327,-0.242 -4.857,-0.746 h -0.011 c -1.468,-0.482 -2.841,-1.207 -4.156,-2.186 l -1.84,-1.133 H 32.454 l -4.284,-33.527 -26.202,-18.885 -0.211,-1.041 A 88.197,88.197 0 0 1 0.431,96.675112 89.379,89.379 0 0 1 0,87.941112 c 0,-5.92 0.577,-11.742 1.728,-17.444 a 87.18,87.18 0 0 1 5.182,-16.713 88.862,88.862 0 0 1 8.029,-14.912 86.85,86.85 0 0 1 10.769,-13.099 87.391,87.391 0 0 1 13.017,-10.711 89.442,89.442 0 0 1 14.917,-8.0869997 c 5.496,-2.34 11.082,-4.086 16.772,-5.242 A 87.41,87.41 0 0 1 87.874,1.1227222e-4 c 5.903,0 11.737,0.58199999778 17.493,1.75300002778 a 86.827,86.827 0 0 1 16.74,5.222 88.484,88.484 0 0 1 14.855,8.0609997 c 4.656,3.141 9,6.722 13.012,10.737 0.004,0.002 -0.002,0.008 0,0.01 a 89.414,89.414 0 0 1 10.766,13.118 z" />
  <path
     id="path6"
     fill="#cc2229"
     clip-rule="evenodd"
     fill-rule="evenodd"
     d="m 166.266,54.839112 c -4.326,-10.225 -10.422,-19.271 -18.221,-27.136 -7.801,-7.8 -16.846,-13.896 -27.006,-18.2219997 -10.617,-4.522 -21.695,-6.751 -33.165,-6.751 -11.536,0 -22.547,2.229 -33.166,6.751 -10.16,4.3259997 -19.271,10.4219997 -27.07,18.2219997 -7.865,7.865 -13.896,16.911 -18.222,27.136 -4.457,10.553 -6.685,21.63 -6.685,33.101 0,5.637 0.524,11.273 1.704,17.106998 l 26.283,18.941 4.129,32.314 h 42.932 l 2.556,1.572 c 2.229,1.705 4.654,2.49 7.538,2.49 2.819,0 5.31,-0.785 7.472,-2.49 l 2.359,-1.572 h 43.392 l 4.064,-32.314 26.152,-18.941 c 1.115,-5.833998 1.705,-11.470998 1.705,-17.106998 0,-11.471 -2.228,-22.548 -6.751,-33.101 z" />
  <path
     id="path8"
     fill="#f6d330"
     clip-rule="evenodd"
     fill-rule="evenodd"
     d="m 153.682,64.540112 c -1.705,-7.21 -5.375,-13.372 -11.078,-18.353 l -39.916,68.756998 35.328,-75.376998 c -4.719,-6.227 -10.684,-10.487 -18.221,-12.913 L 95.346,112.12511 113.241,23.180112 c -5.572,-3.081 -11.471,-4.654 -17.764,-4.654 l -3.998,0.262 -3.539,92.548998 -3.736,-92.548998 -3.933,-0.262 c -6.292,0 -12.257,1.573 -17.763,4.654 L 80.205,112.12511 55.954,26.655112 c -7.538,2.426 -13.633,6.686 -18.221,12.913 L 73.258,114.94511 33.144,46.188112 c -5.702,4.981 -9.373,11.143 -11.077,18.353 L 66.769,119.46711 20.756,73.257112 c -2.098,4.72 -3.146,9.636 -3.146,14.683 0,2.818 0.328,5.832 1.114,9.045 l 25.825,18.876998 3.409,25.365 h 31.396 l 4.457,3.408 c 1.246,0.852 2.557,1.246 4.064,1.311 1.442,-0.064 2.819,-0.459 3.933,-1.311 l 4.719,-3.408 h 31.527 l 3.213,-25.365 25.758,-18.876998 c 0.721,-3.213 1.115,-6.227 1.115,-9.045 0,-5.047 -1.115,-9.963 -3.146,-14.683 l -45.75,46.207998 z" />
</svg>
