<svg id="svg" version="1.1" xmlns="http://www.w3.org/2000/svg" xmlns:xlink="http://www.w3.org/1999/xlink" width="400" height="331.10047846889955" viewBox="0, 0, 400,331.10047846889955"><g id="svgg"><path id="path0" d="M1.407 83.557 L 0.000 83.902 0.000 144.931 C 0.000 196.875,0.069 205.960,0.461 205.960 C 1.065 205.960,1.243 206.481,1.499 209.001 C 1.872 212.663,2.633 216.737,3.314 218.716 C 3.677 219.770,3.975 220.871,3.977 221.161 C 3.978 221.451,4.346 222.434,4.794 223.344 C 5.242 224.255,5.613 225.132,5.619 225.294 C 5.679 227.002,10.080 234.236,13.576 238.372 C 15.788 240.990,20.715 245.710,22.185 246.622 C 22.641 246.904,23.758 247.612,24.669 248.195 C 27.260 249.853,32.408 252.649,32.870 252.649 C 33.100 252.649,33.882 252.971,34.608 253.364 C 36.594 254.441,42.943 256.168,49.172 257.326 C 57.890 258.947,75.145 258.136,82.616 255.754 C 83.526 255.464,85.240 254.960,86.424 254.634 C 89.176 253.877,95.078 251.465,97.020 250.303 C 97.293 250.140,98.262 249.612,99.172 249.131 C 100.083 248.649,101.275 247.901,101.821 247.467 C 102.368 247.034,102.967 246.557,103.154 246.409 C 103.341 246.260,103.937 245.854,104.479 245.505 C 106.328 244.314,111.646 239.386,113.490 237.156 C 113.898 236.662,114.524 235.909,114.880 235.483 C 115.237 235.056,115.573 234.577,115.628 234.418 C 115.683 234.259,116.250 234.086,116.887 234.035 L 118.046 233.940 118.134 243.149 C 118.209 250.928,118.305 252.483,118.752 253.165 L 119.281 253.974 150.184 253.974 C 174.543 253.974,181.143 253.886,181.355 253.560 C 182.135 252.353,182.181 85.358,181.401 83.858 L 181.014 83.113 149.199 83.120 C 118.339 83.127,117.359 83.146,116.556 83.763 L 115.728 84.399 115.522 133.176 C 115.304 184.698,115.312 184.457,113.806 188.245 C 113.516 188.974,113.108 190.235,112.899 191.048 C 112.690 191.861,112.235 192.887,111.889 193.328 C 111.542 193.768,111.258 194.311,111.258 194.533 C 111.258 194.983,109.454 197.466,107.649 199.503 C 102.163 205.692,89.066 208.535,80.398 205.419 C 75.071 203.504,71.815 200.116,69.472 194.050 C 69.132 193.168,68.052 187.421,67.541 183.775 C 67.372 182.565,67.235 160.358,67.229 133.080 C 67.219 86.172,67.198 84.514,66.600 83.825 L 65.982 83.113 34.398 83.162 C 13.769 83.194,2.326 83.331,1.407 83.557 M336.589 242.022 L 335.927 242.286 336.589 242.478 C 337.974 242.880,344.100 242.730,343.956 242.298 C 343.798 241.820,337.669 241.590,336.589 242.022 M345.030 243.710 C 344.599 243.977,344.609 244.088,345.104 244.583 C 345.639 245.119,345.683 245.119,345.893 244.573 C 346.181 243.822,345.672 243.313,345.030 243.710 M333.775 244.371 C 333.775 244.735,333.906 245.033,334.065 245.033 C 334.500 245.033,335.126 244.177,334.876 243.926 C 334.422 243.473,333.775 243.735,333.775 244.371 M336.876 245.528 C 336.455 246.622,336.911 252.285,337.463 252.837 C 337.966 253.339,338.034 253.293,338.391 252.213 C 339.121 249.999,340.084 249.989,342.675 252.169 C 343.953 253.245,344.442 252.574,343.626 250.863 C 343.194 249.955,343.185 249.680,343.568 248.989 C 344.198 247.850,344.145 247.318,343.293 246.274 C 342.392 245.169,337.243 244.570,336.876 245.528 M347.020 249.834 C 347.020 252.111,347.152 253.974,347.313 253.974 C 347.764 253.974,347.897 252.405,347.743 248.894 C 347.541 244.279,347.020 244.957,347.020 249.834 M341.020 247.228 L 341.789 247.767 340.884 248.606 C 339.570 249.825,337.954 248.534,339.086 247.170 C 339.601 246.549,340.070 246.563,341.020 247.228 M331.788 249.669 C 331.788 251.214,331.926 252.318,332.119 252.318 C 332.312 252.318,332.450 251.214,332.450 249.669 C 332.450 248.124,332.312 247.020,332.119 247.020 C 331.926 247.020,331.788 248.124,331.788 249.669 M333.775 253.934 C 333.775 254.299,333.924 254.689,334.106 254.801 C 334.288 254.914,334.437 254.708,334.437 254.344 C 334.437 253.979,334.288 253.589,334.106 253.477 C 333.924 253.364,333.775 253.570,333.775 253.934 M344.850 255.108 C 344.235 255.560,344.233 255.593,344.807 255.815 C 345.541 256.099,346.315 255.454,345.827 254.966 C 345.604 254.743,345.281 254.790,344.850 255.108 M334.934 255.629 C 335.838 256.018,336.093 256.018,336.093 255.629 C 336.093 255.447,335.683 255.308,335.182 255.321 C 334.375 255.342,334.347 255.377,334.934 255.629 M337.316 257.165 C 336.791 257.690,337.638 257.945,339.837 257.924 C 342.628 257.896,344.022 257.534,342.697 257.179 C 341.652 256.900,337.592 256.889,337.316 257.165 M71.026 291.347 C 62.741 293.337,59.799 302.174,65.407 308.231 C 66.443 309.350,67.450 310.265,67.647 310.265 C 67.843 310.265,68.350 310.590,68.774 310.988 C 69.535 311.703,70.896 312.588,73.214 313.872 C 78.301 316.692,79.908 320.977,76.911 323.728 L 75.346 325.166 72.618 325.166 C 69.693 325.166,66.028 323.674,65.214 322.151 C 64.719 321.227,63.430 321.350,62.967 322.367 C 61.585 325.401,63.731 328.959,67.338 329.613 C 68.204 329.770,68.671 330.052,68.784 330.485 C 69.013 331.360,76.821 331.488,76.821 330.617 C 76.821 330.338,77.454 329.826,78.228 329.480 C 83.337 327.195,85.615 320.425,82.966 315.397 C 81.552 312.712,76.229 307.947,74.644 307.947 C 74.429 307.947,74.059 307.713,73.821 307.426 C 73.583 307.140,72.857 306.629,72.208 306.292 C 70.888 305.606,68.874 303.844,68.874 303.375 C 68.874 303.207,68.584 302.700,68.229 302.249 C 65.468 298.739,73.844 294.722,78.043 297.543 C 80.224 299.008,81.501 299.402,81.987 298.762 C 82.655 297.882,82.578 294.593,81.871 293.772 C 80.348 292.006,74.102 290.609,71.026 291.347 M274.669 291.386 C 274.123 291.551,272.590 292.002,271.263 292.389 C 253.163 297.667,253.535 324.996,271.772 329.789 C 272.616 330.011,273.179 330.353,273.179 330.642 C 273.179 331.046,274.053 331.126,278.477 331.126 C 282.903 331.126,283.775 331.046,283.775 330.642 C 283.775 330.348,284.327 330.021,285.182 329.810 C 290.515 328.492,291.523 327.705,291.654 324.757 C 291.784 321.804,291.131 321.346,288.604 322.620 C 283.359 325.261,276.842 325.980,273.042 324.336 C 270.009 323.023,269.735 322.871,268.513 321.827 C 267.892 321.297,267.300 320.862,267.197 320.862 C 267.094 320.861,266.662 320.228,266.237 319.454 C 265.812 318.680,265.280 317.823,265.054 317.550 C 264.032 316.312,263.569 310.484,264.220 307.052 C 265.207 301.844,270.943 297.213,276.920 296.796 C 279.581 296.611,284.224 297.108,284.916 297.652 C 285.108 297.803,285.861 298.112,286.589 298.338 C 287.318 298.563,288.401 299.027,288.997 299.367 C 290.546 300.252,291.391 299.412,291.391 296.987 C 291.391 294.957,290.217 293.605,287.967 293.043 C 287.209 292.854,285.621 292.385,284.437 292.002 C 282.056 291.232,276.370 290.874,274.669 291.386 M18.847 292.144 L 17.715 292.907 17.630 310.804 C 17.532 331.217,17.314 329.749,20.481 330.053 C 23.256 330.320,23.179 330.725,23.179 315.887 C 23.179 306.578,23.284 303.008,23.566 302.725 C 23.953 302.339,25.628 303.870,27.815 306.608 C 28.270 307.179,28.957 307.974,29.343 308.376 C 29.728 308.777,31.495 310.820,33.270 312.914 C 35.044 315.008,36.818 317.094,37.212 317.550 C 37.605 318.005,38.751 319.346,39.757 320.530 C 47.780 329.966,47.957 330.132,50.005 330.132 C 51.087 330.132,52.314 329.625,52.727 329.007 C 52.861 328.806,52.972 320.641,52.975 310.861 L 52.980 293.080 51.873 292.235 C 50.482 291.175,49.337 291.162,48.367 292.195 L 47.611 292.999 47.662 305.703 C 47.710 317.642,47.626 319.536,47.045 319.536 C 46.624 319.536,44.515 317.446,42.199 314.735 C 40.955 313.278,39.630 311.765,39.256 311.372 C 38.882 310.979,38.105 310.085,37.530 309.385 C 34.419 305.601,32.228 303.037,31.351 302.152 C 30.809 301.606,28.865 299.371,27.030 297.185 C 23.465 292.938,23.048 292.514,22.020 292.086 C 20.343 291.388,19.959 291.395,18.847 292.144 M93.478 292.038 C 91.994 292.943,91.956 293.364,92.146 306.870 C 92.382 323.726,93.687 326.599,102.566 329.822 C 103.158 330.037,103.642 330.418,103.642 330.669 C 103.642 331.036,104.584 331.126,108.444 331.126 C 112.450 331.126,113.245 331.045,113.245 330.638 C 113.245 330.334,113.910 329.958,115.015 329.636 C 118.678 328.572,121.460 326.202,123.405 322.489 L 124.669 320.077 124.777 306.639 C 124.899 291.529,124.878 291.391,122.476 291.391 C 119.006 291.391,118.876 291.920,118.866 306.059 C 118.857 319.729,118.809 320.109,116.827 322.023 C 111.550 327.120,102.661 326.129,98.979 320.033 L 98.179 318.709 98.013 305.945 C 97.864 294.454,97.789 293.091,97.261 292.286 C 96.539 291.185,95.038 291.087,93.478 292.038 M184.880 291.646 C 184.329 291.996,181.907 296.925,181.473 298.579 C 181.272 299.345,180.974 300.055,180.810 300.156 C 180.646 300.257,180.336 300.897,180.121 301.577 C 179.905 302.258,179.388 303.560,178.970 304.470 C 176.810 309.183,175.828 311.494,175.828 311.868 C 175.828 312.096,175.455 312.982,175.000 313.837 C 174.545 314.692,174.172 315.617,174.171 315.891 C 174.170 316.166,173.902 316.838,173.576 317.384 C 173.249 317.930,172.710 319.123,172.379 320.033 C 172.047 320.944,171.502 322.171,171.167 322.760 C 170.832 323.349,170.388 324.461,170.181 325.232 C 169.973 326.002,169.528 326.982,169.192 327.410 C 168.059 328.850,169.158 330.132,171.523 330.132 C 173.540 330.132,175.368 328.297,176.034 325.606 C 176.161 325.091,176.859 323.440,177.584 321.937 L 178.903 319.205 186.058 319.210 C 194.412 319.215,194.486 319.228,195.212 320.811 C 195.517 321.476,196.134 322.839,196.583 323.841 C 199.113 329.483,199.703 330.119,202.408 330.128 C 204.697 330.135,205.086 329.194,203.880 326.565 C 203.402 325.522,202.912 324.296,202.791 323.841 C 202.670 323.386,202.382 322.790,202.152 322.517 C 201.922 322.243,201.624 321.647,201.489 321.192 C 201.355 320.737,200.725 319.247,200.090 317.881 C 199.455 316.515,198.591 314.652,198.169 313.742 C 197.747 312.831,197.306 311.612,197.189 311.033 C 197.073 310.454,196.764 309.802,196.503 309.586 C 196.242 309.369,195.818 308.483,195.561 307.617 C 195.304 306.751,194.731 305.465,194.289 304.760 C 193.847 304.054,193.388 302.980,193.268 302.373 C 193.149 301.766,192.762 300.862,192.409 300.366 C 192.055 299.869,191.660 299.025,191.531 298.490 C 191.402 297.954,190.946 296.907,190.516 296.163 C 190.087 295.418,189.735 294.547,189.735 294.226 C 189.735 292.545,186.319 290.730,184.880 291.646 M213.907 291.621 C 212.591 292.091,212.583 292.208,212.583 310.950 C 212.583 331.434,212.372 329.967,215.312 329.967 C 218.302 329.967,218.212 330.405,218.212 315.898 C 218.212 303.627,218.385 301.595,219.335 302.685 C 219.397 302.756,220.846 304.457,222.555 306.465 C 224.264 308.473,226.357 310.932,227.206 311.929 C 228.055 312.926,229.359 314.406,230.103 315.219 C 230.848 316.031,231.457 316.782,231.457 316.888 C 231.457 316.994,232.138 317.820,232.970 318.722 C 233.802 319.625,234.882 320.886,235.371 321.523 C 235.859 322.161,236.603 323.055,237.025 323.510 C 237.446 323.965,238.766 325.483,239.957 326.884 C 242.850 330.285,245.489 331.176,246.996 329.260 C 247.894 328.118,248.087 294.986,247.207 292.882 C 246.411 290.975,243.836 290.869,242.887 292.704 C 242.463 293.524,242.384 295.678,242.384 306.482 L 242.384 319.288 241.337 319.079 C 240.762 318.964,240.068 318.551,239.795 318.162 C 238.981 317.000,233.769 310.841,232.656 309.727 C 232.087 309.158,231.250 308.221,230.795 307.645 C 230.339 307.069,229.665 306.268,229.296 305.865 C 228.927 305.462,227.972 304.313,227.173 303.311 C 226.375 302.310,225.482 301.267,225.189 300.993 C 224.700 300.537,221.579 296.946,219.081 293.964 C 217.592 292.187,215.268 291.134,213.907 291.621 M302.443 292.492 L 301.656 293.428 301.656 311.060 L 301.656 328.693 302.422 329.412 C 303.173 330.118,303.386 330.132,312.840 330.132 C 323.783 330.132,323.841 330.118,323.841 327.472 C 323.841 325.259,323.518 325.166,315.848 325.166 C 307.081 325.166,307.616 325.552,307.616 319.211 C 307.616 313.203,307.111 313.576,315.254 313.576 C 322.325 313.576,322.454 313.527,322.770 310.724 C 323.039 308.339,322.855 308.278,315.408 308.278 C 307.066 308.278,307.616 308.687,307.616 302.476 C 307.616 296.588,307.011 297.030,315.127 296.987 C 323.445 296.943,324.187 296.611,323.217 293.373 C 322.709 291.679,322.562 291.656,312.129 291.602 L 303.231 291.556 302.443 292.492 M0.000 310.941 L 0.000 330.159 2.723 330.063 C 6.576 329.927,6.281 331.505,6.287 310.993 C 6.292 290.247,6.571 291.722,2.641 291.722 L 0.000 291.722 0.000 310.941 M136.277 292.458 C 135.826 293.102,135.762 295.413,135.762 310.927 C 135.762 331.565,135.561 330.298,138.791 330.065 C 141.628 329.860,141.534 330.142,141.431 322.069 C 141.325 313.690,141.303 313.749,144.377 313.972 C 146.511 314.126,148.373 315.387,150.166 317.889 C 150.712 318.652,151.414 319.552,151.725 319.889 C 152.036 320.227,152.601 321.067,152.980 321.758 C 153.690 323.051,154.787 324.710,155.892 326.159 C 156.239 326.614,156.775 327.524,157.084 328.181 C 157.692 329.472,159.130 330.137,161.297 330.128 C 163.956 330.117,164.786 329.098,163.477 327.451 C 161.997 325.591,158.940 320.960,158.940 320.578 C 158.940 320.414,158.706 320.085,158.420 319.847 C 158.133 319.610,157.603 318.835,157.241 318.127 C 156.546 316.765,155.421 315.353,153.848 313.869 C 152.568 312.663,152.831 311.732,155.103 309.424 C 160.550 303.889,157.498 294.240,149.723 292.415 C 145.260 291.367,137.023 291.393,136.277 292.458 M147.241 296.985 C 149.510 297.424,151.219 299.025,151.485 300.959 C 152.139 305.715,150.287 307.919,145.405 308.198 C 141.281 308.433,141.315 308.482,141.450 302.409 C 141.583 296.414,142.047 295.979,147.241 296.985 M187.272 302.732 C 187.398 303.142,188.004 304.519,188.618 305.794 C 189.233 307.068,189.735 308.277,189.735 308.481 C 189.735 308.684,190.028 309.224,190.386 309.679 C 192.699 312.619,191.542 313.907,186.589 313.907 C 181.444 313.907,180.902 313.315,182.654 309.603 C 183.127 308.601,183.796 306.976,184.141 305.992 C 185.224 302.899,186.812 301.245,187.272 302.732 " stroke="none" fill="#104896" fill-rule="evenodd"></path><path id="path1" d="M327.815 34.907 C 327.815 54.105,327.903 70.045,328.012 70.328 C 328.479 71.545,332.172 68.036,364.900 35.287 C 383.749 16.425,399.358 0.993,399.585 0.993 C 399.813 0.993,400.000 0.770,400.000 0.497 C 400.000 0.058,395.769 0.000,363.907 0.000 L 327.815 0.000 327.815 34.907 M244.809 83.728 C 244.231 84.027,230.299 97.716,213.849 114.149 C 197.399 130.582,183.530 144.339,183.027 144.721 L 182.114 145.416 182.200 166.168 L 182.285 186.921 186.755 187.144 C 191.701 187.390,194.852 187.847,197.848 188.750 C 198.940 189.080,200.612 189.524,201.563 189.738 C 202.514 189.952,203.849 190.412,204.530 190.759 C 205.212 191.107,205.982 191.391,206.243 191.391 C 206.842 191.391,214.730 195.286,216.134 196.275 C 216.727 196.694,219.543 198.560,220.504 199.172 C 225.428 202.308,233.444 210.684,238.411 217.881 C 239.048 218.805,239.905 219.987,240.315 220.507 C 240.724 221.027,241.060 221.596,241.060 221.770 C 241.060 221.944,241.488 222.677,242.012 223.400 C 242.535 224.123,243.074 225.077,243.210 225.520 C 243.345 225.962,243.640 226.548,243.864 226.821 C 244.692 227.828,249.007 236.632,249.007 237.314 C 249.007 237.502,249.452 238.533,249.996 239.606 C 250.540 240.679,250.987 241.782,250.989 242.058 C 250.991 242.334,251.273 243.081,251.614 243.718 C 251.956 244.355,252.434 245.769,252.676 246.859 C 252.919 247.949,253.577 249.959,254.139 251.325 L 255.161 253.808 287.762 253.902 C 305.693 253.954,320.847 253.910,321.438 253.805 C 322.736 253.573,323.169 252.399,322.526 250.852 C 322.293 250.292,321.886 248.650,321.621 247.201 C 321.356 245.753,320.927 244.156,320.667 243.653 C 320.406 243.149,319.980 241.801,319.719 240.657 C 319.210 238.422,317.004 231.846,316.579 231.295 C 316.437 231.111,316.146 230.244,315.932 229.368 C 315.719 228.493,315.250 227.228,314.891 226.559 C 314.532 225.889,314.238 225.208,314.238 225.047 C 314.238 224.731,312.411 220.440,311.117 217.715 C 308.073 211.307,307.393 209.940,306.357 208.144 C 305.716 207.034,304.732 205.327,304.169 204.351 C 301.494 199.713,300.151 197.702,296.443 192.784 C 295.030 190.909,293.439 188.763,292.908 188.015 C 290.765 184.997,277.514 172.185,276.536 172.185 C 276.329 172.185,276.159 172.050,276.159 171.885 C 276.159 171.420,269.283 166.556,268.625 166.556 C 268.442 166.556,268.098 166.321,267.859 166.034 C 267.621 165.746,266.671 165.131,265.749 164.666 C 264.827 164.201,263.992 163.695,263.894 163.542 C 263.795 163.390,263.063 163.035,262.267 162.754 C 261.470 162.473,260.609 162.069,260.352 161.856 C 259.698 161.313,256.623 160.017,253.359 158.909 C 251.837 158.393,250.422 157.830,250.213 157.658 C 250.005 157.487,249.089 157.246,248.179 157.122 C 243.273 156.457,240.889 159.223,280.439 119.706 C 309.814 90.354,315.232 84.799,315.232 84.027 L 315.232 83.113 280.546 83.148 C 249.076 83.181,245.763 83.235,244.809 83.728 " stroke="none" fill="#ea3d35" fill-rule="evenodd"></path><path id="path2" d="M0.000 41.925 L 0.000 83.850 1.076 83.591 C 1.668 83.448,16.512 83.280,34.063 83.217 L 65.973 83.103 66.596 83.821 C 67.199 84.516,67.219 86.054,67.229 133.080 C 67.235 160.358,67.372 182.565,67.541 183.775 C 68.052 187.421,69.132 193.168,69.472 194.050 C 71.815 200.116,75.071 203.504,80.398 205.419 C 89.066 208.535,102.163 205.692,107.649 199.503 C 109.454 197.466,111.258 194.983,111.258 194.533 C 111.258 194.311,111.542 193.768,111.889 193.328 C 112.235 192.887,112.690 191.861,112.899 191.048 C 113.108 190.235,113.516 188.974,113.806 188.245 C 115.312 184.457,115.304 184.698,115.522 133.176 L 115.728 84.399 116.556 83.763 C 117.359 83.146,118.339 83.127,149.199 83.120 L 181.014 83.113 181.401 83.858 C 181.687 84.407,181.810 92.440,181.871 114.404 C 181.917 130.795,182.075 144.393,182.224 144.623 C 182.672 145.316,182.753 145.238,213.907 114.129 C 230.389 97.672,244.381 83.961,245.001 83.660 C 246.027 83.162,249.226 83.113,280.680 83.113 L 315.232 83.113 315.232 84.027 C 315.232 84.799,309.814 90.354,280.439 119.706 C 240.889 159.223,243.273 156.457,248.179 157.122 C 249.089 157.246,250.005 157.487,250.213 157.658 C 250.422 157.830,251.837 158.393,253.359 158.909 C 256.623 160.017,259.698 161.313,260.352 161.856 C 260.609 162.069,261.470 162.473,262.267 162.754 C 263.063 163.035,263.795 163.390,263.894 163.542 C 263.992 163.695,264.827 164.201,265.749 164.666 C 266.671 165.131,267.621 165.746,267.859 166.034 C 268.098 166.321,268.442 166.556,268.625 166.556 C 269.283 166.556,276.159 171.420,276.159 171.885 C 276.159 172.050,276.329 172.185,276.536 172.185 C 277.514 172.185,290.765 184.997,292.908 188.015 C 293.439 188.763,295.030 190.909,296.443 192.784 C 300.151 197.702,301.494 199.713,304.169 204.351 C 304.732 205.327,305.716 207.034,306.357 208.144 C 307.393 209.940,308.073 211.307,311.117 217.715 C 312.411 220.440,314.238 224.731,314.238 225.047 C 314.238 225.208,314.532 225.889,314.891 226.559 C 315.250 227.228,315.719 228.493,315.932 229.368 C 316.146 230.244,316.437 231.111,316.579 231.295 C 317.004 231.846,319.210 238.422,319.719 240.657 C 319.980 241.801,320.406 243.149,320.667 243.653 C 320.927 244.156,321.356 245.753,321.621 247.201 C 321.886 248.650,322.293 250.292,322.526 250.852 C 323.169 252.399,322.736 253.573,321.438 253.805 C 320.847 253.910,305.693 253.954,287.762 253.902 L 255.161 253.808 254.139 251.325 C 253.577 249.959,252.919 247.949,252.676 246.859 C 252.434 245.769,251.956 244.355,251.614 243.718 C 251.273 243.081,250.991 242.334,250.989 242.058 C 250.987 241.782,250.540 240.679,249.996 239.606 C 249.452 238.533,249.007 237.502,249.007 237.314 C 249.007 236.632,244.692 227.828,243.864 226.821 C 243.640 226.548,243.345 225.962,243.210 225.520 C 243.074 225.077,242.535 224.123,242.012 223.400 C 241.488 222.677,241.060 221.944,241.060 221.770 C 241.060 221.596,240.724 221.027,240.315 220.507 C 239.905 219.987,239.048 218.805,238.411 217.881 C 233.444 210.684,225.428 202.308,220.504 199.172 C 219.543 198.560,216.727 196.694,216.134 196.275 C 214.730 195.286,206.842 191.391,206.243 191.391 C 205.982 191.391,205.212 191.107,204.530 190.759 C 203.849 190.412,202.514 189.952,201.563 189.738 C 200.612 189.524,198.940 189.083,197.848 188.758 C 194.596 187.789,192.067 187.421,187.139 187.196 L 182.473 186.984 182.130 187.884 C 181.903 188.482,181.788 199.476,181.788 220.530 C 181.788 240.355,181.667 252.594,181.465 253.124 L 181.142 253.974 150.212 253.974 L 119.281 253.974 118.752 253.165 C 118.305 252.483,118.209 250.928,118.134 243.149 L 118.046 233.940 116.887 234.035 C 116.250 234.086,115.683 234.259,115.628 234.418 C 115.573 234.577,115.237 235.056,114.880 235.483 C 114.524 235.909,113.898 236.662,113.490 237.156 C 111.646 239.386,106.328 244.314,104.479 245.505 C 103.937 245.854,103.341 246.260,103.154 246.409 C 102.967 246.557,102.368 247.034,101.821 247.467 C 101.275 247.901,100.083 248.649,99.172 249.131 C 98.262 249.612,97.293 250.140,97.020 250.303 C 95.078 251.465,89.176 253.877,86.424 254.634 C 85.240 254.960,83.526 255.464,82.616 255.754 C 75.145 258.136,57.890 258.947,49.172 257.326 C 42.943 256.168,36.594 254.441,34.608 253.364 C 33.882 252.971,33.100 252.649,32.870 252.649 C 32.408 252.649,27.260 249.853,24.669 248.195 C 23.758 247.612,22.641 246.904,22.185 246.622 C 17.533 243.738,10.150 234.884,7.006 228.419 C 6.249 226.862,5.624 225.455,5.619 225.294 C 5.613 225.132,5.242 224.255,4.794 223.344 C 4.346 222.434,3.978 221.451,3.977 221.161 C 3.975 220.871,3.677 219.770,3.314 218.716 C 2.633 216.737,1.872 212.663,1.499 209.001 C 1.243 206.481,1.065 205.960,0.461 205.960 C 0.069 205.960,0.000 212.409,0.000 248.841 L 0.000 291.722 2.641 291.722 C 6.571 291.722,6.292 290.247,6.287 310.993 C 6.281 331.505,6.576 329.927,2.723 330.063 C 0.601 330.138,0.000 330.266,0.000 330.643 C 0.000 331.063,4.474 331.126,34.461 331.126 C 67.103 331.126,68.917 331.095,68.813 330.546 C 68.743 330.178,68.205 329.846,67.335 329.636 C 63.564 328.722,61.577 325.417,62.967 322.367 C 63.430 321.350,64.719 321.227,65.214 322.151 C 66.028 323.674,69.693 325.166,72.618 325.166 L 75.346 325.166 76.911 323.728 C 79.908 320.977,78.301 316.692,73.214 313.872 C 70.896 312.588,69.535 311.703,68.774 310.988 C 68.350 310.590,67.843 310.265,67.647 310.265 C 67.146 310.265,63.587 306.362,63.229 305.420 C 59.736 296.233,69.236 288.232,78.974 292.160 C 81.980 293.373,82.453 293.940,82.440 296.312 C 82.421 299.565,81.456 299.835,78.043 297.543 C 73.844 294.722,65.468 298.739,68.229 302.249 C 68.584 302.700,68.874 303.207,68.874 303.375 C 68.874 303.844,70.888 305.606,72.208 306.292 C 72.857 306.629,73.583 307.140,73.821 307.426 C 74.059 307.713,74.429 307.947,74.644 307.947 C 76.229 307.947,81.552 312.712,82.966 315.397 C 85.615 320.425,83.337 327.195,78.228 329.480 C 74.828 331.000,75.745 331.126,90.232 331.126 C 104.107 331.126,105.695 330.958,102.566 329.822 C 93.687 326.599,92.382 323.726,92.146 306.870 C 91.936 291.941,92.058 291.396,95.605 291.392 C 97.792 291.389,97.827 291.604,98.013 305.945 L 98.179 318.709 98.979 320.033 C 102.661 326.129,111.550 327.120,116.827 322.023 C 118.809 320.108,118.857 319.731,118.866 306.027 C 118.876 291.826,118.984 291.391,122.508 291.391 C 124.873 291.391,124.899 291.564,124.777 306.639 L 124.669 320.077 123.405 322.489 C 121.460 326.202,118.678 328.572,115.015 329.636 C 113.910 329.958,113.245 330.334,113.245 330.638 C 113.245 331.066,123.025 331.126,193.212 331.126 C 263.096 331.126,273.179 331.065,273.179 330.642 C 273.179 330.353,272.616 330.011,271.772 329.789 C 257.769 326.109,253.021 308.060,263.245 297.378 C 266.182 294.309,268.796 292.968,275.000 291.345 C 276.912 290.844,281.915 291.195,284.437 292.006 C 285.621 292.387,287.209 292.854,287.967 293.043 C 290.217 293.605,291.391 294.957,291.391 296.987 C 291.391 299.412,290.546 300.252,288.997 299.367 C 288.401 299.027,287.318 298.563,286.589 298.338 C 285.861 298.112,285.108 297.803,284.916 297.652 C 284.224 297.108,279.581 296.611,276.920 296.796 C 270.943 297.213,265.207 301.844,264.220 307.052 C 263.569 310.484,264.032 316.312,265.054 317.550 C 265.280 317.823,265.812 318.680,266.237 319.454 C 266.662 320.228,267.094 320.861,267.197 320.862 C 267.300 320.862,267.892 321.297,268.513 321.827 C 269.735 322.871,270.009 323.023,273.042 324.336 C 276.842 325.980,283.359 325.261,288.604 322.620 C 291.131 321.346,291.784 321.804,291.654 324.757 C 291.523 327.705,290.515 328.492,285.182 329.810 C 284.327 330.021,283.775 330.348,283.775 330.642 C 283.775 331.065,291.134 331.126,341.887 331.126 L 400.000 331.126 400.000 166.060 C 400.000 34.100,399.917 0.993,399.585 0.993 C 399.358 0.993,383.749 16.425,364.900 35.287 C 332.172 68.036,328.479 71.545,328.012 70.328 C 327.903 70.045,327.815 54.105,327.815 34.907 L 327.815 0.000 163.907 0.000 L 0.000 0.000 0.000 41.925 M343.956 242.298 C 344.100 242.730,337.974 242.880,336.589 242.478 L 335.927 242.286 336.589 242.022 C 337.669 241.590,343.798 241.820,343.956 242.298 M345.893 244.573 C 345.683 245.119,345.639 245.119,345.104 244.583 C 344.609 244.088,344.599 243.977,345.030 243.710 C 345.672 243.313,346.181 243.822,345.893 244.573 M334.876 243.926 C 335.126 244.177,334.500 245.033,334.065 245.033 C 333.906 245.033,333.775 244.735,333.775 244.371 C 333.775 243.735,334.422 243.473,334.876 243.926 M343.293 246.274 C 344.145 247.318,344.198 247.850,343.568 248.989 C 343.185 249.680,343.194 249.955,343.626 250.863 C 344.442 252.574,343.953 253.245,342.675 252.169 C 340.084 249.989,339.121 249.999,338.391 252.213 C 337.688 254.340,336.943 252.900,336.806 249.153 C 336.648 244.853,336.525 245.014,339.805 245.204 C 342.306 245.348,342.616 245.443,343.293 246.274 M347.743 248.894 C 347.897 252.405,347.764 253.974,347.313 253.974 C 347.152 253.974,347.020 252.111,347.020 249.834 C 347.020 244.957,347.541 244.279,347.743 248.894 M339.086 247.170 C 337.954 248.534,339.570 249.825,340.884 248.606 L 341.789 247.767 341.020 247.228 C 340.070 246.563,339.601 246.549,339.086 247.170 M332.450 249.669 C 332.450 251.214,332.312 252.318,332.119 252.318 C 331.926 252.318,331.788 251.214,331.788 249.669 C 331.788 248.124,331.926 247.020,332.119 247.020 C 332.312 247.020,332.450 248.124,332.450 249.669 M334.437 254.344 C 334.437 254.708,334.288 254.914,334.106 254.801 C 333.924 254.689,333.775 254.299,333.775 253.934 C 333.775 253.570,333.924 253.364,334.106 253.477 C 334.288 253.589,334.437 253.979,334.437 254.344 M345.784 255.673 C 345.578 255.879,345.138 255.943,344.807 255.815 C 344.233 255.593,344.235 255.560,344.850 255.108 C 345.607 254.550,346.416 255.041,345.784 255.673 M336.093 255.629 C 336.093 256.018,335.838 256.018,334.934 255.629 C 334.347 255.377,334.375 255.342,335.182 255.321 C 335.683 255.308,336.093 255.447,336.093 255.629 M342.697 257.179 C 344.022 257.534,342.628 257.896,339.837 257.924 C 337.638 257.945,336.791 257.690,337.316 257.165 C 337.592 256.889,341.652 256.900,342.697 257.179 M22.020 292.086 C 23.048 292.514,23.465 292.938,27.030 297.185 C 28.865 299.371,30.809 301.606,31.351 302.152 C 32.228 303.037,34.419 305.601,37.530 309.385 C 38.105 310.085,38.882 310.979,39.256 311.372 C 39.630 311.765,40.955 313.278,42.199 314.735 C 44.515 317.446,46.624 319.536,47.045 319.536 C 47.626 319.536,47.710 317.642,47.662 305.703 L 47.611 292.999 48.367 292.195 C 49.337 291.162,50.482 291.175,51.873 292.235 L 52.980 293.080 52.975 310.861 C 52.972 320.641,52.861 328.806,52.727 329.007 C 52.314 329.625,51.087 330.132,50.005 330.132 C 47.957 330.132,47.780 329.966,39.757 320.530 C 38.751 319.346,37.605 318.005,37.212 317.550 C 36.818 317.094,35.044 315.008,33.270 312.914 C 31.495 310.820,29.728 308.777,29.343 308.376 C 28.957 307.974,28.270 307.179,27.815 306.608 C 25.628 303.870,23.953 302.339,23.566 302.725 C 23.284 303.008,23.179 306.578,23.179 315.887 C 23.179 330.725,23.256 330.320,20.481 330.053 C 17.314 329.749,17.532 331.217,17.630 310.804 L 17.715 292.907 18.847 292.144 C 19.959 291.395,20.343 291.388,22.020 292.086 M188.609 292.517 C 189.228 293.136,189.735 293.905,189.735 294.226 C 189.735 294.547,190.087 295.418,190.516 296.163 C 190.946 296.907,191.402 297.954,191.531 298.490 C 191.660 299.025,192.055 299.869,192.409 300.366 C 192.762 300.862,193.149 301.766,193.268 302.373 C 193.388 302.980,193.847 304.054,194.289 304.760 C 194.731 305.465,195.304 306.751,195.561 307.617 C 195.818 308.483,196.242 309.369,196.503 309.586 C 196.764 309.802,197.073 310.454,197.189 311.033 C 197.306 311.612,197.747 312.831,198.169 313.742 C 198.591 314.652,199.455 316.515,200.090 317.881 C 200.725 319.247,201.355 320.737,201.489 321.192 C 201.624 321.647,201.922 322.243,202.152 322.517 C 202.382 322.790,202.670 323.386,202.791 323.841 C 202.912 324.296,203.402 325.522,203.880 326.565 C 205.086 329.194,204.697 330.135,202.408 330.128 C 199.703 330.119,199.113 329.483,196.583 323.841 C 194.283 318.713,195.427 319.216,186.058 319.210 L 178.903 319.205 177.584 321.937 C 176.859 323.440,176.161 325.091,176.034 325.606 C 175.368 328.297,173.540 330.132,171.523 330.132 C 169.158 330.132,168.059 328.850,169.192 327.410 C 169.528 326.982,169.973 326.002,170.181 325.232 C 170.388 324.461,170.832 323.349,171.167 322.760 C 171.502 322.171,172.047 320.944,172.379 320.033 C 172.710 319.123,173.249 317.930,173.576 317.384 C 173.902 316.838,174.170 316.166,174.171 315.891 C 174.172 315.617,174.545 314.692,175.000 313.837 C 175.455 312.982,175.828 312.096,175.828 311.868 C 175.828 311.494,176.810 309.183,178.970 304.470 C 179.388 303.560,179.905 302.258,180.121 301.577 C 180.336 300.897,180.646 300.257,180.810 300.156 C 180.974 300.055,181.272 299.345,181.473 298.579 C 181.907 296.925,184.329 291.996,184.880 291.646 C 185.866 291.018,187.490 291.397,188.609 292.517 M216.643 292.060 C 217.415 292.428,218.512 293.285,219.081 293.964 C 221.579 296.946,224.700 300.537,225.189 300.993 C 225.482 301.267,226.375 302.310,227.173 303.311 C 227.972 304.313,228.927 305.462,229.296 305.865 C 229.665 306.268,230.339 307.069,230.795 307.645 C 231.250 308.221,232.087 309.158,232.656 309.727 C 233.769 310.841,238.981 317.000,239.795 318.162 C 240.068 318.551,240.762 318.964,241.337 319.079 L 242.384 319.288 242.384 306.482 C 242.384 295.678,242.463 293.524,242.887 292.704 C 243.836 290.869,246.411 290.975,247.207 292.882 C 248.087 294.986,247.894 328.118,246.996 329.260 C 245.489 331.176,242.850 330.285,239.957 326.884 C 238.766 325.483,237.446 323.965,237.025 323.510 C 236.603 323.055,235.859 322.161,235.371 321.523 C 234.882 320.886,233.802 319.625,232.970 318.722 C 232.138 317.820,231.457 316.994,231.457 316.888 C 231.457 316.782,230.848 316.031,230.103 315.219 C 229.359 314.406,228.055 312.926,227.206 311.929 C 226.357 310.932,224.264 308.473,222.555 306.465 C 220.846 304.457,219.397 302.756,219.335 302.685 C 218.385 301.595,218.212 303.627,218.212 315.898 C 218.212 330.405,218.302 329.967,215.312 329.967 C 212.372 329.967,212.583 331.434,212.583 310.950 C 212.583 292.208,212.591 292.091,213.907 291.621 C 214.782 291.308,215.209 291.377,216.643 292.060 M321.934 291.886 C 323.782 292.370,323.963 296.226,322.161 296.729 C 321.719 296.853,318.554 296.969,315.127 296.987 C 307.011 297.030,307.616 296.588,307.616 302.476 C 307.616 308.687,307.066 308.278,315.408 308.278 C 322.855 308.278,323.039 308.339,322.770 310.724 C 322.454 313.527,322.325 313.576,315.254 313.576 C 307.111 313.576,307.616 313.203,307.616 319.211 C 307.616 325.552,307.081 325.166,315.848 325.166 C 323.518 325.166,323.841 325.259,323.841 327.472 C 323.841 330.118,323.783 330.132,312.840 330.132 C 303.386 330.132,303.173 330.118,302.422 329.412 L 301.656 328.693 301.656 311.060 L 301.656 293.428 302.443 292.492 L 303.231 291.556 312.129 291.602 C 317.022 291.627,321.435 291.755,321.934 291.886 M149.723 292.415 C 157.498 294.240,160.550 303.889,155.103 309.424 C 152.831 311.732,152.568 312.663,153.848 313.869 C 155.421 315.353,156.546 316.765,157.241 318.127 C 157.603 318.835,158.133 319.610,158.420 319.847 C 158.706 320.085,158.940 320.414,158.940 320.578 C 158.940 320.960,161.997 325.591,163.477 327.451 C 164.786 329.098,163.956 330.117,161.297 330.128 C 159.130 330.137,157.692 329.472,157.084 328.181 C 156.775 327.524,156.239 326.614,155.892 326.159 C 154.787 324.710,153.690 323.051,152.980 321.758 C 152.601 321.067,152.036 320.227,151.725 319.889 C 151.414 319.552,150.712 318.652,150.166 317.889 C 148.373 315.387,146.511 314.126,144.377 313.972 C 141.303 313.749,141.325 313.690,141.431 322.069 C 141.534 330.142,141.628 329.860,138.791 330.065 C 135.561 330.298,135.762 331.565,135.762 310.927 C 135.762 295.413,135.826 293.102,136.277 292.458 C 137.023 291.393,145.260 291.367,149.723 292.415 M142.199 297.158 C 141.250 297.851,141.021 306.867,141.930 307.776 C 143.069 308.915,147.941 308.322,149.773 306.821 C 152.298 304.752,152.388 300.235,149.942 298.299 C 148.023 296.779,143.609 296.129,142.199 297.158 M185.613 303.094 C 185.148 303.704,184.486 305.007,184.141 305.992 C 183.796 306.976,183.127 308.601,182.654 309.603 C 180.902 313.315,181.444 313.907,186.589 313.907 C 191.542 313.907,192.699 312.619,190.386 309.679 C 190.028 309.224,189.735 308.684,189.735 308.481 C 189.735 308.277,189.233 307.068,188.618 305.794 C 188.004 304.519,187.398 303.142,187.272 302.732 C 186.958 301.716,186.605 301.794,185.613 303.094 " stroke="none" fill="#fbfbfb" fill-rule="evenodd"></path></g></svg>