<?xml version="1.0" encoding="UTF-8" standalone="no"?>
<svg
   xmlns:dc="http://purl.org/dc/elements/1.1/"
   xmlns:cc="http://creativecommons.org/ns#"
   xmlns:rdf="http://www.w3.org/1999/02/22-rdf-syntax-ns#"
   xmlns:svg="http://www.w3.org/2000/svg"
   xmlns="http://www.w3.org/2000/svg"
   xmlns:sodipodi="http://sodipodi.sourceforge.net/DTD/sodipodi-0.dtd"
   xmlns:inkscape="http://www.inkscape.org/namespaces/inkscape"
   inkscape:version="1.0 (4035a4fb49, 2020-05-01)"
   sodipodi:docname="ulster-bank.svg"
   id="svg18"
   version="1.1"
   viewBox="0 0 117.982 181.417"
   height="2352.9358"
   width="1530.1989">
  <metadata
     id="metadata24">
    <rdf:RDF>
      <cc:Work
         rdf:about="">
        <dc:format>image/svg+xml</dc:format>
        <dc:type
           rdf:resource="http://purl.org/dc/dcmitype/StillImage" />
      </cc:Work>
    </rdf:RDF>
  </metadata>
  <defs
     id="defs22" />
  <sodipodi:namedview
     inkscape:current-layer="g16"
     inkscape:window-maximized="1"
     inkscape:window-y="441"
     inkscape:window-x="1609"
     inkscape:cy="1176.4744"
     inkscape:cx="765.0994"
     inkscape:zoom="0.32"
     showgrid="false"
     id="namedview20"
     inkscape:window-height="2066"
     inkscape:window-width="5160"
     inkscape:pageshadow="2"
     inkscape:pageopacity="0"
     guidetolerance="10"
     gridtolerance="10"
     objecttolerance="10"
     borderopacity="1"
     bordercolor="#666666"
     pagecolor="#ffffff" />
  <g
     transform="translate(-37.387,-5.669)"
     id="g16"
     clip-rule="evenodd"
     fill-rule="evenodd">
    <path
       id="path4"
       d="M 37.387,5.669 H 155.369 V 187.086 H 37.387 Z"
       fill="#ffffff" />
    <path
       id="path6"
       d="M 40.698,144.041 H 152.059 V 8.98 H 40.698 Z"
       fill="#24466b" />
    <path
       id="path8"
       fill="#ffffff"
       d="m 100.125,62.133 h 11.85 l 5.926,-10.282 -5.926,-10.456 -5.924,10.282 H 94.025 Z M 84.963,36.167 h 11.851 l 6.1,10.282 5.924,-10.282 -5.924,-10.282 H 90.889 Z m 8.714,25.792 -5.75,-10.282 5.925,-10.108 H 81.827 l -5.926,10.108 5.926,10.282 z m -22.83,44.963 c 2.44,0 4.531,0 6.274,0.697 1.917,1.045 3.137,2.787 3.137,4.705 0,2.789 -2.091,4.531 -6.1,5.055 4.706,0.348 7.32,2.613 7.32,5.75 0,2.266 -1.22,4.008 -3.312,5.229 -1.742,0.871 -4.182,1.045 -7.319,1.045 h -6.971 v -0.871 h 2.091 V 107.62 h -2.091 v -0.697 h 6.971 z m -1.394,21.609 h 1.743 c 4.531,0 6.622,-1.045 6.622,-5.576 0,-3.834 -2.439,-5.055 -7.319,-5.055 h -1.045 v 10.631 z m 0,-11.328 h 1.045 c 4.009,0 6.1,-1.742 6.1,-4.879 0,-3.66 -1.917,-4.705 -5.925,-4.705 h -1.22 z m 20.564,-4.705 c 1.917,0 3.66,0.523 4.531,1.395 1.22,1.221 1.22,2.613 1.22,4.705 v 9.934 h 1.917 v 0.871 h -4.88 v -2.963 c -0.872,2.266 -2.44,3.312 -4.879,3.312 -2.789,0 -4.706,-1.744 -4.706,-4.357 0,-2.789 1.743,-4.008 5.054,-4.705 1.917,-0.523 3.485,-0.871 4.531,-1.918 v -1.393 c 0,-2.789 -0.697,-4.184 -3.137,-4.184 -2.265,0 -2.439,1.221 -3.833,5.752 h -1.046 v -5.055 c 1.394,-0.871 2.962,-1.394 5.228,-1.394 z m -1.568,9.063 c -1.394,0.697 -1.917,1.916 -1.917,3.66 0,2.266 1.045,3.484 2.614,3.484 2.091,0 3.66,-2.266 3.66,-6.447 v -2.615 c -1.569,1.046 -3.138,1.394 -4.357,1.918 z m 10.631,6.97 h 1.568 V 113.719 H 99.08 v -0.871 h 4.531 v 2.787 c 0.521,-1.916 2.266,-3.137 4.529,-3.137 4.01,0 4.357,2.266 4.357,6.449 v 9.584 h 1.742 v 0.871 h -6.273 v -0.871 h 1.744 v -9.934 c 0,-3.311 -0.176,-5.229 -2.441,-5.229 -2.09,0 -3.658,2.266 -3.658,6.1 v 9.062 h 1.742 v 0.871 H 99.08 Z m 21.26,-21.609 v 21.609 h 1.918 v 0.871 h -6.623 v -0.871 h 1.744 v -20.912 h -1.744 v -0.697 z m 8.889,5.926 v 0.871 h -1.395 l -4.879,5.402 6.273,9.41 h 1.221 v 0.871 h -4.184 l -5.576,-8.887 5.926,-6.797 h -2.441 v -0.871 h 5.055 z M 81.304,75.552 v 21.61 h 1.917 v 0.871 h -6.797 v -0.871 h 1.743 V 76.424 H 76.424 V 75.552 Z M 96.64,86.88 h -1.22 c -1.394,-4.183 -1.22,-5.054 -3.834,-5.054 -2.439,0 -4.008,1.045 -4.008,2.614 0,2.091 2.091,2.44 5.577,4.008 2.962,1.22 4.531,2.44 4.531,4.879 0,2.789 -2.614,5.229 -6.971,5.229 -2.439,0 -4.531,-0.697 -5.751,-1.742 V 91.76 h 1.394 c 1.046,4.879 1.394,6.1 4.357,6.1 2.44,0 4.008,-1.568 4.008,-3.485 0,-1.917 -1.568,-2.614 -4.357,-3.834 -3.485,-1.394 -5.577,-2.265 -5.577,-4.705 0,-2.614 2.614,-4.705 6.971,-4.705 1.395,0 3.137,0.349 4.88,1.045 z m 7.145,-8.888 v 3.486 h 3.484 v 0.871 h -3.484 v 11.85 c 0,2.091 0.348,3.136 1.742,3.136 1.568,0 2.092,-1.742 2.092,-5.228 v -0.523 h 0.697 v 1.395 c 0,3.834 -1.047,5.577 -4.008,5.577 -3.139,0 -3.66,-2.092 -3.66,-5.751 V 82.349 h -1.744 v -0.871 h 1.744 v -3.486 z m 19.867,13.593 c -0.35,4.532 -2.615,6.971 -6.273,6.971 -4.184,0 -7.494,-3.66 -7.494,-8.714 0,-5.228 3.311,-8.713 7.318,-8.713 3.834,0 6.275,2.439 6.275,6.797 v 0.522 h -10.109 c 0,0.349 -0.174,0.871 -0.174,1.394 0,5.054 1.568,7.843 4.531,7.843 2.789,0 4.705,-2.266 5.055,-6.1 z m -3.486,-4.007 v -1.22 c 0,-2.962 -1.045,-4.531 -2.963,-4.531 -2.266,0 -3.658,1.917 -3.834,5.751 z m 5.055,9.584 h 1.742 V 82.349 h -1.742 v -0.871 h 4.705 v 2.788 c 0.697,-2.091 2.266,-3.137 4.182,-3.137 0.871,0 1.568,0.174 2.266,0.522 v 6.1 h -1.045 c -0.871,-3.834 -1.221,-5.577 -2.439,-5.577 -1.395,0 -2.789,1.917 -2.789,5.751 v 9.236 h 2.439 v 0.871 h -7.318 v -0.87 z" />
    <path
       id="path10"
       d="M 40.698,183.602 H 152.059 V 177.85 H 40.698 Z"
       fill="#7d4844" />
    <path
       id="path12"
       d="M 40.698,174.016 H 152.059 V 144.041 H 40.698 Z"
       fill="#f2d747" />
    <path
       id="path14"
       fill="#ffffff"
       d="M 69.976,90.017 V 76.424 h -1.743 v -0.872 h 5.751 v 0.872 h -1.917 v 15.684 c 0,4.183 -2.266,6.448 -6.623,6.448 -5.751,0 -7.145,-2.789 -7.145,-8.191 V 76.424 h -1.917 v -0.872 h 7.668 v 0.872 h -2.265 v 14.814 c 0,4.182 1.045,6.274 4.531,6.274 3.485,0 3.66,-3.138 3.66,-3.834 z" />
  </g>
</svg>
