<svg id="svg" version="1.1" xmlns="http://www.w3.org/2000/svg" xmlns:xlink="http://www.w3.org/1999/xlink" width="400" height="443.1924882629108" viewBox="0, 0, 400,443.1924882629108"><g id="svgg"><path id="path0" d="M184.000 0.561 C 184.000 1.157,182.686 1.356,175.600 1.832 C 173.510 1.973,171.080 2.342,170.200 2.653 C 169.320 2.964,167.160 3.392,165.400 3.604 C 163.640 3.815,161.169 4.351,159.910 4.794 C 158.650 5.237,157.120 5.604,156.510 5.609 C 155.899 5.614,154.660 5.954,153.756 6.364 C 152.852 6.775,151.322 7.240,150.356 7.398 C 149.390 7.555,148.039 8.026,147.353 8.442 C 146.667 8.859,145.603 9.200,144.988 9.200 C 144.373 9.200,143.134 9.626,142.235 10.146 C 141.336 10.666,139.943 11.211,139.140 11.357 C 138.337 11.502,137.464 11.882,137.200 12.200 C 136.936 12.518,136.063 12.900,135.260 13.047 C 134.457 13.195,133.371 13.650,132.846 14.058 C 132.321 14.466,131.703 14.800,131.471 14.800 C 130.894 14.800,121.252 19.592,120.996 20.006 C 120.883 20.189,120.241 20.459,119.568 20.607 C 118.896 20.755,118.252 21.120,118.138 21.418 C 118.023 21.717,117.330 22.159,116.597 22.401 C 115.864 22.643,115.032 23.120,114.748 23.462 C 114.465 23.804,113.865 24.248,113.416 24.450 C 112.331 24.937,110.055 26.448,102.800 31.495 C 102.250 31.878,101.565 32.508,101.277 32.895 C 100.990 33.283,100.564 33.600,100.330 33.600 C 99.908 33.600,97.765 35.237,96.158 36.788 C 95.695 37.234,95.187 37.600,95.029 37.600 C 94.648 37.600,91.937 40.163,84.647 47.416 C 76.920 55.103,75.680 56.459,72.400 60.800 C 69.799 64.243,69.181 65.043,68.690 65.600 C 68.399 65.930,67.861 66.650,67.493 67.200 C 67.125 67.750,66.291 68.920,65.639 69.800 C 64.987 70.680,63.807 72.517,63.017 73.882 C 62.227 75.248,61.410 76.470,61.202 76.599 C 60.993 76.728,60.457 77.591,60.010 78.517 C 59.563 79.442,58.755 80.920,58.213 81.800 C 57.671 82.680,56.932 84.027,56.570 84.793 C 56.208 85.560,55.571 86.619,55.156 87.147 C 54.740 87.676,54.400 88.419,54.400 88.800 C 54.400 89.181,54.051 89.936,53.625 90.478 C 53.198 91.020,52.721 91.989,52.564 92.632 C 52.407 93.274,51.950 94.223,51.550 94.741 C 51.149 95.258,50.707 96.286,50.569 97.026 C 50.430 97.766,50.066 98.579,49.761 98.832 C 49.456 99.086,49.012 100.037,48.774 100.947 C 48.537 101.856,47.996 103.332,47.571 104.226 C 47.147 105.121,46.799 106.111,46.798 106.426 C 46.796 106.742,46.519 107.529,46.182 108.175 C 45.846 108.821,45.392 110.171,45.175 111.175 C 44.958 112.179,44.446 113.810,44.037 114.800 C 43.629 115.790,43.169 117.500,43.016 118.600 C 42.863 119.700,42.508 120.960,42.228 121.400 C 41.947 121.840,41.501 123.687,41.236 125.505 C 40.971 127.323,40.515 129.393,40.221 130.105 C 39.928 130.817,39.562 132.930,39.408 134.800 C 39.254 136.670,38.763 139.820,38.318 141.800 C 37.078 147.316,37.078 175.423,38.318 181.400 C 38.774 183.600,39.273 186.930,39.426 188.800 C 39.579 190.670,39.937 192.660,40.222 193.223 C 40.507 193.785,40.947 195.755,41.200 197.600 C 41.453 199.445,41.901 201.422,42.197 201.994 C 42.493 202.566,42.942 204.177,43.195 205.574 C 43.448 206.970,43.896 208.493,44.189 208.957 C 44.483 209.420,44.854 210.609,45.013 211.598 C 45.173 212.587,45.640 214.024,46.052 214.792 C 46.463 215.560,46.802 216.461,46.804 216.794 C 46.806 217.127,47.250 218.300,47.791 219.400 C 48.332 220.500,48.781 221.670,48.789 222.000 C 48.797 222.330,49.141 223.155,49.555 223.833 C 49.969 224.512,50.430 225.628,50.581 226.315 C 50.732 227.001,51.175 227.976,51.567 228.481 C 51.958 228.987,52.407 229.929,52.566 230.576 C 52.724 231.222,53.201 232.240,53.627 232.837 C 54.052 233.435,54.400 234.186,54.400 234.508 C 54.400 234.829,54.740 235.524,55.156 236.053 C 55.571 236.581,56.206 237.640,56.567 238.407 C 56.927 239.173,57.754 240.700,58.405 241.800 C 59.056 242.900,59.833 244.340,60.132 245.000 C 60.431 245.660,60.974 246.447,61.338 246.749 C 61.702 247.051,62.000 247.521,62.000 247.794 C 62.000 248.067,62.495 248.924,63.100 249.700 C 63.705 250.475,64.420 251.445,64.689 251.855 C 66.889 255.210,68.212 257.101,68.758 257.671 C 69.111 258.039,69.850 258.993,70.400 259.791 C 74.408 265.601,85.902 277.866,92.723 283.612 C 93.891 284.595,95.490 285.987,96.277 286.703 C 97.064 287.420,98.899 288.850,100.354 289.879 C 101.809 290.909,103.090 291.868,103.200 292.011 C 103.310 292.154,104.390 292.927,105.600 293.730 C 106.810 294.533,108.085 295.462,108.434 295.795 C 108.782 296.128,109.232 296.400,109.434 296.400 C 109.635 296.401,110.323 296.851,110.962 297.400 C 111.601 297.950,112.332 298.400,112.587 298.400 C 112.841 298.400,113.425 298.750,113.884 299.178 C 114.343 299.605,115.322 300.232,116.059 300.570 C 117.410 301.189,117.829 301.431,120.422 303.090 C 121.203 303.591,122.077 304.000,122.364 304.000 C 122.650 304.000,123.419 304.450,124.073 305.000 C 124.727 305.550,125.583 306.000,125.977 306.000 C 126.370 306.000,127.136 306.349,127.678 306.775 C 128.220 307.202,129.189 307.679,129.832 307.836 C 130.474 307.993,131.413 308.442,131.919 308.833 C 132.424 309.225,133.399 309.668,134.085 309.819 C 134.772 309.970,135.888 310.431,136.567 310.845 C 137.245 311.259,138.073 311.598,138.406 311.599 C 138.739 311.599,139.639 311.931,140.406 312.336 C 141.173 312.741,142.672 313.288,143.737 313.551 C 144.803 313.815,146.063 314.276,146.537 314.577 C 147.012 314.877,148.210 315.248,149.200 315.400 C 150.190 315.552,151.385 315.921,151.856 316.219 C 152.328 316.517,153.948 316.976,155.456 317.238 C 156.965 317.501,158.560 317.940,159.000 318.214 C 159.440 318.488,161.327 318.929,163.192 319.192 C 165.058 319.455,166.935 319.858,167.362 320.087 C 167.789 320.315,170.403 320.752,173.169 321.056 C 175.936 321.361,179.497 321.878,181.083 322.205 C 185.237 323.062,211.163 323.062,215.317 322.205 C 216.903 321.878,220.464 321.361,223.231 321.056 C 225.997 320.752,228.611 320.315,229.038 320.087 C 229.465 319.858,231.342 319.455,233.208 319.192 C 235.073 318.929,236.960 318.488,237.400 318.214 C 237.840 317.940,239.435 317.501,240.944 317.238 C 242.452 316.976,244.072 316.517,244.544 316.219 C 245.015 315.921,246.210 315.552,247.200 315.400 C 248.190 315.248,249.388 314.877,249.863 314.577 C 250.337 314.276,251.597 313.815,252.663 313.551 C 253.728 313.288,255.227 312.741,255.994 312.336 C 256.761 311.931,257.661 311.599,257.994 311.599 C 258.327 311.598,259.140 311.280,259.800 310.892 C 260.460 310.505,261.720 309.944,262.600 309.645 C 263.480 309.346,264.470 308.878,264.800 308.605 C 265.130 308.331,265.926 307.982,266.568 307.829 C 267.211 307.676,268.180 307.202,268.722 306.775 C 269.264 306.349,270.030 306.000,270.423 306.000 C 270.817 306.000,271.673 305.550,272.327 305.000 C 272.981 304.450,273.750 304.000,274.036 304.000 C 274.323 304.000,275.197 303.591,275.978 303.090 C 278.585 301.422,278.991 301.188,280.400 300.547 C 281.170 300.197,281.922 299.716,282.071 299.479 C 282.219 299.242,282.872 298.767,283.521 298.424 C 285.580 297.335,292.001 293.026,293.129 291.976 C 293.498 291.633,294.790 290.645,296.000 289.782 C 297.210 288.918,298.380 288.082,298.600 287.924 C 301.288 285.988,312.549 275.376,316.089 271.442 C 318.090 269.219,320.708 266.329,321.907 265.019 C 323.107 263.710,324.375 262.180,324.727 261.619 C 325.078 261.059,325.786 260.060,326.300 259.400 C 326.814 258.740,327.502 257.840,327.831 257.400 C 328.159 256.960,328.961 255.900,329.614 255.045 C 330.266 254.190,330.800 253.305,330.800 253.079 C 330.800 252.852,331.080 252.382,331.422 252.034 C 331.764 251.685,332.656 250.410,333.405 249.200 C 334.153 247.990,334.917 246.820,335.102 246.600 C 335.512 246.112,338.719 240.490,339.742 238.467 C 340.149 237.660,340.712 236.730,340.991 236.400 C 341.270 236.070,341.711 235.139,341.970 234.332 C 342.229 233.525,342.683 232.663,342.979 232.418 C 343.274 232.172,343.630 231.366,343.769 230.626 C 343.908 229.886,344.275 229.070,344.585 228.813 C 344.895 228.555,345.268 227.772,345.414 227.072 C 345.559 226.373,346.111 225.048,346.639 224.129 C 347.168 223.210,347.600 222.151,347.600 221.776 C 347.600 221.401,347.936 220.533,348.346 219.847 C 348.757 219.161,349.303 217.728,349.561 216.663 C 349.819 215.597,350.276 214.337,350.577 213.863 C 350.877 213.388,351.246 212.237,351.396 211.304 C 351.546 210.371,351.989 208.931,352.380 208.104 C 352.771 207.277,353.212 205.812,353.358 204.849 C 353.505 203.886,353.980 202.047,354.413 200.762 C 354.846 199.477,355.200 197.784,355.200 197.000 C 355.200 196.216,355.484 194.905,355.830 194.087 C 356.177 193.269,356.715 190.350,357.026 187.600 C 357.336 184.850,357.784 181.970,358.019 181.200 C 359.357 176.832,359.239 145.617,357.868 141.200 C 357.560 140.210,357.181 137.735,357.025 135.701 C 356.868 133.666,356.394 131.016,355.970 129.811 C 355.547 128.606,355.200 126.991,355.200 126.222 C 355.200 125.454,354.750 123.446,354.200 121.761 C 353.650 120.076,353.200 118.269,353.200 117.745 C 353.200 117.220,352.856 116.028,352.436 115.096 C 352.015 114.163,351.461 112.470,351.204 111.333 C 350.946 110.195,350.486 108.935,350.181 108.533 C 349.875 108.130,349.620 107.389,349.613 106.887 C 349.606 106.384,349.150 105.085,348.600 104.000 C 348.050 102.915,347.600 101.651,347.600 101.192 C 347.600 100.733,347.150 99.695,346.600 98.886 C 346.050 98.077,345.600 97.183,345.600 96.900 C 345.600 95.688,337.794 80.866,334.382 75.600 C 333.741 74.610,333.048 73.424,332.842 72.964 C 332.637 72.504,331.560 70.884,330.449 69.364 C 327.614 65.485,327.460 65.283,325.279 62.600 C 324.206 61.280,323.158 59.886,322.950 59.503 C 321.919 57.603,308.726 44.009,303.828 39.800 C 302.548 38.700,301.203 37.530,300.838 37.200 C 300.473 36.870,299.303 35.970,298.239 35.200 C 297.174 34.430,295.911 33.440,295.432 33.000 C 294.473 32.120,293.897 31.696,289.854 28.900 C 285.699 26.025,283.888 24.855,282.939 24.433 C 282.465 24.222,281.955 23.851,281.805 23.608 C 281.655 23.365,280.841 22.890,279.997 22.552 C 279.153 22.214,278.370 21.699,278.258 21.407 C 278.146 21.114,277.504 20.755,276.832 20.607 C 276.159 20.459,275.515 20.186,275.399 19.999 C 275.153 19.601,265.447 14.800,264.888 14.800 C 264.679 14.800,264.079 14.466,263.554 14.058 C 263.029 13.650,261.943 13.195,261.140 13.047 C 260.337 12.900,259.464 12.518,259.200 12.200 C 258.936 11.882,258.063 11.502,257.260 11.357 C 256.457 11.211,255.064 10.666,254.165 10.146 C 253.266 9.626,252.006 9.199,251.365 9.199 C 250.724 9.198,249.645 8.859,248.967 8.445 C 248.288 8.031,246.958 7.562,246.011 7.402 C 245.063 7.242,243.548 6.775,242.644 6.364 C 241.740 5.954,240.499 5.614,239.887 5.609 C 239.275 5.604,237.674 5.229,236.328 4.776 C 234.982 4.322,232.513 3.787,230.840 3.585 C 229.168 3.384,227.080 2.964,226.200 2.653 C 225.320 2.342,222.890 1.973,220.800 1.832 C 213.714 1.356,212.400 1.157,212.400 0.561 C 212.400 0.090,210.114 0.000,198.200 0.000 C 186.286 0.000,184.000 0.090,184.000 0.561 M169.286 57.672 C 173.527 60.621,174.855 66.858,172.016 70.495 C 171.628 70.993,171.192 71.778,171.047 72.241 C 170.902 72.703,169.662 74.136,168.292 75.424 C 166.921 76.713,165.530 78.155,165.200 78.630 C 164.870 79.104,164.060 80.258,163.400 81.193 C 161.661 83.656,160.491 85.605,159.793 87.200 C 159.456 87.970,159.004 88.870,158.787 89.200 C 158.308 89.932,157.983 90.655,156.629 94.000 C 156.050 95.430,155.301 97.129,154.964 97.775 C 154.627 98.422,154.180 99.849,153.972 100.948 C 153.764 102.046,153.348 103.227,153.047 103.572 C 152.747 103.917,152.276 104.920,152.000 105.800 C 151.724 106.680,151.274 107.670,151.000 108.000 C 150.726 108.330,150.376 109.299,150.222 110.154 C 150.069 111.009,149.596 112.356,149.172 113.148 C 148.747 113.940,148.400 114.911,148.400 115.306 C 148.400 115.701,147.950 117.093,147.400 118.400 C 146.850 119.707,146.392 121.276,146.382 121.888 C 146.364 123.073,145.568 126.332,145.134 127.003 C 144.990 127.225,144.740 128.114,144.577 128.980 C 144.415 129.846,143.964 131.105,143.574 131.777 C 143.159 132.494,142.753 134.323,142.592 136.200 C 142.376 138.726,141.996 140.074,140.787 142.600 C 139.945 144.360,139.130 146.340,138.976 147.000 C 138.823 147.660,138.379 148.740,137.991 149.400 C 137.602 150.060,137.154 151.572,136.996 152.761 C 136.838 153.950,136.437 155.570,136.105 156.361 C 135.774 157.152,135.345 159.054,135.151 160.586 C 134.958 162.119,134.550 164.099,134.244 164.986 C 133.604 166.847,132.800 171.762,132.800 173.821 C 132.800 174.595,132.544 175.627,132.231 176.114 C 131.919 176.601,131.482 178.530,131.262 180.400 C 131.042 182.270,130.578 184.784,130.231 185.987 C 129.848 187.316,129.600 189.716,129.600 192.103 C 129.600 195.298,129.444 196.338,128.765 197.669 C 128.137 198.900,127.937 200.013,127.959 202.153 C 127.977 203.886,127.611 206.565,127.023 209.000 C 126.492 211.200,125.862 215.471,125.622 218.492 C 125.383 221.512,125.003 224.466,124.779 225.056 C 124.555 225.645,124.196 228.394,123.982 231.164 C 123.768 233.934,123.237 237.640,122.801 239.400 C 122.366 241.160,122.007 243.250,122.005 244.044 C 122.000 245.588,119.914 248.709,118.520 249.260 C 114.677 250.776,111.576 248.116,110.992 242.800 C 110.835 241.370,110.370 239.120,109.958 237.800 C 109.547 236.480,109.208 234.484,109.205 233.364 C 109.202 232.244,108.843 229.932,108.406 228.225 C 107.970 226.519,107.426 223.617,107.197 221.778 C 106.969 219.939,106.429 216.762,105.997 214.717 C 105.566 212.673,105.210 210.062,105.206 208.915 C 105.203 207.769,104.861 205.339,104.447 203.515 C 104.034 201.692,103.584 198.580,103.449 196.600 C 103.314 194.620,102.920 192.100,102.574 191.000 C 102.228 189.900,101.849 187.200,101.732 185.000 C 101.615 182.800,101.196 179.917,100.802 178.593 C 100.407 177.270,99.953 174.930,99.794 173.393 C 99.635 171.857,99.256 169.993,98.952 169.251 C 98.649 168.509,98.400 167.508,98.400 167.027 C 98.400 164.820,95.688 163.985,95.613 166.169 C 95.606 166.371,95.318 166.848,94.974 167.228 C 94.630 167.608,94.102 168.793,93.800 169.860 C 92.324 175.078,89.530 182.443,87.829 185.600 C 86.213 188.600,80.312 188.682,79.160 185.719 C 78.552 184.158,78.968 180.277,79.910 178.710 C 80.344 177.990,80.813 176.636,80.953 175.703 C 81.094 174.769,81.566 173.419,82.003 172.703 C 82.440 171.986,82.798 170.949,82.799 170.397 C 82.799 169.845,83.250 168.548,83.800 167.515 C 84.350 166.482,84.800 165.161,84.800 164.580 C 84.800 163.999,85.138 163.046,85.551 162.462 C 85.964 161.878,86.436 160.590,86.599 159.600 C 86.762 158.610,87.234 157.132,87.648 156.316 C 88.062 155.500,88.400 154.369,88.400 153.804 C 88.400 153.238,88.850 151.707,89.400 150.400 C 89.950 149.093,90.400 147.701,90.400 147.306 C 90.400 146.911,90.732 145.961,91.138 145.194 C 91.543 144.427,91.993 143.194,92.137 142.453 C 93.718 134.317,99.474 130.631,103.635 135.091 C 104.560 136.083,105.200 137.164,105.200 137.736 C 105.200 138.267,105.491 139.398,105.846 140.249 C 106.202 141.099,106.736 143.956,107.034 146.598 C 107.332 149.239,107.837 152.327,108.155 153.459 C 108.473 154.592,108.861 157.202,109.017 159.259 C 109.174 161.317,109.480 163.344,109.699 163.764 C 109.918 164.185,110.335 166.229,110.625 168.307 C 110.915 170.384,111.406 172.380,111.717 172.742 C 112.043 173.122,112.461 175.118,112.706 177.467 C 112.940 179.704,113.406 182.134,113.742 182.867 C 114.096 183.640,114.424 185.796,114.522 188.000 C 114.968 197.957,115.167 198.943,116.654 198.554 C 117.514 198.329,117.757 197.175,118.613 189.227 C 118.742 188.032,119.195 185.602,119.621 183.827 C 120.046 182.052,120.402 179.880,120.411 179.000 C 120.421 178.120,120.695 176.230,121.022 174.800 C 121.348 173.370,121.872 170.490,122.187 168.400 C 122.501 166.310,123.038 163.812,123.379 162.850 C 123.721 161.887,124.004 160.357,124.008 159.450 C 124.013 158.542,124.462 156.540,125.007 155.000 C 125.551 153.460,125.997 151.617,125.998 150.904 C 125.999 150.192,126.360 148.662,126.799 147.505 C 127.239 146.347,127.714 144.500,127.854 143.400 C 127.995 142.300,128.422 140.770,128.803 140.000 C 129.185 139.230,129.627 137.520,129.787 136.200 C 129.947 134.880,130.396 133.080,130.786 132.200 C 131.176 131.320,131.614 129.816,131.759 128.858 C 131.904 127.900,132.265 126.640,132.561 126.058 C 132.856 125.476,133.304 123.801,133.555 122.336 C 133.806 120.870,134.258 119.070,134.561 118.336 C 134.863 117.601,135.244 116.190,135.406 115.200 C 135.569 114.210,136.023 112.992,136.415 112.492 C 136.806 111.993,137.250 110.688,137.401 109.592 C 137.552 108.497,137.816 107.600,137.989 107.600 C 138.392 107.600,139.072 105.812,139.380 103.940 C 139.513 103.137,139.867 102.276,140.167 102.027 C 140.467 101.778,140.828 100.809,140.968 99.874 C 141.108 98.939,141.578 97.590,142.011 96.877 C 142.445 96.164,142.802 95.180,142.804 94.690 C 142.806 94.201,143.250 92.900,143.791 91.800 C 144.332 90.700,144.781 89.440,144.789 89.000 C 144.797 88.560,145.135 87.656,145.540 86.992 C 145.945 86.327,146.409 85.078,146.571 84.214 C 146.733 83.351,147.189 82.005,147.584 81.222 C 147.980 80.440,148.575 78.990,148.907 78.000 C 150.016 74.696,150.510 73.415,151.459 71.394 C 151.976 70.291,152.400 69.094,152.400 68.735 C 152.400 68.084,153.978 64.867,155.412 62.594 C 157.083 59.945,159.605 57.543,161.638 56.665 C 163.124 56.023,167.800 56.639,169.286 57.672 M251.969 99.036 C 253.959 100.710,253.327 102.987,249.842 106.696 C 244.862 111.997,238.052 108.512,241.989 102.678 C 244.802 98.510,249.366 96.845,251.969 99.036 M289.600 103.301 L 291.000 104.987 291.012 119.194 C 291.026 135.677,291.030 135.773,291.737 136.480 C 292.032 136.775,292.488 137.418,292.751 137.908 C 293.334 138.998,294.498 139.046,296.153 138.049 C 296.839 137.635,298.075 137.081,298.900 136.817 C 299.725 136.554,300.400 136.201,300.400 136.033 C 300.400 135.865,301.120 135.490,302.000 135.200 C 302.880 134.910,303.600 134.553,303.600 134.408 C 303.600 133.408,309.728 131.511,312.093 131.779 C 316.258 132.250,318.923 136.717,316.400 139.000 C 315.960 139.398,315.600 139.984,315.600 140.302 C 315.600 140.983,312.091 144.400,311.390 144.400 C 311.125 144.400,310.458 144.754,309.909 145.186 C 309.360 145.618,308.211 146.149,307.355 146.366 C 306.500 146.582,304.810 147.123,303.600 147.567 C 302.390 148.011,301.084 148.380,300.699 148.387 C 300.313 148.394,299.325 148.760,298.504 149.200 C 297.684 149.640,296.773 150.000,296.481 150.000 C 296.189 150.000,294.746 150.564,293.275 151.253 C 287.511 153.953,282.190 156.585,282.000 156.830 C 281.890 156.971,281.125 157.329,280.300 157.624 C 279.475 157.919,278.800 158.290,278.800 158.447 C 278.800 158.605,277.990 159.043,277.000 159.421 C 276.010 159.799,275.200 160.250,275.200 160.423 C 275.200 160.596,274.525 160.955,273.700 161.220 C 272.875 161.484,271.930 161.930,271.600 162.211 C 271.270 162.491,270.370 163.008,269.600 163.360 C 267.579 164.284,264.670 165.966,264.417 166.357 C 264.298 166.541,263.753 166.832,263.208 167.002 C 262.662 167.173,261.762 167.609,261.208 167.972 C 259.319 169.209,258.601 169.620,256.953 170.405 C 256.047 170.837,255.088 171.454,254.821 171.775 C 254.554 172.096,253.720 172.562,252.968 172.811 C 252.216 173.059,251.600 173.409,251.600 173.588 C 251.600 173.767,250.915 174.187,250.077 174.522 C 249.240 174.857,248.318 175.417,248.028 175.766 C 247.739 176.115,247.267 176.400,246.980 176.400 C 246.692 176.400,246.201 176.656,245.889 176.969 C 245.576 177.281,244.681 177.866,243.900 178.269 C 243.118 178.671,241.426 179.705,240.140 180.566 C 238.853 181.427,236.630 182.886,235.200 183.809 C 225.321 190.182,223.721 191.484,223.419 193.400 C 223.246 194.500,222.847 217.728,222.729 233.600 C 222.674 240.970,223.524 249.138,224.540 251.000 C 225.211 252.231,225.097 254.493,224.315 255.481 C 224.056 255.807,224.211 256.259,224.793 256.881 C 225.372 257.501,225.586 258.125,225.451 258.800 C 225.341 259.350,225.448 260.475,225.689 261.301 C 227.577 267.769,220.028 272.724,214.658 268.541 C 213.628 267.738,212.707 266.703,212.611 266.241 C 212.515 265.778,212.162 264.120,211.827 262.557 C 211.281 260.013,211.279 258.621,211.817 249.357 C 212.236 242.127,212.384 233.266,212.308 220.005 C 212.187 198.789,212.314 199.604,209.472 201.772 C 208.731 202.338,207.980 202.800,207.804 202.800 C 207.628 202.800,207.105 203.166,206.642 203.613 C 205.243 204.963,203.372 206.554,202.189 207.400 C 200.364 208.705,198.314 210.313,196.444 211.905 C 195.478 212.727,194.308 213.662,193.844 213.982 C 193.380 214.302,192.820 214.773,192.600 215.029 C 192.380 215.285,190.940 216.443,189.400 217.603 C 187.860 218.763,186.193 220.092,185.696 220.556 C 185.199 221.020,184.389 221.773,183.896 222.229 C 183.403 222.685,181.740 224.022,180.200 225.200 C 174.331 229.690,167.103 236.659,152.200 252.199 C 148.240 256.328,144.659 259.997,144.243 260.353 C 143.827 260.709,143.119 261.405,142.671 261.900 C 142.223 262.395,141.640 262.800,141.377 262.800 C 141.113 262.800,140.674 263.070,140.400 263.400 C 139.615 264.346,133.600 263.126,133.600 262.020 C 133.600 261.872,133.201 261.322,132.713 260.798 C 130.005 257.892,131.794 254.195,139.592 246.582 C 146.806 239.539,147.252 239.118,150.400 236.395 C 152.050 234.968,153.490 233.709,153.600 233.598 C 153.710 233.486,154.970 232.419,156.400 231.226 C 157.830 230.033,159.450 228.644,160.000 228.138 C 162.044 226.258,163.324 225.200,163.558 225.194 C 163.691 225.190,164.751 224.335,165.914 223.294 C 167.077 222.252,168.486 221.040,169.046 220.600 C 169.606 220.160,170.814 219.112,171.732 218.271 C 172.649 217.430,174.750 215.725,176.400 214.482 C 178.050 213.240,180.210 211.485,181.200 210.582 C 182.190 209.680,183.900 208.329,185.000 207.579 C 186.100 206.830,187.929 205.448,189.064 204.508 C 190.199 203.569,191.253 202.800,191.406 202.800 C 191.559 202.800,192.193 202.395,192.815 201.900 C 193.436 201.405,194.598 200.550,195.396 200.000 C 196.195 199.450,197.062 198.808,197.324 198.573 C 197.586 198.339,198.340 197.799,199.000 197.373 C 200.331 196.516,200.401 196.462,203.800 193.705 C 205.120 192.635,207.190 191.111,208.400 190.319 C 212.009 187.958,212.463 187.290,212.321 184.555 C 212.184 181.894,211.413 181.313,209.864 182.704 C 209.037 183.448,206.593 184.426,203.600 185.213 C 201.134 185.861,196.677 185.686,195.632 184.900 C 192.221 182.335,191.802 181.758,191.304 178.938 C 190.776 175.950,190.468 165.259,190.890 164.576 C 191.035 164.343,191.336 161.733,191.561 158.776 C 191.861 154.818,192.184 152.957,192.785 151.719 C 193.233 150.795,193.600 149.760,193.600 149.420 C 193.600 148.824,195.547 144.821,196.040 144.403 C 196.172 144.292,196.753 143.445,197.331 142.522 C 198.448 140.739,202.882 136.800,203.772 136.800 C 204.063 136.800,204.513 136.546,204.771 136.235 C 205.544 135.304,209.153 134.981,209.942 135.772 C 211.407 137.240,210.689 140.937,208.409 143.665 C 207.304 144.988,206.400 146.296,206.400 146.573 C 206.400 146.850,206.058 147.386,205.640 147.764 C 205.221 148.143,204.756 149.107,204.606 149.908 C 204.456 150.708,204.013 152.001,203.622 152.781 C 202.908 154.204,202.200 162.119,202.217 168.487 C 202.229 172.989,204.105 174.549,207.719 173.065 C 210.382 171.972,212.400 168.981,212.400 166.129 C 212.400 165.035,212.768 162.094,213.219 159.594 C 213.711 156.857,214.181 151.775,214.399 146.824 C 214.769 138.410,215.673 132.486,216.679 131.877 C 216.972 131.699,217.572 131.167,218.012 130.695 C 218.627 130.035,219.405 129.799,221.387 129.673 C 226.076 129.375,227.273 132.331,225.973 141.000 C 225.775 142.320,225.435 147.060,225.218 151.534 C 225.000 156.008,224.619 160.778,224.369 162.134 C 223.859 164.909,223.638 178.964,224.098 179.428 C 224.261 179.593,224.725 179.430,225.129 179.064 C 225.533 178.699,226.003 178.400,226.174 178.400 C 226.345 178.400,227.019 177.950,227.673 177.400 C 228.327 176.850,229.090 176.400,229.369 176.400 C 229.648 176.400,230.202 176.040,230.600 175.600 C 230.998 175.160,231.544 174.800,231.813 174.800 C 232.082 174.800,232.513 174.546,232.771 174.234 C 233.030 173.923,234.042 173.293,235.020 172.832 C 235.999 172.372,236.800 171.829,236.800 171.625 C 236.800 171.421,237.205 171.127,237.700 170.972 C 238.195 170.817,239.109 170.265,239.731 169.745 C 240.353 169.225,241.096 168.800,241.382 168.800 C 241.668 168.800,242.149 168.502,242.451 168.138 C 242.753 167.774,243.540 167.223,244.200 166.914 C 244.860 166.604,246.300 165.825,247.400 165.182 C 248.500 164.538,250.024 163.732,250.786 163.391 C 251.548 163.049,252.268 162.641,252.386 162.484 C 252.504 162.328,253.230 161.882,254.000 161.493 C 254.770 161.104,256.210 160.259,257.200 159.614 C 258.190 158.970,259.720 158.077,260.600 157.631 C 262.256 156.792,263.053 156.324,264.860 155.134 C 265.443 154.750,266.380 154.320,266.943 154.178 C 267.507 154.037,268.178 153.667,268.436 153.356 C 268.695 153.045,269.647 152.432,270.553 151.994 C 271.459 151.556,272.920 150.756,273.800 150.216 C 274.680 149.676,276.120 148.855,277.000 148.393 C 282.300 145.605,282.294 145.611,281.055 144.138 C 279.628 142.442,278.973 138.846,279.450 135.323 C 279.659 133.774,279.824 128.478,279.815 123.553 L 279.800 114.600 278.469 113.935 C 276.786 113.095,273.722 114.461,272.365 116.656 C 271.910 117.393,271.317 118.131,271.047 118.298 C 269.869 119.023,268.757 121.713,268.169 125.255 C 266.997 132.312,266.737 135.008,266.669 140.800 C 266.578 148.420,265.424 150.536,260.350 152.386 C 255.753 154.062,254.055 151.736,254.813 144.800 C 255.066 142.490,255.412 135.470,255.582 129.200 C 255.868 118.649,255.955 117.682,256.745 116.215 C 257.215 115.344,257.600 114.423,257.600 114.169 C 257.600 113.185,261.247 110.841,263.142 110.607 C 264.164 110.482,265.548 110.205,266.218 109.993 C 267.059 109.727,267.826 109.755,268.695 110.083 C 269.906 110.540,274.000 109.249,274.000 108.410 C 274.000 107.951,278.765 103.200,279.224 103.200 C 279.472 103.200,280.131 102.840,280.691 102.400 C 281.520 101.748,282.306 101.601,284.954 101.607 L 288.200 101.614 289.600 103.301 M245.838 121.900 C 246.167 122.725,246.626 123.783,246.859 124.250 C 247.166 124.867,247.147 125.352,246.788 126.022 C 246.458 126.639,246.187 130.553,245.969 137.875 C 245.790 143.887,245.534 148.983,245.400 149.200 C 245.266 149.417,245.159 151.197,245.162 153.156 C 245.169 157.383,244.406 159.357,242.101 161.079 C 241.275 161.696,240.373 162.414,240.095 162.676 C 239.818 162.938,238.803 163.270,237.841 163.415 C 233.797 164.021,232.861 161.601,234.200 154.000 C 234.529 152.130,234.799 149.198,234.799 147.484 C 234.800 143.725,235.427 137.649,236.219 133.717 C 236.539 132.131,236.800 129.932,236.800 128.831 C 236.800 123.558,244.229 117.861,245.838 121.900 M159.881 136.878 C 162.472 139.390,160.131 145.289,156.026 146.592 C 155.572 146.736,155.200 146.993,155.200 147.163 C 155.200 147.333,154.742 147.680,154.181 147.936 C 150.752 149.498,147.346 145.681,149.600 142.800 C 150.030 142.250,150.386 141.589,150.391 141.331 C 150.411 140.289,156.430 135.997,158.381 135.634 C 158.480 135.615,159.155 136.175,159.881 136.878 M186.580 149.738 C 188.490 152.243,188.088 154.785,185.379 157.321 C 176.577 165.561,176.650 165.385,176.006 179.800 C 175.550 189.997,174.156 195.200,171.878 195.200 C 171.644 195.200,171.036 195.590,170.529 196.067 C 168.980 197.522,165.566 197.591,164.464 196.190 C 163.348 194.772,163.187 179.935,164.220 173.800 C 164.554 171.820,164.979 167.451,165.165 164.092 C 165.501 158.008,166.350 155.237,168.115 154.462 C 168.288 154.386,168.941 153.893,169.566 153.367 C 170.344 152.712,171.535 152.293,173.338 152.037 C 174.787 151.832,176.379 151.380,176.876 151.032 C 177.372 150.684,178.153 150.400,178.611 150.400 C 179.070 150.400,180.055 149.950,180.800 149.400 C 182.889 147.859,185.252 147.997,186.580 149.738 M154.535 162.643 C 156.016 164.240,156.242 174.536,154.852 177.055 C 154.626 177.465,154.253 180.532,154.023 183.872 C 153.793 187.211,153.338 190.966,153.013 192.215 C 152.687 193.465,152.425 195.683,152.429 197.144 C 152.440 200.706,151.753 205.749,151.232 205.923 C 151.002 205.999,149.595 206.888,148.106 207.897 C 142.928 211.408,140.796 210.176,140.806 203.678 C 140.814 198.513,141.525 186.400,141.997 183.400 C 142.205 182.080,142.490 178.750,142.632 176.000 C 142.840 171.936,143.068 170.611,143.844 168.925 C 144.370 167.783,144.800 166.703,144.800 166.523 C 144.800 165.845,148.848 162.515,150.438 161.885 C 151.890 161.311,153.592 161.626,154.535 162.643 M20.000 362.411 C 19.230 362.586,17.880 363.008,17.000 363.347 C 16.120 363.687,15.153 363.973,14.852 363.982 C 13.469 364.027,8.547 367.648,6.612 370.045 C 5.832 371.010,5.005 372.029,4.773 372.309 C 4.541 372.589,4.095 373.432,3.782 374.182 C 3.469 374.932,3.047 375.647,2.846 375.771 C 2.512 375.978,2.050 377.666,1.387 381.100 C 1.245 381.839,0.891 382.400,0.568 382.400 C 0.082 382.400,0.000 386.664,0.000 411.800 L 0.000 441.200 3.376 441.200 C 5.233 441.200,6.852 441.040,6.972 440.845 C 7.093 440.649,7.239 427.644,7.296 411.945 L 7.400 383.400 8.300 381.449 C 8.795 380.376,9.200 379.323,9.200 379.109 C 9.200 377.467,13.011 372.972,16.065 371.012 C 24.541 365.573,39.405 370.318,41.443 379.114 C 41.582 379.711,41.989 380.650,42.348 381.200 C 42.902 382.050,43.000 383.554,43.000 391.200 L 43.000 400.200 41.508 402.200 C 40.688 403.300,39.718 404.740,39.354 405.400 C 38.990 406.060,38.446 406.744,38.146 406.920 C 37.846 407.096,37.600 407.430,37.600 407.662 C 37.600 407.894,37.150 408.619,36.600 409.273 C 36.050 409.927,35.600 410.690,35.600 410.969 C 35.600 411.248,35.240 411.802,34.800 412.200 C 34.360 412.598,34.000 413.095,34.000 413.304 C 34.000 413.513,33.595 414.183,33.100 414.792 C 32.605 415.401,31.840 416.501,31.400 417.236 C 30.960 417.971,30.284 419.028,29.897 419.586 C 29.511 420.144,28.821 421.320,28.364 422.200 C 27.907 423.080,27.269 424.292,26.948 424.893 C 25.369 427.844,25.575 436.015,27.277 437.947 C 29.163 440.090,30.473 441.115,31.621 441.344 C 32.308 441.482,32.800 441.835,32.800 442.190 C 32.800 442.701,33.544 442.800,37.400 442.800 C 41.156 442.800,42.000 442.693,42.000 442.219 C 42.000 441.891,42.633 441.463,43.451 441.237 C 45.586 440.648,48.221 437.690,49.474 434.478 L 50.518 431.800 50.759 415.941 C 50.965 402.413,51.092 399.973,51.623 399.341 C 51.965 398.933,52.461 398.150,52.726 397.600 C 52.990 397.050,53.924 395.610,54.802 394.400 C 55.680 393.190,56.399 392.006,56.399 391.770 C 56.400 391.533,56.850 390.917,57.400 390.400 C 57.950 389.883,58.400 389.315,58.400 389.138 C 58.400 388.961,59.075 387.804,59.900 386.568 C 60.725 385.332,61.760 383.731,62.200 383.010 C 62.640 382.290,63.632 380.733,64.405 379.550 C 65.177 378.368,65.987 377.110,66.205 376.756 C 71.002 368.941,77.047 367.104,80.987 372.265 L 82.400 374.115 82.400 407.243 C 82.400 439.587,82.418 440.382,83.174 440.786 C 84.185 441.327,86.752 441.314,88.340 440.761 L 89.600 440.322 89.600 408.661 C 89.600 374.441,89.232 368.400,87.151 368.400 C 86.958 368.400,86.800 368.142,86.800 367.827 C 86.800 366.167,79.448 362.400,76.209 362.400 C 74.997 362.400,68.737 364.387,68.000 365.005 C 65.314 367.260,62.000 370.991,62.000 371.761 C 62.000 371.974,61.615 372.558,61.144 373.059 C 60.261 373.999,60.007 374.390,58.529 377.073 C 58.050 377.942,57.375 378.889,57.029 379.176 C 56.683 379.463,56.400 379.932,56.400 380.218 C 56.400 380.504,55.950 381.273,55.400 381.927 C 54.850 382.581,54.400 383.287,54.400 383.496 C 54.400 383.705,54.047 384.196,53.615 384.586 C 53.183 384.977,52.629 385.905,52.384 386.648 C 51.447 389.489,50.298 387.901,49.420 382.551 C 49.030 380.175,48.371 377.597,47.955 376.821 C 47.540 376.046,47.200 375.253,47.200 375.058 C 47.200 373.532,41.830 367.391,39.245 365.960 C 38.450 365.521,37.350 364.910,36.800 364.603 C 35.789 364.039,32.965 363.061,30.400 362.387 C 28.725 361.947,21.970 361.962,20.000 362.411 M134.600 362.348 C 133.720 362.511,132.640 362.833,132.200 363.065 C 131.760 363.296,130.230 363.707,128.800 363.978 C 127.370 364.250,125.930 364.701,125.600 364.982 C 125.270 365.263,124.487 365.615,123.860 365.764 C 123.233 365.913,122.243 366.361,121.660 366.758 C 121.077 367.156,119.610 368.138,118.400 368.941 C 115.910 370.592,109.666 376.783,108.656 378.600 C 107.852 380.049,107.308 380.949,106.110 382.822 C 105.609 383.603,105.198 384.503,105.196 384.822 C 105.194 385.140,104.750 386.300,104.209 387.400 C 103.668 388.500,103.219 389.851,103.213 390.401 C 103.206 390.952,102.840 392.661,102.400 394.200 C 101.778 396.377,101.600 398.197,101.600 402.400 C 101.600 406.603,101.778 408.423,102.400 410.600 C 102.840 412.139,103.200 413.884,103.200 414.478 C 103.200 415.072,103.650 416.404,104.200 417.438 C 104.750 418.473,105.200 419.628,105.200 420.006 C 105.200 420.383,105.556 421.145,105.992 421.699 C 106.428 422.253,106.974 423.132,107.207 423.653 C 107.932 425.275,109.342 427.371,110.800 428.990 C 112.949 431.376,117.362 435.592,117.716 435.596 C 117.890 435.598,118.520 435.932,119.116 436.337 C 122.380 438.558,123.514 439.200,124.174 439.200 C 124.576 439.200,125.509 439.573,126.248 440.029 C 126.986 440.486,128.807 441.029,130.295 441.237 C 131.831 441.451,133.192 441.871,133.444 442.207 C 134.122 443.112,147.508 443.079,148.171 442.172 C 148.454 441.785,149.641 441.418,151.256 441.218 C 152.700 441.039,154.583 440.526,155.441 440.079 C 156.298 439.632,157.450 439.073,158.000 438.836 C 159.040 438.389,159.205 438.292,162.764 436.041 C 165.271 434.455,165.576 434.202,168.793 431.017 C 170.117 429.707,171.200 428.402,171.200 428.117 C 171.200 427.833,171.341 427.600,171.514 427.600 C 171.686 427.600,172.162 427.015,172.571 426.300 C 172.981 425.585,173.629 424.640,174.012 424.200 C 174.395 423.760,174.844 422.950,175.009 422.400 C 175.175 421.850,175.645 420.971,176.055 420.446 C 176.465 419.921,176.800 419.072,176.800 418.558 C 176.800 418.045,177.152 416.944,177.582 416.112 C 178.012 415.281,178.545 413.250,178.767 411.600 C 178.989 409.950,179.391 407.281,179.661 405.670 C 180.169 402.632,180.187 402.852,178.631 392.738 C 178.338 390.833,177.806 388.858,177.449 388.349 C 177.092 387.839,176.800 387.099,176.800 386.704 C 176.800 385.455,172.431 377.641,171.523 377.267 C 171.345 377.193,171.200 376.940,171.200 376.704 C 171.200 375.573,163.368 368.754,160.700 367.563 C 160.095 367.293,159.600 366.935,159.600 366.768 C 159.600 366.601,158.702 366.166,157.605 365.802 C 156.507 365.437,155.514 364.985,155.398 364.796 C 155.281 364.608,154.154 364.251,152.893 364.003 C 151.632 363.755,149.880 363.266,149.000 362.916 C 147.223 362.211,137.433 361.825,134.600 362.348 M200.282 363.314 C 196.522 364.551,194.139 366.925,192.893 370.676 L 191.987 373.400 191.894 406.896 L 191.800 440.392 192.960 440.796 C 194.554 441.352,198.136 441.304,198.720 440.720 C 199.086 440.354,199.200 432.225,199.200 406.574 L 199.200 372.908 200.091 371.754 C 201.472 369.964,202.070 369.626,203.886 369.613 C 205.554 369.600,208.400 371.410,208.400 372.484 C 208.400 372.704,208.850 373.419,209.400 374.073 C 209.950 374.727,210.400 375.670,210.400 376.169 C 210.400 376.668,210.750 377.393,211.177 377.779 C 211.605 378.166,212.078 379.049,212.229 379.741 C 212.381 380.434,212.841 381.429,213.252 381.954 C 213.663 382.479,214.000 383.091,214.000 383.314 C 214.000 383.740,215.431 386.909,217.047 390.059 C 217.571 391.081,218.000 392.184,218.000 392.510 C 218.000 392.836,218.269 393.325,218.598 393.598 C 218.927 393.872,219.411 394.839,219.674 395.747 C 219.937 396.656,220.477 397.829,220.876 398.354 C 221.274 398.879,221.600 399.619,221.600 400.000 C 221.600 400.381,221.933 401.121,222.339 401.646 C 222.745 402.171,223.207 403.126,223.364 403.768 C 223.521 404.411,223.998 405.380,224.425 405.922 C 224.851 406.464,225.200 407.219,225.200 407.600 C 225.200 407.981,225.535 408.721,225.945 409.246 C 226.355 409.771,226.828 410.650,226.997 411.200 C 227.165 411.750,227.730 413.009,228.252 413.997 C 228.773 414.985,229.200 415.996,229.200 416.243 C 229.200 416.490,229.533 417.121,229.939 417.646 C 230.345 418.171,230.807 419.126,230.964 419.768 C 231.121 420.411,231.598 421.380,232.025 421.922 C 232.451 422.464,232.806 423.199,232.812 423.554 C 232.819 423.909,233.268 424.920,233.810 425.800 C 234.352 426.680,234.797 427.691,234.798 428.046 C 234.799 428.401,235.162 429.152,235.604 429.714 C 236.045 430.275,236.517 431.286,236.652 431.959 C 236.786 432.631,237.143 433.387,237.445 433.638 C 237.747 433.888,238.194 434.837,238.439 435.747 C 238.683 436.656,239.023 437.490,239.194 437.600 C 239.365 437.710,239.843 438.520,240.256 439.400 L 241.006 441.000 248.647 441.108 C 254.755 441.195,256.380 441.106,256.746 440.665 C 257.085 440.257,257.177 430.211,257.102 402.157 L 257.000 364.200 253.600 364.200 L 250.200 364.200 250.098 399.162 C 249.989 436.388,250.058 435.200,247.993 435.200 C 246.981 435.200,244.400 432.207,244.400 431.033 C 244.400 430.698,240.805 422.988,239.592 420.721 C 239.156 419.907,238.800 419.004,238.800 418.714 C 238.800 418.423,238.350 417.523,237.800 416.714 C 237.250 415.905,236.800 414.908,236.800 414.499 C 236.800 414.090,236.350 413.145,235.800 412.400 C 235.250 411.655,234.800 410.652,234.800 410.171 C 234.800 409.691,234.539 409.082,234.220 408.817 C 233.902 408.552,233.426 407.675,233.162 406.868 C 232.899 406.061,232.350 404.971,231.942 404.446 C 231.534 403.921,231.200 403.306,231.200 403.078 C 231.200 402.850,230.638 401.479,229.950 400.032 C 229.263 398.584,227.902 395.690,226.928 393.600 C 225.953 391.510,224.805 389.134,224.378 388.321 C 223.950 387.507,223.600 386.586,223.600 386.275 C 223.600 385.963,223.263 385.279,222.852 384.754 C 222.441 384.229,221.981 383.234,221.829 382.541 C 221.678 381.849,221.205 380.966,220.777 380.579 C 220.350 380.193,220.000 379.489,220.000 379.016 C 220.000 378.543,219.550 377.545,219.000 376.800 C 218.450 376.055,218.000 375.220,218.000 374.947 C 218.000 374.415,215.879 370.210,214.582 368.170 C 211.725 363.676,205.553 361.581,200.282 363.314 M273.500 364.432 C 272.589 364.963,272.392 440.089,273.300 440.676 C 274.139 441.219,325.594 441.303,326.245 440.762 C 327.073 440.076,326.992 435.858,326.139 435.149 C 325.599 434.701,321.347 434.579,303.054 434.487 C 285.973 434.401,280.557 434.258,280.322 433.887 C 279.731 432.958,279.935 406.152,280.537 405.653 C 280.912 405.341,287.366 405.176,302.037 405.104 L 323.000 405.000 323.117 402.599 C 323.319 398.434,325.197 398.768,301.730 398.793 C 283.552 398.811,281.200 398.743,280.635 398.178 C 279.985 397.528,279.625 372.642,280.243 371.033 C 280.460 370.467,282.752 370.400,302.017 370.400 C 323.277 370.400,325.315 370.288,326.086 369.075 C 326.748 368.034,326.433 364.846,325.626 364.414 C 324.568 363.848,274.473 363.865,273.500 364.432 M336.046 364.544 C 335.573 365.115,336.762 367.771,340.072 373.533 C 340.662 374.560,341.337 375.850,341.572 376.400 C 341.807 376.950,342.182 377.670,342.405 378.000 C 342.628 378.330,343.172 379.320,343.615 380.200 C 344.058 381.080,344.676 382.250,344.988 382.800 C 345.301 383.350,345.668 384.070,345.804 384.400 C 345.941 384.730,346.579 385.900,347.223 387.000 C 347.867 388.100,348.669 389.630,349.006 390.400 C 349.344 391.170,349.797 392.070,350.015 392.400 C 350.232 392.730,350.777 393.720,351.226 394.600 C 351.674 395.480,352.561 397.100,353.197 398.200 C 353.832 399.300,354.542 400.650,354.776 401.200 C 355.009 401.750,355.384 402.470,355.610 402.800 C 355.835 403.130,356.386 404.120,356.833 405.000 C 357.280 405.880,358.163 407.500,358.795 408.600 C 359.427 409.700,360.137 411.050,360.372 411.600 C 360.607 412.150,360.970 412.870,361.179 413.200 C 364.430 418.334,364.921 420.670,363.186 422.747 C 361.265 425.046,361.159 425.189,360.666 426.125 C 360.410 426.612,359.880 427.368,359.490 427.805 C 357.659 429.855,356.800 430.941,356.800 431.207 C 356.800 431.367,355.945 432.594,354.900 433.933 C 351.704 438.030,350.282 440.016,350.445 440.157 C 351.252 440.856,352.795 441.200,355.120 441.200 L 357.893 441.200 359.246 439.412 C 359.991 438.428,361.050 436.966,361.600 436.162 C 362.150 435.358,362.963 434.318,363.406 433.850 C 363.849 433.383,364.464 432.505,364.773 431.900 C 365.082 431.295,365.485 430.800,365.668 430.800 C 365.850 430.800,366.000 430.539,366.000 430.221 C 366.000 429.902,366.900 428.560,368.000 427.238 C 369.100 425.917,370.000 424.725,370.000 424.591 C 370.000 424.457,370.450 423.757,371.000 423.036 C 371.550 422.314,372.000 421.536,372.000 421.305 C 372.000 421.074,372.278 420.779,372.617 420.649 C 372.956 420.519,373.455 419.915,373.727 419.306 C 373.998 418.698,374.969 417.030,375.884 415.600 C 379.324 410.226,383.200 403.480,383.200 402.868 C 383.200 402.670,383.549 402.064,383.975 401.522 C 384.402 400.980,384.868 400.069,385.011 399.498 C 385.155 398.926,385.616 398.148,386.036 397.767 C 386.456 397.387,386.800 396.815,386.800 396.497 C 386.800 396.178,387.224 395.081,387.742 394.059 C 388.261 393.037,389.183 391.120,389.791 389.800 C 390.399 388.480,391.325 386.563,391.848 385.541 C 392.372 384.519,392.800 383.376,392.800 383.003 C 392.800 382.629,393.138 381.846,393.550 381.262 C 393.963 380.678,394.432 379.570,394.593 378.800 C 394.755 378.030,395.227 376.839,395.643 376.153 C 396.059 375.467,396.400 374.540,396.400 374.093 C 396.400 373.645,396.848 372.317,397.396 371.140 C 397.944 369.963,398.394 368.610,398.396 368.133 C 398.402 366.842,398.815 366.000,399.443 366.000 C 399.749 366.000,400.000 365.663,400.000 365.250 C 400.000 364.361,398.613 364.000,395.197 364.000 L 392.894 364.000 391.885 366.100 C 391.330 367.255,390.752 368.830,390.599 369.600 C 390.447 370.370,389.980 371.595,389.561 372.323 C 389.143 373.050,388.798 373.950,388.796 374.323 C 388.794 374.695,388.350 375.900,387.809 377.000 C 387.268 378.100,386.814 379.360,386.800 379.800 C 386.786 380.240,386.332 381.320,385.790 382.200 C 385.248 383.080,384.803 384.183,384.802 384.651 C 384.801 385.119,384.537 385.720,384.215 385.987 C 383.894 386.254,383.512 386.861,383.367 387.336 C 383.061 388.341,380.910 393.120,380.368 394.000 C 380.164 394.330,379.819 395.050,379.599 395.600 C 379.380 396.150,379.027 396.870,378.815 397.200 C 378.603 397.530,377.701 399.265,376.810 401.055 C 375.919 402.845,374.952 404.508,374.661 404.749 C 374.370 404.991,373.893 405.911,373.602 406.794 C 373.310 407.677,372.933 408.400,372.763 408.400 C 372.593 408.400,372.336 408.772,372.192 409.226 C 371.878 410.214,369.673 412.800,369.144 412.800 C 368.939 412.800,368.411 412.035,367.971 411.100 C 367.531 410.165,366.286 407.780,365.204 405.800 C 364.122 403.820,363.048 401.750,362.818 401.200 C 362.589 400.650,362.217 399.930,361.992 399.600 C 361.768 399.270,361.300 398.370,360.952 397.600 C 360.605 396.830,360.091 395.930,359.811 395.600 C 359.530 395.270,359.090 394.341,358.831 393.535 C 358.573 392.730,358.134 391.984,357.856 391.877 C 357.579 391.770,357.136 390.963,356.872 390.083 C 356.608 389.203,356.124 388.380,355.796 388.254 C 355.468 388.128,355.200 387.729,355.200 387.367 C 355.200 386.804,354.189 384.815,350.740 378.591 C 350.377 377.936,349.401 376.050,348.571 374.400 C 347.741 372.750,346.733 370.971,346.331 370.446 C 345.929 369.921,345.600 369.213,345.600 368.872 C 345.600 368.531,345.263 367.880,344.851 367.426 C 344.439 366.972,343.929 366.060,343.719 365.400 C 343.267 363.985,337.083 363.295,336.046 364.544 M148.194 369.791 C 149.951 370.107,151.450 370.551,151.525 370.776 C 151.600 371.001,152.394 371.383,153.289 371.624 C 154.184 371.865,155.385 372.377,155.958 372.761 C 159.986 375.464,161.186 376.375,162.600 377.805 C 164.666 379.894,167.200 383.198,167.200 383.804 C 167.200 384.063,167.556 384.599,167.992 384.993 C 168.428 385.387,168.897 386.309,169.034 387.041 C 169.171 387.773,169.525 388.572,169.820 388.816 C 170.115 389.061,170.561 390.283,170.812 391.531 C 171.063 392.779,171.523 394.571,171.834 395.514 C 172.512 397.566,172.592 406.206,171.956 408.600 C 171.722 409.480,171.266 411.367,170.943 412.793 C 170.620 414.219,170.120 415.659,169.832 415.993 C 169.543 416.327,169.185 417.113,169.036 417.740 C 168.887 418.367,168.444 419.357,168.052 419.940 C 167.660 420.523,166.732 421.900,165.988 423.000 C 161.356 429.854,153.253 434.702,144.927 435.600 C 140.019 436.129,132.998 435.543,130.784 434.419 C 130.005 434.024,128.809 433.578,128.126 433.428 C 127.442 433.277,126.566 432.805,126.179 432.377 C 125.793 431.950,125.187 431.600,124.834 431.600 C 123.143 431.600,115.421 424.085,114.428 421.473 C 114.203 420.883,113.849 420.400,113.641 420.400 C 113.433 420.400,113.045 419.725,112.780 418.900 C 112.516 418.075,112.074 417.130,111.800 416.800 C 111.526 416.470,111.181 415.527,111.034 414.706 C 110.886 413.884,110.417 412.444,109.992 411.506 C 108.848 408.986,108.822 395.998,109.955 393.478 C 110.370 392.555,110.838 391.196,110.996 390.459 C 111.153 389.721,111.848 388.034,112.541 386.710 C 113.233 385.386,114.117 383.692,114.505 382.947 C 115.634 380.777,122.092 374.491,124.109 373.599 C 125.091 373.165,126.120 372.537,126.396 372.205 C 126.672 371.872,127.191 371.599,127.549 371.598 C 127.907 371.596,128.740 371.295,129.400 370.929 C 132.852 369.014,141.100 368.514,148.194 369.791 M43.196 411.795 C 44.263 413.080,43.574 432.001,42.397 433.744 C 38.880 438.952,32.000 437.061,32.000 430.887 C 32.000 428.657,34.467 422.983,36.473 420.600 C 36.844 420.160,37.343 419.350,37.584 418.800 C 37.998 417.852,39.481 415.597,40.417 414.491 C 40.654 414.211,41.110 413.356,41.430 412.591 C 42.067 411.066,42.448 410.894,43.196 411.795 " stroke="none" fill="#e30c0c" fill-rule="evenodd"></path><path id="path1" d="M0.000 191.200 C 0.000 356.136,0.078 382.400,0.568 382.400 C 0.891 382.400,1.245 381.839,1.387 381.100 C 2.050 377.666,2.512 375.978,2.846 375.771 C 3.047 375.647,3.469 374.932,3.782 374.182 C 4.095 373.432,4.541 372.589,4.773 372.309 C 5.005 372.029,5.832 371.010,6.612 370.045 C 8.850 367.273,13.095 364.322,15.600 363.797 C 16.370 363.636,17.539 363.228,18.199 362.891 C 19.697 362.124,27.916 361.747,30.200 362.339 C 32.903 363.041,35.750 364.017,36.800 364.603 C 37.350 364.910,38.450 365.521,39.245 365.960 C 41.830 367.391,47.200 373.532,47.200 375.058 C 47.200 375.253,47.540 376.046,47.955 376.821 C 48.371 377.597,49.030 380.175,49.420 382.551 C 50.298 387.901,51.447 389.489,52.384 386.648 C 52.629 385.905,53.183 384.977,53.615 384.586 C 54.047 384.196,54.400 383.705,54.400 383.496 C 54.400 383.287,54.850 382.581,55.400 381.927 C 55.950 381.273,56.400 380.504,56.400 380.218 C 56.400 379.932,56.683 379.463,57.029 379.176 C 57.375 378.889,58.050 377.942,58.529 377.073 C 60.007 374.390,60.261 373.999,61.144 373.059 C 61.615 372.558,62.000 371.974,62.000 371.761 C 62.000 370.991,65.314 367.260,68.000 365.005 C 68.737 364.387,74.997 362.400,76.209 362.400 C 79.448 362.400,86.800 366.167,86.800 367.827 C 86.800 368.142,86.958 368.400,87.151 368.400 C 89.232 368.400,89.600 374.441,89.600 408.661 L 89.600 440.322 88.340 440.761 C 86.752 441.314,84.185 441.327,83.174 440.786 C 82.418 440.382,82.400 439.587,82.400 407.243 L 82.400 374.115 80.987 372.265 C 77.047 367.104,71.002 368.941,66.205 376.756 C 65.987 377.110,65.177 378.368,64.405 379.550 C 63.632 380.733,62.640 382.290,62.200 383.010 C 61.760 383.731,60.725 385.332,59.900 386.568 C 59.075 387.804,58.400 388.961,58.400 389.138 C 58.400 389.315,57.950 389.883,57.400 390.400 C 56.850 390.917,56.400 391.533,56.399 391.770 C 56.399 392.006,55.680 393.190,54.802 394.400 C 53.924 395.610,52.990 397.050,52.726 397.600 C 52.461 398.150,51.965 398.933,51.623 399.341 C 51.092 399.973,50.965 402.413,50.759 415.941 L 50.518 431.800 49.474 434.478 C 48.221 437.690,45.586 440.648,43.451 441.237 C 42.633 441.463,42.000 441.891,42.000 442.219 C 42.000 442.724,48.018 442.800,87.833 442.800 C 123.771 442.800,133.631 442.694,133.504 442.311 C 133.306 441.718,131.901 441.294,129.960 441.240 C 129.167 441.218,127.673 440.750,126.638 440.200 C 125.604 439.650,124.462 439.200,124.100 439.200 C 123.507 439.200,122.331 438.525,119.116 436.337 C 118.520 435.932,117.890 435.598,117.716 435.596 C 117.362 435.592,112.949 431.376,110.800 428.990 C 109.342 427.371,107.932 425.275,107.207 423.653 C 106.974 423.132,106.428 422.253,105.992 421.699 C 105.556 421.145,105.200 420.383,105.200 420.006 C 105.200 419.628,104.750 418.473,104.200 417.438 C 103.650 416.404,103.200 415.072,103.200 414.478 C 103.200 413.884,102.840 412.139,102.400 410.600 C 101.266 406.634,101.266 398.166,102.400 394.200 C 102.840 392.661,103.206 390.952,103.213 390.401 C 103.219 389.851,103.668 388.500,104.209 387.400 C 104.750 386.300,105.194 385.140,105.196 384.822 C 105.198 384.503,105.609 383.603,106.110 382.822 C 107.308 380.949,107.852 380.049,108.656 378.600 C 109.666 376.783,115.910 370.592,118.400 368.941 C 119.610 368.138,121.077 367.156,121.660 366.758 C 122.243 366.361,123.233 365.913,123.860 365.764 C 124.487 365.615,125.270 365.263,125.600 364.982 C 125.930 364.701,127.370 364.249,128.800 363.978 C 130.230 363.706,131.940 363.199,132.600 362.850 C 134.385 361.908,146.261 361.924,148.800 362.872 C 149.790 363.241,151.632 363.748,152.893 363.999 C 154.154 364.249,155.281 364.608,155.398 364.796 C 155.514 364.985,156.507 365.437,157.605 365.802 C 158.702 366.166,159.600 366.601,159.600 366.768 C 159.600 366.935,160.095 367.293,160.700 367.563 C 163.368 368.754,171.200 375.573,171.200 376.704 C 171.200 376.940,171.345 377.193,171.523 377.267 C 172.431 377.641,176.800 385.455,176.800 386.704 C 176.800 387.099,177.092 387.839,177.449 388.349 C 177.806 388.858,178.338 390.833,178.631 392.738 C 180.187 402.852,180.169 402.632,179.661 405.670 C 179.391 407.281,178.989 409.950,178.767 411.600 C 178.545 413.250,178.012 415.281,177.582 416.112 C 177.152 416.944,176.800 418.045,176.800 418.558 C 176.800 419.072,176.465 419.921,176.055 420.446 C 175.645 420.971,175.175 421.850,175.009 422.400 C 174.844 422.950,174.395 423.760,174.012 424.200 C 173.629 424.640,172.981 425.585,172.571 426.300 C 172.162 427.015,171.686 427.600,171.514 427.600 C 171.341 427.600,171.200 427.833,171.200 428.117 C 171.200 428.402,170.117 429.707,168.793 431.017 C 165.576 434.202,165.271 434.455,162.764 436.041 C 159.224 438.280,159.042 438.387,158.000 438.852 C 157.450 439.097,156.097 439.725,154.994 440.249 C 153.891 440.772,152.328 441.200,151.520 441.200 C 149.796 441.200,148.000 441.807,148.000 442.390 C 148.000 442.669,188.238 442.800,274.000 442.800 L 400.000 442.800 400.000 404.400 C 400.000 371.844,399.915 366.000,399.443 366.000 C 398.815 366.000,398.402 366.842,398.396 368.133 C 398.394 368.610,397.944 369.963,397.396 371.140 C 396.848 372.317,396.400 373.645,396.400 374.093 C 396.400 374.540,396.059 375.467,395.643 376.153 C 395.227 376.839,394.755 378.030,394.593 378.800 C 394.432 379.570,393.963 380.678,393.550 381.262 C 393.138 381.846,392.800 382.629,392.800 383.003 C 392.800 383.376,392.372 384.519,391.848 385.541 C 391.325 386.563,390.399 388.480,389.791 389.800 C 389.183 391.120,388.261 393.037,387.742 394.059 C 387.224 395.081,386.800 396.178,386.800 396.497 C 386.800 396.815,386.456 397.387,386.036 397.767 C 385.616 398.148,385.155 398.926,385.011 399.498 C 384.868 400.069,384.402 400.980,383.975 401.522 C 383.549 402.064,383.200 402.670,383.200 402.868 C 383.200 403.480,379.324 410.226,375.884 415.600 C 374.969 417.030,373.998 418.698,373.727 419.306 C 373.455 419.915,372.956 420.519,372.617 420.649 C 372.278 420.779,372.000 421.074,372.000 421.305 C 372.000 421.536,371.550 422.314,371.000 423.036 C 370.450 423.757,370.000 424.457,370.000 424.591 C 370.000 424.725,369.100 425.917,368.000 427.238 C 366.900 428.560,366.000 429.902,366.000 430.221 C 366.000 430.539,365.850 430.800,365.668 430.800 C 365.485 430.800,365.082 431.295,364.773 431.900 C 364.464 432.505,363.849 433.383,363.406 433.850 C 362.963 434.318,362.150 435.358,361.600 436.162 C 361.050 436.966,359.991 438.428,359.246 439.412 L 357.893 441.200 355.120 441.200 C 352.795 441.200,351.252 440.856,350.445 440.157 C 350.282 440.016,351.704 438.030,354.900 433.933 C 355.945 432.594,356.800 431.367,356.800 431.207 C 356.800 430.941,357.659 429.855,359.490 427.805 C 359.880 427.368,360.410 426.612,360.666 426.125 C 361.159 425.189,361.265 425.046,363.186 422.747 C 364.921 420.670,364.430 418.334,361.179 413.200 C 360.970 412.870,360.607 412.150,360.372 411.600 C 360.137 411.050,359.427 409.700,358.795 408.600 C 358.163 407.500,357.280 405.880,356.833 405.000 C 356.386 404.120,355.835 403.130,355.610 402.800 C 355.384 402.470,355.009 401.750,354.776 401.200 C 354.542 400.650,353.832 399.300,353.197 398.200 C 352.561 397.100,351.674 395.480,351.226 394.600 C 350.777 393.720,350.232 392.730,350.015 392.400 C 349.797 392.070,349.344 391.170,349.006 390.400 C 348.669 389.630,347.867 388.100,347.223 387.000 C 346.579 385.900,345.941 384.730,345.804 384.400 C 345.668 384.070,345.301 383.350,344.988 382.800 C 344.676 382.250,344.058 381.080,343.615 380.200 C 343.172 379.320,342.628 378.330,342.405 378.000 C 342.182 377.670,341.807 376.950,341.572 376.400 C 341.337 375.850,340.662 374.560,340.072 373.533 C 334.734 364.240,334.729 363.910,339.929 364.085 C 343.324 364.200,343.337 364.204,343.719 365.400 C 343.929 366.060,344.439 366.972,344.851 367.426 C 345.263 367.880,345.600 368.531,345.600 368.872 C 345.600 369.213,345.929 369.921,346.331 370.446 C 346.733 370.971,347.741 372.750,348.571 374.400 C 349.401 376.050,350.377 377.936,350.740 378.591 C 354.189 384.815,355.200 386.804,355.200 387.367 C 355.200 387.729,355.468 388.128,355.796 388.254 C 356.124 388.380,356.608 389.203,356.872 390.083 C 357.136 390.963,357.579 391.770,357.856 391.877 C 358.134 391.984,358.573 392.730,358.831 393.535 C 359.090 394.341,359.530 395.270,359.811 395.600 C 360.091 395.930,360.605 396.830,360.952 397.600 C 361.300 398.370,361.768 399.270,361.992 399.600 C 362.217 399.930,362.589 400.650,362.818 401.200 C 363.048 401.750,364.122 403.820,365.204 405.800 C 366.286 407.780,367.531 410.165,367.971 411.100 C 368.411 412.035,368.939 412.800,369.144 412.800 C 369.673 412.800,371.878 410.214,372.192 409.226 C 372.336 408.772,372.593 408.400,372.763 408.400 C 372.933 408.400,373.310 407.677,373.602 406.794 C 373.893 405.911,374.370 404.991,374.661 404.749 C 374.952 404.508,375.919 402.845,376.810 401.055 C 377.701 399.265,378.603 397.530,378.815 397.200 C 379.027 396.870,379.380 396.150,379.599 395.600 C 379.819 395.050,380.164 394.330,380.368 394.000 C 380.910 393.120,383.061 388.341,383.367 387.336 C 383.512 386.861,383.894 386.254,384.215 385.987 C 384.537 385.720,384.801 385.119,384.802 384.651 C 384.803 384.183,385.248 383.080,385.790 382.200 C 386.332 381.320,386.786 380.240,386.800 379.800 C 386.814 379.360,387.268 378.100,387.809 377.000 C 388.350 375.900,388.794 374.695,388.796 374.323 C 388.798 373.950,389.143 373.050,389.561 372.323 C 389.980 371.595,390.447 370.370,390.599 369.600 C 390.752 368.830,391.341 367.232,391.910 366.049 L 392.944 363.897 396.472 364.098 L 400.000 364.300 400.000 182.150 L 400.000 0.000 306.200 0.000 C 226.009 0.000,212.400 0.081,212.400 0.561 C 212.400 1.157,213.714 1.356,220.800 1.832 C 222.890 1.973,225.320 2.342,226.200 2.653 C 227.080 2.964,229.168 3.384,230.840 3.585 C 232.513 3.787,234.982 4.322,236.328 4.776 C 237.674 5.229,239.275 5.604,239.887 5.609 C 240.499 5.614,241.740 5.954,242.644 6.364 C 243.548 6.775,245.063 7.242,246.011 7.402 C 246.958 7.562,248.288 8.031,248.967 8.445 C 249.645 8.859,250.724 9.198,251.365 9.199 C 252.006 9.199,253.266 9.626,254.165 10.146 C 255.064 10.666,256.457 11.211,257.260 11.357 C 258.063 11.502,258.936 11.882,259.200 12.200 C 259.464 12.518,260.337 12.900,261.140 13.047 C 261.943 13.195,263.029 13.650,263.554 14.058 C 264.079 14.466,264.679 14.800,264.888 14.800 C 265.447 14.800,275.153 19.601,275.399 19.999 C 275.515 20.186,276.159 20.459,276.832 20.607 C 277.504 20.755,278.146 21.114,278.258 21.407 C 278.370 21.699,279.153 22.214,279.997 22.552 C 280.841 22.890,281.655 23.365,281.805 23.608 C 281.955 23.851,282.465 24.222,282.939 24.433 C 283.888 24.855,285.699 26.025,289.854 28.900 C 293.897 31.696,294.473 32.120,295.432 33.000 C 295.911 33.440,297.174 34.430,298.239 35.200 C 299.303 35.970,300.473 36.870,300.838 37.200 C 301.203 37.530,302.548 38.700,303.828 39.800 C 308.726 44.009,321.919 57.603,322.950 59.503 C 323.158 59.886,324.206 61.280,325.279 62.600 C 327.460 65.283,327.614 65.485,330.449 69.364 C 331.560 70.884,332.637 72.504,332.842 72.964 C 333.048 73.424,333.741 74.610,334.382 75.600 C 336.058 78.187,340.040 85.268,341.918 89.000 C 345.126 95.378,345.600 96.394,345.600 96.900 C 345.600 97.183,346.050 98.077,346.600 98.886 C 347.150 99.695,347.600 100.733,347.600 101.192 C 347.600 101.651,348.050 102.915,348.600 104.000 C 349.150 105.085,349.606 106.384,349.613 106.887 C 349.620 107.389,349.875 108.130,350.181 108.533 C 350.486 108.935,350.946 110.195,351.204 111.333 C 351.461 112.470,352.015 114.163,352.436 115.096 C 352.856 116.028,353.200 117.220,353.200 117.745 C 353.200 118.269,353.650 120.076,354.200 121.761 C 354.750 123.446,355.200 125.454,355.200 126.222 C 355.200 126.991,355.547 128.606,355.970 129.811 C 356.394 131.016,356.868 133.666,357.025 135.701 C 357.181 137.735,357.560 140.210,357.868 141.200 C 359.239 145.617,359.357 176.832,358.019 181.200 C 357.784 181.970,357.336 184.850,357.026 187.600 C 356.715 190.350,356.177 193.269,355.830 194.087 C 355.484 194.905,355.200 196.216,355.200 197.000 C 355.200 197.784,354.846 199.477,354.413 200.762 C 353.980 202.047,353.505 203.886,353.358 204.849 C 353.212 205.812,352.771 207.277,352.380 208.104 C 351.989 208.931,351.546 210.371,351.396 211.304 C 351.246 212.237,350.877 213.388,350.577 213.863 C 350.276 214.337,349.819 215.597,349.561 216.663 C 349.303 217.728,348.757 219.161,348.346 219.847 C 347.936 220.533,347.600 221.401,347.600 221.776 C 347.600 222.151,347.168 223.210,346.639 224.129 C 346.111 225.048,345.559 226.373,345.414 227.072 C 345.268 227.772,344.895 228.555,344.585 228.813 C 344.275 229.070,343.908 229.886,343.769 230.626 C 343.630 231.366,343.274 232.172,342.979 232.418 C 342.683 232.663,342.229 233.525,341.970 234.332 C 341.711 235.139,341.270 236.070,340.991 236.400 C 340.712 236.730,340.149 237.660,339.742 238.467 C 338.719 240.490,335.512 246.112,335.102 246.600 C 334.917 246.820,334.153 247.990,333.405 249.200 C 332.656 250.410,331.764 251.685,331.422 252.034 C 331.080 252.382,330.800 252.852,330.800 253.079 C 330.800 253.305,330.266 254.190,329.614 255.045 C 328.961 255.900,328.159 256.960,327.831 257.400 C 327.502 257.840,326.814 258.740,326.300 259.400 C 325.786 260.060,325.078 261.059,324.727 261.619 C 324.375 262.180,323.107 263.710,321.907 265.019 C 320.708 266.329,318.090 269.219,316.089 271.442 C 312.549 275.376,301.288 285.988,298.600 287.924 C 298.380 288.082,297.210 288.918,296.000 289.782 C 294.790 290.645,293.498 291.633,293.129 291.976 C 292.001 293.026,285.580 297.335,283.521 298.424 C 282.872 298.767,282.219 299.242,282.071 299.479 C 281.922 299.716,281.170 300.197,280.400 300.547 C 278.991 301.188,278.585 301.422,275.978 303.090 C 275.197 303.591,274.323 304.000,274.036 304.000 C 273.750 304.000,272.981 304.450,272.327 305.000 C 271.673 305.550,270.817 306.000,270.423 306.000 C 270.030 306.000,269.264 306.349,268.722 306.775 C 268.180 307.202,267.211 307.676,266.568 307.829 C 265.926 307.982,265.130 308.331,264.800 308.605 C 264.470 308.878,263.480 309.346,262.600 309.645 C 261.720 309.944,260.460 310.505,259.800 310.892 C 259.140 311.280,258.327 311.598,257.994 311.599 C 257.661 311.599,256.761 311.931,255.994 312.336 C 255.227 312.741,253.728 313.288,252.663 313.551 C 251.597 313.815,250.337 314.276,249.863 314.577 C 249.388 314.877,248.190 315.248,247.200 315.400 C 246.210 315.552,245.015 315.921,244.544 316.219 C 244.072 316.517,242.452 316.976,240.944 317.238 C 239.435 317.501,237.840 317.940,237.400 318.214 C 236.960 318.488,235.073 318.929,233.208 319.192 C 231.342 319.455,229.465 319.858,229.038 320.087 C 228.611 320.315,225.997 320.752,223.231 321.056 C 220.464 321.361,216.903 321.878,215.317 322.205 C 213.081 322.666,209.239 322.800,198.200 322.800 C 187.161 322.800,183.319 322.666,181.083 322.205 C 179.497 321.878,175.936 321.361,173.169 321.056 C 170.403 320.752,167.789 320.315,167.362 320.087 C 166.935 319.858,165.058 319.455,163.192 319.192 C 161.327 318.929,159.440 318.488,159.000 318.214 C 158.560 317.940,156.965 317.501,155.456 317.238 C 153.948 316.976,152.328 316.517,151.856 316.219 C 151.385 315.921,150.190 315.552,149.200 315.400 C 148.210 315.248,147.012 314.877,146.537 314.577 C 146.063 314.276,144.803 313.815,143.737 313.551 C 142.672 313.288,141.173 312.741,140.406 312.336 C 139.639 311.931,138.739 311.599,138.406 311.599 C 138.073 311.598,137.245 311.259,136.567 310.845 C 135.888 310.431,134.772 309.970,134.085 309.819 C 133.399 309.668,132.424 309.225,131.919 308.833 C 131.413 308.442,130.474 307.993,129.832 307.836 C 129.189 307.679,128.220 307.202,127.678 306.775 C 127.136 306.349,126.370 306.000,125.977 306.000 C 125.583 306.000,124.727 305.550,124.073 305.000 C 123.419 304.450,122.650 304.000,122.364 304.000 C 122.077 304.000,121.203 303.591,120.422 303.090 C 117.829 301.431,117.410 301.189,116.059 300.570 C 115.322 300.232,114.343 299.605,113.884 299.178 C 113.425 298.750,112.841 298.400,112.587 298.400 C 112.332 298.400,111.601 297.950,110.962 297.400 C 110.323 296.851,109.635 296.401,109.434 296.400 C 109.232 296.400,108.782 296.128,108.434 295.795 C 108.085 295.462,106.810 294.533,105.600 293.730 C 104.390 292.927,103.310 292.154,103.200 292.011 C 103.090 291.868,101.809 290.909,100.354 289.879 C 98.899 288.850,97.064 287.420,96.277 286.703 C 95.490 285.987,93.891 284.595,92.723 283.612 C 85.902 277.866,74.408 265.601,70.400 259.791 C 69.850 258.993,69.111 258.039,68.758 257.671 C 68.212 257.101,66.889 255.210,64.689 251.855 C 64.420 251.445,63.705 250.475,63.100 249.700 C 62.495 248.924,62.000 248.067,62.000 247.794 C 62.000 247.521,61.702 247.051,61.338 246.749 C 60.974 246.447,60.431 245.660,60.132 245.000 C 59.833 244.340,59.056 242.900,58.405 241.800 C 57.754 240.700,56.927 239.173,56.567 238.407 C 56.206 237.640,55.571 236.581,55.156 236.053 C 54.740 235.524,54.400 234.829,54.400 234.508 C 54.400 234.186,54.052 233.435,53.627 232.837 C 53.201 232.240,52.724 231.222,52.566 230.576 C 52.407 229.929,51.958 228.987,51.567 228.481 C 51.175 227.976,50.732 227.001,50.581 226.315 C 50.430 225.628,49.969 224.512,49.555 223.833 C 49.141 223.155,48.797 222.330,48.789 222.000 C 48.781 221.670,48.332 220.500,47.791 219.400 C 47.250 218.300,46.806 217.127,46.804 216.794 C 46.802 216.461,46.463 215.560,46.052 214.792 C 45.640 214.024,45.173 212.587,45.013 211.598 C 44.854 210.609,44.483 209.420,44.189 208.957 C 43.896 208.493,43.448 206.970,43.195 205.574 C 42.942 204.177,42.493 202.566,42.197 201.994 C 41.901 201.422,41.453 199.445,41.200 197.600 C 40.947 195.755,40.507 193.785,40.222 193.223 C 39.937 192.660,39.579 190.670,39.426 188.800 C 39.273 186.930,38.774 183.600,38.318 181.400 C 37.078 175.423,37.078 147.316,38.318 141.800 C 38.763 139.820,39.254 136.670,39.408 134.800 C 39.562 132.930,39.928 130.817,40.221 130.105 C 40.515 129.393,40.971 127.323,41.236 125.505 C 41.501 123.687,41.947 121.840,42.228 121.400 C 42.508 120.960,42.863 119.700,43.016 118.600 C 43.169 117.500,43.629 115.790,44.037 114.800 C 44.446 113.810,44.958 112.179,45.175 111.175 C 45.392 110.171,45.846 108.821,46.182 108.175 C 46.519 107.529,46.796 106.742,46.798 106.426 C 46.799 106.111,47.147 105.121,47.571 104.226 C 47.996 103.332,48.537 101.856,48.774 100.947 C 49.012 100.037,49.456 99.086,49.761 98.832 C 50.066 98.579,50.430 97.766,50.569 97.026 C 50.707 96.286,51.149 95.258,51.550 94.741 C 51.950 94.223,52.407 93.274,52.564 92.632 C 52.721 91.989,53.198 91.020,53.625 90.478 C 54.051 89.936,54.400 89.181,54.400 88.800 C 54.400 88.419,54.740 87.676,55.156 87.147 C 55.571 86.619,56.208 85.560,56.570 84.793 C 56.932 84.027,57.671 82.680,58.213 81.800 C 58.755 80.920,59.563 79.442,60.010 78.517 C 60.457 77.591,60.993 76.728,61.202 76.599 C 61.410 76.470,62.227 75.248,63.017 73.882 C 63.807 72.517,64.987 70.680,65.639 69.800 C 66.291 68.920,67.125 67.750,67.493 67.200 C 67.861 66.650,68.399 65.930,68.690 65.600 C 69.181 65.043,69.799 64.243,72.400 60.800 C 75.680 56.459,76.920 55.103,84.647 47.416 C 91.937 40.163,94.648 37.600,95.029 37.600 C 95.187 37.600,95.695 37.234,96.158 36.788 C 97.765 35.237,99.908 33.600,100.330 33.600 C 100.564 33.600,100.990 33.283,101.277 32.895 C 101.565 32.508,102.250 31.878,102.800 31.495 C 110.055 26.448,112.331 24.937,113.416 24.450 C 113.865 24.248,114.465 23.804,114.748 23.462 C 115.032 23.120,115.864 22.643,116.597 22.401 C 117.330 22.159,118.023 21.717,118.138 21.418 C 118.252 21.120,118.896 20.755,119.568 20.607 C 120.241 20.459,120.883 20.189,120.996 20.006 C 121.252 19.592,130.894 14.800,131.471 14.800 C 131.703 14.800,132.321 14.466,132.846 14.058 C 133.371 13.650,134.457 13.195,135.260 13.047 C 136.063 12.900,136.936 12.518,137.200 12.200 C 137.464 11.882,138.337 11.502,139.140 11.357 C 139.943 11.211,141.336 10.666,142.235 10.146 C 143.134 9.626,144.373 9.200,144.988 9.200 C 145.603 9.200,146.667 8.859,147.353 8.442 C 148.039 8.026,149.390 7.555,150.356 7.398 C 151.322 7.240,152.852 6.775,153.756 6.364 C 154.660 5.954,155.899 5.614,156.510 5.609 C 157.120 5.604,158.650 5.237,159.910 4.794 C 161.169 4.351,163.640 3.815,165.400 3.604 C 167.160 3.392,169.320 2.964,170.200 2.653 C 171.080 2.342,173.510 1.973,175.600 1.832 C 182.686 1.356,184.000 1.157,184.000 0.561 C 184.000 0.081,170.647 0.000,92.000 0.000 L 0.000 0.000 0.000 191.200 M161.638 56.665 C 159.605 57.543,157.083 59.945,155.412 62.594 C 153.978 64.867,152.400 68.084,152.400 68.735 C 152.400 69.094,151.976 70.291,151.459 71.394 C 150.510 73.415,150.016 74.696,148.907 78.000 C 148.575 78.990,147.980 80.440,147.584 81.222 C 147.189 82.005,146.733 83.351,146.571 84.214 C 146.409 85.078,145.945 86.327,145.540 86.992 C 145.135 87.656,144.797 88.560,144.789 89.000 C 144.781 89.440,144.332 90.700,143.791 91.800 C 143.250 92.900,142.806 94.201,142.804 94.690 C 142.802 95.180,142.445 96.164,142.011 96.877 C 141.578 97.590,141.108 98.939,140.968 99.874 C 140.828 100.809,140.467 101.778,140.167 102.027 C 139.867 102.276,139.513 103.137,139.380 103.940 C 139.072 105.812,138.392 107.600,137.989 107.600 C 137.816 107.600,137.552 108.497,137.401 109.592 C 137.250 110.688,136.806 111.993,136.415 112.492 C 136.023 112.992,135.569 114.210,135.406 115.200 C 135.244 116.190,134.863 117.601,134.561 118.336 C 134.258 119.070,133.806 120.870,133.555 122.336 C 133.304 123.801,132.856 125.476,132.561 126.058 C 132.265 126.640,131.904 127.900,131.759 128.858 C 131.614 129.816,131.176 131.320,130.786 132.200 C 130.396 133.080,129.947 134.880,129.787 136.200 C 129.627 137.520,129.185 139.230,128.803 140.000 C 128.422 140.770,127.995 142.300,127.854 143.400 C 127.714 144.500,127.239 146.347,126.799 147.505 C 126.360 148.662,125.999 150.192,125.998 150.904 C 125.997 151.617,125.551 153.460,125.007 155.000 C 124.462 156.540,124.013 158.542,124.008 159.450 C 124.004 160.357,123.721 161.887,123.379 162.850 C 123.038 163.812,122.501 166.310,122.187 168.400 C 121.872 170.490,121.348 173.370,121.022 174.800 C 120.695 176.230,120.421 178.120,120.411 179.000 C 120.402 179.880,120.046 182.052,119.621 183.827 C 119.195 185.602,118.742 188.032,118.613 189.227 C 117.757 197.175,117.514 198.329,116.654 198.554 C 115.167 198.943,114.968 197.957,114.522 188.000 C 114.424 185.796,114.096 183.640,113.742 182.867 C 113.406 182.134,112.940 179.704,112.706 177.467 C 112.461 175.118,112.043 173.122,111.717 172.742 C 111.406 172.380,110.915 170.384,110.625 168.307 C 110.335 166.229,109.918 164.185,109.699 163.764 C 109.480 163.344,109.174 161.317,109.017 159.259 C 108.861 157.202,108.473 154.592,108.155 153.459 C 107.837 152.327,107.332 149.239,107.034 146.598 C 106.736 143.956,106.202 141.099,105.846 140.249 C 105.491 139.398,105.200 138.267,105.200 137.736 C 105.200 137.164,104.560 136.083,103.635 135.091 C 99.474 130.631,93.718 134.317,92.137 142.453 C 91.993 143.194,91.543 144.427,91.138 145.194 C 90.732 145.961,90.400 146.911,90.400 147.306 C 90.400 147.701,89.950 149.093,89.400 150.400 C 88.850 151.707,88.400 153.238,88.400 153.804 C 88.400 154.369,88.062 155.500,87.648 156.316 C 87.234 157.132,86.762 158.610,86.599 159.600 C 86.436 160.590,85.964 161.878,85.551 162.462 C 85.138 163.046,84.800 163.999,84.800 164.580 C 84.800 165.161,84.350 166.482,83.800 167.515 C 83.250 168.548,82.799 169.845,82.799 170.397 C 82.798 170.949,82.440 171.986,82.003 172.703 C 81.566 173.419,81.094 174.769,80.953 175.703 C 80.813 176.636,80.344 177.990,79.910 178.710 C 78.968 180.277,78.552 184.158,79.160 185.719 C 80.312 188.682,86.213 188.600,87.829 185.600 C 89.530 182.443,92.324 175.078,93.800 169.860 C 94.102 168.793,94.630 167.608,94.974 167.228 C 95.318 166.848,95.606 166.371,95.613 166.169 C 95.688 163.985,98.400 164.820,98.400 167.027 C 98.400 167.508,98.649 168.509,98.952 169.251 C 99.256 169.993,99.635 171.857,99.794 173.393 C 99.953 174.930,100.407 177.270,100.802 178.593 C 101.196 179.917,101.615 182.800,101.732 185.000 C 101.849 187.200,102.228 189.900,102.574 191.000 C 102.920 192.100,103.314 194.620,103.449 196.600 C 103.584 198.580,104.034 201.692,104.447 203.515 C 104.861 205.339,105.203 207.769,105.206 208.915 C 105.210 210.062,105.566 212.673,105.997 214.717 C 106.429 216.762,106.969 219.939,107.197 221.778 C 107.426 223.617,107.970 226.519,108.406 228.225 C 108.843 229.932,109.202 232.244,109.205 233.364 C 109.208 234.484,109.547 236.480,109.958 237.800 C 110.370 239.120,110.835 241.370,110.992 242.800 C 111.576 248.116,114.677 250.776,118.520 249.260 C 119.914 248.709,122.000 245.588,122.005 244.044 C 122.007 243.250,122.366 241.160,122.801 239.400 C 123.237 237.640,123.768 233.934,123.982 231.164 C 124.196 228.394,124.555 225.645,124.779 225.056 C 125.003 224.466,125.383 221.512,125.622 218.492 C 125.862 215.471,126.492 211.200,127.023 209.000 C 127.611 206.565,127.977 203.886,127.959 202.153 C 127.937 200.013,128.137 198.900,128.765 197.669 C 129.444 196.338,129.600 195.298,129.600 192.103 C 129.600 189.716,129.848 187.316,130.231 185.987 C 130.578 184.784,131.042 182.270,131.262 180.400 C 131.482 178.530,131.919 176.601,132.231 176.114 C 132.544 175.627,132.800 174.595,132.800 173.821 C 132.800 171.762,133.604 166.847,134.244 164.986 C 134.550 164.099,134.958 162.119,135.151 160.586 C 135.345 159.054,135.774 157.152,136.105 156.361 C 136.437 155.570,136.838 153.950,136.996 152.761 C 137.154 151.572,137.602 150.060,137.991 149.400 C 138.379 148.740,138.823 147.660,138.976 147.000 C 139.130 146.340,139.945 144.360,140.787 142.600 C 141.996 140.074,142.376 138.726,142.592 136.200 C 142.753 134.323,143.159 132.494,143.574 131.777 C 143.964 131.105,144.415 129.846,144.577 128.980 C 144.740 128.114,144.990 127.225,145.134 127.003 C 145.568 126.332,146.364 123.073,146.382 121.888 C 146.392 121.276,146.850 119.707,147.400 118.400 C 147.950 117.093,148.400 115.701,148.400 115.306 C 148.400 114.911,148.747 113.940,149.172 113.148 C 149.596 112.356,150.069 111.009,150.222 110.154 C 150.376 109.299,150.726 108.330,151.000 108.000 C 151.274 107.670,151.724 106.680,152.000 105.800 C 152.276 104.920,152.747 103.917,153.047 103.572 C 153.348 103.227,153.764 102.046,153.972 100.948 C 154.180 99.849,154.627 98.422,154.964 97.775 C 155.301 97.129,156.050 95.430,156.629 94.000 C 157.983 90.655,158.308 89.932,158.787 89.200 C 159.004 88.870,159.456 87.970,159.793 87.200 C 160.491 85.605,161.661 83.656,163.400 81.193 C 164.060 80.258,164.870 79.104,165.200 78.630 C 165.530 78.155,166.921 76.713,168.292 75.424 C 169.662 74.136,170.902 72.703,171.047 72.241 C 171.192 71.778,171.628 70.993,172.016 70.495 C 174.855 66.858,173.527 60.621,169.286 57.672 C 167.800 56.639,163.124 56.023,161.638 56.665 M246.048 99.024 C 240.466 102.097,239.015 107.279,243.262 108.978 C 246.150 110.134,249.716 107.968,252.318 103.477 C 254.715 99.339,250.681 96.473,246.048 99.024 M280.691 102.400 C 280.131 102.840,279.472 103.200,279.224 103.200 C 278.765 103.200,274.000 107.951,274.000 108.410 C 274.000 109.249,269.906 110.540,268.695 110.083 C 267.826 109.755,267.059 109.727,266.218 109.993 C 265.548 110.205,264.164 110.482,263.142 110.607 C 261.247 110.841,257.600 113.185,257.600 114.169 C 257.600 114.423,257.215 115.344,256.745 116.215 C 255.955 117.682,255.868 118.649,255.582 129.200 C 255.412 135.470,255.066 142.490,254.813 144.800 C 254.055 151.736,255.753 154.062,260.350 152.386 C 265.424 150.536,266.578 148.420,266.669 140.800 C 266.802 129.528,268.706 119.740,271.047 118.298 C 271.317 118.131,271.910 117.393,272.365 116.656 C 273.722 114.461,276.786 113.095,278.469 113.935 L 279.800 114.600 279.815 123.553 C 279.824 128.478,279.659 133.774,279.450 135.323 C 278.973 138.846,279.628 142.442,281.055 144.138 C 282.294 145.611,282.300 145.605,277.000 148.393 C 276.120 148.855,274.680 149.676,273.800 150.216 C 272.920 150.756,271.459 151.556,270.553 151.994 C 269.647 152.432,268.695 153.045,268.436 153.356 C 268.178 153.667,267.507 154.037,266.943 154.178 C 266.380 154.320,265.443 154.750,264.860 155.134 C 263.053 156.324,262.256 156.792,260.600 157.631 C 259.720 158.077,258.190 158.970,257.200 159.614 C 256.210 160.259,254.770 161.104,254.000 161.493 C 253.230 161.882,252.504 162.328,252.386 162.484 C 252.268 162.641,251.548 163.049,250.786 163.391 C 250.024 163.732,248.500 164.538,247.400 165.182 C 246.300 165.825,244.860 166.604,244.200 166.914 C 243.540 167.223,242.753 167.774,242.451 168.138 C 242.149 168.502,241.668 168.800,241.382 168.800 C 241.096 168.800,240.353 169.225,239.731 169.745 C 239.109 170.265,238.195 170.817,237.700 170.972 C 237.205 171.127,236.800 171.421,236.800 171.625 C 236.800 171.829,235.999 172.372,235.020 172.832 C 234.042 173.293,233.030 173.923,232.771 174.234 C 232.513 174.546,232.082 174.800,231.813 174.800 C 231.544 174.800,230.998 175.160,230.600 175.600 C 230.202 176.040,229.648 176.400,229.369 176.400 C 229.090 176.400,228.327 176.850,227.673 177.400 C 227.019 177.950,226.345 178.400,226.174 178.400 C 226.003 178.400,225.533 178.699,225.129 179.064 C 224.725 179.430,224.261 179.593,224.098 179.428 C 223.638 178.964,223.859 164.909,224.369 162.134 C 224.619 160.778,225.000 156.008,225.218 151.534 C 225.435 147.060,225.775 142.320,225.973 141.000 C 227.273 132.331,226.076 129.375,221.387 129.673 C 219.405 129.799,218.627 130.035,218.012 130.695 C 217.572 131.167,216.972 131.699,216.679 131.877 C 215.673 132.486,214.769 138.410,214.399 146.824 C 214.181 151.775,213.711 156.857,213.219 159.594 C 212.768 162.094,212.400 165.035,212.400 166.129 C 212.400 168.981,210.382 171.972,207.719 173.065 C 204.105 174.549,202.229 172.989,202.217 168.487 C 202.200 162.119,202.908 154.204,203.622 152.781 C 204.013 152.001,204.456 150.708,204.606 149.908 C 204.756 149.107,205.221 148.143,205.640 147.764 C 206.058 147.386,206.400 146.850,206.400 146.573 C 206.400 146.296,207.304 144.988,208.409 143.665 C 210.689 140.937,211.407 137.240,209.942 135.772 C 209.153 134.981,205.544 135.304,204.771 136.235 C 204.513 136.546,204.063 136.800,203.772 136.800 C 202.882 136.800,198.448 140.739,197.331 142.522 C 196.753 143.445,196.172 144.292,196.040 144.403 C 195.547 144.821,193.600 148.824,193.600 149.420 C 193.600 149.760,193.233 150.795,192.785 151.719 C 192.184 152.957,191.861 154.818,191.561 158.776 C 191.336 161.733,191.035 164.343,190.890 164.576 C 190.468 165.259,190.776 175.950,191.304 178.938 C 191.802 181.758,192.221 182.335,195.632 184.900 C 196.677 185.686,201.134 185.861,203.600 185.213 C 206.593 184.426,209.037 183.448,209.864 182.704 C 211.413 181.313,212.184 181.894,212.321 184.555 C 212.463 187.290,212.009 187.958,208.400 190.319 C 207.190 191.111,205.120 192.635,203.800 193.705 C 200.401 196.462,200.331 196.516,199.000 197.373 C 198.340 197.799,197.586 198.339,197.324 198.573 C 197.062 198.808,196.195 199.450,195.396 200.000 C 194.598 200.550,193.436 201.405,192.815 201.900 C 192.193 202.395,191.559 202.800,191.406 202.800 C 191.253 202.800,190.199 203.569,189.064 204.508 C 187.929 205.448,186.100 206.830,185.000 207.579 C 183.900 208.329,182.190 209.680,181.200 210.582 C 180.210 211.485,178.050 213.240,176.400 214.482 C 174.750 215.725,172.649 217.430,171.732 218.271 C 170.814 219.112,169.606 220.160,169.046 220.600 C 168.486 221.040,167.077 222.252,165.914 223.294 C 164.751 224.335,163.691 225.190,163.558 225.194 C 163.324 225.200,162.044 226.258,160.000 228.138 C 159.450 228.644,157.830 230.033,156.400 231.226 C 154.970 232.419,153.710 233.486,153.600 233.598 C 153.490 233.709,152.050 234.968,150.400 236.395 C 147.252 239.118,146.806 239.539,139.592 246.582 C 131.794 254.195,130.005 257.892,132.713 260.798 C 133.201 261.322,133.600 261.872,133.600 262.020 C 133.600 263.126,139.615 264.346,140.400 263.400 C 140.674 263.070,141.113 262.800,141.377 262.800 C 141.640 262.800,142.223 262.395,142.671 261.900 C 143.119 261.405,143.827 260.709,144.243 260.353 C 144.659 259.997,148.240 256.328,152.200 252.199 C 167.103 236.659,174.331 229.690,180.200 225.200 C 181.740 224.022,183.403 222.685,183.896 222.229 C 184.389 221.773,185.199 221.020,185.696 220.556 C 186.193 220.092,187.860 218.763,189.400 217.603 C 190.940 216.443,192.380 215.285,192.600 215.029 C 192.820 214.773,193.380 214.302,193.844 213.982 C 194.308 213.662,195.478 212.727,196.444 211.905 C 198.314 210.313,200.364 208.705,202.189 207.400 C 203.372 206.554,205.243 204.963,206.642 203.613 C 207.105 203.166,207.628 202.800,207.804 202.800 C 207.980 202.800,208.731 202.338,209.472 201.772 C 212.314 199.604,212.187 198.789,212.308 220.005 C 212.384 233.266,212.236 242.127,211.817 249.357 C 211.279 258.621,211.281 260.013,211.827 262.557 C 212.162 264.120,212.515 265.778,212.611 266.241 C 212.707 266.703,213.628 267.738,214.658 268.541 C 220.028 272.724,227.577 267.769,225.689 261.301 C 225.448 260.475,225.341 259.350,225.451 258.800 C 225.586 258.125,225.372 257.501,224.793 256.881 C 224.211 256.259,224.056 255.807,224.315 255.481 C 225.097 254.493,225.211 252.231,224.540 251.000 C 223.524 249.138,222.674 240.970,222.729 233.600 C 222.847 217.728,223.246 194.500,223.419 193.400 C 223.721 191.484,225.321 190.182,235.200 183.809 C 236.630 182.886,238.853 181.427,240.140 180.566 C 241.426 179.705,243.118 178.671,243.900 178.269 C 244.681 177.866,245.576 177.281,245.889 176.969 C 246.201 176.656,246.692 176.400,246.980 176.400 C 247.267 176.400,247.739 176.115,248.028 175.766 C 248.318 175.417,249.240 174.857,250.077 174.522 C 250.915 174.187,251.600 173.767,251.600 173.588 C 251.600 173.409,252.216 173.059,252.968 172.811 C 253.720 172.562,254.554 172.096,254.821 171.775 C 255.088 171.454,256.047 170.837,256.953 170.405 C 258.601 169.620,259.319 169.209,261.208 167.972 C 261.762 167.609,262.662 167.173,263.208 167.002 C 263.753 166.832,264.298 166.541,264.417 166.357 C 264.670 165.966,267.579 164.284,269.600 163.360 C 270.370 163.008,271.270 162.491,271.600 162.211 C 271.930 161.930,272.875 161.484,273.700 161.220 C 274.525 160.955,275.200 160.596,275.200 160.423 C 275.200 160.250,276.010 159.799,277.000 159.421 C 277.990 159.043,278.800 158.605,278.800 158.447 C 278.800 158.290,279.475 157.919,280.300 157.624 C 281.125 157.329,281.890 156.971,282.000 156.830 C 282.190 156.585,287.511 153.953,293.275 151.253 C 294.746 150.564,296.189 150.000,296.481 150.000 C 296.773 150.000,297.684 149.640,298.504 149.200 C 299.325 148.760,300.313 148.394,300.699 148.387 C 301.084 148.380,302.390 148.011,303.600 147.567 C 304.810 147.123,306.500 146.582,307.355 146.366 C 308.211 146.149,309.360 145.618,309.909 145.186 C 310.458 144.754,311.125 144.400,311.390 144.400 C 312.091 144.400,315.600 140.983,315.600 140.302 C 315.600 139.984,315.960 139.398,316.400 139.000 C 318.923 136.717,316.258 132.250,312.093 131.779 C 309.728 131.511,303.600 133.408,303.600 134.408 C 303.600 134.553,302.880 134.910,302.000 135.200 C 301.120 135.490,300.400 135.865,300.400 136.033 C 300.400 136.201,299.725 136.554,298.900 136.817 C 298.075 137.081,296.839 137.635,296.153 138.049 C 294.498 139.046,293.334 138.998,292.751 137.908 C 292.488 137.418,292.032 136.775,291.737 136.480 C 291.030 135.773,291.026 135.677,291.012 119.194 L 291.000 104.987 289.600 103.301 L 288.200 101.614 284.954 101.607 C 282.306 101.601,281.520 101.748,280.691 102.400 M241.095 121.720 C 238.462 123.489,236.800 126.240,236.800 128.831 C 236.800 129.932,236.539 132.131,236.219 133.717 C 235.427 137.649,234.800 143.725,234.799 147.484 C 234.799 149.198,234.529 152.130,234.200 154.000 C 232.861 161.601,233.797 164.021,237.841 163.415 C 238.803 163.270,239.818 162.938,240.095 162.676 C 240.373 162.414,241.275 161.696,242.101 161.079 C 244.406 159.357,245.169 157.383,245.162 153.156 C 245.159 151.197,245.266 149.417,245.400 149.200 C 245.534 148.983,245.790 143.887,245.969 137.875 C 246.187 130.553,246.458 126.639,246.788 126.022 C 247.147 125.352,247.166 124.867,246.859 124.250 C 246.626 123.783,246.167 122.725,245.838 121.900 C 245.071 119.974,243.768 119.925,241.095 121.720 M156.400 136.484 C 154.385 137.397,150.405 140.608,150.391 141.331 C 150.386 141.589,150.030 142.250,149.600 142.800 C 147.346 145.681,150.752 149.498,154.181 147.936 C 154.742 147.680,155.200 147.333,155.200 147.163 C 155.200 146.993,155.572 146.736,156.026 146.592 C 158.068 145.944,161.200 141.952,161.200 139.999 C 161.200 138.338,159.338 135.455,158.381 135.634 C 158.281 135.652,157.390 136.035,156.400 136.484 M180.800 149.400 C 180.055 149.950,179.070 150.400,178.611 150.400 C 178.153 150.400,177.372 150.684,176.876 151.032 C 176.379 151.380,174.787 151.832,173.338 152.037 C 171.535 152.293,170.344 152.712,169.566 153.367 C 168.941 153.893,168.288 154.386,168.115 154.462 C 166.350 155.237,165.501 158.008,165.165 164.092 C 164.979 167.451,164.554 171.820,164.220 173.800 C 163.187 179.935,163.348 194.772,164.464 196.190 C 165.566 197.591,168.980 197.522,170.529 196.067 C 171.036 195.590,171.644 195.200,171.878 195.200 C 174.156 195.200,175.550 189.997,176.006 179.800 C 176.460 169.636,176.485 169.451,177.809 166.141 C 178.876 163.473,179.157 163.146,185.379 157.321 C 190.374 152.644,186.197 145.418,180.800 149.400 M150.438 161.885 C 148.848 162.515,144.800 165.845,144.800 166.523 C 144.800 166.703,144.370 167.783,143.844 168.925 C 143.068 170.611,142.840 171.936,142.632 176.000 C 142.490 178.750,142.205 182.080,141.997 183.400 C 141.525 186.400,140.814 198.513,140.806 203.678 C 140.796 210.176,142.928 211.408,148.106 207.897 C 149.595 206.888,151.002 205.999,151.232 205.923 C 151.753 205.749,152.440 200.706,152.429 197.144 C 152.425 195.683,152.687 193.465,153.013 192.215 C 153.338 190.966,153.793 187.211,154.023 183.872 C 154.253 180.532,154.626 177.465,154.852 177.055 C 155.465 175.944,155.905 170.642,155.691 166.943 C 155.428 162.402,153.595 160.636,150.438 161.885 M208.538 363.547 C 211.045 364.444,213.320 366.185,214.582 368.170 C 215.879 370.210,218.000 374.415,218.000 374.947 C 218.000 375.220,218.450 376.055,219.000 376.800 C 219.550 377.545,220.000 378.543,220.000 379.016 C 220.000 379.489,220.350 380.193,220.777 380.579 C 221.205 380.966,221.678 381.849,221.829 382.541 C 221.981 383.234,222.441 384.229,222.852 384.754 C 223.263 385.279,223.600 385.963,223.600 386.275 C 223.600 386.586,223.950 387.507,224.378 388.321 C 224.805 389.134,225.953 391.510,226.928 393.600 C 227.902 395.690,229.263 398.584,229.950 400.032 C 230.638 401.479,231.200 402.850,231.200 403.078 C 231.200 403.306,231.534 403.921,231.942 404.446 C 232.350 404.971,232.899 406.061,233.162 406.868 C 233.426 407.675,233.902 408.552,234.220 408.817 C 234.539 409.082,234.800 409.691,234.800 410.171 C 234.800 410.652,235.250 411.655,235.800 412.400 C 236.350 413.145,236.800 414.090,236.800 414.499 C 236.800 414.908,237.250 415.905,237.800 416.714 C 238.350 417.523,238.800 418.423,238.800 418.714 C 238.800 419.004,239.156 419.907,239.592 420.721 C 240.805 422.988,244.400 430.698,244.400 431.033 C 244.400 432.207,246.981 435.200,247.993 435.200 C 250.058 435.200,249.989 436.388,250.098 399.162 L 250.200 364.200 253.600 364.200 L 257.000 364.200 257.102 402.157 C 257.177 430.211,257.085 440.257,256.746 440.665 C 256.380 441.106,254.755 441.195,248.647 441.108 L 241.006 441.000 240.256 439.400 C 239.843 438.520,239.365 437.710,239.194 437.600 C 239.023 437.490,238.683 436.656,238.439 435.747 C 238.194 434.837,237.747 433.888,237.445 433.638 C 237.143 433.387,236.786 432.631,236.652 431.959 C 236.517 431.286,236.045 430.275,235.604 429.714 C 235.162 429.152,234.799 428.401,234.798 428.046 C 234.797 427.691,234.352 426.680,233.810 425.800 C 233.268 424.920,232.819 423.909,232.812 423.554 C 232.806 423.199,232.451 422.464,232.025 421.922 C 231.598 421.380,231.121 420.411,230.964 419.768 C 230.807 419.126,230.345 418.171,229.939 417.646 C 229.533 417.121,229.200 416.490,229.200 416.243 C 229.200 415.996,228.773 414.985,228.252 413.997 C 227.730 413.009,227.165 411.750,226.997 411.200 C 226.828 410.650,226.355 409.771,225.945 409.246 C 225.535 408.721,225.200 407.981,225.200 407.600 C 225.200 407.219,224.851 406.464,224.425 405.922 C 223.998 405.380,223.521 404.411,223.364 403.768 C 223.207 403.126,222.745 402.171,222.339 401.646 C 221.933 401.121,221.600 400.381,221.600 400.000 C 221.600 399.619,221.274 398.879,220.876 398.354 C 220.477 397.829,219.937 396.656,219.674 395.747 C 219.411 394.839,218.927 393.872,218.598 393.598 C 218.269 393.325,218.000 392.836,218.000 392.510 C 218.000 392.184,217.571 391.081,217.047 390.059 C 215.431 386.909,214.000 383.740,214.000 383.314 C 214.000 383.091,213.663 382.479,213.252 381.954 C 212.841 381.429,212.381 380.434,212.229 379.741 C 212.078 379.049,211.605 378.166,211.177 377.779 C 210.750 377.393,210.400 376.668,210.400 376.169 C 210.400 375.670,209.950 374.727,209.400 374.073 C 208.850 373.419,208.400 372.704,208.400 372.484 C 208.400 371.410,205.554 369.600,203.886 369.613 C 202.070 369.626,201.472 369.964,200.091 371.754 L 199.200 372.908 199.200 406.574 C 199.200 432.225,199.086 440.354,198.720 440.720 C 198.136 441.304,194.554 441.352,192.960 440.796 L 191.800 440.392 191.894 406.896 L 191.987 373.400 192.893 370.676 C 195.084 364.081,201.661 361.084,208.538 363.547 M325.626 364.414 C 326.433 364.846,326.748 368.034,326.086 369.075 C 325.315 370.288,323.277 370.400,302.017 370.400 C 282.752 370.400,280.460 370.467,280.243 371.033 C 279.625 372.642,279.985 397.528,280.635 398.178 C 281.200 398.743,283.552 398.811,301.730 398.793 C 325.197 398.768,323.319 398.434,323.117 402.599 L 323.000 405.000 302.037 405.104 C 287.366 405.176,280.912 405.341,280.537 405.653 C 279.935 406.152,279.731 432.958,280.322 433.887 C 280.557 434.258,285.973 434.401,303.054 434.487 C 321.347 434.579,325.599 434.701,326.139 435.149 C 326.992 435.858,327.073 440.076,326.245 440.762 C 325.594 441.303,274.139 441.219,273.300 440.676 C 272.392 440.089,272.589 364.963,273.500 364.432 C 274.473 363.865,324.568 363.848,325.626 364.414 M20.400 369.342 C 15.150 370.854,9.200 376.030,9.200 379.084 C 9.200 379.312,8.795 380.376,8.300 381.449 L 7.400 383.400 7.296 411.945 C 7.239 427.644,7.093 440.649,6.972 440.845 C 6.852 441.040,5.233 441.200,3.376 441.200 C 0.267 441.200,0.000 441.263,0.000 442.000 C 0.000 442.787,0.267 442.800,16.400 442.800 C 30.831 442.800,32.800 442.727,32.800 442.190 C 32.800 441.835,32.308 441.482,31.621 441.344 C 30.473 441.115,29.163 440.090,27.277 437.947 C 25.575 436.015,25.369 427.844,26.948 424.893 C 27.269 424.292,27.907 423.080,28.364 422.200 C 28.821 421.320,29.511 420.144,29.897 419.586 C 30.284 419.028,30.960 417.971,31.400 417.236 C 31.840 416.501,32.605 415.401,33.100 414.792 C 33.595 414.183,34.000 413.513,34.000 413.304 C 34.000 413.095,34.360 412.598,34.800 412.200 C 35.240 411.802,35.600 411.248,35.600 410.969 C 35.600 410.690,36.050 409.927,36.600 409.273 C 37.150 408.619,37.600 407.894,37.600 407.662 C 37.600 407.430,37.846 407.096,38.146 406.920 C 38.446 406.744,38.990 406.060,39.354 405.400 C 39.718 404.740,40.688 403.300,41.508 402.200 L 43.000 400.200 43.000 391.200 C 43.000 383.554,42.902 382.050,42.348 381.200 C 41.989 380.650,41.582 379.711,41.443 379.114 C 39.759 371.846,29.019 366.859,20.400 369.342 M134.400 369.549 C 132.310 369.942,130.060 370.563,129.400 370.929 C 128.740 371.295,127.907 371.596,127.549 371.598 C 127.191 371.599,126.672 371.872,126.396 372.205 C 126.120 372.537,125.091 373.165,124.109 373.599 C 122.092 374.491,115.634 380.777,114.505 382.947 C 114.117 383.692,113.233 385.386,112.541 386.710 C 111.848 388.034,111.153 389.721,110.996 390.459 C 110.838 391.196,110.370 392.555,109.955 393.478 C 108.822 395.998,108.848 408.986,109.992 411.506 C 110.417 412.444,110.886 413.884,111.034 414.706 C 111.181 415.527,111.526 416.470,111.800 416.800 C 112.074 417.130,112.516 418.075,112.780 418.900 C 113.045 419.725,113.433 420.400,113.641 420.400 C 113.849 420.400,114.203 420.883,114.428 421.473 C 115.421 424.085,123.143 431.600,124.834 431.600 C 125.187 431.600,125.793 431.950,126.179 432.377 C 126.566 432.805,127.442 433.277,128.126 433.428 C 128.809 433.578,130.005 434.024,130.784 434.419 C 132.998 435.543,140.019 436.129,144.927 435.600 C 153.253 434.702,161.356 429.854,165.988 423.000 C 166.732 421.900,167.660 420.523,168.052 419.940 C 168.444 419.357,168.887 418.367,169.036 417.740 C 169.185 417.113,169.543 416.327,169.832 415.993 C 170.120 415.659,170.620 414.219,170.943 412.793 C 171.266 411.367,171.722 409.480,171.956 408.600 C 172.592 406.206,172.512 397.566,171.834 395.514 C 171.523 394.571,171.063 392.779,170.812 391.531 C 170.561 390.283,170.115 389.061,169.820 388.816 C 169.525 388.572,169.171 387.773,169.034 387.041 C 168.897 386.309,168.428 385.387,167.992 384.993 C 167.556 384.599,167.200 384.063,167.200 383.804 C 167.200 383.198,164.666 379.894,162.600 377.805 C 161.186 376.375,159.986 375.464,155.958 372.761 C 155.385 372.377,154.184 371.865,153.289 371.624 C 152.394 371.383,151.600 371.001,151.525 370.776 C 151.066 369.399,139.574 368.575,134.400 369.549 M41.430 412.591 C 41.110 413.356,40.654 414.211,40.417 414.491 C 39.481 415.597,37.998 417.852,37.584 418.800 C 37.343 419.350,36.844 420.160,36.473 420.600 C 34.467 422.983,32.000 428.657,32.000 430.887 C 32.000 437.061,38.880 438.952,42.397 433.744 C 44.195 431.081,44.159 411.200,42.356 411.200 C 42.166 411.200,41.749 411.826,41.430 412.591 " stroke="none" fill="#fcfbfb" fill-rule="evenodd"></path></g></svg>