<svg id="svg" version="1.1" xmlns="http://www.w3.org/2000/svg" xmlns:xlink="http://www.w3.org/1999/xlink" width="400" height="423.8532110091743" viewBox="0, 0, 400,423.8532110091743"><g id="svgg"><path id="path0" d="M0.000 39.000 C 0.000 71.432,0.091 78.000,0.539 78.000 C 0.944 78.000,1.199 76.542,1.566 72.123 C 1.834 68.891,2.211 65.954,2.402 65.595 C 2.594 65.237,2.963 63.337,3.222 61.372 C 3.481 59.407,3.942 57.315,4.245 56.723 C 4.548 56.131,4.964 54.467,5.168 53.025 C 5.372 51.584,5.823 49.836,6.169 49.141 C 6.516 48.446,6.800 47.502,6.800 47.044 C 6.800 46.586,7.232 45.309,7.761 44.206 C 8.289 43.103,8.941 41.615,9.209 40.900 C 9.477 40.185,9.841 39.600,10.017 39.600 C 10.193 39.600,10.450 39.082,10.589 38.449 C 10.728 37.816,11.282 36.701,11.821 35.972 C 12.359 35.242,12.800 34.432,12.800 34.171 C 12.800 33.911,13.089 33.458,13.442 33.165 C 13.795 32.873,14.249 32.265,14.452 31.816 C 16.021 28.339,27.068 17.159,30.000 16.079 C 30.330 15.958,30.690 15.731,30.800 15.574 C 31.076 15.182,33.513 13.729,35.193 12.954 C 35.960 12.600,37.019 11.971,37.547 11.556 C 38.076 11.140,38.806 10.800,39.169 10.800 C 39.533 10.800,40.498 10.460,41.314 10.044 C 42.130 9.628,43.287 9.164,43.885 9.014 C 44.483 8.864,45.721 8.400,46.636 7.983 C 47.552 7.567,49.088 7.105,50.050 6.957 C 51.013 6.809,52.319 6.427,52.953 6.107 C 53.587 5.787,55.262 5.361,56.676 5.161 C 58.090 4.961,59.731 4.546,60.323 4.240 C 60.915 3.935,62.975 3.492,64.899 3.257 C 66.823 3.022,68.716 2.659,69.105 2.451 C 69.494 2.242,72.645 1.846,76.106 1.569 C 80.833 1.192,82.400 0.934,82.400 0.533 C 82.400 0.092,75.266 0.000,41.200 0.000 L 0.000 0.000 0.000 39.000 M110.400 0.516 C 110.400 0.896,112.102 1.167,116.815 1.540 C 120.343 1.818,123.898 2.281,124.715 2.568 C 125.532 2.855,127.418 3.219,128.906 3.377 C 130.395 3.536,132.595 4.010,133.796 4.433 C 134.997 4.855,136.480 5.208,137.090 5.218 C 137.701 5.227,138.920 5.508,139.800 5.842 C 140.680 6.175,142.390 6.695,143.600 6.997 C 146.091 7.618,151.131 9.332,152.254 9.940 C 152.664 10.162,154.440 11.025,156.200 11.859 C 157.960 12.692,159.638 13.605,159.929 13.887 C 160.219 14.169,160.686 14.400,160.967 14.400 C 161.247 14.400,161.802 14.760,162.200 15.200 C 162.598 15.640,163.121 16.000,163.362 16.000 C 163.771 16.001,164.544 16.561,167.319 18.869 C 171.809 22.604,177.126 28.415,179.516 32.200 C 180.211 33.300,180.974 34.429,181.213 34.709 C 181.452 34.988,181.850 35.798,182.097 36.509 C 182.344 37.219,182.783 38.038,183.072 38.328 C 183.362 38.618,183.717 39.338,183.860 39.928 C 184.004 40.518,184.455 41.429,184.861 41.954 C 185.267 42.479,185.601 43.379,185.601 43.954 C 185.602 44.529,185.941 45.555,186.355 46.233 C 186.769 46.912,187.238 48.262,187.398 49.233 C 187.557 50.205,188.013 51.990,188.411 53.200 C 188.808 54.410,189.252 56.300,189.396 57.400 C 189.540 58.500,189.931 60.210,190.264 61.200 C 190.597 62.190,191.036 64.800,191.238 67.000 C 191.441 69.200,191.778 71.360,191.987 71.800 C 193.190 74.328,193.691 92.926,192.567 93.357 C 192.219 93.491,179.263 93.600,163.777 93.600 L 135.618 93.600 134.936 92.558 C 134.475 91.856,134.205 90.453,134.108 88.258 C 133.823 81.850,132.465 74.442,130.944 71.000 C 130.653 70.340,130.136 69.170,129.796 68.400 C 128.601 65.692,127.242 63.768,124.600 61.044 C 123.116 59.514,122.431 58.969,119.640 57.105 C 117.422 55.622,112.779 53.601,111.574 53.594 C 111.038 53.591,108.635 53.231,106.232 52.794 C 100.276 51.711,91.956 51.718,87.020 52.809 C 85.051 53.244,82.911 53.600,82.264 53.600 C 81.073 53.600,79.441 54.250,74.889 56.538 C 72.428 57.775,66.400 62.971,66.400 63.855 C 66.400 64.101,66.135 64.522,65.812 64.790 C 65.116 65.367,62.800 69.888,62.800 70.668 C 62.800 70.966,62.455 71.972,62.034 72.904 C 61.613 73.837,60.973 76.130,60.612 78.000 C 60.250 79.870,59.796 82.210,59.601 83.200 C 59.117 85.665,59.141 101.777,59.633 104.000 C 59.852 104.990,60.306 107.330,60.642 109.200 C 60.978 111.070,61.576 113.320,61.972 114.200 C 62.367 115.080,62.813 116.475,62.963 117.300 C 63.113 118.125,63.379 118.800,63.554 118.800 C 63.729 118.800,64.093 119.295,64.363 119.900 C 65.789 123.094,72.249 130.000,73.809 130.000 C 74.075 130.000,74.736 130.349,75.278 130.775 C 75.820 131.202,76.789 131.682,77.432 131.843 C 78.074 132.004,79.140 132.464,79.800 132.866 C 80.460 133.268,81.555 133.598,82.232 133.599 C 82.910 133.599,85.430 133.957,87.832 134.394 C 93.617 135.445,100.102 135.448,105.600 134.400 C 107.909 133.960,110.280 133.600,110.869 133.600 C 114.293 133.600,121.387 129.445,125.442 125.066 C 127.898 122.412,128.613 121.408,129.615 119.200 C 129.864 118.650,130.400 117.480,130.806 116.600 C 131.212 115.720,131.667 114.190,131.816 113.200 C 132.905 105.985,135.104 104.211,139.154 107.278 C 139.679 107.675,140.399 108.001,140.754 108.001 C 141.109 108.002,141.989 108.362,142.710 108.801 C 143.430 109.241,144.250 109.600,144.532 109.600 C 144.814 109.600,145.655 110.050,146.400 110.600 C 147.145 111.150,148.146 111.600,148.624 111.600 C 149.101 111.600,149.950 111.960,150.509 112.400 C 151.069 112.840,151.664 113.200,151.831 113.200 C 152.173 113.200,157.065 115.445,158.000 116.030 C 158.330 116.237,159.050 116.599,159.600 116.836 C 160.150 117.073,161.266 117.611,162.079 118.033 C 162.893 118.455,163.814 118.800,164.125 118.800 C 164.437 118.800,165.121 119.134,165.646 119.542 C 166.171 119.950,167.320 120.513,168.200 120.792 C 169.080 121.072,170.070 121.526,170.400 121.800 C 170.730 122.074,171.661 122.511,172.468 122.770 C 173.275 123.029,174.152 123.502,174.417 123.820 C 174.682 124.139,175.302 124.400,175.795 124.400 C 176.288 124.400,177.150 124.760,177.709 125.200 C 178.269 125.640,178.952 126.000,179.228 126.000 C 179.504 126.000,180.466 126.428,181.365 126.952 C 182.264 127.475,183.585 128.029,184.300 128.183 C 185.015 128.337,185.600 128.627,185.600 128.826 C 185.600 129.026,186.269 129.469,187.086 129.810 C 188.984 130.603,189.182 130.960,188.714 132.741 C 188.502 133.543,188.026 135.460,187.655 137.000 C 187.284 138.540,186.670 140.376,186.290 141.080 C 185.911 141.784,185.600 142.746,185.600 143.218 C 185.600 143.690,185.264 144.554,184.852 145.138 C 184.441 145.722,183.970 146.650,183.805 147.200 C 183.640 147.750,183.279 148.470,183.003 148.800 C 182.727 149.130,182.290 150.059,182.031 150.865 C 181.773 151.670,181.300 152.430,180.981 152.552 C 180.661 152.675,180.400 153.026,180.400 153.332 C 180.400 153.830,179.923 154.540,177.314 157.926 C 174.160 162.020,170.838 165.300,165.000 170.086 C 163.893 170.993,161.688 172.429,160.808 172.815 C 160.263 173.054,159.723 173.377,159.608 173.533 C 159.494 173.689,158.230 174.373,156.800 175.055 C 155.370 175.736,153.207 176.767,151.994 177.347 C 150.781 177.926,149.379 178.400,148.878 178.400 C 148.378 178.400,147.300 178.735,146.484 179.144 C 145.668 179.553,144.216 180.008,143.258 180.155 C 142.300 180.302,141.040 180.666,140.458 180.964 C 139.876 181.261,138.079 181.725,136.465 181.994 C 134.850 182.264,133.067 182.724,132.502 183.017 C 131.938 183.310,130.288 183.668,128.838 183.813 C 127.387 183.959,125.463 184.318,124.562 184.613 C 123.662 184.907,121.322 185.265,119.362 185.409 C 117.403 185.552,113.100 186.012,109.800 186.432 C 102.357 187.379,91.253 187.448,85.000 186.588 C 82.580 186.255,78.440 185.808,75.800 185.594 C 73.160 185.381,70.190 184.948,69.200 184.633 C 68.210 184.318,65.893 183.870,64.050 183.638 C 62.208 183.406,60.495 183.044,60.242 182.835 C 59.990 182.626,58.348 182.188,56.592 181.861 C 54.836 181.534,52.680 180.990,51.800 180.651 C 50.920 180.312,49.771 180.027,49.247 180.018 C 48.723 180.008,47.733 179.662,47.047 179.249 C 46.361 178.835,45.080 178.372,44.200 178.219 C 43.320 178.066,42.240 177.711,41.800 177.431 C 41.360 177.151,40.280 176.688,39.400 176.402 C 38.520 176.117,37.371 175.550,36.846 175.142 C 36.321 174.734,35.729 174.400,35.530 174.400 C 35.331 174.400,34.680 174.064,34.084 173.654 C 33.488 173.244,31.944 172.209,30.654 171.354 C 29.364 170.499,27.697 169.391,26.951 168.892 C 25.031 167.608,17.427 159.927,16.106 157.937 C 15.498 157.022,14.730 155.878,14.400 155.396 C 13.726 154.412,12.821 152.996,12.100 151.800 C 11.070 150.091,8.800 145.291,8.800 144.821 C 8.800 144.549,8.455 143.887,8.033 143.351 C 7.611 142.815,7.140 141.617,6.986 140.688 C 6.832 139.760,6.440 138.481,6.115 137.847 C 5.790 137.213,5.361 135.538,5.161 134.124 C 4.961 132.710,4.546 131.069,4.240 130.477 C 3.935 129.885,3.492 127.825,3.257 125.901 C 3.022 123.977,2.656 122.078,2.444 121.683 C 2.233 121.287,1.831 118.407,1.551 115.282 C 1.180 111.139,0.902 109.600,0.521 109.600 C 0.095 109.600,0.000 124.759,0.000 193.200 C 0.000 262.712,0.090 276.800,0.535 276.800 C 0.933 276.800,1.203 275.297,1.595 270.905 C 1.884 267.663,2.342 264.468,2.612 263.805 C 2.883 263.142,3.232 261.368,3.388 259.863 C 3.544 258.358,3.910 256.557,4.201 255.860 C 4.492 255.164,4.940 253.426,5.197 251.997 C 5.455 250.569,5.905 248.860,6.197 248.200 C 6.490 247.540,6.941 246.064,7.200 244.920 C 7.459 243.776,7.924 242.629,8.235 242.371 C 8.546 242.113,8.801 241.609,8.801 241.251 C 8.802 240.893,9.127 240.060,9.522 239.400 C 9.918 238.740,10.497 237.570,10.810 236.800 C 11.331 235.517,13.918 231.329,15.381 229.400 C 15.714 228.960,16.540 227.880,17.215 227.000 C 17.890 226.120,20.188 223.742,22.321 221.715 C 27.190 217.090,27.481 216.839,29.523 215.500 C 33.286 213.032,34.239 212.468,35.063 212.225 C 35.538 212.084,36.027 211.706,36.150 211.385 C 36.274 211.063,36.612 210.800,36.903 210.800 C 37.193 210.800,38.129 210.444,38.983 210.009 C 39.836 209.574,41.179 209.016,41.967 208.769 C 42.755 208.522,44.132 207.978,45.026 207.560 C 45.921 207.142,47.039 206.800,47.511 206.800 C 47.984 206.800,49.232 206.462,50.285 206.049 C 51.338 205.636,53.010 205.164,54.000 205.002 C 54.990 204.839,56.267 204.467,56.837 204.175 C 57.408 203.883,58.848 203.530,60.037 203.390 C 61.227 203.250,63.370 202.796,64.800 202.381 C 66.230 201.966,69.200 201.447,71.400 201.227 C 73.600 201.007,76.930 200.555,78.800 200.222 C 81.420 199.755,85.504 199.616,96.600 199.616 C 110.033 199.616,113.858 199.821,118.400 200.783 C 119.390 200.993,122.000 201.371,124.200 201.623 C 126.400 201.875,128.504 202.243,128.875 202.441 C 129.246 202.639,130.956 202.996,132.675 203.235 C 134.394 203.474,136.005 203.839,136.256 204.047 C 136.507 204.255,138.015 204.696,139.607 205.028 C 141.199 205.360,143.131 205.895,143.900 206.216 C 144.669 206.537,145.688 206.800,146.164 206.800 C 146.641 206.800,147.737 207.160,148.600 207.600 C 149.463 208.040,150.374 208.400,150.625 208.400 C 150.876 208.400,151.874 208.821,152.842 209.337 C 153.811 209.852,155.278 210.496,156.102 210.768 C 156.926 211.040,157.600 211.416,157.600 211.604 C 157.600 211.792,158.005 212.069,158.500 212.218 C 158.995 212.368,160.364 213.145,161.542 213.945 C 162.720 214.745,163.982 215.580,164.348 215.800 C 165.327 216.389,168.026 218.480,168.996 219.400 C 169.459 219.840,170.460 220.756,171.219 221.436 C 173.463 223.446,177.208 227.803,178.600 230.026 C 179.200 230.983,180.725 233.319,181.195 234.000 C 182.160 235.399,185.600 242.556,185.600 243.166 C 185.600 243.531,185.946 244.509,186.369 245.339 C 186.792 246.168,187.261 247.601,187.413 248.523 C 187.564 249.446,188.025 251.190,188.438 252.400 C 188.851 253.610,189.355 255.680,189.558 257.000 C 189.761 258.320,190.212 260.390,190.559 261.600 C 190.906 262.810,191.200 264.610,191.213 265.600 C 191.225 266.590,191.418 268.210,191.642 269.200 C 193.841 278.916,193.844 306.380,191.646 316.000 C 191.420 316.990,191.227 318.616,191.217 319.613 C 191.208 320.610,190.918 322.410,190.574 323.613 C 190.230 324.816,189.767 326.967,189.545 328.393 C 189.323 329.819,188.795 331.973,188.371 333.179 C 187.947 334.385,187.598 335.829,187.596 336.386 C 187.594 336.944,187.150 338.300,186.609 339.400 C 186.068 340.500,185.619 341.822,185.613 342.338 C 185.606 342.854,185.266 343.754,184.858 344.338 C 184.450 344.922,184.000 345.882,183.858 346.472 C 183.715 347.062,183.342 347.800,183.029 348.114 C 182.716 348.427,182.166 349.295,181.808 350.042 C 180.750 352.250,179.717 354.008,179.037 354.759 C 178.687 355.146,178.400 355.604,178.400 355.777 C 178.400 356.741,171.495 363.969,167.603 367.080 C 163.480 370.375,162.897 370.800,162.499 370.800 C 162.293 370.800,161.798 371.160,161.400 371.600 C 161.002 372.040,160.458 372.400,160.192 372.400 C 159.926 372.400,159.242 372.766,158.673 373.214 C 158.103 373.662,157.044 374.228,156.319 374.471 C 155.593 374.714,154.730 375.141,154.400 375.419 C 154.070 375.698,153.080 376.118,152.200 376.353 C 151.320 376.588,149.887 377.145,149.015 377.590 C 148.144 378.036,147.039 378.400,146.559 378.400 C 146.080 378.400,144.903 378.756,143.944 379.191 C 142.985 379.626,141.699 379.986,141.087 379.991 C 140.475 379.996,139.305 380.283,138.487 380.630 C 137.669 380.976,135.481 381.529,133.624 381.857 C 131.766 382.185,129.911 382.633,129.501 382.853 C 129.091 383.072,126.831 383.504,124.478 383.811 C 122.125 384.119,118.400 384.630,116.200 384.946 C 107.473 386.201,82.629 386.097,75.600 384.777 C 74.390 384.550,71.586 384.116,69.370 383.813 C 67.153 383.510,64.453 382.977,63.370 382.629 C 62.286 382.281,60.320 381.833,59.000 381.633 C 57.680 381.434,55.790 380.997,54.800 380.662 C 53.810 380.327,52.280 379.881,51.400 379.670 C 50.520 379.460,49.260 379.095,48.600 378.860 C 47.940 378.625,46.545 378.155,45.500 377.816 C 41.338 376.466,39.754 375.838,38.738 375.135 C 38.154 374.731,37.424 374.400,37.116 374.400 C 36.808 374.400,35.945 373.950,35.200 373.400 C 34.455 372.850,33.637 372.400,33.384 372.400 C 33.131 372.400,32.598 372.040,32.200 371.600 C 31.802 371.160,31.279 370.798,31.038 370.795 C 30.560 370.789,30.222 370.538,25.200 366.461 C 22.070 363.920,19.590 361.433,17.298 358.539 C 16.802 357.913,15.947 356.834,15.398 356.142 C 14.849 355.450,14.400 354.708,14.400 354.491 C 14.400 354.275,14.120 353.865,13.777 353.581 C 13.434 353.296,12.890 352.509,12.568 351.832 C 12.247 351.154,11.278 349.340,10.417 347.800 C 9.555 346.260,8.839 344.668,8.825 344.263 C 8.811 343.858,8.455 343.087,8.033 342.551 C 7.611 342.015,7.143 340.847,6.992 339.956 C 6.842 339.064,6.472 337.859,6.170 337.278 C 5.869 336.697,5.513 335.406,5.379 334.411 C 5.246 333.415,4.801 331.520,4.390 330.200 C 3.980 328.880,3.522 326.720,3.373 325.400 C 3.224 324.080,2.864 322.280,2.573 321.400 C 2.119 320.028,1.217 312.051,1.204 309.300 C 1.202 308.769,0.954 308.400,0.600 308.400 C 0.069 308.400,0.000 315.067,0.000 366.000 L 0.000 423.600 103.300 423.600 L 206.600 423.599 206.638 352.100 C 206.678 278.974,206.796 272.723,208.223 268.486 C 208.540 267.543,208.800 265.918,208.800 264.873 C 208.800 263.829,209.082 261.990,209.427 260.787 C 209.772 259.584,210.308 257.165,210.619 255.412 C 210.929 253.659,211.433 251.589,211.738 250.812 C 212.043 250.035,212.422 248.688,212.580 247.819 C 212.738 246.949,213.212 245.561,213.633 244.735 C 214.055 243.908,214.400 242.889,214.400 242.470 C 214.400 242.051,214.733 241.279,215.139 240.754 C 215.545 240.229,215.998 239.310,216.144 238.710 C 216.290 238.111,216.858 236.961,217.405 236.155 C 217.952 235.348,218.400 234.471,218.400 234.206 C 218.400 233.941,218.760 233.398,219.200 233.000 C 219.640 232.602,220.000 232.062,220.000 231.800 C 220.000 231.538,220.360 230.998,220.800 230.600 C 221.240 230.202,221.600 229.703,221.600 229.492 C 221.600 228.040,233.875 216.011,235.366 216.002 C 235.568 216.001,236.018 215.725,236.366 215.388 C 237.347 214.441,240.545 212.415,241.071 212.407 C 241.331 212.403,241.795 212.148,242.103 211.840 C 242.766 211.176,247.397 208.967,248.930 208.582 C 249.519 208.434,250.670 207.972,251.486 207.556 C 252.302 207.140,253.521 206.800,254.196 206.800 C 254.870 206.800,255.820 206.521,256.306 206.181 C 256.792 205.840,258.317 205.367,259.695 205.129 C 261.073 204.891,262.650 204.469,263.200 204.190 C 263.750 203.912,265.640 203.467,267.400 203.201 C 269.160 202.935,270.905 202.555,271.277 202.357 C 271.650 202.159,274.080 201.727,276.677 201.397 C 279.275 201.068,283.020 200.532,285.000 200.208 C 290.171 199.360,316.831 199.385,321.400 200.243 C 323.160 200.573,326.040 200.989,327.800 201.168 C 331.491 201.542,333.467 201.900,334.600 202.399 C 335.040 202.593,336.930 203.023,338.800 203.355 C 343.004 204.101,346.775 205.058,349.408 206.046 C 350.512 206.461,351.862 206.806,352.408 206.813 C 352.953 206.819,354.300 207.268,355.400 207.809 C 356.500 208.350,357.628 208.794,357.907 208.796 C 358.386 208.800,361.893 210.421,363.200 211.243 C 363.530 211.450,364.541 211.973,365.447 212.405 C 366.353 212.837,367.320 213.463,367.596 213.795 C 367.872 214.128,368.266 214.400,368.472 214.400 C 369.768 214.400,380.347 223.809,382.914 227.245 C 383.306 227.770,384.161 228.900,384.814 229.755 C 385.466 230.610,386.000 231.555,386.000 231.855 C 386.000 232.155,386.178 232.400,386.395 232.400 C 386.612 232.400,387.057 233.041,387.384 233.823 C 387.711 234.606,388.344 235.711,388.789 236.277 C 389.235 236.844,389.600 237.570,389.600 237.891 C 389.600 238.211,389.960 238.931,390.400 239.491 C 390.840 240.050,391.200 240.834,391.200 241.233 C 391.200 241.631,391.650 242.804,392.200 243.838 C 392.750 244.873,393.200 246.240,393.200 246.876 C 393.200 247.512,393.560 248.738,394.000 249.600 C 394.440 250.462,394.800 251.720,394.800 252.394 C 394.800 253.068,395.160 254.643,395.599 255.894 C 396.039 257.144,396.583 259.705,396.809 261.584 C 397.034 263.463,397.385 265.450,397.588 266.000 C 398.129 267.464,398.800 272.419,398.800 274.944 C 398.800 277.293,399.070 278.400,399.643 278.400 C 399.851 278.400,400.000 242.598,400.000 192.400 C 400.000 138.055,399.859 106.400,399.618 106.400 C 399.133 106.400,398.898 107.951,398.591 113.200 C 398.455 115.510,398.166 118.210,397.947 119.200 C 397.728 120.190,397.227 122.800,396.833 125.000 C 396.439 127.200,395.913 129.500,395.664 130.110 C 395.416 130.721,395.022 132.408,394.790 133.860 C 394.558 135.312,394.106 137.009,393.784 137.630 C 393.463 138.252,393.200 139.148,393.200 139.621 C 393.200 140.095,392.758 141.319,392.218 142.341 C 391.678 143.363,391.137 144.682,391.017 145.272 C 390.897 145.862,390.529 146.614,390.199 146.943 C 389.870 147.273,389.596 147.781,389.592 148.071 C 389.588 148.362,388.869 149.770,387.996 151.200 C 387.122 152.630,386.142 154.363,385.819 155.051 C 385.495 155.740,384.953 156.409,384.615 156.539 C 384.277 156.669,384.000 156.969,384.000 157.206 C 384.000 157.443,383.550 158.086,383.000 158.636 C 382.450 159.186,382.000 159.775,382.000 159.946 C 382.000 160.619,372.930 169.200,372.218 169.200 C 371.984 169.200,371.568 169.560,371.293 170.000 C 371.018 170.440,370.598 170.800,370.360 170.800 C 370.122 170.800,369.448 171.170,368.863 171.623 C 366.758 173.252,364.187 174.786,363.549 174.793 C 363.191 174.797,362.675 175.069,362.402 175.397 C 362.130 175.726,361.163 176.192,360.253 176.434 C 359.344 176.676,358.330 177.112,358.000 177.403 C 357.670 177.694,356.680 178.064,355.800 178.225 C 354.920 178.386,353.573 178.851,352.806 179.259 C 352.039 179.666,350.959 180.008,350.406 180.018 C 349.853 180.027,348.680 180.310,347.800 180.645 C 346.920 180.981,344.940 181.512,343.400 181.826 C 341.860 182.139,339.956 182.653,339.170 182.967 C 338.383 183.281,336.404 183.669,334.772 183.830 C 333.139 183.991,331.238 184.359,330.546 184.648 C 329.854 184.937,327.783 185.279,325.944 185.408 C 324.105 185.537,319.664 186.011,316.076 186.461 C 309.122 187.334,296.682 187.322,290.000 186.437 C 288.350 186.218,284.750 185.845,282.000 185.607 C 279.250 185.369,276.280 184.927,275.400 184.623 C 274.520 184.320,272.638 183.952,271.217 183.807 C 269.797 183.661,268.087 183.313,267.417 183.034 C 266.748 182.755,264.940 182.294,263.400 182.009 C 261.860 181.725,260.148 181.264,259.595 180.985 C 259.042 180.706,257.692 180.346,256.595 180.186 C 255.498 180.026,253.932 179.559,253.116 179.147 C 252.300 178.736,251.303 178.400,250.901 178.400 C 250.498 178.400,249.471 178.044,248.617 177.609 C 247.764 177.174,246.426 176.606,245.644 176.348 C 244.862 176.090,243.970 175.628,243.663 175.320 C 243.355 175.012,242.594 174.659,241.972 174.534 C 241.350 174.410,240.534 173.969,240.158 173.554 C 239.783 173.139,239.296 172.800,239.076 172.800 C 238.856 172.800,238.086 172.350,237.364 171.800 C 236.643 171.250,235.868 170.800,235.641 170.800 C 235.414 170.800,235.035 170.440,234.800 170.000 C 234.565 169.560,234.174 169.200,233.933 169.200 C 232.733 169.200,223.502 159.731,221.037 155.973 C 220.398 154.998,219.577 153.750,219.213 153.200 C 217.871 151.173,216.000 147.688,216.000 147.214 C 216.000 146.946,215.640 146.269,215.200 145.709 C 214.760 145.150,214.400 144.216,214.400 143.635 C 214.400 143.054,214.112 142.167,213.760 141.664 C 213.407 141.161,212.872 139.570,212.571 138.129 C 212.270 136.688,211.858 135.305,211.657 135.055 C 211.456 134.805,211.079 133.250,210.819 131.600 C 210.560 129.950,210.102 127.954,209.803 127.165 C 209.503 126.376,209.066 124.004,208.831 121.895 C 208.596 119.786,208.241 117.634,208.043 117.113 C 206.165 112.174,206.226 73.410,208.116 69.800 C 208.347 69.360,208.676 67.336,208.847 65.303 C 209.019 63.270,209.421 61.020,209.740 60.303 C 210.060 59.586,210.537 57.560,210.801 55.800 C 211.066 54.040,211.445 52.400,211.644 52.155 C 211.844 51.910,212.199 50.668,212.435 49.395 C 212.670 48.122,213.209 46.435,213.631 45.646 C 214.054 44.857,214.400 43.828,214.400 43.360 C 214.400 42.891,214.760 42.050,215.200 41.491 C 215.640 40.931,216.000 40.261,216.000 40.002 C 216.000 39.506,218.041 35.848,220.019 32.800 C 220.661 31.810,221.306 30.730,221.452 30.400 C 221.597 30.070,222.042 29.440,222.441 29.000 C 222.840 28.560,224.358 26.865,225.815 25.234 C 227.272 23.602,230.204 20.861,232.332 19.143 C 237.764 14.754,238.254 14.400,238.901 14.400 C 239.217 14.400,239.793 14.050,240.179 13.623 C 240.566 13.195,241.392 12.734,242.014 12.597 C 242.636 12.460,243.358 12.091,243.619 11.777 C 243.880 11.463,244.837 11.008,245.747 10.766 C 246.656 10.524,247.673 10.083,248.006 9.785 C 248.340 9.488,249.431 9.062,250.432 8.838 C 251.432 8.614,252.774 8.158,253.415 7.826 C 254.055 7.494,255.394 7.105,256.389 6.961 C 257.385 6.817,258.400 6.540,258.645 6.346 C 258.890 6.152,260.734 5.642,262.741 5.213 C 264.749 4.783,266.709 4.269,267.096 4.069 C 267.483 3.869,268.927 3.582,270.304 3.432 C 271.681 3.282,273.661 2.902,274.704 2.587 C 275.747 2.272,279.345 1.802,282.700 1.543 C 287.301 1.189,288.800 0.941,288.800 0.536 C 288.800 0.089,273.926 0.000,199.600 0.000 C 126.988 0.000,110.400 0.096,110.400 0.516 M317.600 0.600 C 317.600 0.986,317.992 1.202,318.700 1.206 C 321.845 1.224,329.500 2.070,330.945 2.559 C 331.855 2.867,333.860 3.250,335.400 3.411 C 336.940 3.572,339.062 4.040,340.115 4.452 C 341.168 4.863,342.608 5.208,343.315 5.218 C 344.022 5.227,345.320 5.511,346.200 5.848 C 347.080 6.185,348.790 6.687,350.000 6.964 C 351.210 7.240,352.740 7.745,353.400 8.085 C 354.060 8.425,355.230 8.836,356.000 8.998 C 356.770 9.160,357.850 9.528,358.400 9.816 C 360.439 10.885,364.674 12.800,364.998 12.800 C 365.182 12.800,365.618 13.074,365.966 13.408 C 366.315 13.743,368.298 15.138,370.373 16.508 C 375.089 19.623,381.898 26.293,384.200 30.054 C 384.420 30.413,385.232 31.673,386.005 32.854 C 388.199 36.207,388.370 36.495,389.221 38.283 C 389.662 39.209,390.184 40.066,390.381 40.188 C 390.577 40.310,390.863 40.977,391.015 41.670 C 391.168 42.364,391.722 43.739,392.246 44.725 C 392.771 45.712,393.200 46.951,393.200 47.479 C 393.200 48.008,393.463 48.948,393.784 49.570 C 394.106 50.191,394.558 51.888,394.790 53.340 C 395.022 54.792,395.416 56.479,395.664 57.090 C 395.913 57.700,396.439 60.000,396.833 62.200 C 397.227 64.400,397.729 67.010,397.950 68.000 C 398.170 68.990,398.462 71.780,398.599 74.200 C 398.887 79.296,399.066 80.400,399.608 80.400 C 399.862 80.400,400.000 66.213,400.000 40.200 L 400.000 0.000 358.800 0.000 C 322.444 0.000,317.600 0.071,317.600 0.600 M294.200 52.646 C 292.660 52.960,290.171 53.378,288.669 53.575 C 287.166 53.772,285.636 54.198,285.269 54.522 C 284.901 54.846,284.017 55.235,283.305 55.386 C 282.592 55.538,281.905 55.830,281.777 56.036 C 281.650 56.243,280.828 56.778,279.950 57.225 C 276.940 58.761,270.000 66.551,270.000 68.394 C 270.000 68.675,269.663 69.467,269.251 70.153 C 268.839 70.839,268.384 72.184,268.240 73.142 C 268.095 74.100,267.724 75.374,267.414 75.974 C 264.988 80.664,264.973 106.465,267.393 111.198 C 267.675 111.749,268.036 113.010,268.195 114.000 C 268.354 114.990,268.826 116.361,269.242 117.047 C 269.659 117.733,270.000 118.525,270.000 118.806 C 270.000 120.689,278.434 129.969,280.169 129.995 C 280.371 129.998,280.821 130.250,281.169 130.555 C 286.305 135.066,312.017 136.540,320.200 132.793 C 321.080 132.390,322.224 131.939,322.741 131.790 C 324.363 131.324,328.660 128.383,330.615 126.400 C 332.667 124.320,333.011 123.914,333.836 122.600 C 334.250 121.940,334.817 121.162,335.095 120.871 C 335.373 120.581,335.600 120.055,335.600 119.703 C 335.600 119.351,335.873 118.762,336.206 118.394 C 336.539 118.026,337.086 116.672,337.421 115.385 C 337.756 114.099,338.187 112.856,338.379 112.623 C 338.572 112.390,338.938 110.670,339.194 108.800 C 339.450 106.930,339.916 104.603,340.230 103.629 C 341.026 101.154,341.032 86.561,340.238 83.773 C 339.929 82.688,339.471 80.326,339.220 78.525 C 338.969 76.724,338.491 74.704,338.159 74.037 C 337.826 73.370,337.447 72.144,337.316 71.312 C 337.185 70.481,336.745 69.371,336.339 68.846 C 335.932 68.321,335.600 67.710,335.600 67.487 C 335.600 66.717,332.874 62.992,330.853 61.000 C 327.889 58.080,327.274 57.590,325.792 56.971 C 325.057 56.664,324.350 56.243,324.223 56.037 C 324.095 55.830,323.408 55.538,322.695 55.386 C 321.983 55.235,321.098 54.845,320.730 54.520 C 320.361 54.196,318.921 53.782,317.530 53.600 C 316.138 53.419,313.401 52.985,311.448 52.635 C 307.048 51.848,298.085 51.854,294.200 52.646 M296.200 251.629 C 292.495 251.836,290.368 252.158,288.800 252.747 C 287.590 253.202,286.319 253.580,285.976 253.587 C 285.633 253.594,284.103 254.242,282.576 255.028 C 278.134 257.312,278.317 257.183,275.127 260.293 C 273.135 262.234,270.021 266.558,270.008 267.400 C 270.005 267.620,269.657 268.520,269.235 269.400 C 268.814 270.280,268.250 271.990,267.983 273.200 C 267.716 274.410,267.345 275.592,267.160 275.828 C 265.374 278.091,264.897 297.233,264.842 368.900 L 264.800 423.600 332.400 423.600 L 400.000 423.600 400.000 364.600 C 400.000 330.727,399.850 305.600,399.647 305.600 C 399.108 305.600,398.812 307.128,398.797 310.000 C 398.789 311.430,398.521 314.130,398.200 316.000 C 397.880 317.870,397.419 320.570,397.177 322.000 C 396.935 323.430,396.470 325.680,396.144 327.000 C 395.818 328.320,395.298 330.707,394.987 332.305 C 394.677 333.903,394.234 335.563,394.003 335.994 C 393.772 336.426,393.406 337.716,393.188 338.861 C 392.971 340.007,392.539 341.227,392.228 341.572 C 391.917 341.917,391.529 342.740,391.366 343.400 C 390.909 345.249,388.707 349.417,386.005 353.546 C 385.232 354.727,384.420 355.986,384.200 356.345 C 383.005 358.294,378.578 363.079,375.822 365.400 C 374.778 366.280,373.406 367.450,372.775 368.000 C 370.793 369.726,369.430 370.678,368.537 370.959 C 368.062 371.108,367.573 371.494,367.450 371.815 C 367.326 372.137,366.984 372.400,366.690 372.400 C 366.396 372.400,365.545 372.850,364.800 373.400 C 364.055 373.950,363.144 374.400,362.776 374.400 C 362.409 374.400,361.679 374.737,361.154 375.148 C 360.629 375.559,359.577 376.032,358.816 376.198 C 358.055 376.364,356.795 376.826,356.016 377.225 C 355.237 377.623,353.880 378.077,353.000 378.235 C 352.120 378.392,351.017 378.770,350.548 379.075 C 350.080 379.380,348.571 379.810,347.195 380.032 C 345.819 380.253,344.222 380.678,343.646 380.976 C 343.070 381.274,341.519 381.649,340.200 381.810 C 338.880 381.971,337.170 382.347,336.400 382.646 C 335.630 382.944,333.020 383.454,330.600 383.778 C 328.180 384.103,325.300 384.546,324.200 384.764 C 321.704 385.259,304.594 386.116,303.589 385.797 C 303.182 385.667,302.631 384.895,302.364 384.081 C 302.097 383.266,301.649 382.240,301.369 381.800 C 301.089 381.360,300.735 380.323,300.584 379.496 C 300.433 378.668,299.970 377.325,299.555 376.511 C 299.140 375.697,298.799 374.664,298.799 374.215 C 298.798 373.767,298.459 372.845,298.045 372.167 C 297.631 371.488,297.164 370.318,297.007 369.567 C 296.850 368.815,296.499 367.840,296.226 367.400 C 295.954 366.960,295.515 365.728,295.251 364.663 C 294.986 363.597,294.524 362.337,294.224 361.863 C 293.924 361.388,293.553 360.370,293.401 359.600 C 293.248 358.830,292.789 357.620,292.382 356.912 C 291.974 356.203,291.514 354.947,291.359 354.120 C 291.203 353.293,290.745 352.073,290.340 351.408 C 289.935 350.744,289.602 349.750,289.600 349.200 C 289.598 348.650,289.248 347.628,288.822 346.929 C 288.396 346.230,287.926 344.970,287.779 344.129 C 287.631 343.288,287.267 342.212,286.970 341.737 C 286.673 341.263,286.218 340.003,285.959 338.937 C 285.699 337.872,285.213 336.683,284.878 336.296 C 282.656 333.728,284.546 331.051,287.657 332.358 C 291.795 334.096,312.381 334.500,316.600 332.925 C 317.480 332.597,318.920 332.140,319.800 331.909 C 321.783 331.390,326.400 329.192,326.400 328.767 C 326.400 328.595,326.805 328.328,327.300 328.173 C 328.452 327.814,334.000 322.212,334.000 321.408 C 334.000 321.074,334.171 320.800,334.380 320.800 C 334.822 320.800,337.200 315.975,337.200 315.076 C 337.200 314.741,337.543 313.666,337.962 312.689 C 338.381 311.711,338.944 309.491,339.213 307.756 C 339.483 306.020,339.950 303.617,340.251 302.416 C 341.018 299.364,341.005 285.760,340.233 282.784 C 339.921 281.583,339.479 279.248,339.251 277.596 C 339.022 275.944,338.547 274.015,338.194 273.309 C 337.842 272.602,337.447 271.344,337.316 270.512 C 337.185 269.681,336.758 268.587,336.366 268.081 C 335.975 267.576,335.539 266.631,335.396 265.981 C 335.253 265.332,334.975 264.800,334.778 264.800 C 334.582 264.800,334.164 264.305,333.851 263.700 C 332.580 261.242,325.648 255.229,324.062 255.207 C 323.766 255.203,323.046 254.866,322.462 254.458 C 321.878 254.049,320.616 253.594,319.658 253.446 C 318.700 253.298,317.354 252.886,316.667 252.531 C 315.797 252.082,313.649 251.788,309.609 251.566 C 303.226 251.216,303.587 251.215,296.200 251.629 M82.800 252.614 C 81.370 253.128,79.727 253.560,79.149 253.574 C 78.571 253.588,77.875 253.869,77.602 254.198 C 77.328 254.527,76.406 255.006,75.553 255.261 C 74.699 255.517,74.000 255.848,74.000 255.996 C 74.000 256.144,73.144 256.820,72.097 257.498 C 69.423 259.231,64.419 264.868,64.391 266.179 C 64.386 266.410,64.030 267.050,63.600 267.600 C 63.170 268.150,62.814 269.014,62.809 269.520 C 62.804 270.026,62.499 271.016,62.132 271.720 C 61.765 272.424,61.125 274.710,60.711 276.800 C 60.296 278.890,59.797 281.410,59.602 282.400 C 59.142 284.735,59.142 300.461,59.602 302.800 C 61.998 314.980,62.896 317.445,66.911 322.859 C 68.712 325.287,73.311 329.231,75.089 329.874 C 75.480 330.015,76.278 330.461,76.862 330.865 C 77.446 331.269,78.242 331.600,78.632 331.600 C 79.021 331.600,80.617 332.041,82.177 332.579 C 87.312 334.352,107.136 334.383,111.294 332.626 C 112.116 332.278,113.680 331.803,114.768 331.569 C 115.857 331.336,116.962 330.887,117.223 330.572 C 117.484 330.258,117.901 329.997,118.149 329.993 C 119.317 329.974,124.947 325.389,126.501 323.191 C 128.698 320.084,130.000 317.908,130.000 317.347 C 130.000 316.996,130.358 316.054,130.795 315.254 C 131.232 314.455,131.846 312.630,132.160 311.200 C 132.474 309.770,132.926 307.880,133.166 307.000 C 133.499 305.772,134.472 294.927,134.457 292.600 C 134.430 288.500,133.319 277.769,132.825 276.846 C 132.635 276.491,132.250 275.030,131.970 273.600 C 131.690 272.170,131.133 270.460,130.732 269.800 C 130.331 269.140,130.002 268.217,130.001 267.749 C 130.001 267.281,129.720 266.665,129.377 266.381 C 129.034 266.096,128.516 265.295,128.226 264.600 C 127.607 263.119,122.303 257.747,120.350 256.623 C 117.312 254.876,114.649 253.600,114.039 253.600 C 113.682 253.600,111.972 253.150,110.240 252.600 C 105.573 251.119,86.934 251.128,82.800 252.614 " stroke="none" fill="#fafbfb" fill-rule="evenodd"></path><path id="path1" d="M82.400 0.533 C 82.400 0.934,80.833 1.192,76.106 1.569 C 72.645 1.846,69.494 2.242,69.105 2.451 C 68.716 2.659,66.823 3.022,64.899 3.257 C 62.975 3.492,60.915 3.935,60.323 4.240 C 59.731 4.546,58.090 4.961,56.676 5.161 C 55.262 5.361,53.587 5.787,52.953 6.107 C 52.319 6.427,51.013 6.809,50.050 6.957 C 49.088 7.105,47.552 7.567,46.636 7.983 C 45.721 8.400,44.483 8.864,43.885 9.014 C 43.287 9.164,42.130 9.628,41.314 10.044 C 40.498 10.460,39.533 10.800,39.169 10.800 C 38.806 10.800,38.076 11.140,37.547 11.556 C 37.019 11.971,35.960 12.600,35.193 12.954 C 33.513 13.729,31.076 15.182,30.800 15.574 C 30.690 15.731,30.330 15.958,30.000 16.079 C 27.068 17.159,16.021 28.339,14.452 31.816 C 14.249 32.265,13.795 32.873,13.442 33.165 C 13.089 33.458,12.800 33.911,12.800 34.171 C 12.800 34.432,12.359 35.242,11.821 35.972 C 11.282 36.701,10.728 37.816,10.589 38.449 C 10.450 39.082,10.193 39.600,10.017 39.600 C 9.841 39.600,9.477 40.185,9.209 40.900 C 8.941 41.615,8.289 43.103,7.761 44.206 C 7.232 45.309,6.800 46.586,6.800 47.044 C 6.800 47.502,6.516 48.446,6.169 49.141 C 5.823 49.836,5.372 51.584,5.168 53.025 C 4.964 54.467,4.548 56.131,4.245 56.723 C 3.942 57.315,3.481 59.407,3.222 61.372 C 2.963 63.337,2.594 65.237,2.402 65.595 C 2.211 65.954,1.834 68.891,1.566 72.123 C 1.199 76.542,0.944 78.000,0.539 78.000 C 0.096 78.000,0.000 80.820,0.000 93.800 C 0.000 106.519,0.102 109.600,0.521 109.600 C 0.902 109.600,1.180 111.139,1.551 115.282 C 1.831 118.407,2.233 121.287,2.444 121.683 C 2.656 122.078,3.022 123.977,3.257 125.901 C 3.492 127.825,3.935 129.885,4.240 130.477 C 4.546 131.069,4.961 132.710,5.161 134.124 C 5.361 135.538,5.790 137.213,6.115 137.847 C 6.440 138.481,6.832 139.760,6.986 140.688 C 7.140 141.617,7.611 142.815,8.033 143.351 C 8.455 143.887,8.800 144.549,8.800 144.821 C 8.800 145.291,11.070 150.091,12.100 151.800 C 12.821 152.996,13.726 154.412,14.400 155.396 C 14.730 155.878,15.498 157.022,16.106 157.937 C 17.427 159.927,25.031 167.608,26.951 168.892 C 27.697 169.391,29.364 170.499,30.654 171.354 C 31.944 172.209,33.488 173.244,34.084 173.654 C 34.680 174.064,35.331 174.400,35.530 174.400 C 35.729 174.400,36.321 174.734,36.846 175.142 C 37.371 175.550,38.520 176.117,39.400 176.402 C 40.280 176.688,41.360 177.151,41.800 177.431 C 42.240 177.711,43.320 178.066,44.200 178.219 C 45.080 178.372,46.361 178.835,47.047 179.249 C 47.733 179.662,48.723 180.008,49.247 180.018 C 49.771 180.027,50.920 180.312,51.800 180.651 C 52.680 180.990,54.836 181.534,56.592 181.861 C 58.348 182.188,59.990 182.626,60.242 182.835 C 60.495 183.044,62.208 183.406,64.050 183.638 C 65.893 183.870,68.210 184.318,69.200 184.633 C 70.190 184.948,73.160 185.381,75.800 185.594 C 78.440 185.808,82.580 186.255,85.000 186.588 C 91.253 187.448,102.357 187.379,109.800 186.432 C 113.100 186.012,117.403 185.552,119.362 185.409 C 121.322 185.265,123.662 184.907,124.562 184.613 C 125.463 184.318,127.387 183.959,128.838 183.813 C 130.288 183.668,131.938 183.310,132.502 183.017 C 133.067 182.724,134.850 182.264,136.465 181.994 C 138.079 181.725,139.876 181.261,140.458 180.964 C 141.040 180.666,142.300 180.302,143.258 180.155 C 144.216 180.008,145.668 179.553,146.484 179.144 C 147.300 178.735,148.378 178.400,148.878 178.400 C 149.379 178.400,150.781 177.926,151.994 177.347 C 153.207 176.767,155.370 175.736,156.800 175.055 C 158.230 174.373,159.494 173.689,159.608 173.533 C 159.723 173.377,160.263 173.054,160.808 172.815 C 161.688 172.429,163.893 170.993,165.000 170.086 C 170.838 165.300,174.160 162.020,177.314 157.926 C 179.923 154.540,180.400 153.830,180.400 153.332 C 180.400 153.026,180.661 152.675,180.981 152.552 C 181.300 152.430,181.773 151.670,182.031 150.865 C 182.290 150.059,182.727 149.130,183.003 148.800 C 183.279 148.470,183.640 147.750,183.805 147.200 C 183.970 146.650,184.441 145.722,184.852 145.138 C 185.264 144.554,185.600 143.690,185.600 143.218 C 185.600 142.746,185.911 141.784,186.290 141.080 C 186.670 140.376,187.284 138.540,187.655 137.000 C 188.026 135.460,188.502 133.543,188.714 132.741 C 189.182 130.960,188.984 130.603,187.086 129.810 C 186.269 129.469,185.600 129.026,185.600 128.826 C 185.600 128.627,185.015 128.337,184.300 128.183 C 183.585 128.029,182.264 127.475,181.365 126.952 C 180.466 126.428,179.504 126.000,179.228 126.000 C 178.952 126.000,178.269 125.640,177.709 125.200 C 177.150 124.760,176.288 124.400,175.795 124.400 C 175.302 124.400,174.682 124.139,174.417 123.820 C 174.152 123.502,173.275 123.029,172.468 122.770 C 171.661 122.511,170.730 122.074,170.400 121.800 C 170.070 121.526,169.080 121.072,168.200 120.792 C 167.320 120.513,166.171 119.950,165.646 119.542 C 165.121 119.134,164.437 118.800,164.125 118.800 C 163.814 118.800,162.893 118.455,162.079 118.033 C 161.266 117.611,160.150 117.073,159.600 116.836 C 159.050 116.599,158.330 116.237,158.000 116.030 C 157.065 115.445,152.173 113.200,151.831 113.200 C 151.664 113.200,151.069 112.840,150.509 112.400 C 149.950 111.960,149.101 111.600,148.624 111.600 C 148.146 111.600,147.145 111.150,146.400 110.600 C 145.655 110.050,144.814 109.600,144.532 109.600 C 144.250 109.600,143.430 109.241,142.710 108.801 C 141.989 108.362,141.109 108.002,140.754 108.001 C 140.399 108.001,139.679 107.675,139.154 107.278 C 135.104 104.211,132.905 105.985,131.816 113.200 C 131.667 114.190,131.212 115.720,130.806 116.600 C 130.400 117.480,129.864 118.650,129.615 119.200 C 127.236 124.443,121.179 129.900,114.986 132.380 C 113.311 133.051,111.458 133.600,110.869 133.600 C 110.280 133.600,107.909 133.960,105.600 134.400 C 100.102 135.448,93.617 135.445,87.832 134.394 C 85.430 133.957,82.910 133.599,82.232 133.599 C 81.555 133.598,80.460 133.268,79.800 132.866 C 79.140 132.464,78.074 132.004,77.432 131.843 C 76.789 131.682,75.820 131.202,75.278 130.775 C 74.736 130.349,74.075 130.000,73.809 130.000 C 72.249 130.000,65.789 123.094,64.363 119.900 C 64.093 119.295,63.729 118.800,63.554 118.800 C 63.379 118.800,63.113 118.125,62.963 117.300 C 62.813 116.475,62.367 115.080,61.972 114.200 C 61.576 113.320,60.978 111.070,60.642 109.200 C 60.306 107.330,59.852 104.990,59.633 104.000 C 59.141 101.777,59.117 85.665,59.601 83.200 C 59.796 82.210,60.250 79.870,60.612 78.000 C 60.973 76.130,61.613 73.837,62.034 72.904 C 62.455 71.972,62.800 70.966,62.800 70.668 C 62.800 69.888,65.116 65.367,65.812 64.790 C 66.135 64.522,66.400 64.101,66.400 63.855 C 66.400 62.971,72.428 57.775,74.889 56.538 C 79.441 54.250,81.073 53.600,82.264 53.600 C 82.911 53.600,85.051 53.244,87.020 52.809 C 91.956 51.718,100.276 51.711,106.232 52.794 C 108.635 53.231,111.038 53.591,111.574 53.594 C 112.779 53.601,117.422 55.622,119.640 57.105 C 122.431 58.969,123.116 59.514,124.600 61.044 C 127.242 63.768,128.601 65.692,129.796 68.400 C 130.136 69.170,130.653 70.340,130.944 71.000 C 132.465 74.442,133.823 81.850,134.108 88.258 C 134.205 90.453,134.475 91.856,134.936 92.558 L 135.618 93.600 163.777 93.600 C 179.263 93.600,192.219 93.491,192.567 93.357 C 193.691 92.926,193.190 74.328,191.987 71.800 C 191.778 71.360,191.441 69.200,191.238 67.000 C 191.036 64.800,190.597 62.190,190.264 61.200 C 189.931 60.210,189.540 58.500,189.396 57.400 C 189.252 56.300,188.808 54.410,188.411 53.200 C 188.013 51.990,187.557 50.205,187.398 49.233 C 187.238 48.262,186.769 46.912,186.355 46.233 C 185.941 45.555,185.602 44.529,185.601 43.954 C 185.601 43.379,185.267 42.479,184.861 41.954 C 184.455 41.429,184.004 40.518,183.860 39.928 C 183.717 39.338,183.362 38.618,183.072 38.328 C 182.783 38.038,182.344 37.219,182.097 36.509 C 181.850 35.798,181.452 34.988,181.213 34.709 C 180.974 34.429,180.211 33.300,179.516 32.200 C 177.126 28.415,171.809 22.604,167.319 18.869 C 164.544 16.561,163.771 16.001,163.362 16.000 C 163.121 16.000,162.598 15.640,162.200 15.200 C 161.802 14.760,161.247 14.400,160.967 14.400 C 160.686 14.400,160.219 14.169,159.929 13.887 C 159.638 13.605,157.960 12.692,156.200 11.859 C 154.440 11.025,152.664 10.162,152.254 9.940 C 151.131 9.332,146.091 7.618,143.600 6.997 C 142.390 6.695,140.680 6.175,139.800 5.842 C 138.920 5.508,137.701 5.227,137.090 5.218 C 136.480 5.208,134.997 4.855,133.796 4.433 C 132.595 4.010,130.395 3.536,128.906 3.377 C 127.418 3.219,125.532 2.855,124.715 2.568 C 123.898 2.281,120.343 1.818,116.815 1.540 C 112.102 1.167,110.400 0.896,110.400 0.516 C 110.400 0.104,107.572 0.000,96.400 0.000 C 85.000 0.000,82.400 0.099,82.400 0.533 M288.800 0.536 C 288.800 0.941,287.301 1.189,282.700 1.543 C 279.345 1.802,275.747 2.272,274.704 2.587 C 273.661 2.902,271.681 3.282,270.304 3.432 C 268.927 3.582,267.483 3.869,267.096 4.069 C 266.709 4.269,264.749 4.783,262.741 5.213 C 260.734 5.642,258.890 6.152,258.645 6.346 C 258.400 6.540,257.385 6.817,256.389 6.961 C 255.394 7.105,254.055 7.494,253.415 7.826 C 252.774 8.158,251.432 8.614,250.432 8.838 C 249.431 9.062,248.340 9.488,248.006 9.785 C 247.673 10.083,246.656 10.524,245.747 10.766 C 244.837 11.008,243.880 11.463,243.619 11.777 C 243.358 12.091,242.636 12.460,242.014 12.597 C 241.392 12.734,240.566 13.195,240.179 13.623 C 239.793 14.050,239.217 14.400,238.901 14.400 C 238.254 14.400,237.764 14.754,232.332 19.143 C 230.204 20.861,227.272 23.602,225.815 25.234 C 224.358 26.865,222.840 28.560,222.441 29.000 C 222.042 29.440,221.597 30.070,221.452 30.400 C 221.306 30.730,220.661 31.810,220.019 32.800 C 218.041 35.848,216.000 39.506,216.000 40.002 C 216.000 40.261,215.640 40.931,215.200 41.491 C 214.760 42.050,214.400 42.891,214.400 43.360 C 214.400 43.828,214.054 44.857,213.631 45.646 C 213.209 46.435,212.670 48.122,212.435 49.395 C 212.199 50.668,211.844 51.910,211.644 52.155 C 211.445 52.400,211.066 54.040,210.801 55.800 C 210.537 57.560,210.060 59.586,209.740 60.303 C 209.421 61.020,209.019 63.270,208.847 65.303 C 208.676 67.336,208.347 69.360,208.116 69.800 C 206.226 73.410,206.165 112.174,208.043 117.113 C 208.241 117.634,208.596 119.786,208.831 121.895 C 209.066 124.004,209.503 126.376,209.803 127.165 C 210.102 127.954,210.560 129.950,210.819 131.600 C 211.079 133.250,211.456 134.805,211.657 135.055 C 211.858 135.305,212.270 136.688,212.571 138.129 C 212.872 139.570,213.407 141.161,213.760 141.664 C 214.112 142.167,214.400 143.054,214.400 143.635 C 214.400 144.216,214.760 145.150,215.200 145.709 C 215.640 146.269,216.000 146.946,216.000 147.214 C 216.000 147.688,217.871 151.173,219.213 153.200 C 219.577 153.750,220.398 154.998,221.037 155.973 C 223.502 159.731,232.733 169.200,233.933 169.200 C 234.174 169.200,234.565 169.560,234.800 170.000 C 235.035 170.440,235.414 170.800,235.641 170.800 C 235.868 170.800,236.643 171.250,237.364 171.800 C 238.086 172.350,238.856 172.800,239.076 172.800 C 239.296 172.800,239.783 173.139,240.158 173.554 C 240.534 173.969,241.350 174.410,241.972 174.534 C 242.594 174.659,243.355 175.012,243.663 175.320 C 243.970 175.628,244.862 176.090,245.644 176.348 C 246.426 176.606,247.764 177.174,248.617 177.609 C 249.471 178.044,250.498 178.400,250.901 178.400 C 251.303 178.400,252.300 178.736,253.116 179.147 C 253.932 179.559,255.498 180.026,256.595 180.186 C 257.692 180.346,259.042 180.706,259.595 180.985 C 260.148 181.264,261.860 181.725,263.400 182.009 C 264.940 182.294,266.748 182.755,267.417 183.034 C 268.087 183.313,269.797 183.661,271.217 183.807 C 272.638 183.952,274.520 184.320,275.400 184.623 C 276.280 184.927,279.250 185.369,282.000 185.607 C 284.750 185.845,288.350 186.218,290.000 186.437 C 296.682 187.322,309.122 187.334,316.076 186.461 C 319.664 186.011,324.105 185.537,325.944 185.408 C 327.783 185.279,329.854 184.937,330.546 184.648 C 331.238 184.359,333.139 183.991,334.772 183.830 C 336.404 183.669,338.383 183.281,339.170 182.967 C 339.956 182.653,341.860 182.139,343.400 181.826 C 344.940 181.512,346.920 180.981,347.800 180.645 C 348.680 180.310,349.853 180.027,350.406 180.018 C 350.959 180.008,352.039 179.666,352.806 179.259 C 353.573 178.851,354.920 178.386,355.800 178.225 C 356.680 178.064,357.670 177.694,358.000 177.403 C 358.330 177.112,359.344 176.676,360.253 176.434 C 361.163 176.192,362.130 175.726,362.402 175.397 C 362.675 175.069,363.191 174.797,363.549 174.793 C 364.187 174.786,366.758 173.252,368.863 171.623 C 369.448 171.170,370.122 170.800,370.360 170.800 C 370.598 170.800,371.018 170.440,371.293 170.000 C 371.568 169.560,371.984 169.200,372.218 169.200 C 372.930 169.200,382.000 160.619,382.000 159.946 C 382.000 159.775,382.414 159.223,382.919 158.717 C 383.425 158.212,383.959 157.483,384.107 157.099 C 384.254 156.715,384.558 156.400,384.782 156.400 C 385.006 156.400,385.463 155.815,385.798 155.100 C 386.133 154.385,387.122 152.630,387.996 151.200 C 388.869 149.770,389.588 148.362,389.592 148.071 C 389.596 147.781,389.870 147.273,390.199 146.943 C 390.529 146.614,390.897 145.862,391.017 145.272 C 391.137 144.682,391.678 143.363,392.218 142.341 C 392.758 141.319,393.200 140.095,393.200 139.621 C 393.200 139.148,393.463 138.252,393.784 137.630 C 394.106 137.009,394.558 135.312,394.790 133.860 C 395.022 132.408,395.416 130.721,395.664 130.110 C 395.913 129.500,396.439 127.200,396.834 125.000 C 397.228 122.800,397.739 120.100,397.969 119.000 C 398.199 117.900,398.541 114.670,398.729 111.822 C 398.946 108.518,399.238 106.587,399.535 106.488 C 400.260 106.247,400.191 80.933,399.463 80.206 C 399.107 79.850,398.831 78.003,398.645 74.734 C 398.490 72.020,398.181 68.990,397.957 68.000 C 397.733 67.010,397.227 64.400,396.833 62.200 C 396.439 60.000,395.913 57.700,395.664 57.090 C 395.416 56.479,395.022 54.792,394.790 53.340 C 394.558 51.888,394.106 50.191,393.784 49.570 C 393.463 48.948,393.200 48.008,393.200 47.479 C 393.200 46.951,392.771 45.712,392.246 44.725 C 391.722 43.739,391.168 42.364,391.015 41.670 C 390.863 40.977,390.577 40.310,390.381 40.188 C 390.184 40.066,389.662 39.209,389.221 38.283 C 388.370 36.495,388.199 36.207,386.005 32.854 C 385.232 31.673,384.420 30.413,384.200 30.054 C 381.898 26.293,375.089 19.623,370.373 16.508 C 368.298 15.138,366.315 13.743,365.966 13.408 C 365.618 13.074,365.182 12.800,364.998 12.800 C 364.674 12.800,360.439 10.885,358.400 9.816 C 357.850 9.528,356.770 9.160,356.000 8.998 C 355.230 8.836,354.060 8.425,353.400 8.085 C 352.740 7.745,351.210 7.240,350.000 6.964 C 348.790 6.687,347.080 6.185,346.200 5.848 C 345.320 5.511,344.022 5.227,343.315 5.218 C 342.608 5.208,341.168 4.863,340.115 4.452 C 339.062 4.040,336.940 3.572,335.400 3.411 C 333.860 3.250,331.855 2.867,330.945 2.559 C 329.500 2.070,321.845 1.224,318.700 1.206 C 317.992 1.202,317.600 0.986,317.600 0.600 C 317.600 0.078,315.733 0.000,303.200 0.000 C 291.425 0.000,288.800 0.098,288.800 0.536 M311.448 52.635 C 313.401 52.985,316.138 53.419,317.530 53.600 C 318.921 53.782,320.361 54.196,320.730 54.520 C 321.098 54.845,321.983 55.235,322.695 55.386 C 323.408 55.538,324.095 55.830,324.223 56.037 C 324.350 56.243,325.057 56.664,325.792 56.971 C 328.631 58.157,335.600 65.630,335.600 67.487 C 335.600 67.710,335.932 68.321,336.339 68.846 C 336.745 69.371,337.185 70.481,337.316 71.312 C 337.447 72.144,337.826 73.370,338.159 74.037 C 338.491 74.704,338.969 76.724,339.220 78.525 C 339.471 80.326,339.929 82.688,340.238 83.773 C 341.032 86.561,341.026 101.154,340.230 103.629 C 339.916 104.603,339.450 106.930,339.194 108.800 C 338.938 110.670,338.572 112.390,338.379 112.623 C 338.187 112.856,337.756 114.099,337.421 115.385 C 337.086 116.672,336.539 118.026,336.206 118.394 C 335.873 118.762,335.600 119.351,335.600 119.703 C 335.600 120.055,335.373 120.581,335.095 120.871 C 334.817 121.162,334.250 121.940,333.836 122.600 C 333.011 123.914,332.667 124.320,330.615 126.400 C 328.660 128.383,324.363 131.324,322.741 131.790 C 322.224 131.939,321.080 132.390,320.200 132.793 C 312.017 136.540,286.305 135.066,281.169 130.555 C 280.821 130.250,280.371 129.998,280.169 129.995 C 278.434 129.969,270.000 120.689,270.000 118.806 C 270.000 118.525,269.659 117.733,269.242 117.047 C 268.826 116.361,268.354 114.990,268.195 114.000 C 268.036 113.010,267.675 111.749,267.393 111.198 C 264.973 106.465,264.988 80.664,267.414 75.974 C 267.724 75.374,268.095 74.100,268.240 73.142 C 268.384 72.184,268.839 70.839,269.251 70.153 C 269.663 69.467,270.000 68.675,270.000 68.394 C 270.000 66.551,276.940 58.761,279.950 57.225 C 280.828 56.778,281.650 56.243,281.777 56.036 C 281.905 55.830,282.592 55.538,283.305 55.386 C 284.017 55.235,284.901 54.846,285.269 54.522 C 285.636 54.198,287.166 53.772,288.669 53.575 C 290.171 53.378,292.660 52.960,294.200 52.646 C 298.085 51.854,307.048 51.848,311.448 52.635 M78.400 200.258 C 76.750 200.565,73.600 200.998,71.400 201.221 C 69.200 201.445,66.230 201.966,64.800 202.381 C 63.370 202.796,61.227 203.250,60.037 203.390 C 58.848 203.530,57.408 203.883,56.837 204.175 C 56.267 204.467,54.990 204.839,54.000 205.002 C 53.010 205.164,51.338 205.636,50.285 206.049 C 49.232 206.462,47.984 206.800,47.511 206.800 C 47.039 206.800,45.921 207.142,45.026 207.560 C 44.132 207.978,42.755 208.522,41.967 208.769 C 41.179 209.016,39.836 209.574,38.983 210.009 C 38.129 210.444,37.193 210.800,36.903 210.800 C 36.612 210.800,36.274 211.063,36.150 211.385 C 36.027 211.706,35.538 212.084,35.063 212.225 C 34.220 212.474,33.231 213.057,29.623 215.431 C 27.471 216.847,27.212 217.069,22.321 221.715 C 20.188 223.742,17.890 226.120,17.215 227.000 C 16.540 227.880,15.714 228.960,15.381 229.400 C 13.918 231.329,11.331 235.517,10.810 236.800 C 10.497 237.570,9.918 238.740,9.522 239.400 C 9.127 240.060,8.802 240.893,8.801 241.251 C 8.801 241.609,8.546 242.113,8.235 242.371 C 7.924 242.629,7.459 243.776,7.200 244.920 C 6.941 246.064,6.490 247.540,6.197 248.200 C 5.905 248.860,5.455 250.569,5.197 251.997 C 4.940 253.426,4.492 255.164,4.201 255.860 C 3.910 256.557,3.544 258.358,3.388 259.863 C 3.232 261.368,2.883 263.142,2.612 263.805 C 2.342 264.468,1.884 267.663,1.595 270.905 C 1.203 275.297,0.933 276.800,0.535 276.800 C 0.097 276.800,0.000 279.679,0.000 292.600 C 0.000 306.378,0.077 308.400,0.600 308.400 C 0.954 308.400,1.202 308.769,1.204 309.300 C 1.217 312.051,2.119 320.028,2.573 321.400 C 2.864 322.280,3.224 324.080,3.373 325.400 C 3.522 326.720,3.980 328.880,4.390 330.200 C 4.801 331.520,5.246 333.415,5.379 334.411 C 5.513 335.406,5.869 336.697,6.170 337.278 C 6.472 337.859,6.842 339.064,6.992 339.956 C 7.143 340.847,7.611 342.015,8.033 342.551 C 8.455 343.087,8.811 343.858,8.825 344.263 C 8.839 344.668,9.555 346.260,10.417 347.800 C 11.278 349.340,12.247 351.154,12.568 351.832 C 12.890 352.509,13.434 353.296,13.777 353.581 C 14.120 353.865,14.400 354.275,14.400 354.491 C 14.400 354.708,14.849 355.450,15.398 356.142 C 15.947 356.834,16.802 357.913,17.298 358.539 C 19.590 361.433,22.070 363.920,25.200 366.461 C 30.222 370.538,30.560 370.789,31.038 370.795 C 31.279 370.798,31.802 371.160,32.200 371.600 C 32.598 372.040,33.131 372.400,33.384 372.400 C 33.637 372.400,34.455 372.850,35.200 373.400 C 35.945 373.950,36.808 374.400,37.116 374.400 C 37.424 374.400,38.154 374.731,38.738 375.135 C 39.754 375.838,41.338 376.466,45.500 377.816 C 46.545 378.155,47.940 378.625,48.600 378.860 C 49.260 379.095,50.520 379.460,51.400 379.670 C 52.280 379.881,53.810 380.327,54.800 380.662 C 55.790 380.997,57.680 381.434,59.000 381.633 C 60.320 381.833,62.286 382.281,63.370 382.629 C 64.453 382.977,67.153 383.510,69.370 383.813 C 71.586 384.116,74.390 384.550,75.600 384.777 C 82.629 386.097,107.473 386.201,116.200 384.946 C 118.400 384.630,122.125 384.119,124.478 383.811 C 126.831 383.504,129.091 383.072,129.501 382.853 C 129.911 382.633,131.766 382.185,133.624 381.857 C 135.481 381.529,137.669 380.976,138.487 380.630 C 139.305 380.283,140.475 379.996,141.087 379.991 C 141.699 379.986,142.985 379.626,143.944 379.191 C 144.903 378.756,146.080 378.400,146.559 378.400 C 147.039 378.400,148.144 378.036,149.015 377.590 C 149.887 377.145,151.320 376.588,152.200 376.353 C 153.080 376.118,154.070 375.698,154.400 375.419 C 154.730 375.141,155.593 374.714,156.319 374.471 C 157.044 374.228,158.103 373.662,158.673 373.214 C 159.242 372.766,159.926 372.400,160.192 372.400 C 160.458 372.400,161.002 372.040,161.400 371.600 C 161.798 371.160,162.293 370.800,162.499 370.800 C 162.897 370.800,163.480 370.375,167.603 367.080 C 171.495 363.969,178.400 356.741,178.400 355.777 C 178.400 355.604,178.687 355.146,179.037 354.759 C 179.717 354.008,180.750 352.250,181.808 350.042 C 182.166 349.295,182.716 348.427,183.029 348.114 C 183.342 347.800,183.715 347.062,183.858 346.472 C 184.000 345.882,184.450 344.922,184.858 344.338 C 185.266 343.754,185.606 342.854,185.613 342.338 C 185.619 341.822,186.068 340.500,186.609 339.400 C 187.150 338.300,187.594 336.944,187.596 336.386 C 187.598 335.829,187.947 334.385,188.371 333.179 C 188.795 331.973,189.323 329.819,189.545 328.393 C 189.767 326.967,190.230 324.816,190.574 323.613 C 190.918 322.410,191.208 320.610,191.217 319.613 C 191.227 318.616,191.420 316.990,191.646 316.000 C 193.844 306.380,193.841 278.916,191.642 269.200 C 191.418 268.210,191.225 266.590,191.213 265.600 C 191.200 264.610,190.906 262.810,190.559 261.600 C 190.212 260.390,189.761 258.320,189.558 257.000 C 189.355 255.680,188.851 253.610,188.438 252.400 C 188.025 251.190,187.564 249.446,187.413 248.523 C 187.261 247.601,186.792 246.168,186.369 245.339 C 185.946 244.509,185.600 243.531,185.600 243.166 C 185.600 242.556,182.160 235.399,181.195 234.000 C 180.725 233.319,179.200 230.983,178.600 230.026 C 177.208 227.803,173.463 223.446,171.219 221.436 C 170.460 220.756,169.459 219.840,168.996 219.400 C 168.026 218.480,165.327 216.389,164.348 215.800 C 163.982 215.580,162.720 214.745,161.542 213.945 C 160.364 213.145,158.995 212.368,158.500 212.218 C 158.005 212.069,157.600 211.792,157.600 211.604 C 157.600 211.416,156.926 211.040,156.102 210.768 C 155.278 210.496,153.811 209.852,152.842 209.337 C 151.874 208.821,150.876 208.400,150.625 208.400 C 150.374 208.400,149.463 208.040,148.600 207.600 C 147.737 207.160,146.641 206.800,146.164 206.800 C 145.688 206.800,144.669 206.537,143.900 206.216 C 143.131 205.895,141.199 205.360,139.607 205.028 C 138.015 204.696,136.507 204.255,136.256 204.047 C 136.005 203.839,134.394 203.474,132.675 203.235 C 130.956 202.996,129.246 202.639,128.875 202.441 C 128.504 202.243,126.400 201.875,124.200 201.623 C 122.000 201.371,119.390 200.993,118.400 200.783 C 113.821 199.813,109.991 199.619,96.200 199.658 C 85.404 199.689,80.588 199.852,78.400 200.258 M284.600 200.242 C 282.840 200.542,279.275 201.060,276.677 201.392 C 274.080 201.724,271.650 202.159,271.277 202.357 C 270.905 202.555,269.160 202.935,267.400 203.201 C 265.640 203.467,263.750 203.912,263.200 204.190 C 262.650 204.469,261.073 204.891,259.695 205.129 C 258.317 205.367,256.792 205.840,256.306 206.181 C 255.820 206.521,254.870 206.800,254.196 206.800 C 253.521 206.800,252.302 207.140,251.486 207.556 C 250.670 207.972,249.519 208.434,248.930 208.582 C 247.397 208.967,242.766 211.176,242.103 211.840 C 241.795 212.148,241.331 212.403,241.071 212.407 C 240.545 212.415,237.347 214.441,236.366 215.388 C 236.018 215.725,235.568 216.001,235.366 216.002 C 233.875 216.011,221.600 228.040,221.600 229.492 C 221.600 229.703,221.240 230.202,220.800 230.600 C 220.360 230.998,220.000 231.538,220.000 231.800 C 220.000 232.062,219.640 232.602,219.200 233.000 C 218.760 233.398,218.400 233.941,218.400 234.206 C 218.400 234.471,217.952 235.348,217.405 236.155 C 216.858 236.961,216.290 238.111,216.144 238.710 C 215.998 239.310,215.545 240.229,215.139 240.754 C 214.733 241.279,214.400 242.051,214.400 242.470 C 214.400 242.889,214.055 243.908,213.633 244.735 C 213.212 245.561,212.738 246.949,212.580 247.819 C 212.422 248.688,212.043 250.035,211.738 250.812 C 211.433 251.589,210.929 253.659,210.619 255.412 C 210.308 257.165,209.772 259.584,209.427 260.787 C 209.082 261.990,208.800 263.829,208.800 264.873 C 208.800 265.918,208.541 267.543,208.225 268.486 C 206.886 272.476,206.758 278.575,206.523 349.436 C 206.395 388.176,206.416 420.711,206.570 421.736 L 206.849 423.600 235.825 423.600 L 264.800 423.600 264.842 368.900 C 264.897 297.233,265.374 278.091,267.160 275.828 C 267.345 275.592,267.716 274.410,267.983 273.200 C 268.250 271.990,268.814 270.280,269.235 269.400 C 269.657 268.520,270.005 267.620,270.008 267.400 C 270.021 266.558,273.135 262.234,275.127 260.293 C 278.317 257.183,278.134 257.312,282.576 255.028 C 284.103 254.242,285.633 253.594,285.976 253.587 C 286.319 253.580,287.590 253.207,288.800 252.759 C 293.201 251.129,313.638 250.965,316.674 252.535 C 317.357 252.888,318.700 253.298,319.658 253.446 C 320.616 253.594,321.878 254.049,322.462 254.458 C 323.046 254.866,323.766 255.203,324.062 255.207 C 325.648 255.229,332.580 261.242,333.851 263.700 C 334.164 264.305,334.582 264.800,334.778 264.800 C 334.975 264.800,335.253 265.332,335.396 265.981 C 335.539 266.631,335.975 267.576,336.366 268.081 C 336.758 268.587,337.185 269.681,337.316 270.512 C 337.447 271.344,337.842 272.602,338.194 273.309 C 338.547 274.015,339.022 275.944,339.251 277.596 C 339.479 279.248,339.921 281.583,340.233 282.784 C 341.005 285.760,341.018 299.364,340.251 302.416 C 339.950 303.617,339.483 306.020,339.213 307.756 C 338.944 309.491,338.381 311.711,337.962 312.689 C 337.543 313.666,337.200 314.741,337.200 315.076 C 337.200 315.975,334.822 320.800,334.380 320.800 C 334.171 320.800,334.000 321.074,334.000 321.408 C 334.000 322.212,328.452 327.814,327.300 328.173 C 326.805 328.328,326.400 328.595,326.400 328.767 C 326.400 329.192,321.783 331.390,319.800 331.909 C 318.920 332.140,317.480 332.597,316.600 332.925 C 312.381 334.500,291.795 334.096,287.657 332.358 C 284.546 331.051,282.656 333.728,284.878 336.296 C 285.213 336.683,285.699 337.872,285.959 338.937 C 286.218 340.003,286.673 341.263,286.970 341.737 C 287.267 342.212,287.631 343.288,287.779 344.129 C 287.926 344.970,288.396 346.230,288.822 346.929 C 289.248 347.628,289.598 348.650,289.600 349.200 C 289.602 349.750,289.935 350.744,290.340 351.408 C 290.745 352.073,291.203 353.293,291.359 354.120 C 291.514 354.947,291.974 356.203,292.382 356.912 C 292.789 357.620,293.248 358.830,293.401 359.600 C 293.553 360.370,293.924 361.388,294.224 361.863 C 294.524 362.337,294.986 363.597,295.251 364.663 C 295.515 365.728,295.954 366.960,296.226 367.400 C 296.499 367.840,296.850 368.815,297.007 369.567 C 297.164 370.318,297.631 371.488,298.045 372.167 C 298.459 372.845,298.798 373.767,298.799 374.215 C 298.799 374.664,299.140 375.697,299.555 376.511 C 299.970 377.325,300.433 378.668,300.584 379.496 C 300.735 380.323,301.089 381.360,301.369 381.800 C 301.649 382.240,302.097 383.266,302.364 384.081 C 302.631 384.895,303.182 385.667,303.589 385.797 C 304.594 386.116,321.704 385.259,324.200 384.764 C 325.300 384.546,328.180 384.103,330.600 383.778 C 333.020 383.454,335.630 382.944,336.400 382.646 C 337.170 382.347,338.880 381.971,340.200 381.810 C 341.519 381.649,343.070 381.274,343.646 380.976 C 344.222 380.678,345.819 380.253,347.195 380.032 C 348.571 379.810,350.080 379.380,350.548 379.075 C 351.017 378.770,352.120 378.392,353.000 378.235 C 353.880 378.077,355.237 377.623,356.016 377.225 C 356.795 376.826,358.055 376.364,358.816 376.198 C 359.577 376.032,360.629 375.559,361.154 375.148 C 361.679 374.737,362.409 374.400,362.776 374.400 C 363.144 374.400,364.055 373.950,364.800 373.400 C 365.545 372.850,366.396 372.400,366.690 372.400 C 366.984 372.400,367.326 372.137,367.450 371.815 C 367.573 371.494,368.062 371.108,368.537 370.959 C 369.430 370.678,370.793 369.726,372.775 368.000 C 373.406 367.450,374.778 366.280,375.822 365.400 C 378.578 363.079,383.005 358.294,384.200 356.345 C 384.420 355.986,385.232 354.727,386.005 353.546 C 388.707 349.417,390.909 345.249,391.366 343.400 C 391.529 342.740,391.917 341.917,392.228 341.572 C 392.539 341.227,392.971 340.007,393.188 338.861 C 393.406 337.716,393.772 336.426,394.003 335.994 C 394.234 335.563,394.677 333.903,394.987 332.305 C 395.298 330.707,395.818 328.320,396.144 327.000 C 396.470 325.680,396.934 323.430,397.175 322.000 C 397.416 320.570,397.796 318.500,398.019 317.400 C 398.242 316.300,398.568 313.250,398.744 310.623 C 398.947 307.582,399.233 305.789,399.531 305.690 C 400.314 305.429,400.188 278.931,399.400 278.143 C 399.000 277.743,398.800 276.743,398.800 275.148 C 398.800 272.450,398.146 267.510,397.588 266.000 C 397.385 265.450,397.034 263.463,396.809 261.584 C 396.583 259.705,396.039 257.144,395.599 255.894 C 395.160 254.643,394.800 253.068,394.800 252.394 C 394.800 251.720,394.440 250.462,394.000 249.600 C 393.560 248.738,393.200 247.512,393.200 246.876 C 393.200 246.240,392.750 244.873,392.200 243.838 C 391.650 242.804,391.200 241.631,391.200 241.233 C 391.200 240.834,390.840 240.050,390.400 239.491 C 389.960 238.931,389.600 238.211,389.600 237.891 C 389.600 237.570,389.235 236.844,388.789 236.277 C 388.344 235.711,387.711 234.606,387.384 233.823 C 387.057 233.041,386.612 232.400,386.395 232.400 C 386.178 232.400,386.000 232.155,386.000 231.855 C 386.000 231.555,385.466 230.610,384.814 229.755 C 384.161 228.900,383.306 227.770,382.914 227.245 C 380.347 223.809,369.768 214.400,368.472 214.400 C 368.266 214.400,367.872 214.128,367.596 213.795 C 367.320 213.463,366.353 212.837,365.447 212.405 C 364.541 211.973,363.530 211.450,363.200 211.243 C 361.893 210.421,358.386 208.800,357.907 208.796 C 357.628 208.794,356.500 208.350,355.400 207.809 C 354.300 207.268,352.953 206.819,352.408 206.813 C 351.862 206.806,350.512 206.461,349.408 206.046 C 346.775 205.058,343.004 204.101,338.800 203.355 C 336.930 203.023,335.040 202.593,334.600 202.399 C 333.467 201.900,331.491 201.542,327.800 201.168 C 326.040 200.989,323.160 200.573,321.400 200.243 C 317.041 199.425,289.392 199.424,284.600 200.242 M110.240 252.600 C 111.972 253.150,113.682 253.600,114.039 253.600 C 114.649 253.600,117.312 254.876,120.350 256.623 C 122.303 257.747,127.607 263.119,128.226 264.600 C 128.516 265.295,129.034 266.096,129.377 266.381 C 129.720 266.665,130.001 267.281,130.001 267.749 C 130.002 268.217,130.331 269.140,130.732 269.800 C 131.133 270.460,131.690 272.170,131.970 273.600 C 132.250 275.030,132.635 276.491,132.825 276.846 C 133.319 277.769,134.430 288.500,134.457 292.600 C 134.472 294.927,133.499 305.772,133.166 307.000 C 132.926 307.880,132.474 309.770,132.160 311.200 C 131.846 312.630,131.232 314.455,130.795 315.254 C 130.358 316.054,130.000 316.996,130.000 317.347 C 130.000 317.908,128.698 320.084,126.501 323.191 C 124.947 325.389,119.317 329.974,118.149 329.993 C 117.901 329.997,117.484 330.258,117.223 330.572 C 116.962 330.887,115.857 331.336,114.768 331.569 C 113.680 331.803,112.116 332.278,111.294 332.626 C 107.136 334.383,87.312 334.352,82.177 332.579 C 80.617 332.041,79.021 331.600,78.632 331.600 C 78.242 331.600,77.446 331.269,76.862 330.865 C 76.278 330.461,75.480 330.015,75.089 329.874 C 73.311 329.231,68.712 325.287,66.911 322.859 C 62.896 317.445,61.998 314.980,59.602 302.800 C 59.142 300.461,59.142 284.735,59.602 282.400 C 59.797 281.410,60.296 278.890,60.711 276.800 C 61.125 274.710,61.765 272.424,62.132 271.720 C 62.499 271.016,62.804 270.026,62.809 269.520 C 62.814 269.014,63.170 268.150,63.600 267.600 C 64.030 267.050,64.386 266.410,64.391 266.179 C 64.419 264.868,69.423 259.231,72.097 257.498 C 73.144 256.820,74.000 256.144,74.000 255.996 C 74.000 255.848,74.699 255.517,75.553 255.261 C 76.406 255.006,77.328 254.527,77.602 254.198 C 77.875 253.869,78.571 253.588,79.149 253.574 C 79.727 253.560,81.370 253.128,82.800 252.614 C 86.934 251.128,105.573 251.119,110.240 252.600 " stroke="none" fill="#63c7e6" fill-rule="evenodd"></path></g></svg>