<svg id="svg" version="1.1" xmlns="http://www.w3.org/2000/svg" xmlns:xlink="http://www.w3.org/1999/xlink" width="400" height="108.584686774942" viewBox="0, 0, 400,108.584686774942"><g id="svgg"><path id="path0" d="M46.389 0.270 C 46.160 0.430,45.028 0.634,43.305 0.827 C 40.695 1.119,39.555 1.308,36.250 1.998 C 30.527 3.192,26.929 4.218,21.083 6.323 C 19.029 7.063,12.008 10.672,9.781 12.133 C 6.218 14.469,4.789 17.091,4.763 21.333 C 4.730 26.675,7.544 27.737,13.298 24.554 C 15.770 23.187,21.366 20.500,21.742 20.500 C 21.839 20.500,22.256 20.323,22.668 20.106 C 23.080 19.889,23.717 19.615,24.083 19.497 C 24.450 19.379,24.900 19.185,25.083 19.067 C 25.267 18.948,25.843 18.739,26.363 18.604 C 26.884 18.469,27.446 18.285,27.613 18.197 C 27.939 18.023,30.360 17.302,33.583 16.419 C 46.115 12.983,59.022 13.358,67.167 17.393 C 71.107 19.345,74.674 22.646,76.379 25.917 C 77.015 27.137,77.833 28.960,77.833 29.157 C 77.833 29.251,78.050 29.986,78.316 30.789 C 79.594 34.660,79.606 43.160,78.341 47.917 C 78.170 48.558,77.982 49.496,77.923 50.000 C 77.864 50.504,77.632 51.502,77.408 52.217 C 77.184 52.932,77.000 53.652,77.000 53.817 C 77.000 54.956,74.002 63.328,72.768 65.634 C 67.191 76.056,61.791 82.351,54.994 86.352 C 54.310 86.755,53.525 87.220,53.250 87.385 C 52.975 87.550,52.487 87.795,52.167 87.929 C 51.846 88.063,51.283 88.318,50.917 88.497 C 46.879 90.460,40.586 92.166,35.574 92.659 C 30.203 93.186,21.200 93.010,20.556 92.365 C 20.153 91.963,20.553 90.184,23.264 80.333 C 24.227 76.831,24.509 75.879,24.742 75.333 C 24.880 75.012,25.102 74.300,25.237 73.750 C 25.372 73.200,25.641 72.262,25.835 71.667 C 26.149 70.701,28.081 64.731,28.856 62.333 C 29.253 61.103,31.075 55.911,31.693 54.250 C 31.965 53.517,32.366 52.392,32.583 51.750 C 32.801 51.108,33.250 49.871,33.582 49.000 C 33.914 48.129,34.326 47.042,34.498 46.583 C 34.957 45.361,35.735 43.398,36.232 42.208 C 36.471 41.635,36.852 40.708,37.078 40.148 C 37.304 39.588,37.566 39.038,37.659 38.926 C 37.753 38.813,37.934 38.428,38.062 38.069 C 38.190 37.710,38.636 36.704,39.053 35.833 C 42.534 28.563,41.027 25.987,33.532 26.399 C 26.375 26.792,24.379 28.137,22.007 34.167 C 21.628 35.129,21.175 36.254,21.000 36.667 C 20.261 38.408,19.408 40.573,18.503 43.000 C 18.247 43.688,17.801 44.850,17.511 45.583 C 16.912 47.104,15.483 50.891,14.903 52.500 C 14.688 53.096,14.275 54.221,13.986 55.000 C 13.697 55.779,13.313 56.867,13.134 57.417 C 12.955 57.967,12.668 58.792,12.496 59.250 C 12.084 60.348,8.718 70.531,7.924 73.083 C 7.581 74.183,7.126 75.608,6.911 76.250 C 6.697 76.892,6.474 77.679,6.415 78.000 C 6.356 78.321,6.126 79.146,5.904 79.833 C 5.446 81.251,4.741 83.761,4.079 86.333 C 3.831 87.296,3.456 88.683,3.246 89.417 C 2.190 93.111,1.168 98.208,1.167 99.785 C 1.165 103.315,3.915 105.398,9.250 105.909 C 9.892 105.970,11.017 106.124,11.750 106.250 C 17.683 107.270,31.517 107.271,37.250 106.252 C 37.983 106.121,39.296 105.896,40.167 105.751 C 44.101 105.097,52.274 103.028,52.882 102.531 C 52.993 102.441,53.458 102.252,53.917 102.111 C 55.868 101.510,62.932 98.133,64.566 97.020 C 64.942 96.763,65.550 96.365,65.917 96.134 C 66.804 95.575,68.725 94.300,69.712 93.616 C 75.989 89.261,83.579 80.719,87.659 73.417 C 88.785 71.401,90.956 67.065,91.163 66.417 C 91.281 66.050,91.439 65.670,91.516 65.573 C 91.666 65.382,93.064 61.523,93.866 59.083 C 95.069 55.425,96.328 50.068,96.747 46.825 C 96.884 45.766,97.075 44.491,97.171 43.991 C 98.251 38.386,97.268 27.439,95.254 22.667 C 95.042 22.162,94.814 21.563,94.748 21.333 C 94.249 19.591,91.394 15.061,89.227 12.573 C 85.233 7.987,76.195 2.865,70.417 1.913 C 70.050 1.852,69.037 1.622,68.167 1.401 C 67.296 1.180,65.624 0.894,64.452 0.765 C 63.141 0.620,62.165 0.428,61.916 0.265 C 61.321 -0.125,46.947 -0.120,46.389 0.270 M319.167 22.518 C 312.129 23.087,307.014 28.199,307.195 34.483 C 307.330 39.190,309.864 41.233,315.833 41.451 C 323.947 41.746,329.550 36.973,329.575 29.746 L 329.583 27.243 329.001 26.330 C 327.223 23.544,323.642 22.156,319.167 22.518 M388.815 22.716 C 383.834 24.815,382.510 30.771,386.221 34.386 C 389.665 37.741,395.730 36.715,397.845 32.419 C 400.553 26.916,394.440 20.347,388.815 22.716 M393.075 23.983 C 396.583 25.216,397.992 30.529,395.422 32.833 C 395.167 33.063,394.761 33.451,394.521 33.698 C 392.349 35.921,388.093 34.905,386.358 31.750 C 385.790 30.717,385.969 27.592,386.662 26.448 C 388.127 24.032,390.557 23.098,393.075 23.983 M389.037 26.093 C 388.623 26.383,388.455 31.960,388.839 32.678 C 389.255 33.455,389.898 32.945,390.101 31.676 C 390.366 30.019,392.057 30.059,392.478 31.732 C 392.795 32.990,393.999 33.628,394.344 32.721 C 394.553 32.173,394.417 31.509,393.897 30.531 C 393.404 29.604,393.405 29.551,393.917 28.798 C 394.651 27.717,394.294 26.579,393.061 26.063 C 392.269 25.732,389.523 25.753,389.037 26.093 M392.292 27.470 C 392.989 28.342,391.748 29.245,390.656 28.661 C 390.286 28.463,390.213 27.638,390.542 27.372 C 391.028 26.977,391.939 27.028,392.292 27.470 M124.917 48.646 C 124.000 48.810,122.500 49.043,121.583 49.162 C 120.667 49.281,119.467 49.512,118.917 49.675 C 118.367 49.838,117.654 50.024,117.333 50.089 C 117.013 50.154,116.037 50.505,115.167 50.869 C 114.296 51.234,113.246 51.668,112.833 51.835 C 99.179 57.350,86.813 76.095,86.836 91.244 C 86.851 100.958,91.114 106.107,100.083 107.244 C 105.340 107.910,113.392 103.909,117.493 98.592 C 118.516 97.267,119.109 97.424,119.610 99.154 C 120.139 100.980,121.780 103.493,123.283 104.780 C 128.491 109.242,135.228 108.042,144.661 100.974 C 146.392 99.677,146.573 99.778,147.159 102.368 C 147.735 104.921,148.639 106.126,150.694 107.083 C 153.201 108.250,157.917 107.052,159.682 104.801 C 160.146 104.208,161.500 102.027,161.500 101.871 C 161.500 101.819,161.716 101.283,161.981 100.680 C 162.245 100.077,162.670 99.021,162.925 98.333 C 163.692 96.267,166.191 90.505,166.503 90.083 C 166.571 89.992,167.413 88.371,168.374 86.482 C 169.335 84.593,170.272 82.831,170.456 82.565 C 170.640 82.300,171.230 81.371,171.767 80.500 C 177.805 70.708,184.167 65.285,184.167 69.929 C 184.167 70.554,183.446 74.183,183.263 74.479 C 183.162 74.643,182.721 77.457,182.581 78.833 C 182.066 83.894,184.937 87.171,189.878 87.163 C 192.466 87.159,193.570 86.796,197.578 84.632 C 199.139 83.789,200.754 82.917,201.167 82.694 C 201.579 82.471,202.704 81.874,203.667 81.366 C 204.629 80.859,205.642 80.307,205.917 80.139 C 207.510 79.168,207.815 79.773,207.433 83.140 C 205.361 101.419,208.074 108.230,217.250 107.787 C 222.935 107.512,228.271 103.003,233.404 94.137 C 234.704 91.890,237.425 87.143,237.685 86.667 C 238.745 84.726,238.949 84.415,239.190 84.369 C 239.629 84.284,239.666 84.701,239.494 87.711 C 238.971 96.863,239.108 100.286,240.103 102.861 C 241.205 105.715,242.623 107.179,244.840 107.750 C 245.432 107.903,246.035 108.134,246.180 108.264 C 246.539 108.586,248.875 108.587,249.381 108.265 C 249.584 108.136,250.328 107.914,251.034 107.771 C 256.596 106.644,263.515 100.135,274.402 85.788 C 275.568 84.252,275.772 84.174,277.579 84.577 C 281.103 85.363,281.322 85.385,285.917 85.401 C 288.392 85.410,290.924 85.382,291.543 85.341 C 293.221 85.227,293.307 85.358,292.929 87.451 C 291.127 97.438,294.123 106.195,299.843 107.659 C 300.889 107.927,301.500 108.183,301.500 108.354 C 301.500 108.631,308.521 108.534,308.732 108.253 C 308.833 108.117,309.479 107.860,310.167 107.683 C 313.247 106.886,317.853 104.414,321.454 101.625 C 322.487 100.825,322.822 101.003,323.019 102.455 C 323.295 104.490,324.487 106.711,325.823 107.679 C 326.196 107.948,326.500 108.243,326.500 108.334 C 326.500 108.614,332.453 108.552,332.617 108.271 C 332.690 108.145,333.133 107.849,333.601 107.614 C 334.781 107.020,335.408 106.454,336.201 105.268 C 337.288 103.643,338.267 101.593,340.192 96.917 C 340.456 96.275,340.852 95.375,341.072 94.917 C 341.292 94.458,341.748 93.483,342.087 92.750 C 345.079 86.259,349.650 78.826,353.448 74.276 C 358.726 67.953,361.368 67.876,359.737 74.094 C 359.498 75.005,359.209 76.162,359.094 76.667 C 358.979 77.171,358.757 77.958,358.600 78.417 C 358.261 79.412,356.959 83.844,356.423 85.833 C 356.213 86.612,355.924 87.550,355.781 87.917 C 355.637 88.283,355.434 89.022,355.328 89.557 C 355.223 90.093,355.029 90.789,354.897 91.104 C 354.766 91.418,354.511 92.368,354.330 93.213 C 354.149 94.058,353.892 95.200,353.758 95.750 C 352.092 102.573,352.550 106.323,355.216 107.690 C 355.565 107.869,355.891 108.124,355.943 108.258 C 356.078 108.609,363.131 108.620,363.266 108.268 C 363.315 108.141,363.794 107.877,364.330 107.681 C 365.329 107.317,366.867 105.996,367.280 105.147 C 368.284 103.085,369.028 100.297,369.500 96.823 C 369.831 94.390,371.153 87.797,371.670 86.000 C 371.842 85.404,372.133 84.279,372.317 83.500 C 372.857 81.219,373.436 79.128,373.701 78.500 C 373.837 78.179,374.000 77.617,374.064 77.250 C 374.127 76.883,374.362 76.021,374.585 75.333 C 374.808 74.646,375.323 72.996,375.730 71.667 C 376.136 70.337,376.771 68.350,377.140 67.250 C 379.940 58.909,380.407 55.276,378.978 52.929 C 375.380 47.017,362.882 50.735,353.814 60.417 C 349.763 64.742,347.472 67.693,344.305 72.667 C 343.750 73.537,343.166 74.438,343.007 74.667 C 342.848 74.896,342.586 75.346,342.423 75.667 C 342.093 76.320,341.354 77.167,341.114 77.167 C 340.903 77.167,341.060 76.286,341.649 74.167 C 342.535 70.979,342.981 69.610,344.010 66.917 C 344.570 65.450,345.130 63.950,345.253 63.583 C 345.376 63.217,345.752 62.279,346.089 61.500 C 346.973 59.457,347.656 57.729,348.032 56.583 C 348.212 56.033,348.512 55.213,348.698 54.761 C 350.288 50.889,348.222 49.293,342.522 49.988 C 337.401 50.612,334.577 53.100,332.196 59.083 C 332.013 59.542,331.623 60.479,331.328 61.167 C 330.539 63.002,329.847 64.782,329.480 65.917 C 329.302 66.467,329.016 67.292,328.843 67.750 C 328.671 68.208,328.294 69.408,328.007 70.417 C 327.720 71.425,327.301 72.887,327.077 73.667 C 326.423 75.938,325.141 81.620,324.822 83.667 L 324.626 84.917 322.605 86.854 C 314.550 94.571,310.849 96.150,308.756 92.760 L 308.250 91.941 308.264 89.262 C 308.272 87.789,308.362 86.283,308.465 85.917 C 308.568 85.550,308.777 84.725,308.930 84.083 C 309.496 81.704,311.514 75.326,313.253 70.417 C 313.772 68.950,314.366 67.225,314.573 66.583 C 314.780 65.941,315.063 65.191,315.202 64.916 C 315.341 64.642,315.550 64.004,315.667 63.500 C 315.783 62.996,315.984 62.375,316.113 62.120 C 316.369 61.612,316.951 59.754,317.586 57.417 C 317.810 56.592,318.107 55.507,318.246 55.005 C 319.126 51.842,317.653 50.143,313.826 49.908 C 307.475 49.518,304.970 51.234,302.256 57.833 C 300.541 62.005,299.940 63.500,299.746 64.083 C 299.624 64.450,299.251 65.462,298.917 66.333 C 298.582 67.204,298.161 68.386,297.979 68.960 C 297.484 70.529,297.258 70.612,291.000 71.507 C 285.560 72.286,285.196 72.185,286.236 70.189 C 293.099 57.023,290.653 47.805,280.833 49.832 C 274.613 51.116,268.855 57.428,266.920 65.083 C 266.370 67.260,266.276 71.876,266.750 73.439 C 267.256 75.107,267.470 74.711,262.590 81.152 C 261.363 82.771,254.503 91.294,254.278 91.479 C 253.646 91.998,253.444 91.440,253.565 89.503 C 253.721 86.990,254.466 77.718,254.669 75.750 C 254.764 74.833,254.987 72.546,255.165 70.667 C 255.343 68.787,255.604 66.462,255.745 65.500 C 255.886 64.537,256.111 62.700,256.244 61.417 C 256.377 60.133,256.603 58.529,256.746 57.851 C 257.111 56.118,257.257 52.928,257.012 52.032 C 255.961 48.188,248.173 48.487,245.063 52.492 C 244.318 53.450,242.577 56.275,242.330 56.925 C 242.257 57.116,241.366 58.790,240.349 60.645 C 239.332 62.501,238.500 64.054,238.500 64.097 C 238.500 64.186,233.767 72.736,232.879 74.250 C 232.557 74.800,232.125 75.550,231.920 75.917 C 230.413 78.612,228.249 82.334,227.364 83.750 C 227.078 84.208,226.682 84.881,226.483 85.245 C 226.285 85.609,225.992 86.096,225.832 86.328 C 225.671 86.560,225.028 87.623,224.402 88.690 C 222.875 91.292,222.333 91.618,222.333 89.936 C 222.333 88.611,222.970 79.594,223.164 78.167 C 223.257 77.479,223.484 75.106,223.668 72.893 C 223.852 70.680,224.078 68.468,224.172 67.976 C 224.265 67.485,224.486 65.583,224.663 63.750 C 224.840 61.917,225.097 59.929,225.233 59.333 C 225.813 56.812,225.936 52.903,225.474 51.678 C 224.270 48.483,215.704 48.583,212.789 51.825 C 211.117 53.685,210.806 54.993,209.418 66.000 C 209.242 67.401,209.057 68.220,208.856 68.500 C 208.481 69.021,208.184 69.170,203.250 71.323 C 201.967 71.883,200.606 72.496,200.226 72.685 C 198.726 73.430,198.366 72.845,199.069 70.806 C 199.301 70.134,199.601 69.005,199.736 68.298 C 199.871 67.591,200.056 66.873,200.147 66.703 C 200.238 66.533,200.430 65.724,200.574 64.905 C 200.717 64.087,200.939 63.074,201.067 62.655 C 204.068 52.812,200.948 47.818,193.000 49.742 C 189.359 50.624,187.158 51.678,182.833 54.613 C 179.094 57.151,172.897 63.918,169.056 69.657 C 167.787 71.554,167.492 72.014,166.594 73.500 C 163.720 78.255,163.515 77.231,165.910 70.083 C 166.309 68.892,166.868 67.298,167.151 66.542 C 167.435 65.785,167.883 64.585,168.148 63.875 C 169.073 61.396,169.458 60.404,170.217 58.549 C 173.616 50.241,173.361 49.248,167.833 49.253 C 161.165 49.258,157.184 52.477,154.835 59.760 C 154.719 60.121,154.557 60.501,154.476 60.604 C 154.394 60.706,154.147 61.306,153.925 61.937 C 153.703 62.567,153.306 63.683,153.042 64.417 C 151.768 67.958,151.368 69.229,150.000 74.083 C 149.793 74.817,149.486 76.086,149.318 76.905 C 149.149 77.724,148.928 78.624,148.825 78.905 C 148.723 79.186,148.536 80.173,148.411 81.097 C 148.021 83.968,147.809 84.351,145.280 86.734 C 139.815 91.885,137.113 93.685,134.790 93.721 C 131.269 93.777,130.970 90.535,133.685 81.750 C 133.969 80.833,134.367 79.483,134.570 78.750 C 134.774 78.017,135.057 77.192,135.200 76.917 C 135.343 76.642,135.544 76.019,135.646 75.533 C 135.749 75.048,135.939 74.445,136.068 74.195 C 136.198 73.945,136.418 73.330,136.557 72.829 C 136.697 72.327,137.106 71.054,137.466 70.000 C 138.186 67.892,139.039 65.230,139.735 62.917 C 139.984 62.092,140.366 60.854,140.585 60.167 C 142.554 53.979,140.678 50.372,134.720 48.891 C 132.312 48.293,127.549 48.174,124.917 48.646 M125.801 60.940 C 125.829 61.135,125.385 62.673,124.816 64.356 C 124.246 66.039,123.674 67.754,123.544 68.167 C 123.415 68.579,123.132 69.404,122.917 70.000 C 122.701 70.596,122.417 71.421,122.286 71.833 C 118.501 83.716,116.861 87.556,114.129 90.942 C 110.750 95.129,105.837 95.992,103.649 92.782 L 103.083 91.953 103.097 89.101 C 103.106 87.044,103.185 85.972,103.378 85.250 C 103.526 84.700,103.796 83.650,103.979 82.917 C 106.137 74.258,112.650 65.488,119.383 62.175 C 120.325 61.712,121.176 61.333,121.275 61.333 C 121.375 61.333,122.010 61.148,122.687 60.920 C 124.277 60.386,125.723 60.395,125.801 60.940 M387.417 85.602 C 381.368 86.519,376.903 90.443,375.834 95.782 C 375.727 96.315,375.533 97.120,375.403 97.572 C 374.289 101.442,376.583 106.434,380.057 107.701 C 380.593 107.896,381.070 108.156,381.117 108.278 C 381.246 108.613,388.925 108.602,389.054 108.267 C 389.103 108.139,389.542 107.903,390.030 107.742 C 398.317 105.012,402.030 90.833,395.481 86.932 C 393.797 85.929,389.709 85.255,387.417 85.602 " stroke="none" fill="#1c344c" fill-rule="evenodd"></path><path id="path1" d="M0.000 54.250 L 0.000 108.500 123.187 108.500 C 254.526 108.500,247.987 108.540,244.890 107.762 C 242.641 107.197,241.213 105.736,240.106 102.868 C 239.108 100.285,238.970 96.871,239.494 87.711 C 239.666 84.701,239.629 84.284,239.190 84.369 C 238.949 84.415,238.745 84.726,237.685 86.667 C 237.425 87.143,234.704 91.890,233.404 94.137 C 228.271 103.003,222.935 107.512,217.250 107.787 C 208.074 108.230,205.361 101.419,207.433 83.140 C 207.815 79.773,207.510 79.168,205.917 80.139 C 205.642 80.307,204.629 80.859,203.667 81.366 C 202.704 81.874,201.579 82.471,201.167 82.694 C 193.069 87.073,192.851 87.159,189.878 87.163 C 184.937 87.171,182.066 83.894,182.581 78.833 C 182.721 77.457,183.162 74.643,183.263 74.479 C 183.446 74.183,184.167 70.554,184.167 69.929 C 184.167 65.285,177.805 70.708,171.767 80.500 C 171.230 81.371,170.640 82.300,170.456 82.565 C 170.272 82.831,169.335 84.593,168.374 86.482 C 167.413 88.371,166.571 89.992,166.503 90.083 C 166.191 90.505,163.692 96.267,162.925 98.333 C 162.670 99.021,162.245 100.077,161.981 100.680 C 161.716 101.283,161.500 101.819,161.500 101.871 C 161.500 102.027,160.146 104.208,159.682 104.801 C 157.917 107.052,153.201 108.250,150.694 107.083 C 148.639 106.126,147.735 104.921,147.159 102.368 C 146.573 99.778,146.392 99.677,144.661 100.974 C 135.228 108.042,128.491 109.242,123.283 104.780 C 121.780 103.493,120.139 100.980,119.610 99.154 C 119.109 97.424,118.516 97.267,117.493 98.592 C 113.392 103.909,105.340 107.910,100.083 107.244 C 91.114 106.107,86.851 100.958,86.836 91.244 C 86.813 76.098,99.202 57.318,112.833 51.836 C 113.246 51.671,114.221 51.261,115.000 50.926 C 115.779 50.592,116.884 50.208,117.455 50.073 C 118.026 49.938,118.684 49.755,118.916 49.667 C 119.149 49.578,120.107 49.392,121.045 49.252 C 121.983 49.113,123.740 48.842,124.950 48.650 C 129.314 47.956,134.745 48.447,137.387 49.773 C 141.164 51.669,142.209 55.063,140.585 60.167 C 140.366 60.854,139.984 62.092,139.735 62.917 C 139.039 65.230,138.186 67.892,137.466 70.000 C 137.106 71.054,136.697 72.327,136.557 72.829 C 136.418 73.330,136.198 73.945,136.068 74.195 C 135.939 74.445,135.749 75.048,135.646 75.533 C 135.544 76.019,135.343 76.642,135.200 76.917 C 135.057 77.192,134.774 78.017,134.570 78.750 C 134.367 79.483,133.969 80.833,133.685 81.750 C 130.970 90.535,131.269 93.777,134.790 93.721 C 137.113 93.685,139.815 91.885,145.280 86.734 C 147.809 84.351,148.021 83.968,148.411 81.097 C 148.536 80.173,148.723 79.186,148.825 78.905 C 148.928 78.624,149.149 77.724,149.318 76.905 C 149.933 73.914,151.424 68.915,153.042 64.417 C 153.306 63.683,153.703 62.567,153.925 61.937 C 154.147 61.306,154.394 60.706,154.476 60.604 C 154.557 60.501,154.719 60.121,154.835 59.760 C 157.184 52.477,161.165 49.258,167.833 49.253 C 173.361 49.248,173.616 50.241,170.217 58.549 C 169.458 60.404,169.073 61.396,168.148 63.875 C 167.883 64.585,167.435 65.785,167.151 66.542 C 166.577 68.074,165.375 71.628,164.826 73.417 C 164.320 75.065,164.202 76.333,164.555 76.333 C 164.800 76.333,165.310 75.623,166.594 73.500 C 167.492 72.014,167.787 71.554,169.056 69.657 C 172.897 63.918,179.094 57.151,182.833 54.613 C 187.158 51.678,189.359 50.624,193.000 49.742 C 200.948 47.818,204.068 52.812,201.067 62.655 C 200.939 63.074,200.717 64.087,200.574 64.905 C 200.430 65.724,200.238 66.533,200.147 66.703 C 200.056 66.873,199.871 67.591,199.736 68.298 C 199.601 69.005,199.301 70.134,199.069 70.806 C 198.366 72.845,198.726 73.430,200.226 72.685 C 200.606 72.496,201.967 71.883,203.250 71.323 C 208.184 69.170,208.481 69.021,208.856 68.500 C 209.057 68.220,209.242 67.401,209.418 66.000 C 210.806 54.993,211.117 53.685,212.789 51.825 C 215.704 48.583,224.270 48.483,225.474 51.678 C 225.936 52.903,225.813 56.812,225.233 59.333 C 225.097 59.929,224.840 61.917,224.663 63.750 C 224.486 65.583,224.265 67.485,224.172 67.976 C 224.078 68.468,223.852 70.680,223.668 72.893 C 223.484 75.106,223.257 77.479,223.164 78.167 C 222.970 79.594,222.333 88.611,222.333 89.936 C 222.333 91.618,222.875 91.292,224.402 88.690 C 225.028 87.623,225.671 86.560,225.832 86.328 C 225.992 86.096,226.285 85.609,226.483 85.245 C 226.682 84.881,227.078 84.208,227.364 83.750 C 228.249 82.334,230.413 78.612,231.920 75.917 C 232.125 75.550,232.557 74.800,232.879 74.250 C 233.767 72.736,238.500 64.186,238.500 64.097 C 238.500 64.054,239.332 62.501,240.349 60.645 C 241.366 58.790,242.257 57.116,242.330 56.925 C 244.035 52.440,247.537 49.597,251.622 49.380 C 256.562 49.119,258.062 51.600,256.746 57.851 C 256.603 58.529,256.377 60.133,256.244 61.417 C 256.111 62.700,255.886 64.537,255.745 65.500 C 255.604 66.462,255.343 68.787,255.165 70.667 C 254.987 72.546,254.764 74.833,254.669 75.750 C 254.466 77.718,253.721 86.990,253.565 89.503 C 253.444 91.440,253.646 91.998,254.278 91.479 C 254.503 91.294,261.363 82.771,262.590 81.152 C 267.470 74.711,267.256 75.107,266.750 73.439 C 266.276 71.876,266.370 67.260,266.920 65.083 C 269.418 55.202,278.355 47.865,285.486 49.841 C 289.232 50.879,290.617 53.853,289.923 59.364 C 289.496 62.748,288.331 66.171,286.236 70.189 C 285.196 72.185,285.560 72.286,291.000 71.507 C 297.258 70.612,297.484 70.529,297.979 68.960 C 298.161 68.386,298.582 67.204,298.917 66.333 C 299.251 65.462,299.624 64.450,299.746 64.083 C 299.940 63.500,300.541 62.005,302.256 57.833 C 304.970 51.234,307.475 49.518,313.826 49.908 C 317.653 50.143,319.126 51.842,318.246 55.005 C 318.107 55.507,317.810 56.592,317.586 57.417 C 316.951 59.754,316.369 61.612,316.113 62.120 C 315.984 62.375,315.783 62.996,315.667 63.500 C 315.550 64.004,315.341 64.642,315.202 64.916 C 315.063 65.191,314.780 65.941,314.573 66.583 C 314.366 67.225,313.772 68.950,313.253 70.417 C 311.514 75.326,309.496 81.704,308.930 84.083 C 308.777 84.725,308.568 85.550,308.465 85.917 C 308.362 86.283,308.272 87.789,308.264 89.262 L 308.250 91.941 308.756 92.760 C 310.849 96.150,314.550 94.571,322.605 86.854 L 324.626 84.917 324.822 83.667 C 325.141 81.620,326.423 75.938,327.077 73.667 C 327.301 72.887,327.720 71.425,328.007 70.417 C 328.294 69.408,328.671 68.208,328.843 67.750 C 329.016 67.292,329.302 66.467,329.480 65.917 C 329.847 64.782,330.539 63.002,331.328 61.167 C 331.623 60.479,332.013 59.542,332.196 59.083 C 334.577 53.100,337.401 50.612,342.522 49.988 C 348.222 49.293,350.288 50.889,348.698 54.761 C 348.512 55.213,348.212 56.033,348.032 56.583 C 347.656 57.729,346.973 59.457,346.089 61.500 C 345.752 62.279,345.376 63.217,345.253 63.583 C 345.130 63.950,344.570 65.450,344.010 66.917 C 342.981 69.610,342.535 70.979,341.649 74.167 C 341.060 76.286,340.903 77.167,341.114 77.167 C 341.354 77.167,342.093 76.320,342.423 75.667 C 342.586 75.346,342.848 74.896,343.007 74.667 C 343.166 74.438,343.750 73.537,344.305 72.667 C 347.472 67.693,349.763 64.742,353.814 60.417 C 362.882 50.735,375.380 47.017,378.978 52.929 C 380.407 55.276,379.940 58.909,377.140 67.250 C 376.771 68.350,376.136 70.337,375.730 71.667 C 375.323 72.996,374.808 74.646,374.585 75.333 C 374.362 76.021,374.127 76.883,374.064 77.250 C 374.000 77.617,373.837 78.179,373.701 78.500 C 373.436 79.128,372.857 81.219,372.317 83.500 C 372.133 84.279,371.842 85.404,371.670 86.000 C 371.153 87.797,369.831 94.390,369.500 96.823 C 369.028 100.297,368.284 103.085,367.280 105.147 C 366.867 105.996,365.329 107.317,364.330 107.681 C 362.164 108.471,362.443 108.500,372.186 108.500 C 381.872 108.500,382.078 108.479,380.058 107.708 C 376.548 106.368,374.288 101.446,375.403 97.572 C 375.533 97.120,375.727 96.315,375.834 95.782 C 377.052 89.696,382.518 85.573,389.333 85.598 C 396.628 85.624,399.562 88.997,398.527 96.169 C 397.687 101.991,394.701 106.061,390.030 107.750 C 388.148 108.431,388.560 108.500,394.486 108.500 L 400.000 108.500 400.000 54.250 L 400.000 0.000 230.792 0.005 C 82.648 0.010,61.623 0.041,61.904 0.253 C 62.264 0.525,62.524 0.575,65.000 0.842 C 65.962 0.946,67.425 1.205,68.250 1.418 C 69.075 1.630,70.050 1.854,70.417 1.914 C 76.177 2.855,85.234 7.987,89.227 12.573 C 91.394 15.061,94.249 19.591,94.748 21.333 C 94.814 21.563,95.042 22.162,95.254 22.667 C 97.268 27.439,98.251 38.386,97.171 43.991 C 97.075 44.491,96.884 45.766,96.747 46.825 C 96.328 50.068,95.069 55.425,93.866 59.083 C 93.064 61.523,91.666 65.382,91.516 65.573 C 91.439 65.670,91.281 66.050,91.163 66.417 C 90.956 67.065,88.785 71.401,87.659 73.417 C 83.579 80.719,75.989 89.261,69.712 93.616 C 68.725 94.300,66.804 95.575,65.917 96.134 C 65.550 96.365,64.942 96.763,64.566 97.020 C 62.932 98.133,55.868 101.510,53.917 102.111 C 53.458 102.252,52.993 102.441,52.882 102.531 C 52.274 103.028,44.101 105.097,40.167 105.751 C 39.296 105.896,37.983 106.121,37.250 106.252 C 31.517 107.271,17.683 107.270,11.750 106.250 C 11.017 106.124,9.892 105.970,9.250 105.909 C 3.915 105.398,1.165 103.315,1.167 99.785 C 1.168 98.208,2.190 93.111,3.246 89.417 C 3.456 88.683,3.831 87.296,4.079 86.333 C 4.741 83.761,5.446 81.251,5.904 79.833 C 6.126 79.146,6.356 78.321,6.415 78.000 C 6.474 77.679,6.697 76.892,6.911 76.250 C 7.126 75.608,7.581 74.183,7.924 73.083 C 8.718 70.531,12.084 60.348,12.496 59.250 C 12.668 58.792,12.955 57.967,13.134 57.417 C 13.313 56.867,13.697 55.779,13.986 55.000 C 14.275 54.221,14.688 53.096,14.903 52.500 C 15.483 50.891,16.912 47.104,17.511 45.583 C 17.801 44.850,18.247 43.688,18.503 43.000 C 19.408 40.573,20.261 38.408,21.000 36.667 C 21.175 36.254,21.628 35.129,22.007 34.167 C 24.379 28.137,26.375 26.792,33.532 26.399 C 41.027 25.987,42.534 28.563,39.053 35.833 C 38.636 36.704,38.190 37.710,38.062 38.069 C 37.934 38.428,37.753 38.813,37.659 38.926 C 37.566 39.038,37.304 39.588,37.078 40.148 C 36.852 40.708,36.471 41.635,36.232 42.208 C 35.735 43.398,34.957 45.361,34.498 46.583 C 34.326 47.042,33.914 48.129,33.582 49.000 C 33.250 49.871,32.801 51.108,32.583 51.750 C 32.366 52.392,31.965 53.517,31.693 54.250 C 31.075 55.911,29.253 61.103,28.856 62.333 C 28.081 64.731,26.149 70.701,25.835 71.667 C 25.641 72.262,25.372 73.200,25.237 73.750 C 25.102 74.300,24.880 75.012,24.742 75.333 C 24.509 75.879,24.227 76.831,23.264 80.333 C 20.553 90.184,20.153 91.963,20.556 92.365 C 21.200 93.010,30.203 93.186,35.574 92.659 C 40.586 92.166,46.879 90.460,50.917 88.497 C 51.283 88.318,51.846 88.063,52.167 87.929 C 52.487 87.795,52.975 87.550,53.250 87.385 C 53.525 87.220,54.310 86.755,54.994 86.352 C 61.791 82.351,67.191 76.056,72.768 65.634 C 74.002 63.328,77.000 54.956,77.000 53.817 C 77.000 53.652,77.184 52.932,77.408 52.217 C 77.632 51.502,77.864 50.504,77.923 50.000 C 77.982 49.496,78.170 48.558,78.341 47.917 C 78.834 46.064,79.333 41.564,79.334 38.972 C 79.334 36.200,78.869 32.467,78.316 30.789 C 78.050 29.986,77.833 29.251,77.833 29.157 C 77.833 28.639,76.166 25.398,75.181 24.000 C 68.472 14.488,51.746 11.440,33.583 16.419 C 30.360 17.302,27.939 18.023,27.613 18.197 C 27.446 18.285,26.884 18.469,26.363 18.604 C 25.843 18.739,25.267 18.948,25.083 19.067 C 24.900 19.185,24.450 19.379,24.083 19.497 C 23.717 19.615,23.080 19.889,22.668 20.106 C 22.256 20.323,21.839 20.500,21.742 20.500 C 21.366 20.500,15.770 23.187,13.298 24.554 C 7.544 27.737,4.730 26.675,4.763 21.333 C 4.799 15.345,6.858 13.161,17.250 8.088 C 20.445 6.528,20.452 6.525,24.667 5.080 C 30.132 3.207,38.550 1.281,43.250 0.829 C 45.410 0.622,46.428 0.418,46.586 0.162 C 46.651 0.057,38.428 0.000,23.343 0.000 L 0.000 0.000 0.000 54.250 M324.083 22.951 C 326.514 23.630,327.874 24.565,329.001 26.330 L 329.583 27.243 329.575 29.746 C 329.547 38.017,321.267 43.427,312.311 41.028 C 307.855 39.834,305.985 35.731,307.665 30.837 C 309.789 24.653,317.287 21.051,324.083 22.951 M394.369 23.051 C 399.816 25.688,399.917 33.055,394.544 35.698 C 392.890 36.512,389.839 36.529,388.164 35.735 C 383.853 33.692,382.771 27.936,386.057 24.532 C 388.260 22.249,391.515 21.669,394.369 23.051 M389.267 24.079 C 385.865 25.477,384.839 30.214,387.325 33.036 C 389.230 35.197,392.740 35.520,394.521 33.698 C 394.761 33.451,395.167 33.063,395.422 32.833 C 396.980 31.437,397.107 27.945,395.673 25.951 C 394.190 23.888,391.583 23.127,389.267 24.079 M393.061 26.063 C 394.294 26.579,394.651 27.717,393.917 28.798 C 393.405 29.551,393.404 29.604,393.897 30.531 C 394.417 31.509,394.553 32.173,394.344 32.721 C 393.999 33.628,392.795 32.990,392.478 31.732 C 392.057 30.059,390.366 30.019,390.101 31.676 C 389.898 32.945,389.255 33.455,388.839 32.678 C 388.455 31.960,388.623 26.383,389.037 26.093 C 389.523 25.753,392.269 25.732,393.061 26.063 M391.083 27.134 C 390.556 27.242,390.333 27.504,390.333 28.015 C 390.333 28.782,391.644 29.166,392.238 28.571 C 392.929 27.880,392.154 26.915,391.083 27.134 M122.687 60.920 C 122.010 61.148,121.375 61.333,121.275 61.333 C 121.176 61.333,120.325 61.712,119.383 62.175 C 112.650 65.488,106.137 74.258,103.979 82.917 C 103.796 83.650,103.526 84.700,103.378 85.250 C 103.185 85.972,103.106 87.044,103.097 89.101 L 103.083 91.953 103.649 92.782 C 105.837 95.992,110.750 95.129,114.129 90.942 C 116.861 87.556,118.501 83.716,122.286 71.833 C 122.417 71.421,122.701 70.596,122.917 70.000 C 123.132 69.404,123.415 68.579,123.544 68.167 C 123.674 67.754,124.246 66.039,124.816 64.356 C 125.385 62.673,125.829 61.135,125.801 60.940 C 125.723 60.395,124.277 60.386,122.687 60.920 M358.070 69.816 C 356.826 70.381,353.189 74.255,351.013 77.333 C 350.169 78.527,346.201 84.818,345.546 86.000 C 344.270 88.303,342.945 90.887,342.087 92.750 C 341.748 93.483,341.292 94.458,341.072 94.917 C 340.852 95.375,340.456 96.275,340.192 96.917 C 337.000 104.673,335.869 106.499,333.553 107.635 C 331.751 108.518,331.524 108.500,344.255 108.500 C 356.305 108.500,356.609 108.483,355.479 107.867 C 352.531 106.261,352.038 102.793,353.758 95.750 C 353.892 95.200,354.149 94.058,354.330 93.213 C 354.511 92.368,354.766 91.418,354.897 91.104 C 355.029 90.789,355.223 90.093,355.328 89.557 C 355.434 89.022,355.637 88.283,355.781 87.917 C 355.924 87.550,356.213 86.612,356.423 85.833 C 356.959 83.844,358.261 79.412,358.600 78.417 C 358.757 77.958,358.979 77.171,359.094 76.667 C 359.209 76.162,359.490 75.036,359.720 74.162 C 360.320 71.877,360.360 70.360,359.833 69.833 C 359.421 69.421,358.950 69.417,358.070 69.816 M275.558 84.438 C 275.453 84.481,274.929 85.094,274.393 85.800 C 263.400 100.288,256.418 106.808,250.800 107.831 C 247.280 108.472,247.897 108.489,275.292 108.495 C 290.244 108.498,301.500 108.437,301.500 108.354 C 301.500 108.183,300.889 107.927,299.843 107.659 C 294.123 106.195,291.127 97.438,292.929 87.451 C 293.255 85.643,293.152 85.288,292.311 85.311 C 282.695 85.577,281.723 85.537,278.377 84.740 C 276.743 84.350,275.974 84.268,275.558 84.438 M321.454 101.625 C 318.074 104.243,312.704 107.153,310.314 107.661 C 306.937 108.379,307.983 108.500,317.583 108.500 C 327.076 108.500,326.972 108.510,325.823 107.679 C 324.487 106.711,323.295 104.490,323.019 102.455 C 322.822 101.003,322.487 100.825,321.454 101.625 " stroke="none" fill="#fbfbfb" fill-rule="evenodd"></path></g></svg>